<?xml version="1.0" encoding="UTF-8" standalone="no"?>
<!DOCTYPE svg PUBLIC "-//W3C//DTD SVG 1.1//EN"
 "http://www.w3.org/Graphics/SVG/1.1/DTD/svg11.dtd">
<!-- Generated by graphviz version 14.1.2 (0)
 -->
<!-- Title: api_contracts Pages: 1 -->
<svg width="6215pt" height="1143pt"
 viewBox="0.00 0.00 6215.00 1143.00" xmlns="http://www.w3.org/2000/svg" xmlns:xlink="http://www.w3.org/1999/xlink">
<g id="graph0" class="graph" transform="scale(1 1) rotate(0) translate(4 1138.5)">
<title>api_contracts</title>
<polygon fill="white" stroke="none" points="-4,4 -4,-1138.5 6210.88,-1138.5 6210.88,4 -4,4"/>
<text xml:space="preserve" text-anchor="middle" x="3103.44" y="-1117.2" font-family="Times,serif" font-size="14.00">api&#45;contracts</text>
<!-- args -->
<g id="node1" class="node">
<title>args</title>
<path fill="none" stroke="black" d="M1773,-1109.25C1773,-1109.25 1692.5,-1109.25 1692.5,-1109.25 1686.5,-1109.25 1680.5,-1103.25 1680.5,-1097.25 1680.5,-1097.25 1680.5,-1085.25 1680.5,-1085.25 1680.5,-1079.25 1686.5,-1073.25 1692.5,-1073.25 1692.5,-1073.25 1773,-1073.25 1773,-1073.25 1779,-1073.25 1785,-1079.25 1785,-1085.25 1785,-1085.25 1785,-1097.25 1785,-1097.25 1785,-1103.25 1779,-1109.25 1773,-1109.25"/>
<text xml:space="preserve" text-anchor="middle" x="1732.75" y="-1086.58" font-family="Times,serif" font-size="14.00">std env args</text>
</g>
<!-- crawl -->
<g id="node2" class="node">
<title>crawl</title>
<path fill="none" stroke="black" d="M1549,-1036.25C1549,-1036.25 1432.5,-1036.25 1432.5,-1036.25 1426.5,-1036.25 1420.5,-1030.25 1420.5,-1024.25 1420.5,-1024.25 1420.5,-1012.25 1420.5,-1012.25 1420.5,-1006.25 1426.5,-1000.25 1432.5,-1000.25 1432.5,-1000.25 1549,-1000.25 1549,-1000.25 1555,-1000.25 1561,-1006.25 1561,-1012.25 1561,-1012.25 1561,-1024.25 1561,-1024.25 1561,-1030.25 1555,-1036.25 1549,-1036.25"/>
<text xml:space="preserve" text-anchor="middle" x="1490.75" y="-1013.58" font-family="Times,serif" font-size="14.00">crawl or dungeon</text>
</g>
<!-- args&#45;&gt;crawl -->
<g id="edge1" class="edge">
<title>args&#45;&gt;crawl</title>
<path fill="none" stroke="black" d="M1680.24,-1074.84C1645.45,-1064.64 1599.39,-1051.12 1561.39,-1039.98"/>
<polygon fill="black" stroke="black" points="1562.43,-1036.63 1551.85,-1037.17 1560.46,-1043.35 1562.43,-1036.63"/>
</g>
<!-- update -->
<g id="node3" class="node">
<title>update</title>
<path fill="none" stroke="black" d="M1662.5,-1036.25C1662.5,-1036.25 1621,-1036.25 1621,-1036.25 1615,-1036.25 1609,-1030.25 1609,-1024.25 1609,-1024.25 1609,-1012.25 1609,-1012.25 1609,-1006.25 1615,-1000.25 1621,-1000.25 1621,-1000.25 1662.5,-1000.25 1662.5,-1000.25 1668.5,-1000.25 1674.5,-1006.25 1674.5,-1012.25 1674.5,-1012.25 1674.5,-1024.25 1674.5,-1024.25 1674.5,-1030.25 1668.5,-1036.25 1662.5,-1036.25"/>
<text xml:space="preserve" text-anchor="middle" x="1641.75" y="-1013.58" font-family="Times,serif" font-size="14.00">update</text>
</g>
<!-- args&#45;&gt;update -->
<g id="edge3" class="edge">
<title>args&#45;&gt;update</title>
<path fill="none" stroke="black" d="M1710.72,-1073.06C1699.29,-1064.15 1685.14,-1053.11 1672.64,-1043.35"/>
<polygon fill="black" stroke="black" points="1675.12,-1040.85 1665.08,-1037.46 1670.82,-1046.37 1675.12,-1040.85"/>
</g>
<!-- help -->
<g id="node4" class="node">
<title>help</title>
<path fill="none" stroke="black" d="M1828.38,-1036.25C1828.38,-1036.25 1729.12,-1036.25 1729.12,-1036.25 1723.12,-1036.25 1717.12,-1030.25 1717.12,-1024.25 1717.12,-1024.25 1717.12,-1012.25 1717.12,-1012.25 1717.12,-1006.25 1723.12,-1000.25 1729.12,-1000.25 1729.12,-1000.25 1828.38,-1000.25 1828.38,-1000.25 1834.38,-1000.25 1840.38,-1006.25 1840.38,-1012.25 1840.38,-1012.25 1840.38,-1024.25 1840.38,-1024.25 1840.38,-1030.25 1834.38,-1036.25 1828.38,-1036.25"/>
<text xml:space="preserve" text-anchor="middle" x="1778.75" y="-1013.58" font-family="Times,serif" font-size="14.00">help or version</text>
</g>
<!-- args&#45;&gt;help -->
<g id="edge5" class="edge">
<title>args&#45;&gt;help</title>
<path fill="none" stroke="black" d="M1743.89,-1073.06C1749.2,-1064.87 1755.67,-1054.87 1761.59,-1045.73"/>
<polygon fill="black" stroke="black" points="1764.39,-1047.84 1766.89,-1037.55 1758.52,-1044.04 1764.39,-1047.84"/>
</g>
<!-- repl -->
<g id="node5" class="node">
<title>repl</title>
<path fill="none" stroke="black" d="M3017.12,-1036.25C3017.12,-1036.25 2928.38,-1036.25 2928.38,-1036.25 2922.38,-1036.25 2916.38,-1030.25 2916.38,-1024.25 2916.38,-1024.25 2916.38,-1012.25 2916.38,-1012.25 2916.38,-1006.25 2922.38,-1000.25 2928.38,-1000.25 2928.38,-1000.25 3017.12,-1000.25 3017.12,-1000.25 3023.12,-1000.25 3029.12,-1006.25 3029.12,-1012.25 3029.12,-1012.25 3029.12,-1024.25 3029.12,-1024.25 3029.12,-1030.25 3023.12,-1036.25 3017.12,-1036.25"/>
<text xml:space="preserve" text-anchor="middle" x="2972.75" y="-1013.58" font-family="Times,serif" font-size="14.00">REPL startup</text>
</g>
<!-- args&#45;&gt;repl -->
<g id="edge7" class="edge">
<title>args&#45;&gt;repl</title>
<path fill="none" stroke="black" d="M1785.24,-1087.24C1982.91,-1075.93 2682.5,-1035.87 2904.57,-1023.15"/>
<polygon fill="black" stroke="black" points="2904.73,-1026.65 2914.51,-1022.58 2904.33,-1019.66 2904.73,-1026.65"/>
</g>
<!-- parse -->
<g id="node6" class="node">
<title>parse</title>
<path fill="none" stroke="black" d="M985.75,-963.25C985.75,-963.25 759.75,-963.25 759.75,-963.25 753.75,-963.25 747.75,-957.25 747.75,-951.25 747.75,-951.25 747.75,-939.25 747.75,-939.25 747.75,-933.25 753.75,-927.25 759.75,-927.25 759.75,-927.25 985.75,-927.25 985.75,-927.25 991.75,-927.25 997.75,-933.25 997.75,-939.25 997.75,-939.25 997.75,-951.25 997.75,-951.25 997.75,-957.25 991.75,-963.25 985.75,-963.25"/>
<text xml:space="preserve" text-anchor="middle" x="872.75" y="-940.58" font-family="Times,serif" font-size="14.00">dungeon::cli::parse to CrawlArgs</text>
</g>
<!-- crawl&#45;&gt;parse -->
<g id="edge2" class="edge">
<title>crawl&#45;&gt;parse</title>
<path fill="none" stroke="black" d="M1420.16,-1009.14C1320.48,-997.69 1136.48,-976.55 1009.5,-961.96"/>
<polygon fill="black" stroke="black" points="1010,-958.5 999.67,-960.83 1009.2,-965.45 1010,-958.5"/>
</g>
<!-- update_run -->
<g id="node9" class="node">
<title>update_run</title>
<path fill="none" stroke="black" d="M1713.62,-963.25C1713.62,-963.25 1543.88,-963.25 1543.88,-963.25 1537.88,-963.25 1531.88,-957.25 1531.88,-951.25 1531.88,-951.25 1531.88,-939.25 1531.88,-939.25 1531.88,-933.25 1537.88,-927.25 1543.88,-927.25 1543.88,-927.25 1713.62,-927.25 1713.62,-927.25 1719.62,-927.25 1725.62,-933.25 1725.62,-939.25 1725.62,-939.25 1725.62,-951.25 1725.62,-951.25 1725.62,-957.25 1719.62,-963.25 1713.62,-963.25"/>
<text xml:space="preserve" text-anchor="middle" x="1628.75" y="-940.58" font-family="Times,serif" font-size="14.00">update::run_update_with</text>
</g>
<!-- update&#45;&gt;update_run -->
<g id="edge4" class="edge">
<title>update&#45;&gt;update_run</title>
<path fill="none" stroke="black" d="M1638.6,-1000.06C1637.2,-992.39 1635.5,-983.14 1633.92,-974.49"/>
<polygon fill="black" stroke="black" points="1637.38,-973.97 1632.14,-964.77 1630.5,-975.23 1637.38,-973.97"/>
</g>
<!-- text -->
<g id="node10" class="node">
<title>text</title>
<path fill="none" stroke="black" d="M1827.88,-963.25C1827.88,-963.25 1755.62,-963.25 1755.62,-963.25 1749.62,-963.25 1743.62,-957.25 1743.62,-951.25 1743.62,-951.25 1743.62,-939.25 1743.62,-939.25 1743.62,-933.25 1749.62,-927.25 1755.62,-927.25 1755.62,-927.25 1827.88,-927.25 1827.88,-927.25 1833.88,-927.25 1839.88,-933.25 1839.88,-939.25 1839.88,-939.25 1839.88,-951.25 1839.88,-951.25 1839.88,-957.25 1833.88,-963.25 1827.88,-963.25"/>
<text xml:space="preserve" text-anchor="middle" x="1791.75" y="-940.58" font-family="Times,serif" font-size="14.00">text output</text>
</g>
<!-- help&#45;&gt;text -->
<g id="edge6" class="edge">
<title>help&#45;&gt;text</title>
<path fill="none" stroke="black" d="M1781.9,-1000.06C1783.3,-992.39 1785,-983.14 1786.58,-974.49"/>
<polygon fill="black" stroke="black" points="1790,-975.23 1788.36,-964.77 1783.12,-973.97 1790,-975.23"/>
</g>
<!-- parser -->
<g id="node41" class="node">
<title>parser</title>
<path fill="none" stroke="black" d="M3630.38,-963.25C3630.38,-963.25 3543.12,-963.25 3543.12,-963.25 3537.12,-963.25 3531.12,-957.25 3531.12,-951.25 3531.12,-951.25 3531.12,-939.25 3531.12,-939.25 3531.12,-933.25 3537.12,-927.25 3543.12,-927.25 3543.12,-927.25 3630.38,-927.25 3630.38,-927.25 3636.38,-927.25 3642.38,-933.25 3642.38,-939.25 3642.38,-939.25 3642.38,-951.25 3642.38,-951.25 3642.38,-957.25 3636.38,-963.25 3630.38,-963.25"/>
<text xml:space="preserve" text-anchor="middle" x="3586.75" y="-940.58" font-family="Times,serif" font-size="14.00">parser::parse</text>
</g>
<!-- repl&#45;&gt;parser -->
<g id="edge52" class="edge">
<title>repl&#45;&gt;parser</title>
<path fill="none" stroke="black" d="M3029.41,-1010.7C3142.87,-997.58 3397.48,-968.14 3519.3,-954.05"/>
<polygon fill="black" stroke="black" points="3519.63,-957.53 3529.16,-952.91 3518.83,-950.58 3519.63,-957.53"/>
</g>
<!-- backend -->
<g id="node11" class="node">
<title>backend</title>
<path fill="none" stroke="black" d="M191.5,-874C191.5,-874 12,-874 12,-874 6,-874 0,-868 0,-862 0,-862 0,-850 0,-850 0,-844 6,-838 12,-838 12,-838 191.5,-838 191.5,-838 197.5,-838 203.5,-844 203.5,-850 203.5,-850 203.5,-862 203.5,-862 203.5,-868 197.5,-874 191.5,-874"/>
<text xml:space="preserve" text-anchor="middle" x="101.75" y="-851.33" font-family="Times,serif" font-size="14.00">&#45;&#45;backend, &#45;b default mock</text>
</g>
<!-- parse&#45;&gt;backend -->
<g id="edge8" class="edge">
<title>parse&#45;&gt;backend</title>
<path fill="none" stroke="black" d="M747.28,-939.91C644.83,-935.32 496.48,-926.29 367.75,-909.25 307.44,-901.27 240.21,-888.03 188.44,-876.87"/>
<polygon fill="black" stroke="black" points="189.29,-873.47 178.77,-874.77 187.8,-880.31 189.29,-873.47"/>
</g>
<!-- serve -->
<g id="node12" class="node">
<title>serve</title>
<path fill="none" stroke="black" d="M273.75,-874C273.75,-874 233.75,-874 233.75,-874 227.75,-874 221.75,-868 221.75,-862 221.75,-862 221.75,-850 221.75,-850 221.75,-844 227.75,-838 233.75,-838 233.75,-838 273.75,-838 273.75,-838 279.75,-838 285.75,-844 285.75,-850 285.75,-850 285.75,-862 285.75,-862 285.75,-868 279.75,-874 273.75,-874"/>
<text xml:space="preserve" text-anchor="middle" x="253.75" y="-851.33" font-family="Times,serif" font-size="14.00">&#45;&#45;serve</text>
</g>
<!-- parse&#45;&gt;serve -->
<g id="edge10" class="edge">
<title>parse&#45;&gt;serve</title>
<path fill="none" stroke="black" d="M747.29,-939.44C631.51,-932.62 455.29,-916.2 297.04,-874.25"/>
<polygon fill="black" stroke="black" points="298.19,-870.93 287.62,-871.71 296.37,-877.69 298.19,-870.93"/>
</g>
<!-- port -->
<g id="node13" class="node">
<title>port</title>
<path fill="none" stroke="black" d="M428.12,-874C428.12,-874 315.38,-874 315.38,-874 309.38,-874 303.38,-868 303.38,-862 303.38,-862 303.38,-850 303.38,-850 303.38,-844 309.38,-838 315.38,-838 315.38,-838 428.12,-838 428.12,-838 434.12,-838 440.12,-844 440.12,-850 440.12,-850 440.12,-862 440.12,-862 440.12,-868 434.12,-874 428.12,-874"/>
<text xml:space="preserve" text-anchor="middle" x="371.75" y="-851.33" font-family="Times,serif" font-size="14.00">&#45;&#45;port n default 0</text>
</g>
<!-- parse&#45;&gt;port -->
<g id="edge12" class="edge">
<title>parse&#45;&gt;port</title>
<path fill="none" stroke="black" d="M757.28,-926.81C674.69,-913.95 560.65,-895.37 451.76,-874.54"/>
<polygon fill="black" stroke="black" points="452.53,-871.12 442.05,-872.67 451.2,-877.99 452.53,-871.12"/>
</g>
<!-- out -->
<g id="node14" class="node">
<title>out</title>
<path fill="none" stroke="black" d="M531.25,-874C531.25,-874 470.25,-874 470.25,-874 464.25,-874 458.25,-868 458.25,-862 458.25,-862 458.25,-850 458.25,-850 458.25,-844 464.25,-838 470.25,-838 470.25,-838 531.25,-838 531.25,-838 537.25,-838 543.25,-844 543.25,-850 543.25,-850 543.25,-862 543.25,-862 543.25,-868 537.25,-874 531.25,-874"/>
<text xml:space="preserve" text-anchor="middle" x="500.75" y="-851.33" font-family="Times,serif" font-size="14.00">&#45;&#45;out path</text>
</g>
<!-- parse&#45;&gt;out -->
<g id="edge14" class="edge">
<title>parse&#45;&gt;out</title>
<path fill="none" stroke="black" d="M821.8,-926.82C786.73,-915.42 738.87,-901.02 695.75,-892 636.36,-879.58 617.26,-887.12 554.59,-874.11"/>
<polygon fill="black" stroke="black" points="555.7,-870.77 545.18,-872.06 554.21,-877.61 555.7,-870.77"/>
</g>
<!-- budget -->
<g id="node15" class="node">
<title>budget</title>
<path fill="none" stroke="black" d="M837.88,-874C837.88,-874 573.62,-874 573.62,-874 567.62,-874 561.62,-868 561.62,-862 561.62,-862 561.62,-850 561.62,-850 561.62,-844 567.62,-838 573.62,-838 573.62,-838 837.88,-838 837.88,-838 843.88,-838 849.88,-844 849.88,-850 849.88,-850 849.88,-862 849.88,-862 849.88,-868 843.88,-874 837.88,-874"/>
<text xml:space="preserve" text-anchor="middle" x="705.75" y="-851.33" font-family="Times,serif" font-size="14.00">&#45;&#45;budget n default DEFAULT_BUDGET</text>
</g>
<!-- parse&#45;&gt;budget -->
<g id="edge16" class="edge">
<title>parse&#45;&gt;budget</title>
<path fill="none" stroke="black" d="M854.33,-926.87C841.71,-915.71 824.18,-901.56 806.75,-892 797.51,-886.93 787.4,-882.39 777.26,-878.39"/>
<polygon fill="black" stroke="black" points="778.73,-875.21 768.14,-874.96 776.26,-881.76 778.73,-875.21"/>
</g>
<!-- playwright -->
<g id="node16" class="node">
<title>playwright</title>
<path fill="none" stroke="black" d="M957.88,-874C957.88,-874 879.62,-874 879.62,-874 873.62,-874 867.62,-868 867.62,-862 867.62,-862 867.62,-850 867.62,-850 867.62,-844 873.62,-838 879.62,-838 879.62,-838 957.88,-838 957.88,-838 963.88,-838 969.88,-844 969.88,-850 969.88,-850 969.88,-862 969.88,-862 969.88,-868 963.88,-874 957.88,-874"/>
<text xml:space="preserve" text-anchor="middle" x="918.75" y="-851.33" font-family="Times,serif" font-size="14.00">&#45;&#45;playwright</text>
</g>
<!-- parse&#45;&gt;playwright -->
<g id="edge18" class="edge">
<title>parse&#45;&gt;playwright</title>
<path fill="none" stroke="black" d="M881.84,-927.01C888.26,-914.82 897.01,-898.23 904.38,-884.26"/>
<polygon fill="black" stroke="black" points="907.41,-886.02 908.97,-875.54 901.22,-882.75 907.41,-886.02"/>
</g>
<!-- mock_size -->
<g id="node17" class="node">
<title>mock_size</title>
<path fill="none" stroke="black" d="M1283.62,-874C1283.62,-874 999.88,-874 999.88,-874 993.88,-874 987.88,-868 987.88,-862 987.88,-862 987.88,-850 987.88,-850 987.88,-844 993.88,-838 999.88,-838 999.88,-838 1283.62,-838 1283.62,-838 1289.62,-838 1295.62,-844 1295.62,-850 1295.62,-850 1295.62,-862 1295.62,-862 1295.62,-868 1289.62,-874 1283.62,-874"/>
<text xml:space="preserve" text-anchor="middle" x="1141.75" y="-851.33" font-family="Times,serif" font-size="14.00">&#45;&#45;mock&#45;size presets or COUNTxPER seed</text>
</g>
<!-- parse&#45;&gt;mock_size -->
<g id="edge20" class="edge">
<title>parse&#45;&gt;mock_size</title>
<path fill="none" stroke="black" d="M926.54,-926.8C969.97,-912.72 1031.23,-892.85 1077.29,-877.91"/>
<polygon fill="black" stroke="black" points="1078.18,-881.3 1086.61,-874.88 1076.02,-874.64 1078.18,-881.3"/>
</g>
<!-- snapshot -->
<g id="node18" class="node">
<title>snapshot</title>
<path fill="none" stroke="black" d="M1427.88,-874C1427.88,-874 1325.62,-874 1325.62,-874 1319.62,-874 1313.62,-868 1313.62,-862 1313.62,-862 1313.62,-850 1313.62,-850 1313.62,-844 1319.62,-838 1325.62,-838 1325.62,-838 1427.88,-838 1427.88,-838 1433.88,-838 1439.88,-844 1439.88,-850 1439.88,-850 1439.88,-862 1439.88,-862 1439.88,-868 1433.88,-874 1427.88,-874"/>
<text xml:space="preserve" text-anchor="middle" x="1376.75" y="-851.33" font-family="Times,serif" font-size="14.00">&#45;&#45;snapshot path</text>
</g>
<!-- parse&#45;&gt;snapshot -->
<g id="edge22" class="edge">
<title>parse&#45;&gt;snapshot</title>
<path fill="none" stroke="black" d="M994.66,-926.78C1078.55,-914.2 1192.73,-895.99 1301.96,-874.49"/>
<polygon fill="black" stroke="black" points="1302.59,-877.93 1311.72,-872.56 1301.23,-871.07 1302.59,-877.93"/>
</g>
<!-- diff -->
<g id="node19" class="node">
<title>diff</title>
<path fill="none" stroke="black" d="M1553.88,-874C1553.88,-874 1469.62,-874 1469.62,-874 1463.62,-874 1457.62,-868 1457.62,-862 1457.62,-862 1457.62,-850 1457.62,-850 1457.62,-844 1463.62,-838 1469.62,-838 1469.62,-838 1553.88,-838 1553.88,-838 1559.88,-838 1565.88,-844 1565.88,-850 1565.88,-850 1565.88,-862 1565.88,-862 1565.88,-868 1559.88,-874 1553.88,-874"/>
<text xml:space="preserve" text-anchor="middle" x="1511.75" y="-851.33" font-family="Times,serif" font-size="14.00">&#45;&#45;diff old new</text>
</g>
<!-- parse&#45;&gt;diff -->
<g id="edge24" class="edge">
<title>parse&#45;&gt;diff</title>
<path fill="none" stroke="black" d="M998.02,-934.32C1112.64,-924 1286.9,-905.22 1446.26,-874.35"/>
<polygon fill="black" stroke="black" points="1446.6,-877.85 1455.74,-872.5 1445.25,-870.98 1446.6,-877.85"/>
</g>
<!-- run_crawl -->
<g id="node7" class="node">
<title>run_crawl</title>
<path fill="none" stroke="black" d="M634,-801C634,-801 571.5,-801 571.5,-801 565.5,-801 559.5,-795 559.5,-789 559.5,-789 559.5,-777 559.5,-777 559.5,-771 565.5,-765 571.5,-765 571.5,-765 634,-765 634,-765 640,-765 646,-771 646,-777 646,-777 646,-789 646,-789 646,-795 640,-801 634,-801"/>
<text xml:space="preserve" text-anchor="middle" x="602.75" y="-778.33" font-family="Times,serif" font-size="14.00">run_crawl</text>
</g>
<!-- runner -->
<g id="node20" class="node">
<title>runner</title>
<path fill="none" stroke="black" d="M762.62,-728C762.62,-728 442.88,-728 442.88,-728 436.88,-728 430.88,-722 430.88,-716 430.88,-716 430.88,-704 430.88,-704 430.88,-698 436.88,-692 442.88,-692 442.88,-692 762.62,-692 762.62,-692 768.62,-692 774.62,-698 774.62,-704 774.62,-704 774.62,-716 774.62,-716 774.62,-722 768.62,-728 762.62,-728"/>
<text xml:space="preserve" text-anchor="middle" x="602.75" y="-705.33" font-family="Times,serif" font-size="14.00">ProcessAzRunner or mock_gen FakeAzRunner</text>
</g>
<!-- run_crawl&#45;&gt;runner -->
<g id="edge26" class="edge">
<title>run_crawl&#45;&gt;runner</title>
<path fill="none" stroke="black" d="M602.75,-764.81C602.75,-757.23 602.75,-748.1 602.75,-739.54"/>
<polygon fill="black" stroke="black" points="606.25,-739.54 602.75,-729.54 599.25,-739.54 606.25,-739.54"/>
</g>
<!-- run_diff -->
<g id="node8" class="node">
<title>run_diff</title>
<path fill="none" stroke="black" d="M1558,-801C1558,-801 1465.5,-801 1465.5,-801 1459.5,-801 1453.5,-795 1453.5,-789 1453.5,-789 1453.5,-777 1453.5,-777 1453.5,-771 1459.5,-765 1465.5,-765 1465.5,-765 1558,-765 1558,-765 1564,-765 1570,-771 1570,-777 1570,-777 1570,-789 1570,-789 1570,-795 1564,-801 1558,-801"/>
<text xml:space="preserve" text-anchor="middle" x="1511.75" y="-778.33" font-family="Times,serif" font-size="14.00">run_crawl_diff</text>
</g>
<!-- read_snap -->
<g id="node26" class="node">
<title>read_snap</title>
<path fill="none" stroke="black" d="M1575.25,-728C1575.25,-728 1448.25,-728 1448.25,-728 1442.25,-728 1436.25,-722 1436.25,-716 1436.25,-716 1436.25,-704 1436.25,-704 1436.25,-698 1442.25,-692 1448.25,-692 1448.25,-692 1575.25,-692 1575.25,-692 1581.25,-692 1587.25,-698 1587.25,-704 1587.25,-704 1587.25,-716 1587.25,-716 1587.25,-722 1581.25,-728 1575.25,-728"/>
<text xml:space="preserve" text-anchor="middle" x="1511.75" y="-705.33" font-family="Times,serif" font-size="14.00">read snapshot files</text>
</g>
<!-- run_diff&#45;&gt;read_snap -->
<g id="edge32" class="edge">
<title>run_diff&#45;&gt;read_snap</title>
<path fill="none" stroke="black" d="M1511.75,-764.81C1511.75,-757.23 1511.75,-748.1 1511.75,-739.54"/>
<polygon fill="black" stroke="black" points="1515.25,-739.54 1511.75,-729.54 1508.25,-739.54 1515.25,-739.54"/>
</g>
<!-- backend&#45;&gt;run_crawl -->
<g id="edge9" class="edge">
<title>backend&#45;&gt;run_crawl</title>
<path fill="none" stroke="black" d="M203.96,-839.29C206.92,-838.85 209.86,-838.42 212.75,-838 332.25,-820.58 472.57,-801.48 548.05,-791.32"/>
<polygon fill="black" stroke="black" points="548.2,-794.83 557.65,-790.03 547.27,-787.89 548.2,-794.83"/>
</g>
<!-- serve&#45;&gt;run_crawl -->
<g id="edge11" class="edge">
<title>serve&#45;&gt;run_crawl</title>
<path fill="none" stroke="black" d="M286.19,-840.79C289.06,-839.77 291.94,-838.82 294.75,-838 381.6,-812.71 485.88,-797.47 548.1,-789.9"/>
<polygon fill="black" stroke="black" points="548.2,-793.42 557.71,-788.76 547.37,-786.47 548.2,-793.42"/>
</g>
<!-- port&#45;&gt;run_crawl -->
<g id="edge13" class="edge">
<title>port&#45;&gt;run_crawl</title>
<path fill="none" stroke="black" d="M428.55,-837.54C465.12,-826.3 512.36,-811.78 548.43,-800.7"/>
<polygon fill="black" stroke="black" points="549.26,-804.1 557.79,-797.82 547.2,-797.41 549.26,-804.1"/>
</g>
<!-- out&#45;&gt;run_crawl -->
<g id="edge15" class="edge">
<title>out&#45;&gt;run_crawl</title>
<path fill="none" stroke="black" d="M525.7,-837.63C538.54,-828.69 554.4,-817.66 568.38,-807.92"/>
<polygon fill="black" stroke="black" points="570.25,-810.89 576.46,-802.3 566.25,-805.14 570.25,-810.89"/>
</g>
<!-- budget&#45;&gt;run_crawl -->
<g id="edge17" class="edge">
<title>budget&#45;&gt;run_crawl</title>
<path fill="none" stroke="black" d="M680.55,-837.63C667.58,-828.69 651.57,-817.66 637.46,-807.92"/>
<polygon fill="black" stroke="black" points="639.51,-805.09 629.29,-802.29 635.54,-810.85 639.51,-805.09"/>
</g>
<!-- playwright&#45;&gt;run_crawl -->
<g id="edge19" class="edge">
<title>playwright&#45;&gt;run_crawl</title>
<path fill="none" stroke="black" d="M867.42,-840.21C864.49,-839.44 861.59,-838.7 858.75,-838 789.87,-821 709.75,-804.64 657.74,-794.47"/>
<polygon fill="black" stroke="black" points="658.41,-791.04 647.93,-792.56 657.07,-797.91 658.41,-791.04"/>
</g>
<!-- mock_size&#45;&gt;run_crawl -->
<g id="edge21" class="edge">
<title>mock_size&#45;&gt;run_crawl</title>
<path fill="none" stroke="black" d="M1009.21,-837.54C896.19,-822.65 739.42,-802 657.53,-791.22"/>
<polygon fill="black" stroke="black" points="658.12,-787.76 647.75,-789.93 657.21,-794.7 658.12,-787.76"/>
</g>
<!-- snapshot&#45;&gt;run_crawl -->
<g id="edge23" class="edge">
<title>snapshot&#45;&gt;run_crawl</title>
<path fill="none" stroke="black" d="M1313.25,-839.44C1310.39,-838.92 1307.54,-838.43 1304.75,-838 1065.42,-800.77 776,-788.82 657.42,-785.32"/>
<polygon fill="black" stroke="black" points="657.76,-781.83 647.67,-785.04 657.56,-788.83 657.76,-781.83"/>
</g>
<!-- diff&#45;&gt;run_diff -->
<g id="edge25" class="edge">
<title>diff&#45;&gt;run_diff</title>
<path fill="none" stroke="black" d="M1511.75,-837.81C1511.75,-830.23 1511.75,-821.1 1511.75,-812.54"/>
<polygon fill="black" stroke="black" points="1515.25,-812.54 1511.75,-802.54 1508.25,-812.54 1515.25,-812.54"/>
</g>
<!-- map -->
<g id="node21" class="node">
<title>map</title>
<path fill="none" stroke="black" d="M715,-655C715,-655 490.5,-655 490.5,-655 484.5,-655 478.5,-649 478.5,-643 478.5,-643 478.5,-631 478.5,-631 478.5,-625 484.5,-619 490.5,-619 490.5,-619 715,-619 715,-619 721,-619 727,-625 727,-631 727,-631 727,-643 727,-643 727,-649 721,-655 715,-655"/>
<text xml:space="preserve" text-anchor="middle" x="602.75" y="-632.33" font-family="Times,serif" font-size="14.00">dungeon::map::build_cancellable</text>
</g>
<!-- runner&#45;&gt;map -->
<g id="edge27" class="edge">
<title>runner&#45;&gt;map</title>
<path fill="none" stroke="black" d="M602.75,-691.81C602.75,-684.23 602.75,-675.1 602.75,-666.54"/>
<polygon fill="black" stroke="black" points="606.25,-666.54 602.75,-656.54 599.25,-666.54 606.25,-666.54"/>
</g>
<!-- render -->
<g id="node22" class="node">
<title>render</title>
<path fill="none" stroke="black" d="M425.25,-582C425.25,-582 244.25,-582 244.25,-582 238.25,-582 232.25,-576 232.25,-570 232.25,-570 232.25,-558 232.25,-558 232.25,-552 238.25,-546 244.25,-546 244.25,-546 425.25,-546 425.25,-546 431.25,-546 437.25,-552 437.25,-558 437.25,-558 437.25,-570 437.25,-570 437.25,-576 431.25,-582 425.25,-582"/>
<text xml:space="preserve" text-anchor="middle" x="334.75" y="-559.33" font-family="Times,serif" font-size="14.00">render_html or playwright</text>
</g>
<!-- map&#45;&gt;render -->
<g id="edge28" class="edge">
<title>map&#45;&gt;render</title>
<path fill="none" stroke="black" d="M536.85,-618.54C498.88,-608.48 450.98,-595.79 411.34,-585.29"/>
<polygon fill="black" stroke="black" points="412.42,-581.96 401.86,-582.78 410.63,-588.72 412.42,-581.96"/>
</g>
<!-- snap_file -->
<g id="node24" class="node">
<title>snap_file</title>
<path fill="none" stroke="black" d="M737.88,-582C737.88,-582 467.62,-582 467.62,-582 461.62,-582 455.62,-576 455.62,-570 455.62,-570 455.62,-558 455.62,-558 455.62,-552 461.62,-546 467.62,-546 467.62,-546 737.88,-546 737.88,-546 743.88,-546 749.88,-552 749.88,-558 749.88,-558 749.88,-570 749.88,-570 749.88,-576 743.88,-582 737.88,-582"/>
<text xml:space="preserve" text-anchor="middle" x="602.75" y="-559.33" font-family="Times,serif" font-size="14.00">optional &#45;&#45;snapshot DungeonMap JSON</text>
</g>
<!-- map&#45;&gt;snap_file -->
<g id="edge30" class="edge">
<title>map&#45;&gt;snap_file</title>
<path fill="none" stroke="black" d="M602.75,-618.81C602.75,-611.23 602.75,-602.1 602.75,-593.54"/>
<polygon fill="black" stroke="black" points="606.25,-593.54 602.75,-583.54 599.25,-593.54 606.25,-593.54"/>
</g>
<!-- server -->
<g id="node25" class="node">
<title>server</title>
<path fill="none" stroke="black" d="M927.75,-582C927.75,-582 779.75,-582 779.75,-582 773.75,-582 767.75,-576 767.75,-570 767.75,-570 767.75,-558 767.75,-558 767.75,-552 773.75,-546 779.75,-546 779.75,-546 927.75,-546 927.75,-546 933.75,-546 939.75,-552 939.75,-558 939.75,-558 939.75,-570 939.75,-570 939.75,-576 933.75,-582 927.75,-582"/>
<text xml:space="preserve" text-anchor="middle" x="853.75" y="-559.33" font-family="Times,serif" font-size="14.00">optional server::serve</text>
</g>
<!-- map&#45;&gt;server -->
<g id="edge31" class="edge">
<title>map&#45;&gt;server</title>
<path fill="none" stroke="black" d="M664.47,-618.54C699.88,-608.53 744.51,-595.9 781.54,-585.43"/>
<polygon fill="black" stroke="black" points="782.14,-588.89 790.81,-582.8 780.23,-582.16 782.14,-588.89"/>
</g>
<!-- html_file -->
<g id="node23" class="node">
<title>html_file</title>
<path fill="none" stroke="black" d="M402.38,-509C402.38,-509 267.12,-509 267.12,-509 261.12,-509 255.12,-503 255.12,-497 255.12,-497 255.12,-485 255.12,-485 255.12,-479 261.12,-473 267.12,-473 267.12,-473 402.38,-473 402.38,-473 408.38,-473 414.38,-479 414.38,-485 414.38,-485 414.38,-497 414.38,-497 414.38,-503 408.38,-509 402.38,-509"/>
<text xml:space="preserve" text-anchor="middle" x="334.75" y="-486.32" font-family="Times,serif" font-size="14.00">optional &#45;&#45;out HTML</text>
</g>
<!-- render&#45;&gt;html_file -->
<g id="edge29" class="edge">
<title>render&#45;&gt;html_file</title>
<path fill="none" stroke="black" d="M334.75,-545.81C334.75,-538.23 334.75,-529.1 334.75,-520.54"/>
<polygon fill="black" stroke="black" points="338.25,-520.54 334.75,-510.54 331.25,-520.54 338.25,-520.54"/>
</g>
<!-- bind -->
<g id="node29" class="node">
<title>bind</title>
<path fill="none" stroke="black" d="M972.38,-509C972.38,-509 735.12,-509 735.12,-509 729.12,-509 723.12,-503 723.12,-497 723.12,-497 723.12,-485 723.12,-485 723.12,-479 729.12,-473 735.12,-473 735.12,-473 972.38,-473 972.38,-473 978.38,-473 984.38,-479 984.38,-485 984.38,-485 984.38,-497 984.38,-497 984.38,-503 978.38,-509 972.38,-509"/>
<text xml:space="preserve" text-anchor="middle" x="853.75" y="-486.32" font-family="Times,serif" font-size="14.00">bind 127.0.0.1:port; default port 0</text>
</g>
<!-- server&#45;&gt;bind -->
<g id="edge35" class="edge">
<title>server&#45;&gt;bind</title>
<path fill="none" stroke="black" d="M853.75,-545.81C853.75,-538.23 853.75,-529.1 853.75,-520.54"/>
<polygon fill="black" stroke="black" points="857.25,-520.54 853.75,-510.54 850.25,-520.54 857.25,-520.54"/>
</g>
<!-- diff_maps -->
<g id="node27" class="node">
<title>diff_maps</title>
<path fill="none" stroke="black" d="M1541.88,-655C1541.88,-655 1481.62,-655 1481.62,-655 1475.62,-655 1469.62,-649 1469.62,-643 1469.62,-643 1469.62,-631 1469.62,-631 1469.62,-625 1475.62,-619 1481.62,-619 1481.62,-619 1541.88,-619 1541.88,-619 1547.88,-619 1553.88,-625 1553.88,-631 1553.88,-631 1553.88,-643 1553.88,-643 1553.88,-649 1547.88,-655 1541.88,-655"/>
<text xml:space="preserve" text-anchor="middle" x="1511.75" y="-632.33" font-family="Times,serif" font-size="14.00">diff_maps</text>
</g>
<!-- read_snap&#45;&gt;diff_maps -->
<g id="edge33" class="edge">
<title>read_snap&#45;&gt;diff_maps</title>
<path fill="none" stroke="black" d="M1511.75,-691.81C1511.75,-684.23 1511.75,-675.1 1511.75,-666.54"/>
<polygon fill="black" stroke="black" points="1515.25,-666.54 1511.75,-656.54 1508.25,-666.54 1515.25,-666.54"/>
</g>
<!-- report -->
<g id="node28" class="node">
<title>report</title>
<path fill="none" stroke="black" d="M1557.62,-582C1557.62,-582 1465.88,-582 1465.88,-582 1459.88,-582 1453.88,-576 1453.88,-570 1453.88,-570 1453.88,-558 1453.88,-558 1453.88,-552 1459.88,-546 1465.88,-546 1465.88,-546 1557.62,-546 1557.62,-546 1563.62,-546 1569.62,-552 1569.62,-558 1569.62,-558 1569.62,-570 1569.62,-570 1569.62,-576 1563.62,-582 1557.62,-582"/>
<text xml:space="preserve" text-anchor="middle" x="1511.75" y="-559.33" font-family="Times,serif" font-size="14.00">render_report</text>
</g>
<!-- diff_maps&#45;&gt;report -->
<g id="edge34" class="edge">
<title>diff_maps&#45;&gt;report</title>
<path fill="none" stroke="black" d="M1511.75,-618.81C1511.75,-611.23 1511.75,-602.1 1511.75,-593.54"/>
<polygon fill="black" stroke="black" points="1515.25,-593.54 1511.75,-583.54 1508.25,-593.54 1515.25,-593.54"/>
</g>
<!-- middleware -->
<g id="node30" class="node">
<title>middleware</title>
<path fill="none" stroke="black" d="M1020.75,-436C1020.75,-436 686.75,-436 686.75,-436 680.75,-436 674.75,-430 674.75,-424 674.75,-424 674.75,-412 674.75,-412 674.75,-406 680.75,-400 686.75,-400 686.75,-400 1020.75,-400 1020.75,-400 1026.75,-400 1032.75,-406 1032.75,-412 1032.75,-412 1032.75,-424 1032.75,-424 1032.75,-430 1026.75,-436 1020.75,-436"/>
<text xml:space="preserve" text-anchor="middle" x="853.75" y="-413.32" font-family="Times,serif" font-size="14.00">auth middleware none; loopback only; read&#45;only</text>
</g>
<!-- bind&#45;&gt;middleware -->
<g id="edge36" class="edge">
<title>bind&#45;&gt;middleware</title>
<path fill="none" stroke="black" d="M853.75,-472.81C853.75,-465.23 853.75,-456.1 853.75,-447.54"/>
<polygon fill="black" stroke="black" points="857.25,-447.54 853.75,-437.54 850.25,-447.54 857.25,-447.54"/>
</g>
<!-- handle -->
<g id="node31" class="node">
<title>handle</title>
<path fill="none" stroke="black" d="M915.75,-363C915.75,-363 791.75,-363 791.75,-363 785.75,-363 779.75,-357 779.75,-351 779.75,-351 779.75,-339 779.75,-339 779.75,-333 785.75,-327 791.75,-327 791.75,-327 915.75,-327 915.75,-327 921.75,-327 927.75,-333 927.75,-339 927.75,-339 927.75,-351 927.75,-351 927.75,-357 921.75,-363 915.75,-363"/>
<text xml:space="preserve" text-anchor="middle" x="853.75" y="-340.32" font-family="Times,serif" font-size="14.00">handle_connection</text>
</g>
<!-- middleware&#45;&gt;handle -->
<g id="edge37" class="edge">
<title>middleware&#45;&gt;handle</title>
<path fill="none" stroke="black" d="M853.75,-399.81C853.75,-392.23 853.75,-383.1 853.75,-374.54"/>
<polygon fill="black" stroke="black" points="857.25,-374.54 853.75,-364.54 850.25,-374.54 857.25,-374.54"/>
</g>
<!-- route -->
<g id="node32" class="node">
<title>route</title>
<path fill="none" stroke="black" d="M934.12,-290C934.12,-290 773.38,-290 773.38,-290 767.38,-290 761.38,-284 761.38,-278 761.38,-278 761.38,-266 761.38,-266 761.38,-260 767.38,-254 773.38,-254 773.38,-254 934.12,-254 934.12,-254 940.12,-254 946.12,-260 946.12,-266 946.12,-266 946.12,-278 946.12,-278 946.12,-284 940.12,-290 934.12,-290"/>
<text xml:space="preserve" text-anchor="middle" x="853.75" y="-267.32" font-family="Times,serif" font-size="14.00">route map method path</text>
</g>
<!-- handle&#45;&gt;route -->
<g id="edge38" class="edge">
<title>handle&#45;&gt;route</title>
<path fill="none" stroke="black" d="M853.75,-326.81C853.75,-319.23 853.75,-310.1 853.75,-301.54"/>
<polygon fill="black" stroke="black" points="857.25,-301.54 853.75,-291.54 850.25,-301.54 857.25,-301.54"/>
</g>
<!-- index -->
<g id="node34" class="node">
<title>index</title>
<path fill="none" stroke="black" d="M293.38,-163C293.38,-163 194.12,-163 194.12,-163 188.12,-163 182.12,-157 182.12,-151 182.12,-151 182.12,-139 182.12,-139 182.12,-133 188.12,-127 194.12,-127 194.12,-127 293.38,-127 293.38,-127 299.38,-127 305.38,-133 305.38,-139 305.38,-139 305.38,-151 305.38,-151 305.38,-157 299.38,-163 293.38,-163"/>
<text xml:space="preserve" text-anchor="middle" x="243.75" y="-140.32" font-family="Times,serif" font-size="14.00">GET / to HTML</text>
</g>
<!-- route&#45;&gt;index -->
<g id="edge39" class="edge">
<title>route&#45;&gt;index</title>
<path fill="none" stroke="black" d="M761.12,-271.04C573.87,-270.15 164.41,-262.92 121.75,-217 110.86,-205.28 112.12,-193.78 121.75,-181 133.5,-165.41 151.73,-156.41 170.55,-151.32"/>
<polygon fill="black" stroke="black" points="171.23,-154.76 180.18,-149.09 169.65,-147.94 171.23,-154.76"/>
</g>
<!-- rooms -->
<g id="node35" class="node">
<title>rooms</title>
<path fill="none" stroke="black" d="M442.5,-217C442.5,-217 143,-217 143,-217 137,-217 131,-211 131,-205 131,-205 131,-193 131,-193 131,-187 137,-181 143,-181 143,-181 442.5,-181 442.5,-181 448.5,-181 454.5,-187 454.5,-193 454.5,-193 454.5,-205 454.5,-205 454.5,-211 448.5,-217 442.5,-217"/>
<text xml:space="preserve" text-anchor="middle" x="292.75" y="-194.32" font-family="Times,serif" font-size="14.00">GET /api/v1/rooms to RoomSummary JSON</text>
</g>
<!-- route&#45;&gt;rooms -->
<g id="edge41" class="edge">
<title>route&#45;&gt;rooms</title>
<path fill="none" stroke="black" d="M761.11,-259.28C674.5,-248.31 543.65,-231.75 442.26,-218.92"/>
<polygon fill="black" stroke="black" points="442.84,-215.47 432.48,-217.68 441.97,-222.41 442.84,-215.47"/>
</g>
<!-- room -->
<g id="node36" class="node">
<title>room</title>
<path fill="none" stroke="black" d="M775.38,-217C775.38,-217 484.12,-217 484.12,-217 478.12,-217 472.12,-211 472.12,-205 472.12,-205 472.12,-193 472.12,-193 472.12,-187 478.12,-181 484.12,-181 484.12,-181 775.38,-181 775.38,-181 781.38,-181 787.38,-187 787.38,-193 787.38,-193 787.38,-205 787.38,-205 787.38,-211 781.38,-217 775.38,-217"/>
<text xml:space="preserve" text-anchor="middle" x="629.75" y="-194.32" font-family="Times,serif" font-size="14.00">GET /api/v1/rooms/id to RoomDetail JSON</text>
</g>
<!-- route&#45;&gt;room -->
<g id="edge44" class="edge">
<title>route&#45;&gt;room</title>
<path fill="none" stroke="black" d="M798.67,-253.54C767.48,-243.65 728.26,-231.23 695.47,-220.83"/>
<polygon fill="black" stroke="black" points="696.65,-217.53 686.06,-217.85 694.54,-224.21 696.65,-217.53"/>
</g>
<!-- resource -->
<g id="node37" class="node">
<title>resource</title>
<path fill="none" stroke="black" d="M1159.88,-217C1159.88,-217 817.62,-217 817.62,-217 811.62,-217 805.62,-211 805.62,-205 805.62,-205 805.62,-193 805.62,-193 805.62,-187 811.62,-181 817.62,-181 817.62,-181 1159.88,-181 1159.88,-181 1165.88,-181 1171.88,-187 1171.88,-193 1171.88,-193 1171.88,-205 1171.88,-205 1171.88,-211 1165.88,-217 1159.88,-217"/>
<text xml:space="preserve" text-anchor="middle" x="988.75" y="-194.32" font-family="Times,serif" font-size="14.00">GET /api/v1/resources/id to ResourceDetail JSON</text>
</g>
<!-- route&#45;&gt;resource -->
<g id="edge46" class="edge">
<title>route&#45;&gt;resource</title>
<path fill="none" stroke="black" d="M886.77,-253.63C904.51,-244.31 926.58,-232.7 945.65,-222.67"/>
<polygon fill="black" stroke="black" points="947.04,-225.89 954.26,-218.14 943.78,-219.7 947.04,-225.89"/>
</g>
<!-- e405 -->
<g id="node38" class="node">
<title>e405</title>
<path fill="none" stroke="black" d="M1081.62,-163C1081.62,-163 977.88,-163 977.88,-163 971.88,-163 965.88,-157 965.88,-151 965.88,-151 965.88,-139 965.88,-139 965.88,-133 971.88,-127 977.88,-127 977.88,-127 1081.62,-127 1081.62,-127 1087.62,-127 1093.62,-133 1093.62,-139 1093.62,-139 1093.62,-151 1093.62,-151 1093.62,-157 1087.62,-163 1081.62,-163"/>
<text xml:space="preserve" text-anchor="middle" x="1029.75" y="-140.32" font-family="Times,serif" font-size="14.00">non GET to 405</text>
</g>
<!-- route&#45;&gt;e405 -->
<g id="edge48" class="edge">
<title>route&#45;&gt;e405</title>
<path fill="none" stroke="black" d="M946.27,-268.64C1032.18,-264.26 1151.16,-251.88 1180.75,-217 1191.1,-204.8 1190.7,-193.53 1180.75,-181 1170.82,-168.51 1137.69,-160.08 1104.98,-154.63"/>
<polygon fill="black" stroke="black" points="1105.85,-151.22 1095.43,-153.13 1104.76,-158.14 1105.85,-151.22"/>
</g>
<!-- e404 -->
<g id="node39" class="node">
<title>e404</title>
<path fill="none" stroke="black" d="M1257.12,-109C1257.12,-109 1150.38,-109 1150.38,-109 1144.38,-109 1138.38,-103 1138.38,-97 1138.38,-97 1138.38,-85 1138.38,-85 1138.38,-79 1144.38,-73 1150.38,-73 1150.38,-73 1257.12,-73 1257.12,-73 1263.12,-73 1269.12,-79 1269.12,-85 1269.12,-85 1269.12,-97 1269.12,-97 1269.12,-103 1263.12,-109 1257.12,-109"/>
<text xml:space="preserve" text-anchor="middle" x="1203.75" y="-86.33" font-family="Times,serif" font-size="14.00">unknown to 404</text>
</g>
<!-- route&#45;&gt;e404 -->
<g id="edge50" class="edge">
<title>route&#45;&gt;e404</title>
<path fill="none" stroke="black" d="M946.3,-270.48C1009.51,-267.76 1094.41,-259.41 1165.75,-236 1181.83,-230.72 1189.99,-231.48 1198.75,-217 1216.4,-187.83 1214.29,-147.44 1210.01,-120.55"/>
<polygon fill="black" stroke="black" points="1213.45,-119.94 1208.22,-110.73 1206.57,-121.19 1213.45,-119.94"/>
</g>
<!-- resp -->
<g id="node33" class="node">
<title>resp</title>
<path fill="none" stroke="black" d="M925.88,-36C925.88,-36 823.62,-36 823.62,-36 817.62,-36 811.62,-30 811.62,-24 811.62,-24 811.62,-12 811.62,-12 811.62,-6 817.62,0 823.62,0 823.62,0 925.88,0 925.88,0 931.88,0 937.88,-6 937.88,-12 937.88,-12 937.88,-24 937.88,-24 937.88,-30 931.88,-36 925.88,-36"/>
<text xml:space="preserve" text-anchor="middle" x="874.75" y="-13.32" font-family="Times,serif" font-size="14.00">RouteResponse</text>
</g>
<!-- index&#45;&gt;resp -->
<g id="edge40" class="edge">
<title>index&#45;&gt;resp</title>
<path fill="none" stroke="black" d="M305.69,-131.73C422.49,-108.59 674.81,-58.61 800.49,-33.71"/>
<polygon fill="black" stroke="black" points="800.9,-37.2 810.03,-31.82 799.54,-30.33 800.9,-37.2"/>
</g>
<!-- scrub -->
<g id="node40" class="node">
<title>scrub</title>
<path fill="none" stroke="black" d="M778,-109C778,-109 685.5,-109 685.5,-109 679.5,-109 673.5,-103 673.5,-97 673.5,-97 673.5,-85 673.5,-85 673.5,-79 679.5,-73 685.5,-73 685.5,-73 778,-73 778,-73 784,-73 790,-79 790,-85 790,-85 790,-97 790,-97 790,-103 784,-109 778,-109"/>
<text xml:space="preserve" text-anchor="middle" x="731.75" y="-86.33" font-family="Times,serif" font-size="14.00">secrets::scrub</text>
</g>
<!-- rooms&#45;&gt;scrub -->
<g id="edge42" class="edge">
<title>rooms&#45;&gt;scrub</title>
<path fill="none" stroke="black" d="M364.75,-180.61C446.99,-160.76 580.65,-128.48 661.96,-108.85"/>
<polygon fill="black" stroke="black" points="662.7,-112.27 671.6,-106.52 661.06,-105.47 662.7,-112.27"/>
</g>
<!-- room&#45;&gt;scrub -->
<g id="edge45" class="edge">
<title>room&#45;&gt;scrub</title>
<path fill="none" stroke="black" d="M646.14,-180.97C662.62,-163.84 688.24,-137.22 707.16,-117.56"/>
<polygon fill="black" stroke="black" points="709.6,-120.06 714.01,-110.43 704.56,-115.21 709.6,-120.06"/>
</g>
<!-- resource&#45;&gt;scrub -->
<g id="edge47" class="edge">
<title>resource&#45;&gt;scrub</title>
<path fill="none" stroke="black" d="M946.6,-180.61C902.25,-162.32 832.36,-133.5 784.41,-113.72"/>
<polygon fill="black" stroke="black" points="785.9,-110.55 775.32,-109.97 783.23,-117.02 785.9,-110.55"/>
</g>
<!-- e405&#45;&gt;resp -->
<g id="edge49" class="edge">
<title>e405&#45;&gt;resp</title>
<path fill="none" stroke="black" d="M1008.2,-126.62C981.36,-104.98 935.36,-67.88 905,-43.4"/>
<polygon fill="black" stroke="black" points="907.28,-40.74 897.3,-37.18 902.88,-46.19 907.28,-40.74"/>
</g>
<!-- e404&#45;&gt;resp -->
<g id="edge51" class="edge">
<title>e404&#45;&gt;resp</title>
<path fill="none" stroke="black" d="M1137.96,-75.8C1083.46,-64.04 1006.03,-47.33 949.25,-35.08"/>
<polygon fill="black" stroke="black" points="950.18,-31.7 939.67,-33.01 948.7,-38.54 950.18,-31.7"/>
</g>
<!-- scrub&#45;&gt;resp -->
<g id="edge43" class="edge">
<title>scrub&#45;&gt;resp</title>
<path fill="none" stroke="black" d="M766.73,-72.63C785.6,-63.26 809.11,-51.59 829.37,-41.53"/>
<polygon fill="black" stroke="black" points="830.88,-44.69 838.28,-37.11 827.76,-38.42 830.88,-44.69"/>
</g>
<!-- look -->
<g id="node42" class="node">
<title>look</title>
<path fill="none" stroke="black" d="M1667.88,-874C1667.88,-874 1595.62,-874 1595.62,-874 1589.62,-874 1583.62,-868 1583.62,-862 1583.62,-862 1583.62,-850 1583.62,-850 1583.62,-844 1589.62,-838 1595.62,-838 1595.62,-838 1667.88,-838 1667.88,-838 1673.88,-838 1679.88,-844 1679.88,-850 1679.88,-850 1679.88,-862 1679.88,-862 1679.88,-868 1673.88,-874 1667.88,-874"/>
<text xml:space="preserve" text-anchor="middle" x="1631.75" y="-851.33" font-family="Times,serif" font-size="14.00">World::look</text>
</g>
<!-- parser&#45;&gt;look -->
<g id="edge53" class="edge">
<title>parser&#45;&gt;look</title>
<path fill="none" stroke="black" d="M3531.08,-944.07C3229.48,-942.99 1801.55,-936.45 1712.5,-909.25 1693.77,-903.53 1675.25,-892.08 1660.68,-881.35"/>
<polygon fill="black" stroke="black" points="1662.98,-878.71 1652.91,-875.4 1658.72,-884.26 1662.98,-878.71"/>
<text xml:space="preserve" text-anchor="middle" x="1731.62" y="-895.95" font-family="Times,serif" font-size="14.00">look,l</text>
</g>
<!-- examine -->
<g id="node43" class="node">
<title>examine</title>
<path fill="none" stroke="black" d="M1813.25,-874C1813.25,-874 1710.25,-874 1710.25,-874 1704.25,-874 1698.25,-868 1698.25,-862 1698.25,-862 1698.25,-850 1698.25,-850 1698.25,-844 1704.25,-838 1710.25,-838 1710.25,-838 1813.25,-838 1813.25,-838 1819.25,-838 1825.25,-844 1825.25,-850 1825.25,-850 1825.25,-862 1825.25,-862 1825.25,-868 1819.25,-874 1813.25,-874"/>
<text xml:space="preserve" text-anchor="middle" x="1761.75" y="-851.33" font-family="Times,serif" font-size="14.00">World::examine</text>
</g>
<!-- parser&#45;&gt;examine -->
<g id="edge54" class="edge">
<title>parser&#45;&gt;examine</title>
<path fill="none" stroke="black" d="M3530.69,-944.24C3227.22,-944.08 1793.5,-941.61 1761.75,-909.25 1755.72,-903.11 1754.16,-894.34 1754.59,-885.74"/>
<polygon fill="black" stroke="black" points="1758.05,-886.26 1755.95,-875.87 1751.12,-885.3 1758.05,-886.26"/>
<text xml:space="preserve" text-anchor="middle" x="1871.25" y="-895.95" font-family="Times,serif" font-size="14.00">examine,x,inspect,show target</text>
</g>
<!-- go -->
<g id="node44" class="node">
<title>go</title>
<path fill="none" stroke="black" d="M1998.88,-874C1998.88,-874 1938.62,-874 1938.62,-874 1932.62,-874 1926.62,-868 1926.62,-862 1926.62,-862 1926.62,-850 1926.62,-850 1926.62,-844 1932.62,-838 1938.62,-838 1938.62,-838 1998.88,-838 1998.88,-838 2004.88,-838 2010.88,-844 2010.88,-850 2010.88,-850 2010.88,-862 2010.88,-862 2010.88,-868 2004.88,-874 1998.88,-874"/>
<text xml:space="preserve" text-anchor="middle" x="1968.75" y="-851.33" font-family="Times,serif" font-size="14.00">World::go</text>
</g>
<!-- parser&#45;&gt;go -->
<g id="edge55" class="edge">
<title>parser&#45;&gt;go</title>
<path fill="none" stroke="black" d="M3530.7,-944.5C3256.76,-945.52 2069.24,-947.72 2001.5,-909.25 1991.79,-903.74 1984.56,-894.05 1979.4,-884.49"/>
<polygon fill="black" stroke="black" points="1982.69,-883.28 1975.24,-875.76 1976.37,-886.29 1982.69,-883.28"/>
<text xml:space="preserve" text-anchor="middle" x="2088.12" y="-895.95" font-family="Times,serif" font-size="14.00">go,move,walk,directions</text>
</g>
<!-- take -->
<g id="node45" class="node">
<title>take</title>
<path fill="none" stroke="black" d="M2246.25,-874C2246.25,-874 2077.25,-874 2077.25,-874 2071.25,-874 2065.25,-868 2065.25,-862 2065.25,-862 2065.25,-850 2065.25,-850 2065.25,-844 2071.25,-838 2077.25,-838 2077.25,-838 2246.25,-838 2246.25,-838 2252.25,-838 2258.25,-844 2258.25,-850 2258.25,-850 2258.25,-862 2258.25,-862 2258.25,-868 2252.25,-874 2246.25,-874"/>
<text xml:space="preserve" text-anchor="middle" x="2161.75" y="-851.33" font-family="Times,serif" font-size="14.00">confirm then World::take</text>
</g>
<!-- parser&#45;&gt;take -->
<g id="edge56" class="edge">
<title>parser&#45;&gt;take</title>
<path fill="none" stroke="black" d="M3530.67,-944.26C3278.19,-944.14 2256.62,-941.66 2197.25,-909.25 2187.21,-903.77 2179.46,-894.09 2173.8,-884.53"/>
<polygon fill="black" stroke="black" points="2176.93,-882.97 2169.17,-875.76 2170.74,-886.23 2176.93,-882.97"/>
<text xml:space="preserve" text-anchor="middle" x="2298.5" y="-895.95" font-family="Times,serif" font-size="14.00">take,get,grab,acquire target</text>
</g>
<!-- drop -->
<g id="node46" class="node">
<title>drop</title>
<path fill="none" stroke="black" d="M2498.88,-874C2498.88,-874 2288.62,-874 2288.62,-874 2282.62,-874 2276.62,-868 2276.62,-862 2276.62,-862 2276.62,-850 2276.62,-850 2276.62,-844 2282.62,-838 2288.62,-838 2288.62,-838 2498.88,-838 2498.88,-838 2504.88,-838 2510.88,-844 2510.88,-850 2510.88,-850 2510.88,-862 2510.88,-862 2510.88,-868 2504.88,-874 2498.88,-874"/>
<text xml:space="preserve" text-anchor="middle" x="2393.75" y="-851.33" font-family="Times,serif" font-size="14.00">confirm then World::drop_item</text>
</g>
<!-- parser&#45;&gt;drop -->
<g id="edge57" class="edge">
<title>parser&#45;&gt;drop</title>
<path fill="none" stroke="black" d="M3530.92,-944.22C3304.43,-943.87 2463.99,-940.48 2417.25,-909.25 2408.96,-903.71 2403.56,-894.5 2400.06,-885.34"/>
<polygon fill="black" stroke="black" points="2403.43,-884.39 2397.11,-875.89 2396.74,-886.48 2403.43,-884.39"/>
<text xml:space="preserve" text-anchor="middle" x="2523" y="-895.95" font-family="Times,serif" font-size="14.00">drop,delete,release,rm target</text>
</g>
<!-- lock -->
<g id="node47" class="node">
<title>lock</title>
<path fill="none" stroke="black" d="M2661.5,-874C2661.5,-874 2590,-874 2590,-874 2584,-874 2578,-868 2578,-862 2578,-862 2578,-850 2578,-850 2578,-844 2584,-838 2590,-838 2590,-838 2661.5,-838 2661.5,-838 2667.5,-838 2673.5,-844 2673.5,-850 2673.5,-850 2673.5,-862 2673.5,-862 2673.5,-868 2667.5,-874 2661.5,-874"/>
<text xml:space="preserve" text-anchor="middle" x="2625.75" y="-851.33" font-family="Times,serif" font-size="14.00">World::lock</text>
</g>
<!-- parser&#45;&gt;lock -->
<g id="edge58" class="edge">
<title>parser&#45;&gt;lock</title>
<path fill="none" stroke="black" d="M3530.74,-943.86C3333.62,-942.27 2681.83,-935.07 2645.75,-909.25 2637.92,-903.65 2633.15,-894.55 2630.25,-885.5"/>
<polygon fill="black" stroke="black" points="2633.66,-884.67 2627.85,-875.8 2626.86,-886.35 2633.66,-884.67"/>
<text xml:space="preserve" text-anchor="middle" x="2710.25" y="-895.95" font-family="Times,serif" font-size="14.00">lock,secure target</text>
</g>
<!-- unlock -->
<g id="node48" class="node">
<title>unlock</title>
<path fill="none" stroke="black" d="M2822.5,-874C2822.5,-874 2733,-874 2733,-874 2727,-874 2721,-868 2721,-862 2721,-862 2721,-850 2721,-850 2721,-844 2727,-838 2733,-838 2733,-838 2822.5,-838 2822.5,-838 2828.5,-838 2834.5,-844 2834.5,-850 2834.5,-850 2834.5,-862 2834.5,-862 2834.5,-868 2828.5,-874 2822.5,-874"/>
<text xml:space="preserve" text-anchor="middle" x="2777.75" y="-851.33" font-family="Times,serif" font-size="14.00">World::unlock</text>
</g>
<!-- parser&#45;&gt;unlock -->
<g id="edge59" class="edge">
<title>parser&#45;&gt;unlock</title>
<path fill="none" stroke="black" d="M3530.67,-943.67C3353.6,-941.6 2816.39,-933.35 2788.25,-909.25 2781.41,-903.39 2778.25,-894.43 2776.97,-885.58"/>
<polygon fill="black" stroke="black" points="2780.47,-885.52 2776.31,-875.78 2773.49,-886 2780.47,-885.52"/>
<text xml:space="preserve" text-anchor="middle" x="2900" y="-895.95" font-family="Times,serif" font-size="14.00">unlock,unward,unsecure target</text>
</g>
<!-- resize -->
<g id="node49" class="node">
<title>resize</title>
<path fill="none" stroke="black" d="M3067.62,-874C3067.62,-874 2981.88,-874 2981.88,-874 2975.88,-874 2969.88,-868 2969.88,-862 2969.88,-862 2969.88,-850 2969.88,-850 2969.88,-844 2975.88,-838 2981.88,-838 2981.88,-838 3067.62,-838 3067.62,-838 3073.62,-838 3079.62,-844 3079.62,-850 3079.62,-850 3079.62,-862 3079.62,-862 3079.62,-868 3073.62,-874 3067.62,-874"/>
<text xml:space="preserve" text-anchor="middle" x="3024.75" y="-851.33" font-family="Times,serif" font-size="14.00">World::resize</text>
</g>
<!-- parser&#45;&gt;resize -->
<g id="edge60" class="edge">
<title>parser&#45;&gt;resize</title>
<path fill="none" stroke="black" d="M3530.72,-942.83C3391.36,-939.02 3039.01,-927.61 3021.75,-909.25 3015.78,-902.9 3014.71,-893.97 3015.7,-885.28"/>
<polygon fill="black" stroke="black" points="3019.08,-886.23 3017.65,-875.73 3012.22,-884.83 3019.08,-886.23"/>
<text xml:space="preserve" text-anchor="middle" x="3156.75" y="-895.95" font-family="Times,serif" font-size="14.00">resize,rightsize,scale,downsize target</text>
</g>
<!-- monitor -->
<g id="node50" class="node">
<title>monitor</title>
<path fill="none" stroke="black" d="M3269.38,-874C3269.38,-874 3170.12,-874 3170.12,-874 3164.12,-874 3158.12,-868 3158.12,-862 3158.12,-862 3158.12,-850 3158.12,-850 3158.12,-844 3164.12,-838 3170.12,-838 3170.12,-838 3269.38,-838 3269.38,-838 3275.38,-838 3281.38,-844 3281.38,-850 3281.38,-850 3281.38,-862 3281.38,-862 3281.38,-868 3275.38,-874 3269.38,-874"/>
<text xml:space="preserve" text-anchor="middle" x="3219.75" y="-851.33" font-family="Times,serif" font-size="14.00">World::monitor</text>
</g>
<!-- parser&#45;&gt;monitor -->
<g id="edge61" class="edge">
<title>parser&#45;&gt;monitor</title>
<path fill="none" stroke="black" d="M3530.92,-940.88C3463.02,-936.11 3352.84,-926.07 3315.5,-909.25 3304.87,-904.46 3305.53,-898.34 3295.75,-892 3288.71,-887.44 3280.99,-883.16 3273.24,-879.26"/>
<polygon fill="black" stroke="black" points="3274.99,-876.22 3264.46,-875.03 3271.95,-882.53 3274.99,-876.22"/>
<text xml:space="preserve" text-anchor="middle" x="3361.62" y="-895.95" font-family="Times,serif" font-size="14.00">monitor,light</text>
</g>
<!-- inv -->
<g id="node51" class="node">
<title>inv</title>
<path fill="none" stroke="black" d="M3422.38,-874C3422.38,-874 3311.12,-874 3311.12,-874 3305.12,-874 3299.12,-868 3299.12,-862 3299.12,-862 3299.12,-850 3299.12,-850 3299.12,-844 3305.12,-838 3311.12,-838 3311.12,-838 3422.38,-838 3422.38,-838 3428.38,-838 3434.38,-844 3434.38,-850 3434.38,-850 3434.38,-862 3434.38,-862 3434.38,-868 3428.38,-874 3422.38,-874"/>
<text xml:space="preserve" text-anchor="middle" x="3366.75" y="-851.33" font-family="Times,serif" font-size="14.00">World::inventory</text>
</g>
<!-- parser&#45;&gt;inv -->
<g id="edge62" class="edge">
<title>parser&#45;&gt;inv</title>
<path fill="none" stroke="black" d="M3530.9,-937.53C3500.96,-932.46 3464.05,-923.8 3433.5,-909.25 3431.33,-908.22 3413.95,-894.6 3397.48,-881.53"/>
<polygon fill="black" stroke="black" points="3399.71,-878.83 3389.7,-875.35 3395.35,-884.31 3399.71,-878.83"/>
<text xml:space="preserve" text-anchor="middle" x="3484.12" y="-895.95" font-family="Times,serif" font-size="14.00">inventory,i,inv</text>
</g>
<!-- score -->
<g id="node52" class="node">
<title>score</title>
<path fill="none" stroke="black" d="M3545.38,-874C3545.38,-874 3464.12,-874 3464.12,-874 3458.12,-874 3452.12,-868 3452.12,-862 3452.12,-862 3452.12,-850 3452.12,-850 3452.12,-844 3458.12,-838 3464.12,-838 3464.12,-838 3545.38,-838 3545.38,-838 3551.38,-838 3557.38,-844 3557.38,-850 3557.38,-850 3557.38,-862 3557.38,-862 3557.38,-868 3551.38,-874 3545.38,-874"/>
<text xml:space="preserve" text-anchor="middle" x="3504.75" y="-851.33" font-family="Times,serif" font-size="14.00">World::score</text>
</g>
<!-- parser&#45;&gt;score -->
<g id="edge63" class="edge">
<title>parser&#45;&gt;score</title>
<path fill="none" stroke="black" d="M3570.55,-927.01C3558.53,-914.23 3541.96,-896.59 3528.46,-882.22"/>
<polygon fill="black" stroke="black" points="3531.35,-880.19 3521.95,-875.3 3526.25,-884.99 3531.35,-880.19"/>
<text xml:space="preserve" text-anchor="middle" x="3572.22" y="-895.95" font-family="Times,serif" font-size="14.00">score</text>
</g>
<!-- ach -->
<g id="node53" class="node">
<title>ach</title>
<path fill="none" stroke="black" d="M3729.75,-874C3729.75,-874 3587.75,-874 3587.75,-874 3581.75,-874 3575.75,-868 3575.75,-862 3575.75,-862 3575.75,-850 3575.75,-850 3575.75,-844 3581.75,-838 3587.75,-838 3587.75,-838 3729.75,-838 3729.75,-838 3735.75,-838 3741.75,-844 3741.75,-850 3741.75,-850 3741.75,-862 3741.75,-862 3741.75,-868 3735.75,-874 3729.75,-874"/>
<text xml:space="preserve" text-anchor="middle" x="3658.75" y="-851.33" font-family="Times,serif" font-size="14.00">achievements_report</text>
</g>
<!-- parser&#45;&gt;ach -->
<g id="edge64" class="edge">
<title>parser&#45;&gt;ach</title>
<path fill="none" stroke="black" d="M3595.73,-926.92C3601.63,-916.31 3609.93,-902.75 3619,-892 3621.85,-888.62 3625.04,-885.27 3628.33,-882.06"/>
<polygon fill="black" stroke="black" points="3630.51,-884.82 3635.49,-875.47 3625.76,-879.67 3630.51,-884.82"/>
<text xml:space="preserve" text-anchor="middle" x="3695.88" y="-895.95" font-family="Times,serif" font-size="14.00">achievements,badges</text>
</g>
<!-- quest -->
<g id="node54" class="node">
<title>quest</title>
<path fill="none" stroke="black" d="M3863.25,-874C3863.25,-874 3772.25,-874 3772.25,-874 3766.25,-874 3760.25,-868 3760.25,-862 3760.25,-862 3760.25,-850 3760.25,-850 3760.25,-844 3766.25,-838 3772.25,-838 3772.25,-838 3863.25,-838 3863.25,-838 3869.25,-838 3875.25,-844 3875.25,-850 3875.25,-850 3875.25,-862 3875.25,-862 3875.25,-868 3869.25,-874 3863.25,-874"/>
<text xml:space="preserve" text-anchor="middle" x="3817.75" y="-851.33" font-family="Times,serif" font-size="14.00">quests_report</text>
</g>
<!-- parser&#45;&gt;quest -->
<g id="edge65" class="edge">
<title>parser&#45;&gt;quest</title>
<path fill="none" stroke="black" d="M3642.58,-943.32C3681.37,-940.48 3733.04,-932.14 3772.75,-909.25 3783.64,-902.97 3793.17,-893.05 3800.62,-883.54"/>
<polygon fill="black" stroke="black" points="3803.39,-885.67 3806.46,-875.53 3797.74,-881.55 3803.39,-885.67"/>
<text xml:space="preserve" text-anchor="middle" x="3838.67" y="-895.95" font-family="Times,serif" font-size="14.00">quest,quests</text>
</g>
<!-- cast -->
<g id="node55" class="node">
<title>cast</title>
<path fill="none" stroke="black" d="M3935.75,-874C3935.75,-874 3905.75,-874 3905.75,-874 3899.75,-874 3893.75,-868 3893.75,-862 3893.75,-862 3893.75,-850 3893.75,-850 3893.75,-844 3899.75,-838 3905.75,-838 3905.75,-838 3935.75,-838 3935.75,-838 3941.75,-838 3947.75,-844 3947.75,-850 3947.75,-850 3947.75,-862 3947.75,-862 3947.75,-868 3941.75,-874 3935.75,-874"/>
<text xml:space="preserve" text-anchor="middle" x="3920.75" y="-851.33" font-family="Times,serif" font-size="14.00">cast</text>
</g>
<!-- parser&#45;&gt;cast -->
<g id="edge66" class="edge">
<title>parser&#45;&gt;cast</title>
<path fill="none" stroke="black" d="M3642.83,-943.42C3718.44,-941.35 3848.18,-934.15 3887.75,-909.25 3897.05,-903.4 3904.19,-893.86 3909.42,-884.53"/>
<polygon fill="black" stroke="black" points="3912.52,-886.15 3913.83,-875.64 3906.25,-883.03 3912.52,-886.15"/>
<text xml:space="preserve" text-anchor="middle" x="3954.44" y="-895.95" font-family="Times,serif" font-size="14.00">cast or deploy</text>
</g>
<!-- learn -->
<g id="node56" class="node">
<title>learn</title>
<path fill="none" stroke="black" d="M4078.88,-874C4078.88,-874 3988.62,-874 3988.62,-874 3982.62,-874 3976.62,-868 3976.62,-862 3976.62,-862 3976.62,-850 3976.62,-850 3976.62,-844 3982.62,-838 3988.62,-838 3988.62,-838 4078.88,-838 4078.88,-838 4084.88,-838 4090.88,-844 4090.88,-850 4090.88,-850 4090.88,-862 4090.88,-862 4090.88,-868 4084.88,-874 4078.88,-874"/>
<text xml:space="preserve" text-anchor="middle" x="4033.75" y="-851.33" font-family="Times,serif" font-size="14.00">learn registry</text>
</g>
<!-- parser&#45;&gt;learn -->
<g id="edge67" class="edge">
<title>parser&#45;&gt;learn</title>
<path fill="none" stroke="black" d="M3642.6,-942.69C3750.43,-939.23 3979.28,-929.57 4008.75,-909.25 4017.05,-903.53 4022.68,-894.28 4026.46,-885.14"/>
<polygon fill="black" stroke="black" points="4029.76,-886.31 4029.72,-875.72 4023.14,-884.02 4029.76,-886.31"/>
<text xml:space="preserve" text-anchor="middle" x="4118.01" y="-895.95" font-family="Times,serif" font-size="14.00">learn,discover,study group</text>
</g>
<!-- caps -->
<g id="node57" class="node">
<title>caps</title>
<path fill="none" stroke="black" d="M4310.5,-874C4310.5,-874 4185,-874 4185,-874 4179,-874 4173,-868 4173,-862 4173,-862 4173,-850 4173,-850 4173,-844 4179,-838 4185,-838 4185,-838 4310.5,-838 4310.5,-838 4316.5,-838 4322.5,-844 4322.5,-850 4322.5,-850 4322.5,-862 4322.5,-862 4322.5,-868 4316.5,-874 4310.5,-874"/>
<text xml:space="preserve" text-anchor="middle" x="4247.75" y="-851.33" font-family="Times,serif" font-size="14.00">capabilities_report</text>
</g>
<!-- parser&#45;&gt;caps -->
<g id="edge68" class="edge">
<title>parser&#45;&gt;caps</title>
<path fill="none" stroke="black" d="M3642.73,-944.17C3788.07,-943.52 4169.51,-938.99 4217.75,-909.25 4226.87,-903.63 4233.5,-894.14 4238.16,-884.77"/>
<polygon fill="black" stroke="black" points="4241.26,-886.43 4242.03,-875.86 4234.84,-883.65 4241.26,-886.43"/>
<text xml:space="preserve" text-anchor="middle" x="4343.66" y="-895.95" font-family="Times,serif" font-size="14.00">capabilities,caps,powers,spells</text>
</g>
<!-- friction -->
<g id="node58" class="node">
<title>friction</title>
<path fill="none" stroke="black" d="M4594.5,-874C4594.5,-874 4385,-874 4385,-874 4379,-874 4373,-868 4373,-862 4373,-862 4373,-850 4373,-850 4373,-844 4379,-838 4385,-838 4385,-838 4594.5,-838 4594.5,-838 4600.5,-838 4606.5,-844 4606.5,-850 4606.5,-850 4606.5,-862 4606.5,-862 4606.5,-868 4600.5,-874 4594.5,-874"/>
<text xml:space="preserve" text-anchor="middle" x="4489.75" y="-851.33" font-family="Times,serif" font-size="14.00">GraphMemory::record_friction</text>
</g>
<!-- parser&#45;&gt;friction -->
<g id="edge69" class="edge">
<title>parser&#45;&gt;friction</title>
<path fill="none" stroke="black" d="M3642.61,-943.45C3829.42,-940.58 4422.59,-929.88 4457.75,-909.25 4467.21,-903.7 4474.25,-894.13 4479.27,-884.69"/>
<polygon fill="black" stroke="black" points="4482.42,-886.22 4483.47,-875.68 4476.08,-883.26 4482.42,-886.22"/>
<text xml:space="preserve" text-anchor="middle" x="4555.47" y="-895.95" font-family="Times,serif" font-size="14.00">friction,note,gripe text</text>
</g>
<!-- recall -->
<g id="node59" class="node">
<title>recall</title>
<path fill="none" stroke="black" d="M4720.5,-874C4720.5,-874 4637,-874 4637,-874 4631,-874 4625,-868 4625,-862 4625,-862 4625,-850 4625,-850 4625,-844 4631,-838 4637,-838 4637,-838 4720.5,-838 4720.5,-838 4726.5,-838 4732.5,-844 4732.5,-850 4732.5,-850 4732.5,-862 4732.5,-862 4732.5,-868 4726.5,-874 4720.5,-874"/>
<text xml:space="preserve" text-anchor="middle" x="4678.75" y="-851.33" font-family="Times,serif" font-size="14.00">recall_report</text>
</g>
<!-- parser&#45;&gt;recall -->
<g id="edge70" class="edge">
<title>parser&#45;&gt;recall</title>
<path fill="none" stroke="black" d="M3642.57,-943.75C3854.07,-941.68 4596.4,-932.77 4640.75,-909.25 4651.19,-903.71 4659.48,-893.88 4665.61,-884.22"/>
<polygon fill="black" stroke="black" points="4668.54,-886.15 4670.47,-875.73 4662.47,-882.67 4668.54,-886.15"/>
<text xml:space="preserve" text-anchor="middle" x="4742.27" y="-895.95" font-family="Times,serif" font-size="14.00">recall,remember query</text>
</g>
<!-- memory -->
<g id="node60" class="node">
<title>memory</title>
<path fill="none" stroke="black" d="M4950.38,-874C4950.38,-874 4779.12,-874 4779.12,-874 4773.12,-874 4767.12,-868 4767.12,-862 4767.12,-862 4767.12,-850 4767.12,-850 4767.12,-844 4773.12,-838 4779.12,-838 4779.12,-838 4950.38,-838 4950.38,-838 4956.38,-838 4962.38,-844 4962.38,-850 4962.38,-850 4962.38,-862 4962.38,-862 4962.38,-868 4956.38,-874 4950.38,-874"/>
<text xml:space="preserve" text-anchor="middle" x="4864.75" y="-851.33" font-family="Times,serif" font-size="14.00">GraphMemory::summary</text>
</g>
<!-- parser&#45;&gt;memory -->
<g id="edge71" class="edge">
<title>parser&#45;&gt;memory</title>
<path fill="none" stroke="black" d="M3642.68,-944.08C3877.75,-943.18 4776.07,-937.88 4828.75,-909.25 4838.84,-903.76 4846.69,-894.08 4852.44,-884.52"/>
<polygon fill="black" stroke="black" points="4855.51,-886.21 4857.15,-875.75 4849.34,-882.9 4855.51,-886.21"/>
<text xml:space="preserve" text-anchor="middle" x="4928.45" y="-895.95" font-family="Times,serif" font-size="14.00">memory,mem,recollect</text>
</g>
<!-- helpcmd -->
<g id="node61" class="node">
<title>helpcmd</title>
<path fill="none" stroke="black" d="M5050.75,-874C5050.75,-874 4992.75,-874 4992.75,-874 4986.75,-874 4980.75,-868 4980.75,-862 4980.75,-862 4980.75,-850 4980.75,-850 4980.75,-844 4986.75,-838 4992.75,-838 4992.75,-838 5050.75,-838 5050.75,-838 5056.75,-838 5062.75,-844 5062.75,-850 5062.75,-850 5062.75,-862 5062.75,-862 5062.75,-868 5056.75,-874 5050.75,-874"/>
<text xml:space="preserve" text-anchor="middle" x="5021.75" y="-851.33" font-family="Times,serif" font-size="14.00">help_text</text>
</g>
<!-- parser&#45;&gt;helpcmd -->
<g id="edge72" class="edge">
<title>parser&#45;&gt;helpcmd</title>
<path fill="none" stroke="black" d="M3642.87,-943.85C3903.89,-941.87 4987.57,-932.29 5013.75,-909.25 5020.41,-903.39 5023.18,-894.51 5024.05,-885.72"/>
<polygon fill="black" stroke="black" points="5027.54,-886.06 5024.24,-876 5020.54,-885.93 5027.54,-886.06"/>
<text xml:space="preserve" text-anchor="middle" x="5051.08" y="-895.95" font-family="Times,serif" font-size="14.00">help,?,h</text>
</g>
<!-- version -->
<g id="node62" class="node">
<title>version</title>
<path fill="none" stroke="black" d="M5192.38,-874C5192.38,-874 5093.12,-874 5093.12,-874 5087.12,-874 5081.12,-868 5081.12,-862 5081.12,-862 5081.12,-850 5081.12,-850 5081.12,-844 5087.12,-838 5093.12,-838 5093.12,-838 5192.38,-838 5192.38,-838 5198.38,-838 5204.38,-844 5204.38,-850 5204.38,-850 5204.38,-862 5204.38,-862 5204.38,-868 5198.38,-874 5192.38,-874"/>
<text xml:space="preserve" text-anchor="middle" x="5142.75" y="-851.33" font-family="Times,serif" font-size="14.00">version banner</text>
</g>
<!-- parser&#45;&gt;version -->
<g id="edge73" class="edge">
<title>parser&#45;&gt;version</title>
<path fill="none" stroke="black" d="M3642.49,-944.01C3905.72,-942.72 5014.47,-935.73 5082.75,-909.25 5097.28,-903.61 5110.66,-892.8 5121.08,-882.46"/>
<polygon fill="black" stroke="black" points="5123.36,-885.13 5127.72,-875.48 5118.29,-880.31 5123.36,-885.13"/>
<text xml:space="preserve" text-anchor="middle" x="5150.37" y="-895.95" font-family="Times,serif" font-size="14.00">version,ver</text>
</g>
<!-- quit -->
<g id="node63" class="node">
<title>quit</title>
<path fill="none" stroke="black" d="M5368.62,-874C5368.62,-874 5234.88,-874 5234.88,-874 5228.88,-874 5222.88,-868 5222.88,-862 5222.88,-862 5222.88,-850 5222.88,-850 5222.88,-844 5228.88,-838 5234.88,-838 5234.88,-838 5368.62,-838 5368.62,-838 5374.62,-838 5380.62,-844 5380.62,-850 5380.62,-850 5380.62,-862 5380.62,-862 5380.62,-868 5374.62,-874 5368.62,-874"/>
<text xml:space="preserve" text-anchor="middle" x="5301.75" y="-851.33" font-family="Times,serif" font-size="14.00">print score and quit</text>
</g>
<!-- parser&#45;&gt;quit -->
<g id="edge74" class="edge">
<title>parser&#45;&gt;quit</title>
<path fill="none" stroke="black" d="M3642.83,-944.46C3909.37,-945.25 5041.69,-946.38 5194.75,-909.25 5219.21,-903.31 5244.62,-891.2 5264.53,-880.13"/>
<polygon fill="black" stroke="black" points="5266.15,-883.24 5273.09,-875.23 5262.67,-877.16 5266.15,-883.24"/>
<text xml:space="preserve" text-anchor="middle" x="5277.29" y="-895.95" font-family="Times,serif" font-size="14.00">quit,q,exit</text>
</g>
<!-- unknown -->
<g id="node64" class="node">
<title>unknown</title>
<path fill="none" stroke="black" d="M5678.75,-874C5678.75,-874 5410.75,-874 5410.75,-874 5404.75,-874 5398.75,-868 5398.75,-862 5398.75,-862 5398.75,-850 5398.75,-850 5398.75,-844 5404.75,-838 5410.75,-838 5410.75,-838 5678.75,-838 5678.75,-838 5684.75,-838 5690.75,-844 5690.75,-850 5690.75,-850 5690.75,-862 5690.75,-862 5690.75,-868 5684.75,-874 5678.75,-874"/>
<text xml:space="preserve" text-anchor="middle" x="5544.75" y="-851.33" font-family="Times,serif" font-size="14.00">IntentResolver and unresolved friction</text>
</g>
<!-- parser&#45;&gt;unknown -->
<g id="edge75" class="edge">
<title>parser&#45;&gt;unknown</title>
<path fill="none" stroke="black" d="M3642.76,-943.8C3921.07,-941.49 5148.65,-930.19 5317.75,-909.25 5370.66,-902.7 5429.27,-889.04 5473.68,-877.33"/>
<polygon fill="black" stroke="black" points="5474.43,-880.75 5483.19,-874.79 5472.63,-873.99 5474.43,-880.75"/>
<text xml:space="preserve" text-anchor="middle" x="5444.34" y="-895.95" font-family="Times,serif" font-size="14.00">unknown</text>
</g>
<!-- oit_args -->
<g id="node65" class="node">
<title>oit_args</title>
<path fill="none" stroke="black" d="M5956.88,-1109.25C5956.88,-1109.25 5866.62,-1109.25 5866.62,-1109.25 5860.62,-1109.25 5854.62,-1103.25 5854.62,-1097.25 5854.62,-1097.25 5854.62,-1085.25 5854.62,-1085.25 5854.62,-1079.25 5860.62,-1073.25 5866.62,-1073.25 5866.62,-1073.25 5956.88,-1073.25 5956.88,-1073.25 5962.88,-1073.25 5968.88,-1079.25 5968.88,-1085.25 5968.88,-1085.25 5968.88,-1097.25 5968.88,-1097.25 5968.88,-1103.25 5962.88,-1109.25 5956.88,-1109.25"/>
<text xml:space="preserve" text-anchor="middle" x="5911.75" y="-1086.58" font-family="Times,serif" font-size="14.00">azork&#45;oit args</text>
</g>
<!-- dry -->
<g id="node66" class="node">
<title>dry</title>
<path fill="none" stroke="black" d="M5822.88,-1036.25C5822.88,-1036.25 5768.62,-1036.25 5768.62,-1036.25 5762.62,-1036.25 5756.62,-1030.25 5756.62,-1024.25 5756.62,-1024.25 5756.62,-1012.25 5756.62,-1012.25 5756.62,-1006.25 5762.62,-1000.25 5768.62,-1000.25 5768.62,-1000.25 5822.88,-1000.25 5822.88,-1000.25 5828.88,-1000.25 5834.88,-1006.25 5834.88,-1012.25 5834.88,-1012.25 5834.88,-1024.25 5834.88,-1024.25 5834.88,-1030.25 5828.88,-1036.25 5822.88,-1036.25"/>
<text xml:space="preserve" text-anchor="middle" x="5795.75" y="-1013.58" font-family="Times,serif" font-size="14.00">&#45;&#45;dry&#45;run</text>
</g>
<!-- oit_args&#45;&gt;dry -->
<g id="edge76" class="edge">
<title>oit_args&#45;&gt;dry</title>
<path fill="none" stroke="black" d="M5883.37,-1072.88C5868.49,-1063.77 5850.04,-1052.48 5833.92,-1042.61"/>
<polygon fill="black" stroke="black" points="5835.88,-1039.71 5825.53,-1037.48 5832.23,-1045.68 5835.88,-1039.71"/>
</g>
<!-- oit_report -->
<g id="node67" class="node">
<title>oit_report</title>
<path fill="none" stroke="black" d="M6194.88,-1036.25C6194.88,-1036.25 5864.62,-1036.25 5864.62,-1036.25 5858.62,-1036.25 5852.62,-1030.25 5852.62,-1024.25 5852.62,-1024.25 5852.62,-1012.25 5852.62,-1012.25 5852.62,-1006.25 5858.62,-1000.25 5864.62,-1000.25 5864.62,-1000.25 6194.88,-1000.25 6194.88,-1000.25 6200.88,-1000.25 6206.88,-1006.25 6206.88,-1012.25 6206.88,-1012.25 6206.88,-1024.25 6206.88,-1024.25 6206.88,-1030.25 6200.88,-1036.25 6194.88,-1036.25"/>
<text xml:space="preserve" text-anchor="middle" x="6029.75" y="-1013.58" font-family="Times,serif" font-size="14.00">&#45;&#45;report path default docs/oit&#45;friction&#45;report.md</text>
</g>
<!-- oit_args&#45;&gt;oit_report -->
<g id="edge78" class="edge">
<title>oit_args&#45;&gt;oit_report</title>
<path fill="none" stroke="black" d="M5940.62,-1072.88C5955.76,-1063.77 5974.52,-1052.48 5990.92,-1042.61"/>
<polygon fill="black" stroke="black" points="5992.71,-1045.62 5999.48,-1037.47 5989.1,-1039.62 5992.71,-1045.62"/>
</g>
<!-- oit_main -->
<g id="node68" class="node">
<title>oit_main</title>
<path fill="none" stroke="black" d="M5942.38,-963.25C5942.38,-963.25 5885.12,-963.25 5885.12,-963.25 5879.12,-963.25 5873.12,-957.25 5873.12,-951.25 5873.12,-951.25 5873.12,-939.25 5873.12,-939.25 5873.12,-933.25 5879.12,-927.25 5885.12,-927.25 5885.12,-927.25 5942.38,-927.25 5942.38,-927.25 5948.38,-927.25 5954.38,-933.25 5954.38,-939.25 5954.38,-939.25 5954.38,-951.25 5954.38,-951.25 5954.38,-957.25 5948.38,-963.25 5942.38,-963.25"/>
<text xml:space="preserve" text-anchor="middle" x="5913.75" y="-940.58" font-family="Times,serif" font-size="14.00">OIT main</text>
</g>
<!-- dry&#45;&gt;oit_main -->
<g id="edge77" class="edge">
<title>dry&#45;&gt;oit_main</title>
<path fill="none" stroke="black" d="M5824.62,-999.88C5839.76,-990.77 5858.52,-979.48 5874.92,-969.61"/>
<polygon fill="black" stroke="black" points="5876.71,-972.62 5883.48,-964.47 5873.1,-966.62 5876.71,-972.62"/>
</g>
<!-- oit_report&#45;&gt;oit_main -->
<g id="edge79" class="edge">
<title>oit_report&#45;&gt;oit_main</title>
<path fill="none" stroke="black" d="M6001.37,-999.88C5986.49,-990.77 5968.04,-979.48 5951.92,-969.61"/>
<polygon fill="black" stroke="black" points="5953.88,-966.71 5943.53,-964.48 5950.23,-972.68 5953.88,-966.71"/>
</g>
<!-- preflight -->
<g id="node69" class="node">
<title>preflight</title>
<path fill="none" stroke="black" d="M5838.75,-874C5838.75,-874 5720.75,-874 5720.75,-874 5714.75,-874 5708.75,-868 5708.75,-862 5708.75,-862 5708.75,-850 5708.75,-850 5708.75,-844 5714.75,-838 5720.75,-838 5720.75,-838 5838.75,-838 5838.75,-838 5844.75,-838 5850.75,-844 5850.75,-850 5850.75,-850 5850.75,-862 5850.75,-862 5850.75,-868 5844.75,-874 5838.75,-874"/>
<text xml:space="preserve" text-anchor="middle" x="5779.75" y="-851.33" font-family="Times,serif" font-size="14.00">preflight live only</text>
</g>
<!-- oit_main&#45;&gt;preflight -->
<g id="edge80" class="edge">
<title>oit_main&#45;&gt;preflight</title>
<path fill="none" stroke="black" d="M5872.7,-942.94C5845.88,-939.86 5812.08,-931.41 5791.25,-909.25 5785.21,-902.83 5782.07,-893.99 5780.51,-885.41"/>
<polygon fill="black" stroke="black" points="5784,-885.16 5779.4,-875.62 5777.05,-885.95 5784,-885.16"/>
<text xml:space="preserve" text-anchor="middle" x="5850.5" y="-895.95" font-family="Times,serif" font-size="14.00">non&#45;dry&#45;run only</text>
</g>
<!-- guard -->
<g id="node70" class="node">
<title>guard</title>
<path fill="none" stroke="black" d="M5946.5,-874C5946.5,-874 5881,-874 5881,-874 5875,-874 5869,-868 5869,-862 5869,-862 5869,-850 5869,-850 5869,-844 5875,-838 5881,-838 5881,-838 5946.5,-838 5946.5,-838 5952.5,-838 5958.5,-844 5958.5,-850 5958.5,-850 5958.5,-862 5958.5,-862 5958.5,-868 5952.5,-874 5946.5,-874"/>
<text xml:space="preserve" text-anchor="middle" x="5913.75" y="-851.33" font-family="Times,serif" font-size="14.00">guardrails</text>
</g>
<!-- oit_main&#45;&gt;guard -->
<g id="edge81" class="edge">
<title>oit_main&#45;&gt;guard</title>
<path fill="none" stroke="black" d="M5913.75,-927.01C5913.75,-915.18 5913.75,-899.2 5913.75,-885.5"/>
<polygon fill="black" stroke="black" points="5917.25,-885.72 5913.75,-875.72 5910.25,-885.72 5917.25,-885.72"/>
</g>
<!-- catalog -->
<g id="node71" class="node">
<title>catalog</title>
<path fill="none" stroke="black" d="M6032.62,-874C6032.62,-874 5988.88,-874 5988.88,-874 5982.88,-874 5976.88,-868 5976.88,-862 5976.88,-862 5976.88,-850 5976.88,-850 5976.88,-844 5982.88,-838 5988.88,-838 5988.88,-838 6032.62,-838 6032.62,-838 6038.62,-838 6044.62,-844 6044.62,-850 6044.62,-850 6044.62,-862 6044.62,-862 6044.62,-868 6038.62,-874 6032.62,-874"/>
<text xml:space="preserve" text-anchor="middle" x="6010.75" y="-851.33" font-family="Times,serif" font-size="14.00">catalog</text>
</g>
<!-- oit_main&#45;&gt;catalog -->
<g id="edge82" class="edge">
<title>oit_main&#45;&gt;catalog</title>
<path fill="none" stroke="black" d="M5932.91,-927.01C5947.26,-914.11 5967.1,-896.26 5983.15,-881.82"/>
<polygon fill="black" stroke="black" points="5985.41,-884.5 5990.5,-875.21 5980.72,-879.3 5985.41,-884.5"/>
</g>
<!-- drive -->
<g id="node72" class="node">
<title>drive</title>
<path fill="none" stroke="black" d="M6048,-801C6048,-801 5973.5,-801 5973.5,-801 5967.5,-801 5961.5,-795 5961.5,-789 5961.5,-789 5961.5,-777 5961.5,-777 5961.5,-771 5967.5,-765 5973.5,-765 5973.5,-765 6048,-765 6048,-765 6054,-765 6060,-771 6060,-777 6060,-777 6060,-789 6060,-789 6060,-795 6054,-801 6048,-801"/>
<text xml:space="preserve" text-anchor="middle" x="6010.75" y="-778.33" font-family="Times,serif" font-size="14.00">drive_azork</text>
</g>
<!-- catalog&#45;&gt;drive -->
<g id="edge83" class="edge">
<title>catalog&#45;&gt;drive</title>
<path fill="none" stroke="black" d="M6010.75,-837.81C6010.75,-830.23 6010.75,-821.1 6010.75,-812.54"/>
<polygon fill="black" stroke="black" points="6014.25,-812.54 6010.75,-802.54 6007.25,-812.54 6014.25,-812.54"/>
</g>
<!-- detect -->
<g id="node73" class="node">
<title>detect</title>
<path fill="none" stroke="black" d="M6058.5,-728C6058.5,-728 5963,-728 5963,-728 5957,-728 5951,-722 5951,-716 5951,-716 5951,-704 5951,-704 5951,-698 5957,-692 5963,-692 5963,-692 6058.5,-692 6058.5,-692 6064.5,-692 6070.5,-698 6070.5,-704 6070.5,-704 6070.5,-716 6070.5,-716 6070.5,-722 6064.5,-728 6058.5,-728"/>
<text xml:space="preserve" text-anchor="middle" x="6010.75" y="-705.33" font-family="Times,serif" font-size="14.00">detect_friction</text>
</g>
<!-- drive&#45;&gt;detect -->
<g id="edge84" class="edge">
<title>drive&#45;&gt;detect</title>
<path fill="none" stroke="black" d="M6010.75,-764.81C6010.75,-757.23 6010.75,-748.1 6010.75,-739.54"/>
<polygon fill="black" stroke="black" points="6014.25,-739.54 6010.75,-729.54 6007.25,-739.54 6014.25,-739.54"/>
</g>
<!-- md -->
<g id="node74" class="node">
<title>md</title>
<path fill="none" stroke="black" d="M6100.5,-655C6100.5,-655 5921,-655 5921,-655 5915,-655 5909,-649 5909,-643 5909,-643 5909,-631 5909,-631 5909,-625 5915,-619 5921,-619 5921,-619 6100.5,-619 6100.5,-619 6106.5,-619 6112.5,-625 6112.5,-631 6112.5,-631 6112.5,-643 6112.5,-643 6112.5,-649 6106.5,-655 6100.5,-655"/>
<text xml:space="preserve" text-anchor="middle" x="6010.75" y="-632.33" font-family="Times,serif" font-size="14.00">ReportData::to_markdown</text>
</g>
<!-- detect&#45;&gt;md -->
<g id="edge85" class="edge">
<title>detect&#45;&gt;md</title>
<path fill="none" stroke="black" d="M6010.75,-691.81C6010.75,-684.23 6010.75,-675.1 6010.75,-666.54"/>
<polygon fill="black" stroke="black" points="6014.25,-666.54 6010.75,-656.54 6007.25,-666.54 6014.25,-666.54"/>
</g>
<!-- write -->
<g id="node75" class="node">
<title>write</title>
<path fill="none" stroke="black" d="M6050.25,-582C6050.25,-582 5971.25,-582 5971.25,-582 5965.25,-582 5959.25,-576 5959.25,-570 5959.25,-570 5959.25,-558 5959.25,-558 5959.25,-552 5965.25,-546 5971.25,-546 5971.25,-546 6050.25,-546 6050.25,-546 6056.25,-546 6062.25,-552 6062.25,-558 6062.25,-558 6062.25,-570 6062.25,-570 6062.25,-576 6056.25,-582 6050.25,-582"/>
<text xml:space="preserve" text-anchor="middle" x="6010.75" y="-559.33" font-family="Times,serif" font-size="14.00">write report</text>
</g>
<!-- md&#45;&gt;write -->
<g id="edge86" class="edge">
<title>md&#45;&gt;write</title>
<path fill="none" stroke="black" d="M6010.75,-618.81C6010.75,-611.23 6010.75,-602.1 6010.75,-593.54"/>
<polygon fill="black" stroke="black" points="6014.25,-593.54 6010.75,-583.54 6007.25,-593.54 6014.25,-593.54"/>
</g>
</g>
</svg>
