<?xml version="1.0" encoding="UTF-8" standalone="no"?>
<!DOCTYPE svg PUBLIC "-//W3C//DTD SVG 1.1//EN"
 "http://www.w3.org/Graphics/SVG/1.1/DTD/svg11.dtd">
<!-- Generated by graphviz version 14.1.2 (0)
 -->
<!-- Title: journey_5_capabilities_autodiscover_registry Pages: 1 -->
<svg width="1386pt" height="203pt"
 viewBox="0.00 0.00 1386.00 203.00" xmlns="http://www.w3.org/2000/svg" xmlns:xlink="http://www.w3.org/1999/xlink">
<g id="graph0" class="graph" transform="scale(1 1) rotate(0) translate(4 199.25)">
<title>journey_5_capabilities_autodiscover_registry</title>
<polygon fill="white" stroke="none" points="-4,4 -4,-199.25 1382.25,-199.25 1382.25,4 -4,4"/>
<text xml:space="preserve" text-anchor="middle" x="689.12" y="-177.95" font-family="Times,serif" font-size="14.00">journey 5 capabilities autodiscover registry</text>
<!-- main -->
<g id="node1" class="node">
<title>main</title>
<path fill="none" stroke="black" d="M96.25,-90C96.25,-90 12,-90 12,-90 6,-90 0,-84 0,-78 0,-78 0,-66 0,-66 0,-60 6,-54 12,-54 12,-54 96.25,-54 96.25,-54 102.25,-54 108.25,-60 108.25,-66 108.25,-66 108.25,-78 108.25,-78 108.25,-84 102.25,-90 96.25,-90"/>
<text xml:space="preserve" text-anchor="middle" x="54.12" y="-67.33" font-family="Times,serif" font-size="14.00">main startup</text>
</g>
<!-- registry -->
<g id="node2" class="node">
<title>registry</title>
<path fill="none" stroke="black" d="M460.25,-90C460.25,-90 156.25,-90 156.25,-90 150.25,-90 144.25,-84 144.25,-78 144.25,-78 144.25,-66 144.25,-66 144.25,-60 150.25,-54 156.25,-54 156.25,-54 460.25,-54 460.25,-54 466.25,-54 472.25,-60 472.25,-66 472.25,-66 472.25,-78 472.25,-78 472.25,-84 466.25,-90 460.25,-90"/>
<text xml:space="preserve" text-anchor="middle" x="308.25" y="-67.33" font-family="Times,serif" font-size="14.00">CapabilityRegistry load groups extend save</text>
</g>
<!-- main&#45;&gt;registry -->
<g id="edge1" class="edge">
<title>main&#45;&gt;registry</title>
<path fill="none" stroke="black" d="M108.59,-66.36C116.05,-66.11 124.01,-65.89 132.32,-65.72"/>
<polygon fill="black" stroke="black" points="132.38,-69.22 142.31,-65.55 132.25,-62.22 132.38,-69.22"/>
</g>
<!-- main&#45;&gt;registry -->
<g id="edge9" class="edge">
<title>main&#45;&gt;registry</title>
<path fill="none" stroke="black" d="M108.59,-77.64C116.05,-77.89 124.01,-78.11 132.32,-78.28"/>
<polygon fill="black" stroke="black" points="132.25,-81.78 142.31,-78.45 132.38,-74.78 132.25,-81.78"/>
</g>
<!-- memory -->
<g id="node7" class="node">
<title>memory</title>
<path fill="none" stroke="black" d="M782.25,-36C782.25,-36 531.5,-36 531.5,-36 525.5,-36 519.5,-30 519.5,-24 519.5,-24 519.5,-12 519.5,-12 519.5,-6 525.5,0 531.5,0 531.5,0 782.25,0 782.25,0 788.25,0 794.25,-6 794.25,-12 794.25,-12 794.25,-24 794.25,-24 794.25,-30 788.25,-36 782.25,-36"/>
<text xml:space="preserve" text-anchor="middle" x="656.88" y="-13.32" font-family="Times,serif" font-size="14.00">GraphMemory remember_capability</text>
</g>
<!-- main&#45;&gt;memory -->
<g id="edge11" class="edge">
<title>main&#45;&gt;memory</title>
<path fill="none" stroke="black" d="M108.35,-53.59C120.05,-50.19 132.47,-47.06 144.25,-45 265.43,-23.77 405.02,-17.6 507.75,-16.41"/>
<polygon fill="black" stroke="black" points="507.66,-19.91 517.63,-16.31 507.59,-12.91 507.66,-19.91"/>
</g>
<!-- auto -->
<g id="node3" class="node">
<title>auto</title>
<path fill="none" stroke="black" d="M793.5,-144C793.5,-144 520.25,-144 520.25,-144 514.25,-144 508.25,-138 508.25,-132 508.25,-132 508.25,-120 508.25,-120 508.25,-114 514.25,-108 520.25,-108 520.25,-108 793.5,-108 793.5,-108 799.5,-108 805.5,-114 805.5,-120 805.5,-120 805.5,-132 805.5,-132 805.5,-138 799.5,-144 793.5,-144"/>
<text xml:space="preserve" text-anchor="middle" x="656.88" y="-121.33" font-family="Times,serif" font-size="14.00">autodiscover stream and apply_learned</text>
</g>
<!-- registry&#45;&gt;auto -->
<g id="edge2" class="edge">
<title>registry&#45;&gt;auto</title>
<path fill="none" stroke="black" d="M427.57,-90.43C459.24,-95.37 493.63,-100.72 525.89,-105.75"/>
<polygon fill="black" stroke="black" points="525.29,-109.2 535.71,-107.28 526.37,-102.28 525.29,-109.2"/>
</g>
<!-- registry&#45;&gt;memory -->
<g id="edge12" class="edge">
<title>registry&#45;&gt;memory</title>
<path fill="none" stroke="black" d="M427.57,-53.57C459.24,-48.63 493.63,-43.28 525.89,-38.25"/>
<polygon fill="black" stroke="black" points="526.37,-41.72 535.71,-36.72 525.29,-34.8 526.37,-41.72"/>
</g>
<!-- cache -->
<g id="node8" class="node">
<title>cache</title>
<path fill="none" stroke="black" d="M706.88,-90C706.88,-90 606.88,-90 606.88,-90 600.88,-90 594.88,-84 594.88,-78 594.88,-78 594.88,-66 594.88,-66 594.88,-60 600.88,-54 606.88,-54 606.88,-54 706.88,-54 706.88,-54 712.88,-54 718.88,-60 718.88,-66 718.88,-66 718.88,-78 718.88,-78 718.88,-84 712.88,-90 706.88,-90"/>
<text xml:space="preserve" text-anchor="middle" x="656.88" y="-67.33" font-family="Times,serif" font-size="14.00">capabilities.tsv</text>
</g>
<!-- registry&#45;&gt;cache -->
<g id="edge10" class="edge">
<title>registry&#45;&gt;cache</title>
<path fill="none" stroke="black" d="M472.67,-72C511.59,-72 551.18,-72 583.55,-72"/>
<polygon fill="black" stroke="black" points="583.17,-75.5 593.17,-72 583.17,-68.5 583.17,-75.5"/>
</g>
<!-- auto&#45;&gt;main -->
<g id="edge8" class="edge">
<title>auto&#45;&gt;main</title>
<path fill="none" stroke="black" d="M507.88,-127.59C405.14,-126.41 265.48,-120.24 144.25,-99 136.06,-97.56 127.56,-95.62 119.2,-93.42"/>
<polygon fill="black" stroke="black" points="120.38,-90.11 109.8,-90.81 118.5,-96.86 120.38,-90.11"/>
</g>
<!-- derive -->
<g id="node4" class="node">
<title>derive</title>
<path fill="none" stroke="black" d="M1133.5,-168C1133.5,-168 853.5,-168 853.5,-168 847.5,-168 841.5,-162 841.5,-156 841.5,-156 841.5,-144 841.5,-144 841.5,-138 847.5,-132 853.5,-132 853.5,-132 1133.5,-132 1133.5,-132 1139.5,-132 1145.5,-138 1145.5,-144 1145.5,-144 1145.5,-156 1145.5,-156 1145.5,-162 1139.5,-168 1133.5,-168"/>
<text xml:space="preserve" text-anchor="middle" x="993.5" y="-145.32" font-family="Times,serif" font-size="14.00">derive_groups derive_group_capabilities</text>
</g>
<!-- auto&#45;&gt;derive -->
<g id="edge3" class="edge">
<title>auto&#45;&gt;derive</title>
<path fill="none" stroke="black" d="M805.62,-136.6C813.65,-137.17 821.75,-137.75 829.83,-138.33"/>
<polygon fill="black" stroke="black" points="829.5,-141.82 839.72,-139.04 830,-134.84 829.5,-141.82"/>
</g>
<!-- runner -->
<g id="node5" class="node">
<title>runner</title>
<path fill="none" stroke="black" d="M1366.25,-170C1366.25,-170 1193.5,-170 1193.5,-170 1187.5,-170 1181.5,-164 1181.5,-158 1181.5,-158 1181.5,-146 1181.5,-146 1181.5,-140 1187.5,-134 1193.5,-134 1193.5,-134 1366.25,-134 1366.25,-134 1372.25,-134 1378.25,-140 1378.25,-146 1378.25,-146 1378.25,-158 1378.25,-158 1378.25,-164 1372.25,-170 1366.25,-170"/>
<text xml:space="preserve" text-anchor="middle" x="1279.88" y="-147.32" font-family="Times,serif" font-size="14.00">ProcessAzRunner az help</text>
</g>
<!-- derive&#45;&gt;runner -->
<g id="edge4" class="edge">
<title>derive&#45;&gt;runner</title>
<path fill="none" stroke="black" d="M1145.85,-144.33C1153.87,-144.41 1161.85,-144.51 1169.69,-144.65"/>
<polygon fill="black" stroke="black" points="1169.48,-148.14 1179.55,-144.83 1169.62,-141.14 1169.48,-148.14"/>
</g>
<!-- capability -->
<g id="node6" class="node">
<title>capability</title>
<path fill="none" stroke="black" d="M1341.5,-116C1341.5,-116 1218.25,-116 1218.25,-116 1212.25,-116 1206.25,-110 1206.25,-104 1206.25,-104 1206.25,-92 1206.25,-92 1206.25,-86 1212.25,-80 1218.25,-80 1218.25,-80 1341.5,-80 1341.5,-80 1347.5,-80 1353.5,-86 1353.5,-92 1353.5,-92 1353.5,-104 1353.5,-104 1353.5,-110 1347.5,-116 1341.5,-116"/>
<text xml:space="preserve" text-anchor="middle" x="1279.88" y="-93.33" font-family="Times,serif" font-size="14.00">Capability records</text>
</g>
<!-- derive&#45;&gt;capability -->
<g id="edge6" class="edge">
<title>derive&#45;&gt;capability</title>
<path fill="none" stroke="black" d="M1095.56,-131.52C1127.98,-125.59 1163.52,-119.09 1194.6,-113.41"/>
<polygon fill="black" stroke="black" points="1195.14,-116.87 1204.35,-111.63 1193.88,-109.98 1195.14,-116.87"/>
</g>
<!-- runner&#45;&gt;derive -->
<g id="edge5" class="edge">
<title>runner&#45;&gt;derive</title>
<path fill="none" stroke="black" d="M1181.06,-157.76C1173.3,-157.82 1165.33,-157.84 1157.28,-157.83"/>
<polygon fill="black" stroke="black" points="1157.37,-154.33 1147.36,-157.81 1157.35,-161.33 1157.37,-154.33"/>
</g>
<!-- capability&#45;&gt;auto -->
<g id="edge7" class="edge">
<title>capability&#45;&gt;auto</title>
<path fill="none" stroke="black" d="M1206.16,-101.28C1111.21,-105.56 942.37,-113.17 817.06,-118.82"/>
<polygon fill="black" stroke="black" points="817.18,-115.31 807.34,-119.26 817.49,-122.31 817.18,-115.31"/>
</g>
</g>
</svg>
