<?xml version="1.0" encoding="UTF-8" standalone="no"?>
<!DOCTYPE svg PUBLIC "-//W3C//DTD SVG 1.1//EN"
 "http://www.w3.org/Graphics/SVG/1.1/DTD/svg11.dtd">
<!-- Generated by graphviz version 14.1.2 (0)
 -->
<!-- Title: journey_2_repl_look_move_quests_score Pages: 1 -->
<svg width="1251pt" height="298pt"
 viewBox="0.00 0.00 1251.00 298.00" xmlns="http://www.w3.org/2000/svg" xmlns:xlink="http://www.w3.org/1999/xlink">
<g id="graph0" class="graph" transform="scale(1 1) rotate(0) translate(4 293.62)">
<title>journey_2_repl_look_move_quests_score</title>
<polygon fill="white" stroke="none" points="-4,4 -4,-293.62 1247.25,-293.62 1247.25,4 -4,4"/>
<text xml:space="preserve" text-anchor="middle" x="621.62" y="-272.32" font-family="Times,serif" font-size="14.00">journey 2 repl look move quests score</text>
<!-- user -->
<g id="node1" class="node">
<title>user</title>
<path fill="none" stroke="black" d="M396.25,-194C396.25,-194 12,-194 12,-194 6,-194 0,-188 0,-182 0,-182 0,-170 0,-170 0,-164 6,-158 12,-158 12,-158 396.25,-158 396.25,-158 402.25,-158 408.25,-164 408.25,-170 408.25,-170 408.25,-182 408.25,-182 408.25,-188 402.25,-194 396.25,-194"/>
<text xml:space="preserve" text-anchor="middle" x="204.12" y="-171.32" font-family="Times,serif" font-size="14.00">User REPL commands: look, move north, quests, score</text>
</g>
<!-- main -->
<g id="node2" class="node">
<title>main</title>
<path fill="none" stroke="black" d="M607.25,-194C607.25,-194 456.25,-194 456.25,-194 450.25,-194 444.25,-188 444.25,-182 444.25,-182 444.25,-170 444.25,-170 444.25,-164 450.25,-158 456.25,-158 456.25,-158 607.25,-158 607.25,-158 613.25,-158 619.25,-164 619.25,-170 619.25,-170 619.25,-182 619.25,-182 619.25,-188 613.25,-194 607.25,-194"/>
<text xml:space="preserve" text-anchor="middle" x="531.75" y="-171.32" font-family="Times,serif" font-size="14.00">src/main.rs REPL loop</text>
</g>
<!-- user&#45;&gt;main -->
<g id="edge1" class="edge">
<title>user&#45;&gt;main</title>
<path fill="none" stroke="black" d="M408.57,-176C416.78,-176 424.84,-176 432.66,-176"/>
<polygon fill="black" stroke="black" points="432.42,-179.5 442.42,-176 432.42,-172.5 432.42,-179.5"/>
</g>
<!-- parser -->
<g id="node3" class="node">
<title>parser</title>
<path fill="none" stroke="black" d="M817.88,-113C817.88,-113 730.62,-113 730.62,-113 724.62,-113 718.62,-107 718.62,-101 718.62,-101 718.62,-89 718.62,-89 718.62,-83 724.62,-77 730.62,-77 730.62,-77 817.88,-77 817.88,-77 823.88,-77 829.88,-83 829.88,-89 829.88,-89 829.88,-101 829.88,-101 829.88,-107 823.88,-113 817.88,-113"/>
<text xml:space="preserve" text-anchor="middle" x="774.25" y="-90.33" font-family="Times,serif" font-size="14.00">parser::parse</text>
</g>
<!-- main&#45;&gt;parser -->
<g id="edge3" class="edge">
<title>main&#45;&gt;parser</title>
<path fill="none" stroke="black" d="M569.55,-157.57C593.51,-146.13 625.69,-131.8 655.25,-122 671.86,-116.49 690.15,-111.71 707.26,-107.77"/>
<polygon fill="black" stroke="black" points="707.84,-111.23 716.84,-105.63 706.31,-104.4 707.84,-111.23"/>
</g>
<!-- memory -->
<g id="node10" class="node">
<title>memory</title>
<path fill="none" stroke="black" d="M881.25,-221C881.25,-221 667.25,-221 667.25,-221 661.25,-221 655.25,-215 655.25,-209 655.25,-209 655.25,-197 655.25,-197 655.25,-191 661.25,-185 667.25,-185 667.25,-185 881.25,-185 881.25,-185 887.25,-185 893.25,-191 893.25,-197 893.25,-197 893.25,-209 893.25,-209 893.25,-215 887.25,-221 881.25,-221"/>
<text xml:space="preserve" text-anchor="middle" x="774.25" y="-198.32" font-family="Times,serif" font-size="14.00">GraphMemory record and save</text>
</g>
<!-- main&#45;&gt;memory -->
<g id="edge2" class="edge">
<title>main&#45;&gt;memory</title>
<path fill="none" stroke="black" d="M619.58,-179.23C631.86,-180.43 644.64,-181.79 657.36,-183.24"/>
<polygon fill="black" stroke="black" points="656.67,-186.69 667,-184.37 657.47,-179.73 656.67,-186.69"/>
</g>
<!-- main&#45;&gt;memory -->
<g id="edge15" class="edge">
<title>main&#45;&gt;memory</title>
<path fill="none" stroke="black" d="M619.58,-192.26C627.53,-193.27 635.7,-194.26 643.92,-195.21"/>
<polygon fill="black" stroke="black" points="643.32,-198.67 653.65,-196.32 644.11,-191.71 643.32,-198.67"/>
</g>
<!-- grue -->
<g id="node11" class="node">
<title>grue</title>
<path fill="none" stroke="black" d="M826.12,-167C826.12,-167 722.38,-167 722.38,-167 716.38,-167 710.38,-161 710.38,-155 710.38,-155 710.38,-143 710.38,-143 710.38,-137 716.38,-131 722.38,-131 722.38,-131 826.12,-131 826.12,-131 832.12,-131 838.12,-137 838.12,-143 838.12,-143 838.12,-155 838.12,-155 838.12,-161 832.12,-167 826.12,-167"/>
<text xml:space="preserve" text-anchor="middle" x="774.25" y="-144.32" font-family="Times,serif" font-size="14.00">run_grue_check</text>
</g>
<!-- main&#45;&gt;grue -->
<g id="edge14" class="edge">
<title>main&#45;&gt;grue</title>
<path fill="none" stroke="black" d="M619.58,-166.25C645.48,-163.34 673.63,-160.18 698.67,-157.37"/>
<polygon fill="black" stroke="black" points="698.89,-160.87 708.44,-156.28 698.11,-153.91 698.89,-160.87"/>
</g>
<!-- look -->
<g id="node4" class="node">
<title>look</title>
<path fill="none" stroke="black" d="M1064.12,-113C1064.12,-113 957.38,-113 957.38,-113 951.38,-113 945.38,-107 945.38,-101 945.38,-101 945.38,-89 945.38,-89 945.38,-83 951.38,-77 957.38,-77 957.38,-77 1064.12,-77 1064.12,-77 1070.12,-77 1076.12,-83 1076.12,-89 1076.12,-89 1076.12,-101 1076.12,-101 1076.12,-107 1070.12,-113 1064.12,-113"/>
<text xml:space="preserve" text-anchor="middle" x="1010.75" y="-90.33" font-family="Times,serif" font-size="14.00">Command::Look</text>
</g>
<!-- parser&#45;&gt;look -->
<g id="edge4" class="edge">
<title>parser&#45;&gt;look</title>
<path fill="none" stroke="black" d="M830.23,-95C861.12,-95 900.14,-95 933.9,-95"/>
<polygon fill="black" stroke="black" points="933.62,-98.5 943.62,-95 933.62,-91.5 933.62,-98.5"/>
</g>
<!-- go -->
<g id="node5" class="node">
<title>go</title>
<path fill="none" stroke="black" d="M1080.25,-221C1080.25,-221 941.25,-221 941.25,-221 935.25,-221 929.25,-215 929.25,-209 929.25,-209 929.25,-197 929.25,-197 929.25,-191 935.25,-185 941.25,-185 941.25,-185 1080.25,-185 1080.25,-185 1086.25,-185 1092.25,-191 1092.25,-197 1092.25,-197 1092.25,-209 1092.25,-209 1092.25,-215 1086.25,-221 1080.25,-221"/>
<text xml:space="preserve" text-anchor="middle" x="1010.75" y="-198.32" font-family="Times,serif" font-size="14.00">Command::Go North</text>
</g>
<!-- parser&#45;&gt;go -->
<g id="edge6" class="edge">
<title>parser&#45;&gt;go</title>
<path fill="none" stroke="black" d="M830.13,-98.87C851.31,-102.48 874.83,-109.29 893.25,-122 916.99,-138.38 906.34,-158.47 929.25,-176 930.57,-177.01 931.92,-177.98 933.31,-178.92"/>
<polygon fill="black" stroke="black" points="931.22,-181.75 941.61,-183.83 934.79,-175.72 931.22,-181.75"/>
</g>
<!-- quest -->
<g id="node6" class="node">
<title>quest</title>
<path fill="none" stroke="black" d="M1068.25,-59C1068.25,-59 953.25,-59 953.25,-59 947.25,-59 941.25,-53 941.25,-47 941.25,-47 941.25,-35 941.25,-35 941.25,-29 947.25,-23 953.25,-23 953.25,-23 1068.25,-23 1068.25,-23 1074.25,-23 1080.25,-29 1080.25,-35 1080.25,-35 1080.25,-47 1080.25,-47 1080.25,-53 1074.25,-59 1068.25,-59"/>
<text xml:space="preserve" text-anchor="middle" x="1010.75" y="-36.33" font-family="Times,serif" font-size="14.00">Command::Quest</text>
</g>
<!-- parser&#45;&gt;quest -->
<g id="edge8" class="edge">
<title>parser&#45;&gt;quest</title>
<path fill="none" stroke="black" d="M830.23,-82.34C859.91,-75.51 897.08,-66.95 929.89,-59.39"/>
<polygon fill="black" stroke="black" points="930.4,-62.86 939.36,-57.21 928.83,-56.04 930.4,-62.86"/>
</g>
<!-- score -->
<g id="node7" class="node">
<title>score</title>
<path fill="none" stroke="black" d="M1067.5,-167C1067.5,-167 954,-167 954,-167 948,-167 942,-161 942,-155 942,-155 942,-143 942,-143 942,-137 948,-131 954,-131 954,-131 1067.5,-131 1067.5,-131 1073.5,-131 1079.5,-137 1079.5,-143 1079.5,-143 1079.5,-155 1079.5,-155 1079.5,-161 1073.5,-167 1067.5,-167"/>
<text xml:space="preserve" text-anchor="middle" x="1010.75" y="-144.32" font-family="Times,serif" font-size="14.00">Command::Score</text>
</g>
<!-- parser&#45;&gt;score -->
<g id="edge10" class="edge">
<title>parser&#45;&gt;score</title>
<path fill="none" stroke="black" d="M830.19,-107.54C850.06,-112.08 872.67,-117.26 893.25,-122 905.38,-124.79 918.21,-127.76 930.76,-130.66"/>
<polygon fill="black" stroke="black" points="929.68,-134 940.21,-132.85 931.26,-127.18 929.68,-134"/>
</g>
<!-- world -->
<g id="node8" class="node">
<title>world</title>
<path fill="none" stroke="black" d="M1202.75,-194C1202.75,-194 1168.75,-194 1168.75,-194 1162.75,-194 1156.75,-188 1156.75,-182 1156.75,-182 1156.75,-170 1156.75,-170 1156.75,-164 1162.75,-158 1168.75,-158 1168.75,-158 1202.75,-158 1202.75,-158 1208.75,-158 1214.75,-164 1214.75,-170 1214.75,-170 1214.75,-182 1214.75,-182 1214.75,-188 1208.75,-194 1202.75,-194"/>
<text xml:space="preserve" text-anchor="middle" x="1185.75" y="-171.32" font-family="Times,serif" font-size="14.00">World</text>
</g>
<!-- look&#45;&gt;world -->
<g id="edge5" class="edge">
<title>look&#45;&gt;world</title>
<path fill="none" stroke="black" d="M1071.2,-113.4C1078.38,-116.07 1085.54,-118.95 1092.25,-122 1110.9,-130.46 1130.62,-141.64 1147.05,-151.63"/>
<polygon fill="black" stroke="black" points="1145.17,-154.58 1155.52,-156.86 1148.85,-148.63 1145.17,-154.58"/>
</g>
<!-- go&#45;&gt;world -->
<g id="edge7" class="edge">
<title>go&#45;&gt;world</title>
<path fill="none" stroke="black" d="M1092.68,-190.37C1110.9,-187.53 1129.45,-184.63 1145.08,-182.19"/>
<polygon fill="black" stroke="black" points="1145.57,-185.66 1154.91,-180.66 1144.49,-178.74 1145.57,-185.66"/>
</g>
<!-- quests -->
<g id="node9" class="node">
<title>quests</title>
<path fill="none" stroke="black" d="M1231.25,-36C1231.25,-36 1140.25,-36 1140.25,-36 1134.25,-36 1128.25,-30 1128.25,-24 1128.25,-24 1128.25,-12 1128.25,-12 1128.25,-6 1134.25,0 1140.25,0 1140.25,0 1231.25,0 1231.25,0 1237.25,0 1243.25,-6 1243.25,-12 1243.25,-12 1243.25,-24 1243.25,-24 1243.25,-30 1237.25,-36 1231.25,-36"/>
<text xml:space="preserve" text-anchor="middle" x="1185.75" y="-13.32" font-family="Times,serif" font-size="14.00">quests_report</text>
</g>
<!-- quest&#45;&gt;quests -->
<g id="edge9" class="edge">
<title>quest&#45;&gt;quests</title>
<path fill="none" stroke="black" d="M1080.62,-31.84C1092.47,-30.27 1104.79,-28.63 1116.62,-27.06"/>
<polygon fill="black" stroke="black" points="1116.84,-30.56 1126.29,-25.77 1115.92,-23.62 1116.84,-30.56"/>
</g>
<!-- score&#45;&gt;world -->
<g id="edge11" class="edge">
<title>score&#45;&gt;world</title>
<path fill="none" stroke="black" d="M1079.63,-159.59C1101.84,-163.06 1125.77,-166.79 1145.18,-169.82"/>
<polygon fill="black" stroke="black" points="1144.41,-173.25 1154.83,-171.33 1145.49,-166.33 1144.41,-173.25"/>
</g>
<!-- world&#45;&gt;main -->
<g id="edge12" class="edge">
<title>world&#45;&gt;main</title>
<path fill="none" stroke="black" d="M1161.22,-194.49C1143.41,-207.24 1117.74,-223.1 1092.25,-230 904.77,-280.72 845.3,-270.03 655.25,-230 627.15,-224.08 597.63,-211.29 574.61,-199.65"/>
<polygon fill="black" stroke="black" points="576.36,-196.61 565.87,-195.1 573.13,-202.82 576.36,-196.61"/>
</g>
<!-- quests&#45;&gt;main -->
<g id="edge13" class="edge">
<title>quests&#45;&gt;main</title>
<path fill="none" stroke="black" d="M1127.89,-10.69C1026.9,-0.36 812.15,9.46 655.25,-68 615,-87.87 577.68,-124.48 555.06,-149.51"/>
<polygon fill="black" stroke="black" points="552.7,-146.9 548.69,-156.71 557.94,-151.54 552.7,-146.9"/>
</g>
</g>
</svg>
