<?xml version="1.0" encoding="UTF-8" standalone="no"?>
<!DOCTYPE svg PUBLIC "-//W3C//DTD SVG 1.1//EN"
 "http://www.w3.org/Graphics/SVG/1.1/DTD/svg11.dtd">
<!-- Generated by graphviz version 14.1.2 (0)
 -->
<!-- Title: journey_4_self_update_check Pages: 1 -->
<svg width="2877pt" height="175pt"
 viewBox="0.00 0.00 2877.00 175.00" xmlns="http://www.w3.org/2000/svg" xmlns:xlink="http://www.w3.org/1999/xlink">
<g id="graph0" class="graph" transform="scale(1 1) rotate(0) translate(4 171.25)">
<title>journey_4_self_update_check</title>
<polygon fill="white" stroke="none" points="-4,4 -4,-171.25 2873.25,-171.25 2873.25,4 -4,4"/>
<text xml:space="preserve" text-anchor="middle" x="1434.62" y="-149.95" font-family="Times,serif" font-size="14.00">journey 4 self&#45;update check</text>
<!-- user -->
<g id="node1" class="node">
<title>user</title>
<path fill="none" stroke="black" d="M268,-115C268,-115 12,-115 12,-115 6,-115 0,-109 0,-103 0,-103 0,-91 0,-91 0,-85 6,-79 12,-79 12,-79 268,-79 268,-79 274,-79 280,-85 280,-91 280,-91 280,-103 280,-103 280,-109 274,-115 268,-115"/>
<text xml:space="preserve" text-anchor="middle" x="140" y="-92.33" font-family="Times,serif" font-size="14.00">User: azork update &#45;&#45;check or update</text>
</g>
<!-- main -->
<g id="node2" class="node">
<title>main</title>
<path fill="none" stroke="black" d="M504,-115C504,-115 329,-115 329,-115 323,-115 317,-109 317,-103 317,-103 317,-91 317,-91 317,-85 323,-79 329,-79 329,-79 504,-79 504,-79 510,-79 516,-85 516,-91 516,-91 516,-103 516,-103 516,-109 510,-115 504,-115"/>
<text xml:space="preserve" text-anchor="middle" x="416.5" y="-92.33" font-family="Times,serif" font-size="14.00">src/main.rs update match</text>
</g>
<!-- user&#45;&gt;main -->
<g id="edge1" class="edge">
<title>user&#45;&gt;main</title>
<path fill="none" stroke="black" d="M280.26,-97C288.75,-97 297.22,-97 305.56,-97"/>
<polygon fill="black" stroke="black" points="305.31,-100.5 315.31,-97 305.31,-93.5 305.31,-100.5"/>
</g>
<!-- update -->
<g id="node3" class="node">
<title>update</title>
<path fill="none" stroke="black" d="M734.75,-115C734.75,-115 565,-115 565,-115 559,-115 553,-109 553,-103 553,-103 553,-91 553,-91 553,-85 559,-79 565,-79 565,-79 734.75,-79 734.75,-79 740.75,-79 746.75,-85 746.75,-91 746.75,-91 746.75,-103 746.75,-103 746.75,-109 740.75,-115 734.75,-115"/>
<text xml:space="preserve" text-anchor="middle" x="649.88" y="-92.33" font-family="Times,serif" font-size="14.00">update::run_update_with</text>
</g>
<!-- main&#45;&gt;update -->
<g id="edge2" class="edge">
<title>main&#45;&gt;update</title>
<path fill="none" stroke="black" d="M516.29,-97C524.57,-97 532.96,-97 541.3,-97"/>
<polygon fill="black" stroke="black" points="541.1,-100.5 551.1,-97 541.1,-93.5 541.1,-100.5"/>
</g>
<!-- resolve -->
<g id="node4" class="node">
<title>resolve</title>
<path fill="none" stroke="black" d="M1146.12,-142C1146.12,-142 998.88,-142 998.88,-142 992.88,-142 986.88,-136 986.88,-130 986.88,-130 986.88,-118 986.88,-118 986.88,-112 992.88,-106 998.88,-106 998.88,-106 1146.12,-106 1146.12,-106 1152.12,-106 1158.12,-112 1158.12,-118 1158.12,-118 1158.12,-130 1158.12,-130 1158.12,-136 1152.12,-142 1146.12,-142"/>
<text xml:space="preserve" text-anchor="middle" x="1072.5" y="-119.33" font-family="Times,serif" font-size="14.00">resolve_latest_update</text>
</g>
<!-- update&#45;&gt;resolve -->
<g id="edge3" class="edge">
<title>update&#45;&gt;resolve</title>
<path fill="none" stroke="black" d="M747.11,-103.18C815.45,-107.56 906.84,-113.43 975.19,-117.82"/>
<polygon fill="black" stroke="black" points="974.67,-121.29 984.88,-118.44 975.12,-114.31 974.67,-121.29"/>
<text xml:space="preserve" text-anchor="middle" x="806.75" y="-113.29" font-family="Times,serif" font-size="14.00">&#45;&#45;check only</text>
</g>
<!-- do_update -->
<g id="node13" class="node">
<title>do_update</title>
<path fill="none" stroke="black" d="M944.25,-90C944.25,-90 878.75,-90 878.75,-90 872.75,-90 866.75,-84 866.75,-78 866.75,-78 866.75,-66 866.75,-66 866.75,-60 872.75,-54 878.75,-54 878.75,-54 944.25,-54 944.25,-54 950.25,-54 956.25,-60 956.25,-66 956.25,-66 956.25,-78 956.25,-78 956.25,-84 950.25,-90 944.25,-90"/>
<text xml:space="preserve" text-anchor="middle" x="911.5" y="-67.33" font-family="Times,serif" font-size="14.00">do_update</text>
</g>
<!-- update&#45;&gt;do_update -->
<g id="edge7" class="edge">
<title>update&#45;&gt;do_update</title>
<path fill="none" stroke="black" d="M747.11,-82.7C753.07,-81.99 758.99,-81.33 764.75,-80.75 794.54,-77.74 827.87,-75.64 855.13,-74.26"/>
<polygon fill="black" stroke="black" points="855.09,-77.76 864.9,-73.78 854.75,-70.77 855.09,-77.76"/>
<text xml:space="preserve" text-anchor="middle" x="806.75" y="-84.7" font-family="Times,serif" font-size="14.00">install</text>
</g>
<!-- network -->
<g id="node5" class="node">
<title>network</title>
<path fill="none" stroke="black" d="M1772.25,-90C1772.25,-90 1467.5,-90 1467.5,-90 1461.5,-90 1455.5,-84 1455.5,-78 1455.5,-78 1455.5,-66 1455.5,-66 1455.5,-60 1461.5,-54 1467.5,-54 1467.5,-54 1772.25,-54 1772.25,-54 1778.25,-54 1784.25,-60 1784.25,-66 1784.25,-66 1784.25,-78 1784.25,-78 1784.25,-84 1778.25,-90 1772.25,-90"/>
<text xml:space="preserve" text-anchor="middle" x="1619.88" y="-67.33" font-family="Times,serif" font-size="14.00">network::fetch_latest_release and download</text>
</g>
<!-- resolve&#45;&gt;network -->
<g id="edge4" class="edge">
<title>resolve&#45;&gt;network</title>
<path fill="none" stroke="black" d="M1158.34,-119.31C1228.26,-115.1 1329.94,-108.17 1418.5,-99 1438.16,-96.96 1458.87,-94.52 1479.22,-91.94"/>
<polygon fill="black" stroke="black" points="1479.5,-95.43 1488.97,-90.69 1478.61,-88.49 1479.5,-95.43"/>
<text xml:space="preserve" text-anchor="middle" x="1303.62" y="-121.29" font-family="Times,serif" font-size="14.00">&#45;&#45;check only</text>
</g>
<!-- semver -->
<g id="node6" class="node">
<title>semver</title>
<path fill="none" stroke="black" d="M2407.25,-90C2407.25,-90 2156.5,-90 2156.5,-90 2150.5,-90 2144.5,-84 2144.5,-78 2144.5,-78 2144.5,-66 2144.5,-66 2144.5,-60 2150.5,-54 2156.5,-54 2156.5,-54 2407.25,-54 2407.25,-54 2413.25,-54 2419.25,-60 2419.25,-66 2419.25,-66 2419.25,-78 2419.25,-78 2419.25,-84 2413.25,-90 2407.25,-90"/>
<text xml:space="preserve" text-anchor="middle" x="2281.88" y="-67.33" font-family="Times,serif" font-size="14.00">normalize_tag is_newer select_asset</text>
</g>
<!-- network&#45;&gt;semver -->
<g id="edge5" class="edge">
<title>network&#45;&gt;semver</title>
<path fill="none" stroke="black" d="M1784.44,-72C1891.15,-72 2029.31,-72 2132.77,-72"/>
<polygon fill="black" stroke="black" points="2132.75,-75.5 2142.75,-72 2132.75,-68.5 2132.75,-75.5"/>
<text xml:space="preserve" text-anchor="middle" x="1844.25" y="-75.95" font-family="Times,serif" font-size="14.00">&#45;&#45;check only</text>
</g>
<!-- result -->
<g id="node12" class="node">
<title>result</title>
<path fill="none" stroke="black" d="M2857.25,-63C2857.25,-63 2632.75,-63 2632.75,-63 2626.75,-63 2620.75,-57 2620.75,-51 2620.75,-51 2620.75,-39 2620.75,-39 2620.75,-33 2626.75,-27 2632.75,-27 2632.75,-27 2857.25,-27 2857.25,-27 2863.25,-27 2869.25,-33 2869.25,-39 2869.25,-39 2869.25,-51 2869.25,-51 2869.25,-57 2863.25,-63 2857.25,-63"/>
<text xml:space="preserve" text-anchor="middle" x="2745" y="-40.33" font-family="Times,serif" font-size="14.00">stdout or UpdateError exit_code</text>
</g>
<!-- semver&#45;&gt;result -->
<g id="edge6" class="edge">
<title>semver&#45;&gt;result</title>
<path fill="none" stroke="black" d="M2419.67,-63.99C2479.54,-60.49 2549.57,-56.38 2609.21,-52.89"/>
<polygon fill="black" stroke="black" points="2609.32,-56.39 2619.1,-52.31 2608.91,-49.4 2609.32,-56.39"/>
<text xml:space="preserve" text-anchor="middle" x="2510.5" y="-66.86" font-family="Times,serif" font-size="14.00">&#45;&#45;check only</text>
</g>
<!-- check -->
<g id="node7" class="node">
<title>check</title>
<path fill="none" stroke="black" d="M1403.5,-90C1403.5,-90 1203.75,-90 1203.75,-90 1197.75,-90 1191.75,-84 1191.75,-78 1191.75,-78 1191.75,-66 1191.75,-66 1191.75,-60 1197.75,-54 1203.75,-54 1203.75,-54 1403.5,-54 1403.5,-54 1409.5,-54 1415.5,-60 1415.5,-66 1415.5,-66 1415.5,-78 1415.5,-78 1415.5,-84 1409.5,-90 1403.5,-90"/>
<text xml:space="preserve" text-anchor="middle" x="1303.62" y="-67.33" font-family="Times,serif" font-size="14.00">check cache write_last_check</text>
</g>
<!-- install -->
<g id="node8" class="node">
<title>install</title>
<path fill="none" stroke="black" d="M1406.5,-36C1406.5,-36 1200.75,-36 1200.75,-36 1194.75,-36 1188.75,-30 1188.75,-24 1188.75,-24 1188.75,-12 1188.75,-12 1188.75,-6 1194.75,0 1200.75,0 1200.75,0 1406.5,0 1406.5,0 1412.5,0 1418.5,-6 1418.5,-12 1418.5,-12 1418.5,-24 1418.5,-24 1418.5,-30 1412.5,-36 1406.5,-36"/>
<text xml:space="preserve" text-anchor="middle" x="1303.62" y="-13.32" font-family="Times,serif" font-size="14.00">install::download_and_replace</text>
</g>
<!-- install&#45;&gt;network -->
<g id="edge10" class="edge">
<title>install&#45;&gt;network</title>
<path fill="none" stroke="black" d="M1406.85,-36.48C1423.12,-39.37 1439.77,-42.29 1455.5,-45 1468.23,-47.19 1481.52,-49.44 1494.78,-51.67"/>
<polygon fill="black" stroke="black" points="1493.97,-55.08 1504.41,-53.28 1495.13,-48.18 1493.97,-55.08"/>
</g>
<!-- checksum -->
<g id="node9" class="node">
<title>checksum</title>
<path fill="none" stroke="black" d="M1665.75,-36C1665.75,-36 1574,-36 1574,-36 1568,-36 1562,-30 1562,-24 1562,-24 1562,-12 1562,-12 1562,-6 1568,0 1574,0 1574,0 1665.75,0 1665.75,0 1671.75,0 1677.75,-6 1677.75,-12 1677.75,-12 1677.75,-24 1677.75,-24 1677.75,-30 1671.75,-36 1665.75,-36"/>
<text xml:space="preserve" text-anchor="middle" x="1619.88" y="-13.32" font-family="Times,serif" font-size="14.00">verify_sha256</text>
</g>
<!-- install&#45;&gt;checksum -->
<g id="edge11" class="edge">
<title>install&#45;&gt;checksum</title>
<path fill="none" stroke="black" d="M1418.97,-18C1463.21,-18 1512.35,-18 1550.84,-18"/>
<polygon fill="black" stroke="black" points="1550.4,-21.5 1560.4,-18 1550.4,-14.5 1550.4,-21.5"/>
</g>
<!-- archive -->
<g id="node10" class="node">
<title>archive</title>
<path fill="none" stroke="black" d="M2114.5,-36C2114.5,-36 1916.25,-36 1916.25,-36 1910.25,-36 1904.25,-30 1904.25,-24 1904.25,-24 1904.25,-12 1904.25,-12 1904.25,-6 1910.25,0 1916.25,0 1916.25,0 2114.5,0 2114.5,0 2120.5,0 2126.5,-6 2126.5,-12 2126.5,-12 2126.5,-24 2126.5,-24 2126.5,-30 2120.5,-36 2114.5,-36"/>
<text xml:space="preserve" text-anchor="middle" x="2015.38" y="-13.32" font-family="Times,serif" font-size="14.00">extract_binary traversal&#45;safe</text>
</g>
<!-- checksum&#45;&gt;archive -->
<g id="edge12" class="edge">
<title>checksum&#45;&gt;archive</title>
<path fill="none" stroke="black" d="M1678.09,-18C1734.04,-18 1820.99,-18 1892.46,-18"/>
<polygon fill="black" stroke="black" points="1892.28,-21.5 1902.28,-18 1892.28,-14.5 1892.28,-21.5"/>
</g>
<!-- post -->
<g id="node11" class="node">
<title>post</title>
<path fill="none" stroke="black" d="M2571.75,-36C2571.75,-36 2449.25,-36 2449.25,-36 2443.25,-36 2437.25,-30 2437.25,-24 2437.25,-24 2437.25,-12 2437.25,-12 2437.25,-6 2443.25,0 2449.25,0 2449.25,0 2571.75,0 2571.75,0 2577.75,0 2583.75,-6 2583.75,-12 2583.75,-12 2583.75,-24 2583.75,-24 2583.75,-30 2577.75,-36 2571.75,-36"/>
<text xml:space="preserve" text-anchor="middle" x="2510.5" y="-13.32" font-family="Times,serif" font-size="14.00">post_install stamp</text>
</g>
<!-- archive&#45;&gt;post -->
<g id="edge13" class="edge">
<title>archive&#45;&gt;post</title>
<path fill="none" stroke="black" d="M2126.73,-18C2217.17,-18 2343.22,-18 2425.57,-18"/>
<polygon fill="black" stroke="black" points="2425.38,-21.5 2435.38,-18 2425.38,-14.5 2425.38,-21.5"/>
</g>
<!-- post&#45;&gt;result -->
<g id="edge14" class="edge">
<title>post&#45;&gt;result</title>
<path fill="none" stroke="black" d="M2584.11,-26.43C2592.17,-27.37 2600.56,-28.34 2609.08,-29.33"/>
<polygon fill="black" stroke="black" points="2608.51,-32.79 2618.85,-30.47 2609.32,-25.84 2608.51,-32.79"/>
</g>
<!-- do_update&#45;&gt;check -->
<g id="edge8" class="edge">
<title>do_update&#45;&gt;check</title>
<path fill="none" stroke="black" d="M956.49,-72C1010.43,-72 1104.09,-72 1180.38,-72"/>
<polygon fill="black" stroke="black" points="1179.99,-75.5 1189.99,-72 1179.99,-68.5 1179.99,-75.5"/>
<text xml:space="preserve" text-anchor="middle" x="1072.5" y="-75.95" font-family="Times,serif" font-size="14.00">write_last_check best effort</text>
</g>
<!-- do_update&#45;&gt;install -->
<g id="edge9" class="edge">
<title>do_update&#45;&gt;install</title>
<path fill="none" stroke="black" d="M956.49,-65.91C1009.77,-58.54 1101.78,-45.8 1177.55,-35.31"/>
<polygon fill="black" stroke="black" points="1177.68,-38.83 1187.11,-33.99 1176.73,-31.89 1177.68,-38.83"/>
</g>
</g>
</svg>
