<?xml version="1.0" encoding="UTF-8" standalone="no"?>
<!DOCTYPE svg PUBLIC "-//W3C//DTD SVG 1.1//EN"
 "http://www.w3.org/Graphics/SVG/1.1/DTD/svg11.dtd">
<!-- Generated by graphviz version 14.1.2 (0)
 -->
<!-- Title: journey_3_oit_dry_run_report Pages: 1 -->
<svg width="1625pt" height="123pt"
 viewBox="0.00 0.00 1625.00 123.00" xmlns="http://www.w3.org/2000/svg" xmlns:xlink="http://www.w3.org/1999/xlink">
<g id="graph0" class="graph" transform="scale(1 1) rotate(0) translate(4 119.25)">
<title>journey_3_oit_dry_run_report</title>
<polygon fill="white" stroke="none" points="-4,4 -4,-119.25 1621,-119.25 1621,4 -4,4"/>
<text xml:space="preserve" text-anchor="middle" x="808.5" y="-97.95" font-family="Times,serif" font-size="14.00">journey 3 oit dry&#45;run report</text>
<!-- user -->
<g id="node1" class="node">
<title>user</title>
<path fill="none" stroke="black" d="M271.75,-90C271.75,-90 12,-90 12,-90 6,-90 0,-84 0,-78 0,-78 0,-66 0,-66 0,-60 6,-54 12,-54 12,-54 271.75,-54 271.75,-54 277.75,-54 283.75,-60 283.75,-66 283.75,-66 283.75,-78 283.75,-78 283.75,-84 277.75,-90 271.75,-90"/>
<text xml:space="preserve" text-anchor="middle" x="141.88" y="-67.33" font-family="Times,serif" font-size="14.00">User: azork&#45;oit &#45;&#45;dry&#45;run &#45;&#45;report path</text>
</g>
<!-- oit -->
<g id="node2" class="node">
<title>oit</title>
<path fill="none" stroke="black" d="M425.75,-90C425.75,-90 331.75,-90 331.75,-90 325.75,-90 319.75,-84 319.75,-78 319.75,-78 319.75,-66 319.75,-66 319.75,-60 325.75,-54 331.75,-54 331.75,-54 425.75,-54 425.75,-54 431.75,-54 437.75,-60 437.75,-66 437.75,-66 437.75,-78 437.75,-78 437.75,-84 431.75,-90 425.75,-90"/>
<text xml:space="preserve" text-anchor="middle" x="378.75" y="-67.33" font-family="Times,serif" font-size="14.00">azork&#45;oit main</text>
</g>
<!-- user&#45;&gt;oit -->
<g id="edge1" class="edge">
<title>user&#45;&gt;oit</title>
<path fill="none" stroke="black" d="M284.25,-72C292.38,-72 300.34,-72 307.99,-72"/>
<polygon fill="black" stroke="black" points="307.81,-75.5 317.81,-72 307.81,-68.5 307.81,-75.5"/>
</g>
<!-- catalog -->
<g id="node3" class="node">
<title>catalog</title>
<path fill="none" stroke="black" d="M674.25,-90C674.25,-90 530,-90 530,-90 524,-90 518,-84 518,-78 518,-78 518,-66 518,-66 518,-60 524,-54 530,-54 530,-54 674.25,-54 674.25,-54 680.25,-54 686.25,-60 686.25,-66 686.25,-66 686.25,-78 686.25,-78 686.25,-84 680.25,-90 674.25,-90"/>
<text xml:space="preserve" text-anchor="middle" x="602.12" y="-67.33" font-family="Times,serif" font-size="14.00">oit::usecases::catalog</text>
</g>
<!-- oit&#45;&gt;catalog -->
<g id="edge2" class="edge">
<title>oit&#45;&gt;catalog</title>
<path fill="none" stroke="black" d="M438.2,-65.97C459.12,-65.35 483.26,-65.13 506.45,-65.31"/>
<polygon fill="black" stroke="black" points="506.19,-68.81 516.23,-65.42 506.26,-61.81 506.19,-68.81"/>
</g>
<!-- azork -->
<g id="node4" class="node">
<title>azork</title>
<path fill="none" stroke="black" d="M718.5,-36C718.5,-36 485.75,-36 485.75,-36 479.75,-36 473.75,-30 473.75,-24 473.75,-24 473.75,-12 473.75,-12 473.75,-6 479.75,0 485.75,0 485.75,0 718.5,0 718.5,0 724.5,0 730.5,-6 730.5,-12 730.5,-12 730.5,-24 730.5,-24 730.5,-30 724.5,-36 718.5,-36"/>
<text xml:space="preserve" text-anchor="middle" x="602.12" y="-13.32" font-family="Times,serif" font-size="14.00">drive_azork azork &#45;&#45;backend mock</text>
</g>
<!-- oit&#45;&gt;azork -->
<g id="edge4" class="edge">
<title>oit&#45;&gt;azork</title>
<path fill="none" stroke="black" d="M438.24,-54.5C449.96,-51.2 462.22,-47.87 473.75,-45 481.91,-42.97 490.39,-40.95 498.92,-39"/>
<polygon fill="black" stroke="black" points="499.68,-42.41 508.66,-36.8 498.14,-35.59 499.68,-42.41"/>
</g>
<!-- catalog&#45;&gt;oit -->
<g id="edge3" class="edge">
<title>catalog&#45;&gt;oit</title>
<path fill="none" stroke="black" d="M517.74,-78.56C495.29,-78.88 471.24,-78.8 449.61,-78.32"/>
<polygon fill="black" stroke="black" points="449.8,-74.83 439.72,-78.07 449.62,-81.83 449.8,-74.83"/>
</g>
<!-- split -->
<g id="node5" class="node">
<title>split</title>
<path fill="none" stroke="black" d="M885.25,-36C885.25,-36 778.5,-36 778.5,-36 772.5,-36 766.5,-30 766.5,-24 766.5,-24 766.5,-12 766.5,-12 766.5,-6 772.5,0 778.5,0 778.5,0 885.25,0 885.25,0 891.25,0 897.25,-6 897.25,-12 897.25,-12 897.25,-24 897.25,-24 897.25,-30 891.25,-36 885.25,-36"/>
<text xml:space="preserve" text-anchor="middle" x="831.88" y="-13.32" font-family="Times,serif" font-size="14.00">split_by_prompt</text>
</g>
<!-- azork&#45;&gt;split -->
<g id="edge5" class="edge">
<title>azork&#45;&gt;split</title>
<path fill="none" stroke="black" d="M730.98,-18C739.06,-18 747.05,-18 754.77,-18"/>
<polygon fill="black" stroke="black" points="754.75,-21.5 764.75,-18 754.75,-14.5 754.75,-21.5"/>
</g>
<!-- detect -->
<g id="node6" class="node">
<title>detect</title>
<path fill="none" stroke="black" d="M1040.75,-36C1040.75,-36 945.25,-36 945.25,-36 939.25,-36 933.25,-30 933.25,-24 933.25,-24 933.25,-12 933.25,-12 933.25,-6 939.25,0 945.25,0 945.25,0 1040.75,0 1040.75,0 1046.75,0 1052.75,-6 1052.75,-12 1052.75,-12 1052.75,-24 1052.75,-24 1052.75,-30 1046.75,-36 1040.75,-36"/>
<text xml:space="preserve" text-anchor="middle" x="993" y="-13.32" font-family="Times,serif" font-size="14.00">detect_friction</text>
</g>
<!-- split&#45;&gt;detect -->
<g id="edge6" class="edge">
<title>split&#45;&gt;detect</title>
<path fill="none" stroke="black" d="M897.6,-18C905.46,-18 913.52,-18 921.46,-18"/>
<polygon fill="black" stroke="black" points="921.46,-21.5 931.46,-18 921.46,-14.5 921.46,-21.5"/>
</g>
<!-- run -->
<g id="node7" class="node">
<title>run</title>
<path fill="none" stroke="black" d="M1183.5,-36C1183.5,-36 1100.75,-36 1100.75,-36 1094.75,-36 1088.75,-30 1088.75,-24 1088.75,-24 1088.75,-12 1088.75,-12 1088.75,-6 1094.75,0 1100.75,0 1100.75,0 1183.5,0 1183.5,0 1189.5,0 1195.5,-6 1195.5,-12 1195.5,-12 1195.5,-24 1195.5,-24 1195.5,-30 1189.5,-36 1183.5,-36"/>
<text xml:space="preserve" text-anchor="middle" x="1142.12" y="-13.32" font-family="Times,serif" font-size="14.00">UseCaseRun</text>
</g>
<!-- detect&#45;&gt;run -->
<g id="edge7" class="edge">
<title>detect&#45;&gt;run</title>
<path fill="none" stroke="black" d="M1052.99,-18C1060.84,-18 1068.91,-18 1076.83,-18"/>
<polygon fill="black" stroke="black" points="1076.78,-21.5 1086.78,-18 1076.78,-14.5 1076.78,-21.5"/>
</g>
<!-- data -->
<g id="node8" class="node">
<title>data</title>
<path fill="none" stroke="black" d="M1318,-36C1318,-36 1243.5,-36 1243.5,-36 1237.5,-36 1231.5,-30 1231.5,-24 1231.5,-24 1231.5,-12 1231.5,-12 1231.5,-6 1237.5,0 1243.5,0 1243.5,0 1318,0 1318,0 1324,0 1330,-6 1330,-12 1330,-12 1330,-24 1330,-24 1330,-30 1324,-36 1318,-36"/>
<text xml:space="preserve" text-anchor="middle" x="1280.75" y="-13.32" font-family="Times,serif" font-size="14.00">ReportData</text>
</g>
<!-- run&#45;&gt;data -->
<g id="edge8" class="edge">
<title>run&#45;&gt;data</title>
<path fill="none" stroke="black" d="M1195.95,-18C1203.72,-18 1211.77,-18 1219.67,-18"/>
<polygon fill="black" stroke="black" points="1219.58,-21.5 1229.58,-18 1219.58,-14.5 1219.58,-21.5"/>
</g>
<!-- md -->
<g id="node9" class="node">
<title>md</title>
<path fill="none" stroke="black" d="M1466,-36C1466,-36 1378,-36 1378,-36 1372,-36 1366,-30 1366,-24 1366,-24 1366,-12 1366,-12 1366,-6 1372,0 1378,0 1378,0 1466,0 1466,0 1472,0 1478,-6 1478,-12 1478,-12 1478,-24 1478,-24 1478,-30 1472,-36 1466,-36"/>
<text xml:space="preserve" text-anchor="middle" x="1422" y="-13.32" font-family="Times,serif" font-size="14.00">to_markdown</text>
</g>
<!-- data&#45;&gt;md -->
<g id="edge9" class="edge">
<title>data&#45;&gt;md</title>
<path fill="none" stroke="black" d="M1330.45,-18C1338.24,-18 1346.4,-18 1354.51,-18"/>
<polygon fill="black" stroke="black" points="1354.38,-21.5 1364.38,-18 1354.38,-14.5 1354.38,-21.5"/>
</g>
<!-- fs -->
<g id="node10" class="node">
<title>fs</title>
<path fill="none" stroke="black" d="M1605,-36C1605,-36 1526,-36 1526,-36 1520,-36 1514,-30 1514,-24 1514,-24 1514,-12 1514,-12 1514,-6 1520,0 1526,0 1526,0 1605,0 1605,0 1611,0 1617,-6 1617,-12 1617,-12 1617,-24 1617,-24 1617,-30 1611,-36 1605,-36"/>
<text xml:space="preserve" text-anchor="middle" x="1565.5" y="-13.32" font-family="Times,serif" font-size="14.00">write report</text>
</g>
<!-- md&#45;&gt;fs -->
<g id="edge10" class="edge">
<title>md&#45;&gt;fs</title>
<path fill="none" stroke="black" d="M1478.11,-18C1486.13,-18 1494.43,-18 1502.57,-18"/>
<polygon fill="black" stroke="black" points="1502.41,-21.5 1512.41,-18 1502.41,-14.5 1502.41,-21.5"/>
</g>
</g>
</svg>
