<?xml version="1.0" encoding="UTF-8" standalone="no"?>
<!DOCTYPE svg PUBLIC "-//W3C//DTD SVG 1.1//EN"
 "http://www.w3.org/Graphics/SVG/1.1/DTD/svg11.dtd">
<!-- Generated by graphviz version 14.1.2 (0)
 -->
<!-- Title: journey_1_crawl_mock_large Pages: 1 -->
<svg width="2543pt" height="204pt"
 viewBox="0.00 0.00 2543.00 204.00" xmlns="http://www.w3.org/2000/svg" xmlns:xlink="http://www.w3.org/1999/xlink">
<g id="graph0" class="graph" transform="scale(1 1) rotate(0) translate(4 200.25)">
<title>journey_1_crawl_mock_large</title>
<polygon fill="white" stroke="none" points="-4,4 -4,-200.25 2539.25,-200.25 2539.25,4 -4,4"/>
<text xml:space="preserve" text-anchor="middle" x="1267.62" y="-178.95" font-family="Times,serif" font-size="14.00">journey 1 crawl mock large</text>
<!-- user -->
<g id="node1" class="node">
<title>user</title>
<path fill="none" stroke="black" d="M369.25,-171C369.25,-171 12,-171 12,-171 6,-171 0,-165 0,-159 0,-159 0,-147 0,-147 0,-141 6,-135 12,-135 12,-135 369.25,-135 369.25,-135 375.25,-135 381.25,-141 381.25,-147 381.25,-147 381.25,-159 381.25,-159 381.25,-165 375.25,-171 369.25,-171"/>
<text xml:space="preserve" text-anchor="middle" x="190.62" y="-148.32" font-family="Times,serif" font-size="14.00">User: azork crawl &#45;&#45;backend mock &#45;&#45;mock&#45;size large</text>
</g>
<!-- main -->
<g id="node2" class="node">
<title>main</title>
<path fill="none" stroke="black" d="M576.5,-171C576.5,-171 429.25,-171 429.25,-171 423.25,-171 417.25,-165 417.25,-159 417.25,-159 417.25,-147 417.25,-147 417.25,-141 423.25,-135 429.25,-135 429.25,-135 576.5,-135 576.5,-135 582.5,-135 588.5,-141 588.5,-147 588.5,-147 588.5,-159 588.5,-159 588.5,-165 582.5,-171 576.5,-171"/>
<text xml:space="preserve" text-anchor="middle" x="502.88" y="-148.32" font-family="Times,serif" font-size="14.00">src/main.rs run_crawl</text>
</g>
<!-- user&#45;&gt;main -->
<g id="edge1" class="edge">
<title>user&#45;&gt;main</title>
<path fill="none" stroke="black" d="M381.48,-153C389.68,-153 397.74,-153 405.57,-153"/>
<polygon fill="black" stroke="black" points="405.34,-156.5 415.34,-153 405.34,-149.5 405.34,-156.5"/>
</g>
<!-- cli -->
<g id="node3" class="node">
<title>cli</title>
<path fill="none" stroke="black" d="M886.88,-171C886.88,-171 684.12,-171 684.12,-171 678.12,-171 672.12,-165 672.12,-159 672.12,-159 672.12,-147 672.12,-147 672.12,-141 678.12,-135 684.12,-135 684.12,-135 886.88,-135 886.88,-135 892.88,-135 898.88,-141 898.88,-147 898.88,-147 898.88,-159 898.88,-159 898.88,-165 892.88,-171 886.88,-171"/>
<text xml:space="preserve" text-anchor="middle" x="785.5" y="-148.32" font-family="Times,serif" font-size="14.00">dungeon::cli parse CrawlArgs</text>
</g>
<!-- main&#45;&gt;cli -->
<g id="edge2" class="edge">
<title>main&#45;&gt;cli</title>
<path fill="none" stroke="black" d="M588.83,-146.74C611.39,-146.32 636.23,-146.17 660.41,-146.29"/>
<polygon fill="black" stroke="black" points="660.3,-149.79 670.33,-146.36 660.35,-142.79 660.3,-149.79"/>
</g>
<!-- mockgen -->
<g id="node4" class="node">
<title>mockgen</title>
<path fill="none" stroke="black" d="M934.5,-117C934.5,-117 636.5,-117 636.5,-117 630.5,-117 624.5,-111 624.5,-105 624.5,-105 624.5,-93 624.5,-93 624.5,-87 630.5,-81 636.5,-81 636.5,-81 934.5,-81 934.5,-81 940.5,-81 946.5,-87 946.5,-93 946.5,-93 946.5,-105 946.5,-105 946.5,-111 940.5,-117 934.5,-117"/>
<text xml:space="preserve" text-anchor="middle" x="785.5" y="-94.33" font-family="Times,serif" font-size="14.00">backend::mock_gen MockSizeParams large</text>
</g>
<!-- main&#45;&gt;mockgen -->
<g id="edge4" class="edge">
<title>main&#45;&gt;mockgen</title>
<path fill="none" stroke="black" d="M583.56,-134.54C597.19,-131.56 611.23,-128.6 624.5,-126 635.81,-123.78 647.6,-121.58 659.41,-119.45"/>
<polygon fill="black" stroke="black" points="660.02,-122.9 669.25,-117.7 658.79,-116.01 660.02,-122.9"/>
</g>
<!-- cli&#45;&gt;main -->
<g id="edge3" class="edge">
<title>cli&#45;&gt;main</title>
<path fill="none" stroke="black" d="M671.84,-159.63C648.15,-159.84 623.37,-159.78 600.34,-159.45"/>
<polygon fill="black" stroke="black" points="600.4,-155.95 590.35,-159.28 600.29,-162.95 600.4,-155.95"/>
</g>
<!-- runner -->
<g id="node5" class="node">
<title>runner</title>
<path fill="none" stroke="black" d="M1090,-117C1090,-117 994.5,-117 994.5,-117 988.5,-117 982.5,-111 982.5,-105 982.5,-105 982.5,-93 982.5,-93 982.5,-87 988.5,-81 994.5,-81 994.5,-81 1090,-81 1090,-81 1096,-81 1102,-87 1102,-93 1102,-93 1102,-105 1102,-105 1102,-111 1096,-117 1090,-117"/>
<text xml:space="preserve" text-anchor="middle" x="1042.25" y="-94.33" font-family="Times,serif" font-size="14.00">FakeAzRunner</text>
</g>
<!-- mockgen&#45;&gt;runner -->
<g id="edge5" class="edge">
<title>mockgen&#45;&gt;runner</title>
<path fill="none" stroke="black" d="M946.75,-99C955.03,-99 963.1,-99 970.82,-99"/>
<polygon fill="black" stroke="black" points="970.74,-102.5 980.74,-99 970.74,-95.5 970.74,-102.5"/>
</g>
<!-- map -->
<g id="node6" class="node">
<title>map</title>
<path fill="none" stroke="black" d="M1370,-117C1370,-117 1150,-117 1150,-117 1144,-117 1138,-111 1138,-105 1138,-105 1138,-93 1138,-93 1138,-87 1144,-81 1150,-81 1150,-81 1370,-81 1370,-81 1376,-81 1382,-87 1382,-93 1382,-93 1382,-105 1382,-105 1382,-111 1376,-117 1370,-117"/>
<text xml:space="preserve" text-anchor="middle" x="1260" y="-94.33" font-family="Times,serif" font-size="14.00">dungeon::map build_cancellable</text>
</g>
<!-- runner&#45;&gt;map -->
<g id="edge6" class="edge">
<title>runner&#45;&gt;map</title>
<path fill="none" stroke="black" d="M1102.49,-99C1110.12,-99 1118.17,-99 1126.41,-99"/>
<polygon fill="black" stroke="black" points="1126.25,-102.5 1136.25,-99 1126.25,-95.5 1126.25,-102.5"/>
</g>
<!-- groups -->
<g id="node7" class="node">
<title>groups</title>
<path fill="none" stroke="black" d="M1601.62,-117C1601.62,-117 1477.62,-117 1477.62,-117 1471.62,-117 1465.62,-111 1465.62,-105 1465.62,-105 1465.62,-93 1465.62,-93 1465.62,-87 1471.62,-81 1477.62,-81 1477.62,-81 1601.62,-81 1601.62,-81 1607.62,-81 1613.62,-87 1613.62,-93 1613.62,-93 1613.62,-105 1613.62,-105 1613.62,-111 1607.62,-117 1601.62,-117"/>
<text xml:space="preserve" text-anchor="middle" x="1539.62" y="-94.33" font-family="Times,serif" font-size="14.00">az group list JSON</text>
</g>
<!-- map&#45;&gt;groups -->
<g id="edge7" class="edge">
<title>map&#45;&gt;groups</title>
<path fill="none" stroke="black" d="M1382.37,-92.3C1406.58,-92.16 1431.52,-92.31 1454.16,-92.73"/>
<polygon fill="black" stroke="black" points="1453.84,-96.23 1463.91,-92.94 1453.99,-89.23 1453.84,-96.23"/>
</g>
<!-- resources -->
<g id="node8" class="node">
<title>resources</title>
<path fill="none" stroke="black" d="M1649.25,-63C1649.25,-63 1430,-63 1430,-63 1424,-63 1418,-57 1418,-51 1418,-51 1418,-39 1418,-39 1418,-33 1424,-27 1430,-27 1430,-27 1649.25,-27 1649.25,-27 1655.25,-27 1661.25,-33 1661.25,-39 1661.25,-39 1661.25,-51 1661.25,-51 1661.25,-57 1655.25,-63 1649.25,-63"/>
<text xml:space="preserve" text-anchor="middle" x="1539.62" y="-40.33" font-family="Times,serif" font-size="14.00">az resource list JSON per group</text>
</g>
<!-- map&#45;&gt;resources -->
<g id="edge9" class="edge">
<title>map&#45;&gt;resources</title>
<path fill="none" stroke="black" d="M1355.77,-80.57C1380.53,-75.75 1407.39,-70.53 1432.69,-65.6"/>
<polygon fill="black" stroke="black" points="1433.18,-69.08 1442.33,-63.73 1431.84,-62.2 1433.18,-69.08"/>
</g>
<!-- groups&#45;&gt;map -->
<g id="edge8" class="edge">
<title>groups&#45;&gt;map</title>
<path fill="none" stroke="black" d="M1465.43,-105.03C1443.34,-105.55 1418.39,-105.79 1393.69,-105.74"/>
<polygon fill="black" stroke="black" points="1393.89,-102.24 1383.88,-105.71 1393.87,-109.24 1393.89,-102.24"/>
</g>
<!-- room -->
<g id="node9" class="node">
<title>room</title>
<path fill="none" stroke="black" d="M1904.5,-63C1904.5,-63 1709.25,-63 1709.25,-63 1703.25,-63 1697.25,-57 1697.25,-51 1697.25,-51 1697.25,-39 1697.25,-39 1697.25,-33 1703.25,-27 1709.25,-27 1709.25,-27 1904.5,-27 1904.5,-27 1910.5,-27 1916.5,-33 1916.5,-39 1916.5,-39 1916.5,-51 1916.5,-51 1916.5,-57 1910.5,-63 1904.5,-63"/>
<text xml:space="preserve" text-anchor="middle" x="1806.88" y="-40.33" font-family="Times,serif" font-size="14.00">Room with region&#45;biased x/y</text>
</g>
<!-- resources&#45;&gt;room -->
<g id="edge10" class="edge">
<title>resources&#45;&gt;room</title>
<path fill="none" stroke="black" d="M1661.61,-45C1669.5,-45 1677.45,-45 1685.34,-45"/>
<polygon fill="black" stroke="black" points="1685.34,-48.5 1695.34,-45 1685.34,-41.5 1685.34,-48.5"/>
</g>
<!-- dmap -->
<g id="node10" class="node">
<title>dmap</title>
<path fill="none" stroke="black" d="M2051.75,-63C2051.75,-63 1964.5,-63 1964.5,-63 1958.5,-63 1952.5,-57 1952.5,-51 1952.5,-51 1952.5,-39 1952.5,-39 1952.5,-33 1958.5,-27 1964.5,-27 1964.5,-27 2051.75,-27 2051.75,-27 2057.75,-27 2063.75,-33 2063.75,-39 2063.75,-39 2063.75,-51 2063.75,-51 2063.75,-57 2057.75,-63 2051.75,-63"/>
<text xml:space="preserve" text-anchor="middle" x="2008.12" y="-40.33" font-family="Times,serif" font-size="14.00">DungeonMap</text>
</g>
<!-- room&#45;&gt;dmap -->
<g id="edge11" class="edge">
<title>room&#45;&gt;dmap</title>
<path fill="none" stroke="black" d="M1916.83,-45C1924.91,-45 1932.91,-45 1940.62,-45"/>
<polygon fill="black" stroke="black" points="1940.54,-48.5 1950.54,-45 1940.54,-41.5 1940.54,-48.5"/>
</g>
<!-- render -->
<g id="node11" class="node">
<title>render</title>
<path fill="none" stroke="black" d="M2191.5,-63C2191.5,-63 2111.75,-63 2111.75,-63 2105.75,-63 2099.75,-57 2099.75,-51 2099.75,-51 2099.75,-39 2099.75,-39 2099.75,-33 2105.75,-27 2111.75,-27 2111.75,-27 2191.5,-27 2191.5,-27 2197.5,-27 2203.5,-33 2203.5,-39 2203.5,-39 2203.5,-51 2203.5,-51 2203.5,-57 2197.5,-63 2191.5,-63"/>
<text xml:space="preserve" text-anchor="middle" x="2151.62" y="-40.33" font-family="Times,serif" font-size="14.00">render_html</text>
</g>
<!-- dmap&#45;&gt;render -->
<g id="edge12" class="edge">
<title>dmap&#45;&gt;render</title>
<path fill="none" stroke="black" d="M2064.24,-45C2072.06,-45 2080.15,-45 2088.1,-45"/>
<polygon fill="black" stroke="black" points="2088.08,-48.5 2098.08,-45 2088.08,-41.5 2088.08,-48.5"/>
</g>
<!-- file -->
<g id="node12" class="node">
<title>file</title>
<path fill="none" stroke="black" d="M2455,-90C2455,-90 2319.75,-90 2319.75,-90 2313.75,-90 2307.75,-84 2307.75,-78 2307.75,-78 2307.75,-66 2307.75,-66 2307.75,-60 2313.75,-54 2319.75,-54 2319.75,-54 2455,-54 2455,-54 2461,-54 2467,-60 2467,-66 2467,-66 2467,-78 2467,-78 2467,-84 2461,-90 2455,-90"/>
<text xml:space="preserve" text-anchor="middle" x="2387.38" y="-67.33" font-family="Times,serif" font-size="14.00">optional &#45;&#45;out HTML</text>
</g>
<!-- render&#45;&gt;file -->
<g id="edge13" class="edge">
<title>render&#45;&gt;file</title>
<path fill="none" stroke="black" d="M2203.92,-50.93C2230.97,-54.05 2264.95,-57.97 2296.23,-61.59"/>
<polygon fill="black" stroke="black" points="2295.78,-65.06 2306.11,-62.73 2296.58,-58.1 2295.78,-65.06"/>
</g>
<!-- guidance -->
<g id="node13" class="node">
<title>guidance</title>
<path fill="none" stroke="black" d="M2523.25,-36C2523.25,-36 2251.5,-36 2251.5,-36 2245.5,-36 2239.5,-30 2239.5,-24 2239.5,-24 2239.5,-12 2239.5,-12 2239.5,-6 2245.5,0 2251.5,0 2251.5,0 2523.25,0 2523.25,0 2529.25,0 2535.25,-6 2535.25,-12 2535.25,-12 2535.25,-24 2535.25,-24 2535.25,-30 2529.25,-36 2523.25,-36"/>
<text xml:space="preserve" text-anchor="middle" x="2387.38" y="-13.32" font-family="Times,serif" font-size="14.00">stdout guidance when no output target</text>
</g>
<!-- render&#45;&gt;guidance -->
<g id="edge14" class="edge">
<title>render&#45;&gt;guidance</title>
<path fill="none" stroke="black" d="M2203.92,-39.07C2211.49,-38.2 2219.6,-37.26 2228.05,-36.29"/>
<polygon fill="black" stroke="black" points="2228.28,-39.78 2237.81,-35.16 2227.48,-32.83 2228.28,-39.78"/>
</g>
</g>
</svg>
