<?xml version="1.0" encoding="UTF-8" standalone="no"?>
<!DOCTYPE svg PUBLIC "-//W3C//DTD SVG 1.1//EN"
 "http://www.w3.org/Graphics/SVG/1.1/DTD/svg11.dtd">
<!-- Generated by graphviz version 14.1.2 (0)
 -->
<!-- Title: journey_6_dungeon_snapshot_diff_time_rift Pages: 1 -->
<svg width="1913pt" height="123pt"
 viewBox="0.00 0.00 1913.00 123.00" xmlns="http://www.w3.org/2000/svg" xmlns:xlink="http://www.w3.org/1999/xlink">
<g id="graph0" class="graph" transform="scale(1 1) rotate(0) translate(4 119.25)">
<title>journey_6_dungeon_snapshot_diff_time_rift</title>
<polygon fill="white" stroke="none" points="-4,4 -4,-119.25 1908.5,-119.25 1908.5,4 -4,4"/>
<text xml:space="preserve" text-anchor="middle" x="952.25" y="-97.95" font-family="Times,serif" font-size="14.00">journey 6 dungeon snapshot diff time rift</text>
<!-- user_snap -->
<g id="node1" class="node">
<title>user_snap</title>
<path fill="none" stroke="black" d="M305.88,-90C305.88,-90 21.38,-90 21.38,-90 15.38,-90 9.38,-84 9.38,-78 9.38,-78 9.38,-66 9.38,-66 9.38,-60 15.38,-54 21.38,-54 21.38,-54 305.88,-54 305.88,-54 311.88,-54 317.88,-60 317.88,-66 317.88,-66 317.88,-78 317.88,-78 317.88,-84 311.88,-90 305.88,-90"/>
<text xml:space="preserve" text-anchor="middle" x="163.62" y="-67.33" font-family="Times,serif" font-size="14.00">User: azork dungeon &#45;&#45;snapshot new.json</text>
</g>
<!-- main -->
<g id="node2" class="node">
<title>main</title>
<path fill="none" stroke="black" d="M522.5,-63C522.5,-63 375.25,-63 375.25,-63 369.25,-63 363.25,-57 363.25,-51 363.25,-51 363.25,-39 363.25,-39 363.25,-33 369.25,-27 375.25,-27 375.25,-27 522.5,-27 522.5,-27 528.5,-27 534.5,-33 534.5,-39 534.5,-39 534.5,-51 534.5,-51 534.5,-57 528.5,-63 522.5,-63"/>
<text xml:space="preserve" text-anchor="middle" x="448.88" y="-40.33" font-family="Times,serif" font-size="14.00">src/main.rs run_crawl</text>
</g>
<!-- user_snap&#45;&gt;main -->
<g id="edge1" class="edge">
<title>user_snap&#45;&gt;main</title>
<path fill="none" stroke="black" d="M318.27,-57.35C329.66,-56.27 340.94,-55.19 351.83,-54.16"/>
<polygon fill="black" stroke="black" points="351.88,-57.67 361.51,-53.23 351.22,-50.7 351.88,-57.67"/>
</g>
<!-- cli -->
<g id="node3" class="node">
<title>cli</title>
<path fill="none" stroke="black" d="M705.75,-63C705.75,-63 582.5,-63 582.5,-63 576.5,-63 570.5,-57 570.5,-51 570.5,-51 570.5,-39 570.5,-39 570.5,-33 576.5,-27 582.5,-27 582.5,-27 705.75,-27 705.75,-27 711.75,-27 717.75,-33 717.75,-39 717.75,-39 717.75,-51 717.75,-51 717.75,-57 711.75,-63 705.75,-63"/>
<text xml:space="preserve" text-anchor="middle" x="644.12" y="-40.33" font-family="Times,serif" font-size="14.00">dungeon::cli parse</text>
</g>
<!-- main&#45;&gt;cli -->
<g id="edge2" class="edge">
<title>main&#45;&gt;cli</title>
<path fill="none" stroke="black" d="M534.92,-38.29C542.81,-38.23 550.81,-38.24 558.69,-38.3"/>
<polygon fill="black" stroke="black" points="558.59,-41.8 568.63,-38.42 558.67,-34.8 558.59,-41.8"/>
</g>
<!-- main&#45;&gt;cli -->
<g id="edge7" class="edge">
<title>main&#45;&gt;cli</title>
<path fill="none" stroke="black" d="M534.92,-51.71C542.81,-51.77 550.81,-51.76 558.69,-51.7"/>
<polygon fill="black" stroke="black" points="558.67,-55.2 568.63,-51.58 558.59,-48.2 558.67,-55.2"/>
</g>
<!-- runner -->
<g id="node4" class="node">
<title>runner</title>
<path fill="none" stroke="black" d="M1005.62,-90C1005.62,-90 816.38,-90 816.38,-90 810.38,-90 804.38,-84 804.38,-78 804.38,-78 804.38,-66 804.38,-66 804.38,-60 810.38,-54 816.38,-54 816.38,-54 1005.62,-54 1005.62,-54 1011.62,-54 1017.62,-60 1017.62,-66 1017.62,-66 1017.62,-78 1017.62,-78 1017.62,-84 1011.62,-90 1005.62,-90"/>
<text xml:space="preserve" text-anchor="middle" x="911" y="-67.33" font-family="Times,serif" font-size="14.00">AzRunner or FakeAzRunner</text>
</g>
<!-- cli&#45;&gt;runner -->
<g id="edge3" class="edge">
<title>cli&#45;&gt;runner</title>
<path fill="none" stroke="black" d="M718.2,-52.45C741.28,-54.8 767.39,-57.46 792.74,-60.05"/>
<polygon fill="black" stroke="black" points="792.13,-63.5 802.43,-61.04 792.84,-56.54 792.13,-63.5"/>
</g>
<!-- read -->
<g id="node8" class="node">
<title>read</title>
<path fill="none" stroke="black" d="M1056.25,-36C1056.25,-36 765.75,-36 765.75,-36 759.75,-36 753.75,-30 753.75,-24 753.75,-24 753.75,-12 753.75,-12 753.75,-6 759.75,0 765.75,0 765.75,0 1056.25,0 1056.25,0 1062.25,0 1068.25,-6 1068.25,-12 1068.25,-12 1068.25,-24 1068.25,-24 1068.25,-30 1062.25,-36 1056.25,-36"/>
<text xml:space="preserve" text-anchor="middle" x="911" y="-13.32" font-family="Times,serif" font-size="14.00">read_to_string and from_str DungeonMap</text>
</g>
<!-- cli&#45;&gt;read -->
<g id="edge8" class="edge">
<title>cli&#45;&gt;read</title>
<path fill="none" stroke="black" d="M718.2,-37.55C725.89,-36.77 733.91,-35.95 742.13,-35.11"/>
<polygon fill="black" stroke="black" points="742.34,-38.61 751.94,-34.11 741.63,-31.64 742.34,-38.61"/>
</g>
<!-- map -->
<g id="node5" class="node">
<title>map</title>
<path fill="none" stroke="black" d="M1349,-90C1349,-90 1116.25,-90 1116.25,-90 1110.25,-90 1104.25,-84 1104.25,-78 1104.25,-78 1104.25,-66 1104.25,-66 1104.25,-60 1110.25,-54 1116.25,-54 1116.25,-54 1349,-54 1349,-54 1355,-54 1361,-60 1361,-66 1361,-66 1361,-78 1361,-78 1361,-84 1355,-90 1349,-90"/>
<text xml:space="preserve" text-anchor="middle" x="1232.62" y="-67.33" font-family="Times,serif" font-size="14.00">build_cancellable to DungeonMap</text>
</g>
<!-- runner&#45;&gt;map -->
<g id="edge4" class="edge">
<title>runner&#45;&gt;map</title>
<path fill="none" stroke="black" d="M1017.99,-72C1041.86,-72 1067.55,-72 1092.55,-72"/>
<polygon fill="black" stroke="black" points="1092.46,-75.5 1102.46,-72 1092.46,-68.5 1092.46,-75.5"/>
</g>
<!-- snapshot -->
<g id="node6" class="node">
<title>snapshot</title>
<path fill="none" stroke="black" d="M1629,-90C1629,-90 1417.25,-90 1417.25,-90 1411.25,-90 1405.25,-84 1405.25,-78 1405.25,-78 1405.25,-66 1405.25,-66 1405.25,-60 1411.25,-54 1417.25,-54 1417.25,-54 1629,-54 1629,-54 1635,-54 1641,-60 1641,-66 1641,-66 1641,-78 1641,-78 1641,-84 1635,-90 1629,-90"/>
<text xml:space="preserve" text-anchor="middle" x="1523.12" y="-67.33" font-family="Times,serif" font-size="14.00">serde_json pretty snapshot file</text>
</g>
<!-- map&#45;&gt;snapshot -->
<g id="edge5" class="edge">
<title>map&#45;&gt;snapshot</title>
<path fill="none" stroke="black" d="M1361.43,-72C1372.05,-72 1382.8,-72 1393.43,-72"/>
<polygon fill="black" stroke="black" points="1393.4,-75.5 1403.4,-72 1393.4,-68.5 1393.4,-75.5"/>
</g>
<!-- user_diff -->
<g id="node7" class="node">
<title>user_diff</title>
<path fill="none" stroke="black" d="M315.25,-36C315.25,-36 12,-36 12,-36 6,-36 0,-30 0,-24 0,-24 0,-12 0,-12 0,-6 6,0 12,0 12,0 315.25,0 315.25,0 321.25,0 327.25,-6 327.25,-12 327.25,-12 327.25,-24 327.25,-24 327.25,-30 321.25,-36 315.25,-36"/>
<text xml:space="preserve" text-anchor="middle" x="163.62" y="-13.32" font-family="Times,serif" font-size="14.00">User: azork dungeon &#45;&#45;diff old.json new.json</text>
</g>
<!-- user_diff&#45;&gt;main -->
<g id="edge6" class="edge">
<title>user_diff&#45;&gt;main</title>
<path fill="none" stroke="black" d="M327.34,-33.51C335.54,-34.29 343.65,-35.06 351.54,-35.82"/>
<polygon fill="black" stroke="black" points="351.15,-39.3 361.44,-36.76 351.81,-32.33 351.15,-39.3"/>
</g>
<!-- diff -->
<g id="node9" class="node">
<title>diff</title>
<path fill="none" stroke="black" d="M1314.12,-36C1314.12,-36 1151.12,-36 1151.12,-36 1145.12,-36 1139.12,-30 1139.12,-24 1139.12,-24 1139.12,-12 1139.12,-12 1139.12,-6 1145.12,0 1151.12,0 1151.12,0 1314.12,0 1314.12,0 1320.12,0 1326.12,-6 1326.12,-12 1326.12,-12 1326.12,-24 1326.12,-24 1326.12,-30 1320.12,-36 1314.12,-36"/>
<text xml:space="preserve" text-anchor="middle" x="1232.62" y="-13.32" font-family="Times,serif" font-size="14.00">dungeon::diff::diff_maps</text>
</g>
<!-- read&#45;&gt;diff -->
<g id="edge9" class="edge">
<title>read&#45;&gt;diff</title>
<path fill="none" stroke="black" d="M1068.54,-18C1088.54,-18 1108.61,-18 1127.5,-18"/>
<polygon fill="black" stroke="black" points="1127.27,-21.5 1137.27,-18 1127.27,-14.5 1127.27,-21.5"/>
</g>
<!-- mapdiff -->
<g id="node10" class="node">
<title>mapdiff</title>
<path fill="none" stroke="black" d="M1637.25,-36C1637.25,-36 1409,-36 1409,-36 1403,-36 1397,-30 1397,-24 1397,-24 1397,-12 1397,-12 1397,-6 1403,0 1409,0 1409,0 1637.25,0 1637.25,0 1643.25,0 1649.25,-6 1649.25,-12 1649.25,-12 1649.25,-24 1649.25,-24 1649.25,-30 1643.25,-36 1637.25,-36"/>
<text xml:space="preserve" text-anchor="middle" x="1523.12" y="-13.32" font-family="Times,serif" font-size="14.00">MapDiff added removed changed</text>
</g>
<!-- diff&#45;&gt;mapdiff -->
<g id="edge10" class="edge">
<title>diff&#45;&gt;mapdiff</title>
<path fill="none" stroke="black" d="M1326.5,-18C1345.24,-18 1365.32,-18 1385.21,-18"/>
<polygon fill="black" stroke="black" points="1385.04,-21.5 1395.04,-18 1385.04,-14.5 1385.04,-21.5"/>
</g>
<!-- report -->
<g id="node11" class="node">
<title>report</title>
<path fill="none" stroke="black" d="M1892.5,-36C1892.5,-36 1697.25,-36 1697.25,-36 1691.25,-36 1685.25,-30 1685.25,-24 1685.25,-24 1685.25,-12 1685.25,-12 1685.25,-6 1691.25,0 1697.25,0 1697.25,0 1892.5,0 1892.5,0 1898.5,0 1904.5,-6 1904.5,-12 1904.5,-12 1904.5,-24 1904.5,-24 1904.5,-30 1898.5,-36 1892.5,-36"/>
<text xml:space="preserve" text-anchor="middle" x="1794.88" y="-13.32" font-family="Times,serif" font-size="14.00">render_report Time Rift text</text>
</g>
<!-- mapdiff&#45;&gt;report -->
<g id="edge11" class="edge">
<title>mapdiff&#45;&gt;report</title>
<path fill="none" stroke="black" d="M1649.52,-18C1657.57,-18 1665.65,-18 1673.67,-18"/>
<polygon fill="black" stroke="black" points="1673.43,-21.5 1683.43,-18 1673.43,-14.5 1673.43,-21.5"/>
</g>
</g>
</svg>
