<?xml version="1.0" encoding="UTF-8" standalone="no"?>
<!DOCTYPE svg PUBLIC "-//W3C//DTD SVG 1.1//EN"
 "http://www.w3.org/Graphics/SVG/1.1/DTD/svg11.dtd">
<!-- Generated by graphviz version 14.1.2 (0)
 -->
<!-- Title: data_flow Pages: 1 -->
<svg width="4679pt" height="618pt"
 viewBox="0.00 0.00 4679.00 618.00" xmlns="http://www.w3.org/2000/svg" xmlns:xlink="http://www.w3.org/1999/xlink">
<g id="graph0" class="graph" transform="scale(1 1) rotate(0) translate(4 614.25)">
<title>data_flow</title>
<polygon fill="white" stroke="none" points="-4,4 -4,-614.25 4674.75,-614.25 4674.75,4 -4,4"/>
<text xml:space="preserve" text-anchor="middle" x="2335.38" y="-592.95" font-family="Times,serif" font-size="14.00">data&#45;flow</text>
<!-- arg -->
<g id="node1" class="node">
<title>arg</title>
<path fill="none" stroke="black" d="M1085.25,-466C1085.25,-466 755,-466 755,-466 749,-466 743,-460 743,-454 743,-454 743,-442 743,-442 743,-436 749,-430 755,-430 755,-430 1085.25,-430 1085.25,-430 1091.25,-430 1097.25,-436 1097.25,-442 1097.25,-442 1097.25,-454 1097.25,-454 1097.25,-460 1091.25,-466 1085.25,-466"/>
<text xml:space="preserve" text-anchor="middle" x="920.12" y="-443.32" font-family="Times,serif" font-size="14.00">REPL backend: &#45;&#45;backend or AZORK_BACKEND</text>
</g>
<!-- select -->
<g id="node2" class="node">
<title>select</title>
<path fill="none" stroke="black" d="M1286.88,-466C1286.88,-466 1184.62,-466 1184.62,-466 1178.62,-466 1172.62,-460 1172.62,-454 1172.62,-454 1172.62,-442 1172.62,-442 1172.62,-436 1178.62,-430 1184.62,-430 1184.62,-430 1286.88,-430 1286.88,-430 1292.88,-430 1298.88,-436 1298.88,-442 1298.88,-442 1298.88,-454 1298.88,-454 1298.88,-460 1292.88,-466 1286.88,-466"/>
<text xml:space="preserve" text-anchor="middle" x="1235.75" y="-443.32" font-family="Times,serif" font-size="14.00">backend::select</text>
</g>
<!-- arg&#45;&gt;select -->
<g id="edge1" class="edge">
<title>arg&#45;&gt;select</title>
<path fill="none" stroke="black" d="M1097.65,-448C1119.9,-448 1141.61,-448 1160.95,-448"/>
<polygon fill="black" stroke="black" points="1160.85,-451.5 1170.85,-448 1160.85,-444.5 1160.85,-451.5"/>
</g>
<!-- mock -->
<g id="node3" class="node">
<title>mock</title>
<path fill="none" stroke="black" d="M1858.12,-512C1858.12,-512 1683.12,-512 1683.12,-512 1677.12,-512 1671.12,-506 1671.12,-500 1671.12,-500 1671.12,-488 1671.12,-488 1671.12,-482 1677.12,-476 1683.12,-476 1683.12,-476 1858.12,-476 1858.12,-476 1864.12,-476 1870.12,-482 1870.12,-488 1870.12,-488 1870.12,-500 1870.12,-500 1870.12,-506 1864.12,-512 1858.12,-512"/>
<text xml:space="preserve" text-anchor="middle" x="1770.62" y="-489.32" font-family="Times,serif" font-size="14.00">MockBackend fixed world</text>
</g>
<!-- select&#45;&gt;mock -->
<g id="edge2" class="edge">
<title>select&#45;&gt;mock</title>
<path fill="none" stroke="black" d="M1299.07,-462.24C1322.52,-467.06 1349.5,-471.99 1374.25,-475 1470.16,-486.66 1579.96,-491.24 1659.48,-493"/>
<polygon fill="black" stroke="black" points="1659.4,-496.5 1669.47,-493.21 1659.55,-489.51 1659.4,-496.5"/>
</g>
<!-- gen -->
<g id="node4" class="node">
<title>gen</title>
<path fill="none" stroke="black" d="M1572.5,-466C1572.5,-466 1386.25,-466 1386.25,-466 1380.25,-466 1374.25,-460 1374.25,-454 1374.25,-454 1374.25,-442 1374.25,-442 1374.25,-436 1380.25,-430 1386.25,-430 1386.25,-430 1572.5,-430 1572.5,-430 1578.5,-430 1584.5,-436 1584.5,-442 1584.5,-442 1584.5,-454 1584.5,-454 1584.5,-460 1578.5,-466 1572.5,-466"/>
<text xml:space="preserve" text-anchor="middle" x="1479.38" y="-443.32" font-family="Times,serif" font-size="14.00">mock_gen generated World</text>
</g>
<!-- select&#45;&gt;gen -->
<g id="edge4" class="edge">
<title>select&#45;&gt;gen</title>
<path fill="none" stroke="black" d="M1299.29,-448C1318.7,-448 1340.75,-448 1362.57,-448"/>
<polygon fill="black" stroke="black" points="1362.44,-451.5 1372.44,-448 1362.44,-444.5 1362.44,-451.5"/>
</g>
<!-- az -->
<g id="node5" class="node">
<title>az</title>
<path fill="none" stroke="black" d="M1552.25,-412C1552.25,-412 1406.5,-412 1406.5,-412 1400.5,-412 1394.5,-406 1394.5,-400 1394.5,-400 1394.5,-388 1394.5,-388 1394.5,-382 1400.5,-376 1406.5,-376 1406.5,-376 1552.25,-376 1552.25,-376 1558.25,-376 1564.25,-382 1564.25,-388 1564.25,-388 1564.25,-400 1564.25,-400 1564.25,-406 1558.25,-412 1552.25,-412"/>
<text xml:space="preserve" text-anchor="middle" x="1479.38" y="-389.32" font-family="Times,serif" font-size="14.00">AzBackend live Azure</text>
</g>
<!-- select&#45;&gt;az -->
<g id="edge6" class="edge">
<title>select&#45;&gt;az</title>
<path fill="none" stroke="black" d="M1299.29,-434.02C1325.21,-428.23 1355.84,-421.38 1384.37,-415.01"/>
<polygon fill="black" stroke="black" points="1385.13,-418.42 1394.13,-412.83 1383.61,-411.59 1385.13,-418.42"/>
</g>
<!-- world -->
<g id="node9" class="node">
<title>world</title>
<path fill="none" stroke="black" d="M2951.25,-443C2951.25,-443 2660,-443 2660,-443 2654,-443 2648,-437 2648,-431 2648,-431 2648,-419 2648,-419 2648,-413 2654,-407 2660,-407 2660,-407 2951.25,-407 2951.25,-407 2957.25,-407 2963.25,-413 2963.25,-419 2963.25,-419 2963.25,-431 2963.25,-431 2963.25,-437 2957.25,-443 2951.25,-443"/>
<text xml:space="preserve" text-anchor="middle" x="2805.62" y="-420.32" font-family="Times,serif" font-size="14.00">World subscription rooms inventory score</text>
</g>
<!-- mock&#45;&gt;world -->
<g id="edge3" class="edge">
<title>mock&#45;&gt;world</title>
<path fill="none" stroke="black" d="M1870.32,-495.08C2027.73,-495.71 2345.09,-492.54 2612,-462 2644.99,-458.23 2680.79,-451.96 2712.48,-445.65"/>
<polygon fill="black" stroke="black" points="2712.91,-449.13 2722.02,-443.72 2711.52,-442.27 2712.91,-449.13"/>
</g>
<!-- gen&#45;&gt;world -->
<g id="edge5" class="edge">
<title>gen&#45;&gt;world</title>
<path fill="none" stroke="black" d="M1584.91,-446.38C1784.53,-443.27 2233.82,-436.1 2612,-429 2619.99,-428.85 2628.17,-428.69 2636.42,-428.53"/>
<polygon fill="black" stroke="black" points="2636.28,-432.04 2646.21,-428.34 2636.15,-425.04 2636.28,-432.04"/>
</g>
<!-- runner -->
<g id="node6" class="node">
<title>runner</title>
<path fill="none" stroke="black" d="M1829.25,-412C1829.25,-412 1712,-412 1712,-412 1706,-412 1700,-406 1700,-400 1700,-400 1700,-388 1700,-388 1700,-382 1706,-376 1712,-376 1712,-376 1829.25,-376 1829.25,-376 1835.25,-376 1841.25,-382 1841.25,-388 1841.25,-388 1841.25,-400 1841.25,-400 1841.25,-406 1835.25,-412 1829.25,-412"/>
<text xml:space="preserve" text-anchor="middle" x="1770.62" y="-389.32" font-family="Times,serif" font-size="14.00">ProcessAzRunner</text>
</g>
<!-- az&#45;&gt;runner -->
<g id="edge7" class="edge">
<title>az&#45;&gt;runner</title>
<path fill="none" stroke="black" d="M1564.43,-394C1603.44,-394 1649.64,-394 1688.31,-394"/>
<polygon fill="black" stroke="black" points="1688.01,-397.5 1698.01,-394 1688.01,-390.5 1688.01,-397.5"/>
</g>
<!-- azout -->
<g id="node7" class="node">
<title>azout</title>
<path fill="none" stroke="black" d="M2144.12,-412C2144.12,-412 2037.38,-412 2037.38,-412 2031.38,-412 2025.38,-406 2025.38,-400 2025.38,-400 2025.38,-388 2025.38,-388 2025.38,-382 2031.38,-376 2037.38,-376 2037.38,-376 2144.12,-376 2144.12,-376 2150.12,-376 2156.12,-382 2156.12,-388 2156.12,-388 2156.12,-400 2156.12,-400 2156.12,-406 2150.12,-412 2144.12,-412"/>
<text xml:space="preserve" text-anchor="middle" x="2090.75" y="-389.32" font-family="Times,serif" font-size="14.00">az stdout stderr</text>
</g>
<!-- runner&#45;&gt;azout -->
<g id="edge8" class="edge">
<title>runner&#45;&gt;azout</title>
<path fill="none" stroke="black" d="M1841.44,-394C1892.39,-394 1961.4,-394 2013.74,-394"/>
<polygon fill="black" stroke="black" points="2013.46,-397.5 2023.46,-394 2013.46,-390.5 2013.46,-397.5"/>
</g>
<!-- scrub1 -->
<g id="node8" class="node">
<title>scrub1</title>
<path fill="none" stroke="black" d="M2482.62,-420C2482.62,-420 2390.12,-420 2390.12,-420 2384.12,-420 2378.12,-414 2378.12,-408 2378.12,-408 2378.12,-396 2378.12,-396 2378.12,-390 2384.12,-384 2390.12,-384 2390.12,-384 2482.62,-384 2482.62,-384 2488.62,-384 2494.62,-390 2494.62,-396 2494.62,-396 2494.62,-408 2494.62,-408 2494.62,-414 2488.62,-420 2482.62,-420"/>
<text xml:space="preserve" text-anchor="middle" x="2436.38" y="-397.32" font-family="Times,serif" font-size="14.00">secrets::scrub</text>
</g>
<!-- azout&#45;&gt;scrub1 -->
<g id="edge9" class="edge">
<title>azout&#45;&gt;scrub1</title>
<path fill="none" stroke="black" d="M2156.38,-395.5C2216.29,-396.9 2305.14,-398.97 2366.4,-400.39"/>
<polygon fill="black" stroke="black" points="2366.29,-403.89 2376.37,-400.63 2366.46,-396.89 2366.29,-403.89"/>
</g>
<!-- input -->
<g id="node47" class="node">
<title>input</title>
<path fill="none" stroke="black" d="M4311.75,-268C4311.75,-268 3914.75,-268 3914.75,-268 3908.75,-268 3902.75,-262 3902.75,-256 3902.75,-256 3902.75,-244 3902.75,-244 3902.75,-238 3908.75,-232 3914.75,-232 3914.75,-232 4311.75,-232 4311.75,-232 4317.75,-232 4323.75,-238 4323.75,-244 4323.75,-244 4323.75,-256 4323.75,-256 4323.75,-262 4317.75,-268 4311.75,-268"/>
<text xml:space="preserve" text-anchor="middle" x="4113.25" y="-245.32" font-family="Times,serif" font-size="14.00">az output, help text, memory labels content, HTTP JSON</text>
</g>
<!-- azout&#45;&gt;input -->
<g id="edge51" class="edge">
<title>azout&#45;&gt;input</title>
<path fill="none" stroke="black" d="M2125.93,-375.56C2159.31,-358.44 2212.05,-333.75 2260.75,-321 2495.87,-259.44 2561.58,-264 2804.62,-264 2804.62,-264 2804.62,-264 3309.75,-264 3506.21,-264 3729.69,-259.75 3890.83,-255.94"/>
<polygon fill="black" stroke="black" points="3890.9,-259.44 3900.81,-255.7 3890.73,-252.44 3890.9,-259.44"/>
</g>
<!-- scrub1&#45;&gt;world -->
<g id="edge10" class="edge">
<title>scrub1&#45;&gt;world</title>
<path fill="none" stroke="black" d="M2494.76,-405.59C2533.1,-407.99 2585.67,-411.29 2636.63,-414.48"/>
<polygon fill="black" stroke="black" points="2636.1,-417.95 2646.3,-415.08 2636.54,-410.97 2636.1,-417.95"/>
</g>
<!-- record -->
<g id="node38" class="node">
<title>record</title>
<path fill="none" stroke="black" d="M3606.25,-420C3606.25,-420 3011.25,-420 3011.25,-420 3005.25,-420 2999.25,-414 2999.25,-408 2999.25,-408 2999.25,-396 2999.25,-396 2999.25,-390 3005.25,-384 3011.25,-384 3011.25,-384 3606.25,-384 3606.25,-384 3612.25,-384 3618.25,-390 3618.25,-396 3618.25,-396 3618.25,-408 3618.25,-408 3618.25,-414 3612.25,-420 3606.25,-420"/>
<text xml:space="preserve" text-anchor="middle" x="3308.75" y="-397.32" font-family="Times,serif" font-size="14.00">record_room remember_resource record_intent record_friction remember_capability</text>
</g>
<!-- world&#45;&gt;record -->
<g id="edge38" class="edge">
<title>world&#45;&gt;record</title>
<path fill="none" stroke="black" d="M2963.47,-417.8C2971.46,-417.43 2979.6,-417.06 2987.85,-416.68"/>
<polygon fill="black" stroke="black" points="2987.83,-420.19 2997.66,-416.23 2987.51,-413.19 2987.83,-420.19"/>
</g>
<!-- ca -->
<g id="node10" class="node">
<title>ca</title>
<path fill="none" stroke="black" d="M390.25,-117C390.25,-117 12,-117 12,-117 6,-117 0,-111 0,-105 0,-105 0,-93 0,-93 0,-87 6,-81 12,-81 12,-81 390.25,-81 390.25,-81 396.25,-81 402.25,-87 402.25,-93 402.25,-93 402.25,-105 402.25,-105 402.25,-111 396.25,-117 390.25,-117"/>
<text xml:space="preserve" text-anchor="middle" x="201.12" y="-94.33" font-family="Times,serif" font-size="14.00">CrawlArgs.backend (&#45;&#45;backend flag only, default mock)</text>
</g>
<!-- crun -->
<g id="node11" class="node">
<title>crun</title>
<path fill="none" stroke="black" d="M695,-117C695,-117 450.25,-117 450.25,-117 444.25,-117 438.25,-111 438.25,-105 438.25,-105 438.25,-93 438.25,-93 438.25,-87 444.25,-81 450.25,-81 450.25,-81 695,-81 695,-81 701,-81 707,-87 707,-93 707,-93 707,-105 707,-105 707,-111 701,-117 695,-117"/>
<text xml:space="preserve" text-anchor="middle" x="572.62" y="-94.33" font-family="Times,serif" font-size="14.00">ProcessAzRunner or FakeAzRunner</text>
</g>
<!-- ca&#45;&gt;crun -->
<g id="edge11" class="edge">
<title>ca&#45;&gt;crun</title>
<path fill="none" stroke="black" d="M402.55,-99C410.74,-99 418.89,-99 426.93,-99"/>
<polygon fill="black" stroke="black" points="426.7,-102.5 436.7,-99 426.7,-95.5 426.7,-102.5"/>
</g>
<!-- gjson -->
<g id="node12" class="node">
<title>gjson</title>
<path fill="none" stroke="black" d="M972,-144C972,-144 868.25,-144 868.25,-144 862.25,-144 856.25,-138 856.25,-132 856.25,-132 856.25,-120 856.25,-120 856.25,-114 862.25,-108 868.25,-108 868.25,-108 972,-108 972,-108 978,-108 984,-114 984,-120 984,-120 984,-132 984,-132 984,-138 978,-144 972,-144"/>
<text xml:space="preserve" text-anchor="middle" x="920.12" y="-121.33" font-family="Times,serif" font-size="14.00">group list JSON</text>
</g>
<!-- crun&#45;&gt;gjson -->
<g id="edge12" class="edge">
<title>crun&#45;&gt;gjson</title>
<path fill="none" stroke="black" d="M707.2,-109.44C753.97,-113.09 804.78,-117.06 844.92,-120.2"/>
<polygon fill="black" stroke="black" points="844.46,-123.68 854.7,-120.97 845,-116.7 844.46,-123.68"/>
</g>
<!-- rjson -->
<g id="node13" class="node">
<title>rjson</title>
<path fill="none" stroke="black" d="M1019.62,-90C1019.62,-90 820.62,-90 820.62,-90 814.62,-90 808.62,-84 808.62,-78 808.62,-78 808.62,-66 808.62,-66 808.62,-60 814.62,-54 820.62,-54 820.62,-54 1019.62,-54 1019.62,-54 1025.62,-54 1031.62,-60 1031.62,-66 1031.62,-66 1031.62,-78 1031.62,-78 1031.62,-84 1025.62,-90 1019.62,-90"/>
<text xml:space="preserve" text-anchor="middle" x="920.12" y="-67.33" font-family="Times,serif" font-size="14.00">resource list JSON per group</text>
</g>
<!-- crun&#45;&gt;rjson -->
<g id="edge14" class="edge">
<title>crun&#45;&gt;rjson</title>
<path fill="none" stroke="black" d="M707.2,-88.56C736.71,-86.26 767.82,-83.82 796.85,-81.56"/>
<polygon fill="black" stroke="black" points="797.09,-85.05 806.78,-80.78 796.54,-78.07 797.09,-85.05"/>
</g>
<!-- lim -->
<g id="node14" class="node">
<title>lim</title>
<path fill="none" stroke="black" d="M1326.25,-117C1326.25,-117 1145.25,-117 1145.25,-117 1139.25,-117 1133.25,-111 1133.25,-105 1133.25,-105 1133.25,-93 1133.25,-93 1133.25,-87 1139.25,-81 1145.25,-81 1145.25,-81 1326.25,-81 1326.25,-81 1332.25,-81 1338.25,-87 1338.25,-93 1338.25,-93 1338.25,-105 1338.25,-105 1338.25,-111 1332.25,-117 1326.25,-117"/>
<text xml:space="preserve" text-anchor="middle" x="1235.75" y="-94.33" font-family="Times,serif" font-size="14.00">AimdLimiter throttle retry</text>
</g>
<!-- gjson&#45;&gt;lim -->
<g id="edge13" class="edge">
<title>gjson&#45;&gt;lim</title>
<path fill="none" stroke="black" d="M984.21,-120.57C1023.54,-117.18 1075.3,-112.73 1121.55,-108.75"/>
<polygon fill="black" stroke="black" points="1121.7,-112.25 1131.36,-107.9 1121.1,-105.27 1121.7,-112.25"/>
</g>
<!-- rjson&#45;&gt;lim -->
<g id="edge15" class="edge">
<title>rjson&#45;&gt;lim</title>
<path fill="none" stroke="black" d="M1031.7,-81.52C1060.86,-84.03 1092.37,-86.74 1121.67,-89.26"/>
<polygon fill="black" stroke="black" points="1121,-92.72 1131.27,-90.09 1121.6,-85.75 1121,-92.72"/>
</g>
<!-- build -->
<g id="node15" class="node">
<title>build</title>
<path fill="none" stroke="black" d="M1536.5,-117C1536.5,-117 1422.25,-117 1422.25,-117 1416.25,-117 1410.25,-111 1410.25,-105 1410.25,-105 1410.25,-93 1410.25,-93 1410.25,-87 1416.25,-81 1422.25,-81 1422.25,-81 1536.5,-81 1536.5,-81 1542.5,-81 1548.5,-87 1548.5,-93 1548.5,-93 1548.5,-105 1548.5,-105 1548.5,-111 1542.5,-117 1536.5,-117"/>
<text xml:space="preserve" text-anchor="middle" x="1479.38" y="-94.33" font-family="Times,serif" font-size="14.00">build_cancellable</text>
</g>
<!-- lim&#45;&gt;build -->
<g id="edge16" class="edge">
<title>lim&#45;&gt;build</title>
<path fill="none" stroke="black" d="M1338.52,-99C1358.59,-99 1379.37,-99 1398.59,-99"/>
<polygon fill="black" stroke="black" points="1398.5,-102.5 1408.5,-99 1398.5,-95.5 1398.5,-102.5"/>
</g>
<!-- rn -->
<g id="node16" class="node">
<title>rn</title>
<path fill="none" stroke="black" d="M1908.75,-117C1908.75,-117 1632.5,-117 1632.5,-117 1626.5,-117 1620.5,-111 1620.5,-105 1620.5,-105 1620.5,-93 1620.5,-93 1620.5,-87 1626.5,-81 1632.5,-81 1632.5,-81 1908.75,-81 1908.75,-81 1914.75,-81 1920.75,-87 1920.75,-93 1920.75,-93 1920.75,-105 1920.75,-105 1920.75,-111 1914.75,-117 1908.75,-117"/>
<text xml:space="preserve" text-anchor="middle" x="1770.62" y="-94.33" font-family="Times,serif" font-size="14.00">ResourceNode id name kind region icon</text>
</g>
<!-- build&#45;&gt;rn -->
<g id="edge17" class="edge">
<title>build&#45;&gt;rn</title>
<path fill="none" stroke="black" d="M1548.92,-99C1567.19,-99 1587.72,-99 1608.72,-99"/>
<polygon fill="black" stroke="black" points="1608.56,-102.5 1618.56,-99 1608.56,-95.5 1608.56,-102.5"/>
</g>
<!-- room -->
<g id="node17" class="node">
<title>room</title>
<path fill="none" stroke="black" d="M2212.75,-117C2212.75,-117 1968.75,-117 1968.75,-117 1962.75,-117 1956.75,-111 1956.75,-105 1956.75,-105 1956.75,-93 1956.75,-93 1956.75,-87 1962.75,-81 1968.75,-81 1968.75,-81 2212.75,-81 2212.75,-81 2218.75,-81 2224.75,-87 2224.75,-93 2224.75,-93 2224.75,-105 2224.75,-105 2224.75,-111 2218.75,-117 2212.75,-117"/>
<text xml:space="preserve" text-anchor="middle" x="2090.75" y="-94.33" font-family="Times,serif" font-size="14.00">Room id name region x y resources</text>
</g>
<!-- rn&#45;&gt;room -->
<g id="edge18" class="edge">
<title>rn&#45;&gt;room</title>
<path fill="none" stroke="black" d="M1920.91,-99C1929.03,-99 1937.18,-99 1945.28,-99"/>
<polygon fill="black" stroke="black" points="1945.18,-102.5 1955.18,-99 1945.18,-95.5 1945.18,-102.5"/>
</g>
<!-- dmap -->
<g id="node18" class="node">
<title>dmap</title>
<path fill="none" stroke="black" d="M2600,-117C2600,-117 2272.75,-117 2272.75,-117 2266.75,-117 2260.75,-111 2260.75,-105 2260.75,-105 2260.75,-93 2260.75,-93 2260.75,-87 2266.75,-81 2272.75,-81 2272.75,-81 2600,-81 2600,-81 2606,-81 2612,-87 2612,-93 2612,-93 2612,-105 2612,-105 2612,-111 2606,-117 2600,-117"/>
<text xml:space="preserve" text-anchor="middle" x="2436.38" y="-94.33" font-family="Times,serif" font-size="14.00">DungeonMap subscription rooms edges partial</text>
</g>
<!-- room&#45;&gt;dmap -->
<g id="edge19" class="edge">
<title>room&#45;&gt;dmap</title>
<path fill="none" stroke="black" d="M2225.1,-99C2232.98,-99 2240.98,-99 2249.02,-99"/>
<polygon fill="black" stroke="black" points="2248.9,-102.5 2258.9,-99 2248.9,-95.5 2248.9,-102.5"/>
</g>
<!-- render -->
<g id="node19" class="node">
<title>render</title>
<path fill="none" stroke="black" d="M2845.5,-36C2845.5,-36 2765.75,-36 2765.75,-36 2759.75,-36 2753.75,-30 2753.75,-24 2753.75,-24 2753.75,-12 2753.75,-12 2753.75,-6 2759.75,0 2765.75,0 2765.75,0 2845.5,0 2845.5,0 2851.5,0 2857.5,-6 2857.5,-12 2857.5,-12 2857.5,-24 2857.5,-24 2857.5,-30 2851.5,-36 2845.5,-36"/>
<text xml:space="preserve" text-anchor="middle" x="2805.62" y="-13.32" font-family="Times,serif" font-size="14.00">render_html</text>
</g>
<!-- dmap&#45;&gt;render -->
<g id="edge20" class="edge">
<title>dmap&#45;&gt;render</title>
<path fill="none" stroke="black" d="M2503.46,-80.61C2544.8,-69.46 2599.27,-55.43 2648,-45 2678.85,-38.4 2713.38,-32.31 2742.15,-27.59"/>
<polygon fill="black" stroke="black" points="2742.48,-31.08 2751.79,-26.03 2741.36,-24.17 2742.48,-31.08"/>
</g>
<!-- play -->
<g id="node20" class="node">
<title>play</title>
<path fill="none" stroke="black" d="M2871.38,-90C2871.38,-90 2739.88,-90 2739.88,-90 2733.88,-90 2727.88,-84 2727.88,-78 2727.88,-78 2727.88,-66 2727.88,-66 2727.88,-60 2733.88,-54 2739.88,-54 2739.88,-54 2871.38,-54 2871.38,-54 2877.38,-54 2883.38,-60 2883.38,-66 2883.38,-66 2883.38,-78 2883.38,-78 2883.38,-84 2877.38,-90 2871.38,-90"/>
<text xml:space="preserve" text-anchor="middle" x="2805.62" y="-67.33" font-family="Times,serif" font-size="14.00">playwright optional</text>
</g>
<!-- dmap&#45;&gt;play -->
<g id="edge22" class="edge">
<title>dmap&#45;&gt;play</title>
<path fill="none" stroke="black" d="M2612.4,-86.13C2648.43,-83.48 2684.91,-80.8 2716.26,-78.5"/>
<polygon fill="black" stroke="black" points="2716.34,-82 2726.06,-77.78 2715.83,-75.02 2716.34,-82"/>
</g>
<!-- serv -->
<g id="node22" class="node">
<title>serv</title>
<path fill="none" stroke="black" d="M2848.5,-198C2848.5,-198 2762.75,-198 2762.75,-198 2756.75,-198 2750.75,-192 2750.75,-186 2750.75,-186 2750.75,-174 2750.75,-174 2750.75,-168 2756.75,-162 2762.75,-162 2762.75,-162 2848.5,-162 2848.5,-162 2854.5,-162 2860.5,-168 2860.5,-174 2860.5,-174 2860.5,-186 2860.5,-186 2860.5,-192 2854.5,-198 2848.5,-198"/>
<text xml:space="preserve" text-anchor="middle" x="2805.62" y="-175.32" font-family="Times,serif" font-size="14.00">server::serve</text>
</g>
<!-- dmap&#45;&gt;serv -->
<g id="edge24" class="edge">
<title>dmap&#45;&gt;serv</title>
<path fill="none" stroke="black" d="M2503.46,-117.39C2544.8,-128.54 2599.27,-142.57 2648,-153 2677.76,-159.37 2710.95,-165.26 2739.1,-169.91"/>
<polygon fill="black" stroke="black" points="2738.49,-173.36 2748.92,-171.51 2739.62,-166.45 2738.49,-173.36"/>
</g>
<!-- snap -->
<g id="node26" class="node">
<title>snap</title>
<path fill="none" stroke="black" d="M2898.38,-144C2898.38,-144 2712.88,-144 2712.88,-144 2706.88,-144 2700.88,-138 2700.88,-132 2700.88,-132 2700.88,-120 2700.88,-120 2700.88,-114 2706.88,-108 2712.88,-108 2712.88,-108 2898.38,-108 2898.38,-108 2904.38,-108 2910.38,-114 2910.38,-120 2910.38,-120 2910.38,-132 2910.38,-132 2910.38,-138 2904.38,-144 2898.38,-144"/>
<text xml:space="preserve" text-anchor="middle" x="2805.62" y="-121.33" font-family="Times,serif" font-size="14.00">serde_json pretty snapshot</text>
</g>
<!-- dmap&#45;&gt;snap -->
<g id="edge28" class="edge">
<title>dmap&#45;&gt;snap</title>
<path fill="none" stroke="black" d="M2612.4,-111.87C2638.39,-113.78 2664.62,-115.71 2688.99,-117.5"/>
<polygon fill="black" stroke="black" points="2688.68,-120.98 2698.9,-118.23 2689.19,-114 2688.68,-120.98"/>
</g>
<!-- html -->
<g id="node21" class="node">
<title>html</title>
<path fill="none" stroke="black" d="M3389.5,-63C3389.5,-63 3228,-63 3228,-63 3222,-63 3216,-57 3216,-51 3216,-51 3216,-39 3216,-39 3216,-33 3222,-27 3228,-27 3228,-27 3389.5,-27 3389.5,-27 3395.5,-27 3401.5,-33 3401.5,-39 3401.5,-39 3401.5,-51 3401.5,-51 3401.5,-57 3395.5,-63 3389.5,-63"/>
<text xml:space="preserve" text-anchor="middle" x="3308.75" y="-40.33" font-family="Times,serif" font-size="14.00">&#45;&#45;out HTML or guidance</text>
</g>
<!-- render&#45;&gt;html -->
<g id="edge21" class="edge">
<title>render&#45;&gt;html</title>
<path fill="none" stroke="black" d="M2857.9,-20.76C2939.13,-25.14 3099,-33.75 3204.62,-39.44"/>
<polygon fill="black" stroke="black" points="3204.26,-42.93 3214.43,-39.97 3204.64,-35.94 3204.26,-42.93"/>
</g>
<!-- play&#45;&gt;html -->
<g id="edge23" class="edge">
<title>play&#45;&gt;html</title>
<path fill="none" stroke="black" d="M2883.83,-67.84C2969.7,-63.21 3108.87,-55.72 3204.16,-50.58"/>
<polygon fill="black" stroke="black" points="3204.25,-54.08 3214.05,-50.05 3203.87,-47.09 3204.25,-54.08"/>
</g>
<!-- route -->
<g id="node23" class="node">
<title>route</title>
<path fill="none" stroke="black" d="M3323.88,-198C3323.88,-198 3293.62,-198 3293.62,-198 3287.62,-198 3281.62,-192 3281.62,-186 3281.62,-186 3281.62,-174 3281.62,-174 3281.62,-168 3287.62,-162 3293.62,-162 3293.62,-162 3323.88,-162 3323.88,-162 3329.88,-162 3335.88,-168 3335.88,-174 3335.88,-174 3335.88,-186 3335.88,-186 3335.88,-192 3329.88,-198 3323.88,-198"/>
<text xml:space="preserve" text-anchor="middle" x="3308.75" y="-175.32" font-family="Times,serif" font-size="14.00">route</text>
</g>
<!-- serv&#45;&gt;route -->
<g id="edge25" class="edge">
<title>serv&#45;&gt;route</title>
<path fill="none" stroke="black" d="M2860.73,-180C2962.96,-180 3182.12,-180 3270.08,-180"/>
<polygon fill="black" stroke="black" points="3269.84,-183.5 3279.84,-180 3269.84,-176.5 3269.84,-183.5"/>
</g>
<!-- json -->
<g id="node24" class="node">
<title>json</title>
<path fill="none" stroke="black" d="M3819.88,-198C3819.88,-198 3701.12,-198 3701.12,-198 3695.12,-198 3689.12,-192 3689.12,-186 3689.12,-186 3689.12,-174 3689.12,-174 3689.12,-168 3695.12,-162 3701.12,-162 3701.12,-162 3819.88,-162 3819.88,-162 3825.88,-162 3831.88,-168 3831.88,-174 3831.88,-174 3831.88,-186 3831.88,-186 3831.88,-192 3825.88,-198 3819.88,-198"/>
<text xml:space="preserve" text-anchor="middle" x="3760.5" y="-175.32" font-family="Times,serif" font-size="14.00">HTTP JSON DTOs</text>
</g>
<!-- route&#45;&gt;json -->
<g id="edge26" class="edge">
<title>route&#45;&gt;json</title>
<path fill="none" stroke="black" d="M3336.2,-180C3401.81,-180 3574.17,-180 3677.59,-180"/>
<polygon fill="black" stroke="black" points="3677.41,-183.5 3687.41,-180 3677.41,-176.5 3677.41,-183.5"/>
</g>
<!-- scrub2 -->
<g id="node25" class="node">
<title>scrub2</title>
<path fill="none" stroke="black" d="M4159.5,-198C4159.5,-198 4067,-198 4067,-198 4061,-198 4055,-192 4055,-186 4055,-186 4055,-174 4055,-174 4055,-168 4061,-162 4067,-162 4067,-162 4159.5,-162 4159.5,-162 4165.5,-162 4171.5,-168 4171.5,-174 4171.5,-174 4171.5,-186 4171.5,-186 4171.5,-192 4165.5,-198 4159.5,-198"/>
<text xml:space="preserve" text-anchor="middle" x="4113.25" y="-175.32" font-family="Times,serif" font-size="14.00">secrets::scrub</text>
</g>
<!-- json&#45;&gt;scrub2 -->
<g id="edge27" class="edge">
<title>json&#45;&gt;scrub2</title>
<path fill="none" stroke="black" d="M3832.06,-180C3893.51,-180 3982.09,-180 4043.12,-180"/>
<polygon fill="black" stroke="black" points="4043.05,-183.5 4053.05,-180 4043.05,-176.5 4043.05,-183.5"/>
</g>
<!-- json&#45;&gt;input -->
<g id="edge53" class="edge">
<title>json&#45;&gt;input</title>
<path fill="none" stroke="black" d="M3832.06,-194.08C3882.69,-204.19 3951.75,-217.97 4008.63,-229.32"/>
<polygon fill="black" stroke="black" points="4007.86,-232.74 4018.35,-231.26 4009.23,-225.87 4007.86,-232.74"/>
</g>
<!-- snapfile -->
<g id="node27" class="node">
<title>snapfile</title>
<path fill="none" stroke="black" d="M3387.62,-144C3387.62,-144 3229.88,-144 3229.88,-144 3223.88,-144 3217.88,-138 3217.88,-132 3217.88,-132 3217.88,-120 3217.88,-120 3217.88,-114 3223.88,-108 3229.88,-108 3229.88,-108 3387.62,-108 3387.62,-108 3393.62,-108 3399.62,-114 3399.62,-120 3399.62,-120 3399.62,-132 3399.62,-132 3399.62,-138 3393.62,-144 3387.62,-144"/>
<text xml:space="preserve" text-anchor="middle" x="3308.75" y="-121.33" font-family="Times,serif" font-size="14.00">snapshot JSON schema</text>
</g>
<!-- snap&#45;&gt;snapfile -->
<g id="edge29" class="edge">
<title>snap&#45;&gt;snapfile</title>
<path fill="none" stroke="black" d="M2910.76,-126C2997.49,-126 3120.27,-126 3206.25,-126"/>
<polygon fill="black" stroke="black" points="3206.09,-129.5 3216.09,-126 3206.09,-122.5 3206.09,-129.5"/>
</g>
<!-- old -->
<g id="node28" class="node">
<title>old</title>
<path fill="none" stroke="black" d="M263.88,-585C263.88,-585 138.38,-585 138.38,-585 132.38,-585 126.38,-579 126.38,-573 126.38,-573 126.38,-561 126.38,-561 126.38,-555 132.38,-549 138.38,-549 138.38,-549 263.88,-549 263.88,-549 269.88,-549 275.88,-555 275.88,-561 275.88,-561 275.88,-573 275.88,-573 275.88,-579 269.88,-585 263.88,-585"/>
<text xml:space="preserve" text-anchor="middle" x="201.12" y="-562.33" font-family="Times,serif" font-size="14.00">old snapshot JSON</text>
</g>
<!-- po -->
<g id="node30" class="node">
<title>po</title>
<path fill="none" stroke="black" d="M662,-585C662,-585 483.25,-585 483.25,-585 477.25,-585 471.25,-579 471.25,-573 471.25,-573 471.25,-561 471.25,-561 471.25,-555 477.25,-549 483.25,-549 483.25,-549 662,-549 662,-549 668,-549 674,-555 674,-561 674,-561 674,-573 674,-573 674,-579 668,-585 662,-585"/>
<text xml:space="preserve" text-anchor="middle" x="572.62" y="-562.33" font-family="Times,serif" font-size="14.00">from_str old DungeonMap</text>
</g>
<!-- old&#45;&gt;po -->
<g id="edge30" class="edge">
<title>old&#45;&gt;po</title>
<path fill="none" stroke="black" d="M276.01,-567C328.54,-567 400.05,-567 459.57,-567"/>
<polygon fill="black" stroke="black" points="459.41,-570.5 469.41,-567 459.41,-563.5 459.41,-570.5"/>
</g>
<!-- new -->
<g id="node29" class="node">
<title>new</title>
<path fill="none" stroke="black" d="M267.62,-531C267.62,-531 134.62,-531 134.62,-531 128.62,-531 122.62,-525 122.62,-519 122.62,-519 122.62,-507 122.62,-507 122.62,-501 128.62,-495 134.62,-495 134.62,-495 267.62,-495 267.62,-495 273.62,-495 279.62,-501 279.62,-507 279.62,-507 279.62,-519 279.62,-519 279.62,-525 273.62,-531 267.62,-531"/>
<text xml:space="preserve" text-anchor="middle" x="201.12" y="-508.32" font-family="Times,serif" font-size="14.00">new snapshot JSON</text>
</g>
<!-- pn -->
<g id="node31" class="node">
<title>pn</title>
<path fill="none" stroke="black" d="M665.75,-531C665.75,-531 479.5,-531 479.5,-531 473.5,-531 467.5,-525 467.5,-519 467.5,-519 467.5,-507 467.5,-507 467.5,-501 473.5,-495 479.5,-495 479.5,-495 665.75,-495 665.75,-495 671.75,-495 677.75,-501 677.75,-507 677.75,-507 677.75,-519 677.75,-519 677.75,-525 671.75,-531 665.75,-531"/>
<text xml:space="preserve" text-anchor="middle" x="572.62" y="-508.32" font-family="Times,serif" font-size="14.00">from_str new DungeonMap</text>
</g>
<!-- new&#45;&gt;pn -->
<g id="edge32" class="edge">
<title>new&#45;&gt;pn</title>
<path fill="none" stroke="black" d="M280.03,-513C331.05,-513 398.62,-513 455.87,-513"/>
<polygon fill="black" stroke="black" points="455.66,-516.5 465.66,-513 455.66,-509.5 455.66,-516.5"/>
</g>
<!-- diff -->
<g id="node32" class="node">
<title>diff</title>
<path fill="none" stroke="black" d="M950.25,-558C950.25,-558 890,-558 890,-558 884,-558 878,-552 878,-546 878,-546 878,-534 878,-534 878,-528 884,-522 890,-522 890,-522 950.25,-522 950.25,-522 956.25,-522 962.25,-528 962.25,-534 962.25,-534 962.25,-546 962.25,-546 962.25,-552 956.25,-558 950.25,-558"/>
<text xml:space="preserve" text-anchor="middle" x="920.12" y="-535.33" font-family="Times,serif" font-size="14.00">diff_maps</text>
</g>
<!-- po&#45;&gt;diff -->
<g id="edge31" class="edge">
<title>po&#45;&gt;diff</title>
<path fill="none" stroke="black" d="M674.49,-559.12C737.31,-554.21 815.58,-548.09 866.42,-544.12"/>
<polygon fill="black" stroke="black" points="866.57,-547.62 876.27,-543.35 866.03,-540.64 866.57,-547.62"/>
</g>
<!-- pn&#45;&gt;diff -->
<g id="edge33" class="edge">
<title>pn&#45;&gt;diff</title>
<path fill="none" stroke="black" d="M678.22,-521.17C740.37,-526.03 816.54,-531.98 866.37,-535.88"/>
<polygon fill="black" stroke="black" points="866.08,-539.36 876.32,-536.65 866.62,-532.39 866.08,-539.36"/>
</g>
<!-- mapdiff -->
<g id="node33" class="node">
<title>mapdiff</title>
<path fill="none" stroke="black" d="M1260.25,-558C1260.25,-558 1211.25,-558 1211.25,-558 1205.25,-558 1199.25,-552 1199.25,-546 1199.25,-546 1199.25,-534 1199.25,-534 1199.25,-528 1205.25,-522 1211.25,-522 1211.25,-522 1260.25,-522 1260.25,-522 1266.25,-522 1272.25,-528 1272.25,-534 1272.25,-534 1272.25,-546 1272.25,-546 1272.25,-552 1266.25,-558 1260.25,-558"/>
<text xml:space="preserve" text-anchor="middle" x="1235.75" y="-535.33" font-family="Times,serif" font-size="14.00">MapDiff</text>
</g>
<!-- diff&#45;&gt;mapdiff -->
<g id="edge34" class="edge">
<title>diff&#45;&gt;mapdiff</title>
<path fill="none" stroke="black" d="M962.45,-540C1020.73,-540 1126.79,-540 1187.92,-540"/>
<polygon fill="black" stroke="black" points="1187.64,-543.5 1197.64,-540 1187.64,-536.5 1187.64,-543.5"/>
</g>
<!-- rep -->
<g id="node34" class="node">
<title>rep</title>
<path fill="none" stroke="black" d="M1525.25,-558C1525.25,-558 1433.5,-558 1433.5,-558 1427.5,-558 1421.5,-552 1421.5,-546 1421.5,-546 1421.5,-534 1421.5,-534 1421.5,-528 1427.5,-522 1433.5,-522 1433.5,-522 1525.25,-522 1525.25,-522 1531.25,-522 1537.25,-528 1537.25,-534 1537.25,-534 1537.25,-546 1537.25,-546 1537.25,-552 1531.25,-558 1525.25,-558"/>
<text xml:space="preserve" text-anchor="middle" x="1479.38" y="-535.33" font-family="Times,serif" font-size="14.00">render_report</text>
</g>
<!-- mapdiff&#45;&gt;rep -->
<g id="edge35" class="edge">
<title>mapdiff&#45;&gt;rep</title>
<path fill="none" stroke="black" d="M1272.66,-540C1308.7,-540 1365.12,-540 1409.77,-540"/>
<polygon fill="black" stroke="black" points="1409.62,-543.5 1419.62,-540 1409.62,-536.5 1409.62,-543.5"/>
</g>
<!-- mpath -->
<g id="node35" class="node">
<title>mpath</title>
<path fill="none" stroke="black" d="M4461.62,-420C4461.62,-420 4374.38,-420 4374.38,-420 4368.38,-420 4362.38,-414 4362.38,-408 4362.38,-408 4362.38,-396 4362.38,-396 4362.38,-390 4368.38,-384 4374.38,-384 4374.38,-384 4461.62,-384 4461.62,-384 4467.62,-384 4473.62,-390 4473.62,-396 4473.62,-396 4473.62,-408 4473.62,-408 4473.62,-414 4467.62,-420 4461.62,-420"/>
<text xml:space="preserve" text-anchor="middle" x="4418" y="-397.32" font-family="Times,serif" font-size="14.00">memory path</text>
</g>
<!-- mload -->
<g id="node36" class="node">
<title>mload</title>
<path fill="none" stroke="black" d="M4658.75,-397C4658.75,-397 4524.25,-397 4524.25,-397 4518.25,-397 4512.25,-391 4512.25,-385 4512.25,-385 4512.25,-373 4512.25,-373 4512.25,-367 4518.25,-361 4524.25,-361 4524.25,-361 4658.75,-361 4658.75,-361 4664.75,-361 4670.75,-367 4670.75,-373 4670.75,-373 4670.75,-385 4670.75,-385 4670.75,-391 4664.75,-397 4658.75,-397"/>
<text xml:space="preserve" text-anchor="middle" x="4591.5" y="-374.32" font-family="Times,serif" font-size="14.00">GraphMemory::load</text>
</g>
<!-- mpath&#45;&gt;mload -->
<g id="edge36" class="edge">
<title>mpath&#45;&gt;mload</title>
<path fill="none" stroke="black" d="M4473.74,-394.66C4482.38,-393.5 4491.5,-392.28 4500.69,-391.04"/>
<polygon fill="black" stroke="black" points="4500.96,-394.54 4510.41,-389.74 4500.03,-387.6 4500.96,-394.54"/>
</g>
<!-- gm -->
<g id="node37" class="node">
<title>gm</title>
<path fill="none" stroke="black" d="M3854.75,-420C3854.75,-420 3666.25,-420 3666.25,-420 3660.25,-420 3654.25,-414 3654.25,-408 3654.25,-408 3654.25,-396 3654.25,-396 3654.25,-390 3660.25,-384 3666.25,-384 3666.25,-384 3854.75,-384 3854.75,-384 3860.75,-384 3866.75,-390 3866.75,-396 3866.75,-396 3866.75,-408 3866.75,-408 3866.75,-414 3860.75,-420 3854.75,-420"/>
<text xml:space="preserve" text-anchor="middle" x="3760.5" y="-397.32" font-family="Times,serif" font-size="14.00">GraphMemory nodes edges</text>
</g>
<!-- mload&#45;&gt;gm -->
<g id="edge37" class="edge">
<title>mload&#45;&gt;gm</title>
<path fill="none" stroke="black" d="M4511.89,-373.44C4383.9,-365.54 4122.66,-354.17 3902.75,-375 3887.2,-376.47 3870.81,-378.84 3854.93,-381.57"/>
<polygon fill="black" stroke="black" points="3854.75,-378.05 3845.52,-383.25 3855.98,-384.94 3854.75,-378.05"/>
</g>
<!-- recall -->
<g id="node39" class="node">
<title>recall</title>
<path fill="none" stroke="black" d="M4164.75,-474C4164.75,-474 4061.75,-474 4061.75,-474 4055.75,-474 4049.75,-468 4049.75,-462 4049.75,-462 4049.75,-450 4049.75,-450 4049.75,-444 4055.75,-438 4061.75,-438 4061.75,-438 4164.75,-438 4164.75,-438 4170.75,-438 4176.75,-444 4176.75,-450 4176.75,-450 4176.75,-462 4176.75,-462 4176.75,-468 4170.75,-474 4164.75,-474"/>
<text xml:space="preserve" text-anchor="middle" x="4113.25" y="-451.32" font-family="Times,serif" font-size="14.00">recall summary</text>
</g>
<!-- gm&#45;&gt;recall -->
<g id="edge40" class="edge">
<title>gm&#45;&gt;recall</title>
<path fill="none" stroke="black" d="M3853.67,-420.45C3869.99,-423.48 3886.85,-426.46 3902.75,-429 3947.51,-436.15 3997.88,-442.69 4038.01,-447.54"/>
<polygon fill="black" stroke="black" points="4037.46,-451 4047.81,-448.72 4038.3,-444.05 4037.46,-451"/>
</g>
<!-- msave -->
<g id="node40" class="node">
<title>msave</title>
<path fill="none" stroke="black" d="M4181.62,-420C4181.62,-420 4044.88,-420 4044.88,-420 4038.88,-420 4032.88,-414 4032.88,-408 4032.88,-408 4032.88,-396 4032.88,-396 4032.88,-390 4038.88,-384 4044.88,-384 4044.88,-384 4181.62,-384 4181.62,-384 4187.62,-384 4193.62,-390 4193.62,-396 4193.62,-396 4193.62,-408 4193.62,-408 4193.62,-414 4187.62,-420 4181.62,-420"/>
<text xml:space="preserve" text-anchor="middle" x="4113.25" y="-397.32" font-family="Times,serif" font-size="14.00">GraphMemory::save</text>
</g>
<!-- gm&#45;&gt;msave -->
<g id="edge41" class="edge">
<title>gm&#45;&gt;msave</title>
<path fill="none" stroke="black" d="M3867.21,-402C3916.22,-402 3973.9,-402 4020.98,-402"/>
<polygon fill="black" stroke="black" points="4020.88,-405.5 4030.88,-402 4020.88,-398.5 4020.88,-405.5"/>
</g>
<!-- gm&#45;&gt;input -->
<g id="edge54" class="edge">
<title>gm&#45;&gt;input</title>
<path fill="none" stroke="black" d="M3854.85,-383.68C3859.09,-381.14 3863.09,-378.26 3866.75,-375 3900.14,-345.23 3867.85,-308.99 3902.75,-281 3905.69,-278.64 3908.73,-276.42 3911.86,-274.34"/>
<polygon fill="black" stroke="black" points="3913.48,-277.44 3920.2,-269.25 3909.84,-271.47 3913.48,-277.44"/>
</g>
<!-- record&#45;&gt;gm -->
<g id="edge39" class="edge">
<title>record&#45;&gt;gm</title>
<path fill="none" stroke="black" d="M3618.74,-402C3626.96,-402 3635.01,-402 3642.83,-402"/>
<polygon fill="black" stroke="black" points="3642.6,-405.5 3652.6,-402 3642.6,-398.5 3642.6,-405.5"/>
</g>
<!-- msave&#45;&gt;mpath -->
<g id="edge42" class="edge">
<title>msave&#45;&gt;mpath</title>
<path fill="none" stroke="black" d="M4193.79,-402C4242.73,-402 4304.71,-402 4350.93,-402"/>
<polygon fill="black" stroke="black" points="4350.81,-405.5 4360.81,-402 4350.81,-398.5 4350.81,-405.5"/>
</g>
<!-- cpath -->
<g id="node41" class="node">
<title>cpath</title>
<path fill="none" stroke="black" d="M3828.88,-366C3828.88,-366 3692.12,-366 3692.12,-366 3686.12,-366 3680.12,-360 3680.12,-354 3680.12,-354 3680.12,-342 3680.12,-342 3680.12,-336 3686.12,-330 3692.12,-330 3692.12,-330 3828.88,-330 3828.88,-330 3834.88,-330 3840.88,-336 3840.88,-342 3840.88,-342 3840.88,-354 3840.88,-354 3840.88,-360 3834.88,-366 3828.88,-366"/>
<text xml:space="preserve" text-anchor="middle" x="3760.5" y="-343.32" font-family="Times,serif" font-size="14.00">capabilities.tsv path</text>
</g>
<!-- cload -->
<g id="node42" class="node">
<title>cload</title>
<path fill="none" stroke="black" d="M4195.5,-326C4195.5,-326 4031,-326 4031,-326 4025,-326 4019,-320 4019,-314 4019,-314 4019,-302 4019,-302 4019,-296 4025,-290 4031,-290 4031,-290 4195.5,-290 4195.5,-290 4201.5,-290 4207.5,-296 4207.5,-302 4207.5,-302 4207.5,-314 4207.5,-314 4207.5,-320 4201.5,-326 4195.5,-326"/>
<text xml:space="preserve" text-anchor="middle" x="4113.25" y="-303.32" font-family="Times,serif" font-size="14.00">CapabilityRegistry::load</text>
</g>
<!-- cpath&#45;&gt;cload -->
<g id="edge43" class="edge">
<title>cpath&#45;&gt;cload</title>
<path fill="none" stroke="black" d="M3841.09,-338.92C3890.34,-333.31 3954.13,-326.03 4007.46,-319.95"/>
<polygon fill="black" stroke="black" points="4007.63,-323.45 4017.17,-318.84 4006.84,-316.5 4007.63,-323.45"/>
</g>
<!-- reg -->
<g id="node43" class="node">
<title>reg</title>
<path fill="none" stroke="black" d="M2868.38,-366C2868.38,-366 2742.88,-366 2742.88,-366 2736.88,-366 2730.88,-360 2730.88,-354 2730.88,-354 2730.88,-342 2730.88,-342 2730.88,-336 2736.88,-330 2742.88,-330 2742.88,-330 2868.38,-330 2868.38,-330 2874.38,-330 2880.38,-336 2880.38,-342 2880.38,-342 2880.38,-354 2880.38,-354 2880.38,-360 2874.38,-366 2868.38,-366"/>
<text xml:space="preserve" text-anchor="middle" x="2805.62" y="-343.32" font-family="Times,serif" font-size="14.00">CapabilityRegistry</text>
</g>
<!-- cload&#45;&gt;reg -->
<g id="edge44" class="edge">
<title>cload&#45;&gt;reg</title>
<path fill="none" stroke="black" d="M4018.63,-305.07C3826.98,-299.96 3376.2,-292.5 2999.25,-321 2963.85,-323.68 2925.05,-328.71 2891.6,-333.71"/>
<polygon fill="black" stroke="black" points="2891.33,-330.21 2881.97,-335.17 2892.39,-337.13 2891.33,-330.21"/>
</g>
<!-- reg&#45;&gt;record -->
<g id="edge50" class="edge">
<title>reg&#45;&gt;record</title>
<path fill="none" stroke="black" d="M2880.6,-359.29C2916.39,-364.51 2959.99,-370.53 2999.25,-375 3022.08,-377.6 3045.88,-380.08 3069.7,-382.41"/>
<polygon fill="black" stroke="black" points="3069.21,-385.88 3079.5,-383.36 3069.89,-378.91 3069.21,-385.88"/>
</g>
<!-- derive -->
<g id="node44" class="node">
<title>derive</title>
<path fill="none" stroke="black" d="M2176.75,-320C2176.75,-320 2004.75,-320 2004.75,-320 1998.75,-320 1992.75,-314 1992.75,-308 1992.75,-308 1992.75,-296 1992.75,-296 1992.75,-290 1998.75,-284 2004.75,-284 2004.75,-284 2176.75,-284 2176.75,-284 2182.75,-284 2188.75,-290 2188.75,-296 2188.75,-296 2188.75,-308 2188.75,-308 2188.75,-314 2182.75,-320 2176.75,-320"/>
<text xml:space="preserve" text-anchor="middle" x="2090.75" y="-297.32" font-family="Times,serif" font-size="14.00">derive help via AzRunner</text>
</g>
<!-- reg&#45;&gt;derive -->
<g id="edge45" class="edge">
<title>reg&#45;&gt;derive</title>
<path fill="none" stroke="black" d="M2730.74,-335.83C2694.97,-330.41 2651.36,-324.47 2612,-321 2469.97,-308.49 2305.43,-304.18 2200.06,-302.72"/>
<polygon fill="black" stroke="black" points="2200.34,-299.22 2190.29,-302.59 2200.24,-306.22 2200.34,-299.22"/>
</g>
<!-- csave -->
<g id="node46" class="node">
<title>csave</title>
<path fill="none" stroke="black" d="M3392.12,-366C3392.12,-366 3225.38,-366 3225.38,-366 3219.38,-366 3213.38,-360 3213.38,-354 3213.38,-354 3213.38,-342 3213.38,-342 3213.38,-336 3219.38,-330 3225.38,-330 3225.38,-330 3392.12,-330 3392.12,-330 3398.12,-330 3404.12,-336 3404.12,-342 3404.12,-342 3404.12,-354 3404.12,-354 3404.12,-360 3398.12,-366 3392.12,-366"/>
<text xml:space="preserve" text-anchor="middle" x="3308.75" y="-343.32" font-family="Times,serif" font-size="14.00">CapabilityRegistry::save</text>
</g>
<!-- reg&#45;&gt;csave -->
<g id="edge48" class="edge">
<title>reg&#45;&gt;csave</title>
<path fill="none" stroke="black" d="M2880.84,-348C2965.75,-348 3105.47,-348 3201.81,-348"/>
<polygon fill="black" stroke="black" points="3201.53,-351.5 3211.53,-348 3201.53,-344.5 3201.53,-351.5"/>
</g>
<!-- apply -->
<g id="node45" class="node">
<title>apply</title>
<path fill="none" stroke="black" d="M2537,-366C2537,-366 2335.75,-366 2335.75,-366 2329.75,-366 2323.75,-360 2323.75,-354 2323.75,-354 2323.75,-342 2323.75,-342 2323.75,-336 2329.75,-330 2335.75,-330 2335.75,-330 2537,-330 2537,-330 2543,-330 2549,-336 2549,-342 2549,-342 2549,-354 2549,-354 2549,-360 2543,-366 2537,-366"/>
<text xml:space="preserve" text-anchor="middle" x="2436.38" y="-343.32" font-family="Times,serif" font-size="14.00">apply_learned or learn_group</text>
</g>
<!-- derive&#45;&gt;apply -->
<g id="edge46" class="edge">
<title>derive&#45;&gt;apply</title>
<path fill="none" stroke="black" d="M2188.84,-315C2227.12,-320.12 2271.54,-326.07 2312.05,-331.49"/>
<polygon fill="black" stroke="black" points="2311.48,-334.95 2321.86,-332.8 2312.41,-328.01 2311.48,-334.95"/>
</g>
<!-- derive&#45;&gt;input -->
<g id="edge52" class="edge">
<title>derive&#45;&gt;input</title>
<path fill="none" stroke="black" d="M2140.12,-283.51C2173.49,-271.66 2219.16,-257.2 2260.75,-250 2499.17,-208.76 2562.67,-226 2804.62,-226 2804.62,-226 2804.62,-226 3309.75,-226 3506.27,-226 3729.74,-233.28 3890.87,-239.82"/>
<polygon fill="black" stroke="black" points="3890.71,-243.32 3900.85,-240.23 3891,-236.32 3890.71,-243.32"/>
</g>
<!-- apply&#45;&gt;reg -->
<g id="edge47" class="edge">
<title>apply&#45;&gt;reg</title>
<path fill="none" stroke="black" d="M2549.06,-348C2603.8,-348 2668.66,-348 2719.35,-348"/>
<polygon fill="black" stroke="black" points="2719.08,-351.5 2729.08,-348 2719.08,-344.5 2719.08,-351.5"/>
</g>
<!-- csave&#45;&gt;cpath -->
<g id="edge49" class="edge">
<title>csave&#45;&gt;cpath</title>
<path fill="none" stroke="black" d="M3404.58,-348C3482.45,-348 3592.01,-348 3668.74,-348"/>
<polygon fill="black" stroke="black" points="3668.31,-351.5 3678.31,-348 3668.31,-344.5 3668.31,-351.5"/>
</g>
<!-- scrub -->
<g id="node48" class="node">
<title>scrub</title>
<path fill="none" stroke="black" d="M4464.25,-268C4464.25,-268 4371.75,-268 4371.75,-268 4365.75,-268 4359.75,-262 4359.75,-256 4359.75,-256 4359.75,-244 4359.75,-244 4359.75,-238 4365.75,-232 4371.75,-232 4371.75,-232 4464.25,-232 4464.25,-232 4470.25,-232 4476.25,-238 4476.25,-244 4476.25,-244 4476.25,-256 4476.25,-256 4476.25,-262 4470.25,-268 4464.25,-268"/>
<text xml:space="preserve" text-anchor="middle" x="4418" y="-245.32" font-family="Times,serif" font-size="14.00">secrets::scrub</text>
</g>
<!-- input&#45;&gt;scrub -->
<g id="edge55" class="edge">
<title>input&#45;&gt;scrub</title>
<path fill="none" stroke="black" d="M4324.11,-250C4332.45,-250 4340.51,-250 4348.16,-250"/>
<polygon fill="black" stroke="black" points="4347.94,-253.5 4357.94,-250 4347.94,-246.5 4347.94,-253.5"/>
</g>
<!-- safeout -->
<g id="node49" class="node">
<title>safeout</title>
<path fill="none" stroke="black" d="M4656.5,-321C4656.5,-321 4526.5,-321 4526.5,-321 4520.5,-321 4514.5,-315 4514.5,-309 4514.5,-309 4514.5,-297 4514.5,-297 4514.5,-291 4520.5,-285 4526.5,-285 4526.5,-285 4656.5,-285 4656.5,-285 4662.5,-285 4668.5,-291 4668.5,-297 4668.5,-297 4668.5,-309 4668.5,-309 4668.5,-315 4662.5,-321 4656.5,-321"/>
<text xml:space="preserve" text-anchor="middle" x="4591.5" y="-298.32" font-family="Times,serif" font-size="14.00">safe printed output</text>
</g>
<!-- scrub&#45;&gt;safeout -->
<g id="edge56" class="edge">
<title>scrub&#45;&gt;safeout</title>
<path fill="none" stroke="black" d="M4476.58,-267.8C4490.46,-272.09 4505.45,-276.72 4519.85,-281.17"/>
<polygon fill="black" stroke="black" points="4518.69,-284.47 4529.28,-284.08 4520.76,-277.78 4518.69,-284.47"/>
</g>
<!-- safestore -->
<g id="node50" class="node">
<title>safestore</title>
<path fill="none" stroke="black" d="M4658,-267C4658,-267 4525,-267 4525,-267 4519,-267 4513,-261 4513,-255 4513,-255 4513,-243 4513,-243 4513,-237 4519,-231 4525,-231 4525,-231 4658,-231 4658,-231 4664,-231 4670,-237 4670,-243 4670,-243 4670,-255 4670,-255 4670,-261 4664,-267 4658,-267"/>
<text xml:space="preserve" text-anchor="middle" x="4591.5" y="-244.32" font-family="Times,serif" font-size="14.00">safe persisted state</text>
</g>
<!-- scrub&#45;&gt;safestore -->
<g id="edge57" class="edge">
<title>scrub&#45;&gt;safestore</title>
<path fill="none" stroke="black" d="M4476.58,-249.66C4484.55,-249.62 4492.87,-249.57 4501.24,-249.52"/>
<polygon fill="black" stroke="black" points="4501.16,-253.02 4511.14,-249.46 4501.12,-246.02 4501.16,-253.02"/>
</g>
</g>
</svg>
