<?xml version="1.0" encoding="UTF-8" standalone="no"?>
<!DOCTYPE svg PUBLIC "-//W3C//DTD SVG 1.1//EN"
 "http://www.w3.org/Graphics/SVG/1.1/DTD/svg11.dtd">
<!-- Generated by graphviz version 14.1.2 (0)
 -->
<!-- Title: ast_lsp_bindings Pages: 1 -->
<svg width="1637pt" height="447pt"
 viewBox="0.00 0.00 1637.00 447.00" xmlns="http://www.w3.org/2000/svg" xmlns:xlink="http://www.w3.org/1999/xlink">
<g id="graph0" class="graph" transform="scale(1 1) rotate(0) translate(4 443)">
<title>ast_lsp_bindings</title>
<polygon fill="white" stroke="none" points="-4,4 -4,-443 1633.25,-443 1633.25,4 -4,4"/>
<!-- backend_trait -->
<g id="node1" class="node">
<title>backend_trait</title>
<path fill="none" stroke="black" d="M1198.88,-373C1198.88,-373 1005.88,-373 1005.88,-373 999.88,-373 993.88,-367 993.88,-361 993.88,-361 993.88,-349 993.88,-349 993.88,-343 999.88,-337 1005.88,-337 1005.88,-337 1198.88,-337 1198.88,-337 1204.88,-337 1210.88,-343 1210.88,-349 1210.88,-349 1210.88,-361 1210.88,-361 1210.88,-367 1204.88,-373 1198.88,-373"/>
<text xml:space="preserve" text-anchor="middle" x="1102.38" y="-349.57" font-family="Arial" font-size="14.00">Backend trait src/backend/mod.rs</text>
</g>
<!-- az_impl -->
<g id="node3" class="node">
<title>az_impl</title>
<path fill="none" stroke="black" d="M1421.38,-327C1421.38,-327 1275.62,-327 1275.62,-327 1269.62,-327 1263.62,-321 1263.62,-315 1263.62,-315 1263.62,-303 1263.62,-303 1263.62,-297 1269.62,-291 1275.62,-291 1275.62,-291 1421.38,-291 1421.38,-291 1427.38,-291 1433.38,-297 1433.38,-303 1433.38,-303 1433.38,-315 1433.38,-315 1433.38,-321 1427.38,-327 1421.38,-327"/>
<text xml:space="preserve" text-anchor="middle" x="1348.5" y="-303.57" font-family="Arial" font-size="14.00">AzBackend impl Backend</text>
</g>
<!-- backend_trait&#45;&gt;az_impl -->
<g id="edge1" class="edge">
<title>backend_trait&#45;&gt;az_impl</title>
<path fill="none" stroke="black" d="M1201.26,-336.56C1218.13,-333.38 1235.64,-330.08 1252.43,-326.91"/>
<polygon fill="black" stroke="black" points="1252.68,-330.43 1261.86,-325.14 1251.38,-323.55 1252.68,-330.43"/>
</g>
<!-- mock_impl -->
<g id="node4" class="node">
<title>mock_impl</title>
<path fill="none" stroke="black" d="M1430,-401C1430,-401 1267,-401 1267,-401 1261,-401 1255,-395 1255,-389 1255,-389 1255,-377 1255,-377 1255,-371 1261,-365 1267,-365 1267,-365 1430,-365 1430,-365 1436,-365 1442,-371 1442,-377 1442,-377 1442,-389 1442,-389 1442,-395 1436,-401 1430,-401"/>
<text xml:space="preserve" text-anchor="middle" x="1348.5" y="-377.57" font-family="Arial" font-size="14.00">MockBackend impl Backend</text>
</g>
<!-- backend_trait&#45;&gt;mock_impl -->
<g id="edge2" class="edge">
<title>backend_trait&#45;&gt;mock_impl</title>
<path fill="none" stroke="black" d="M1211.16,-367.36C1221.97,-368.6 1232.93,-369.86 1243.69,-371.09"/>
<polygon fill="black" stroke="black" points="1242.99,-374.54 1253.32,-372.2 1243.79,-367.58 1242.99,-374.54"/>
</g>
<!-- select -->
<g id="node2" class="node">
<title>select</title>
<path fill="none" stroke="black" d="M624.12,-382C624.12,-382 542.12,-382 542.12,-382 536.12,-382 530.12,-376 530.12,-370 530.12,-370 530.12,-358 530.12,-358 530.12,-352 536.12,-346 542.12,-346 542.12,-346 624.12,-346 624.12,-346 630.12,-346 636.12,-352 636.12,-358 636.12,-358 636.12,-370 636.12,-370 636.12,-376 630.12,-382 624.12,-382"/>
<text xml:space="preserve" text-anchor="middle" x="583.12" y="-358.57" font-family="Arial" font-size="14.00">backend select</text>
</g>
<!-- select&#45;&gt;backend_trait -->
<g id="edge3" class="edge">
<title>select&#45;&gt;backend_trait</title>
<path fill="none" stroke="black" d="M636.57,-363.09C717.06,-361.69 873.17,-358.97 982.17,-357.07"/>
<polygon fill="black" stroke="black" points="982.11,-360.58 992.04,-356.9 981.98,-353.58 982.11,-360.58"/>
</g>
<!-- select&#45;&gt;az_impl -->
<g id="edge4" class="edge">
<title>select&#45;&gt;az_impl</title>
<path fill="none" stroke="black" d="M636.42,-359.75C710.45,-353.65 850.02,-341.84 968.75,-330 976.76,-329.2 978.73,-328.66 986.75,-328 1076.49,-320.66 1179.04,-315.57 1251.8,-312.53"/>
<polygon fill="black" stroke="black" points="1251.86,-316.03 1261.71,-312.12 1251.57,-309.03 1251.86,-316.03"/>
</g>
<!-- select&#45;&gt;mock_impl -->
<g id="edge5" class="edge">
<title>select&#45;&gt;mock_impl</title>
<path fill="none" stroke="black" d="M636.3,-367.41C665.47,-369.23 702.5,-371.43 735.5,-373 957.75,-383.59 1013.5,-383.11 1236,-384 1238.38,-384.01 1240.79,-384.02 1243.22,-384.02"/>
<polygon fill="black" stroke="black" points="1243.21,-387.52 1253.2,-384.02 1243.2,-380.52 1243.21,-387.52"/>
</g>
<!-- world -->
<g id="node6" class="node">
<title>world</title>
<path fill="none" stroke="black" d="M1604.12,-431C1604.12,-431 1504.12,-431 1504.12,-431 1498.12,-431 1492.12,-425 1492.12,-419 1492.12,-419 1492.12,-407 1492.12,-407 1492.12,-401 1498.12,-395 1504.12,-395 1504.12,-395 1604.12,-395 1604.12,-395 1610.12,-395 1616.12,-401 1616.12,-407 1616.12,-407 1616.12,-419 1616.12,-419 1616.12,-425 1610.12,-431 1604.12,-431"/>
<text xml:space="preserve" text-anchor="middle" x="1554.12" y="-407.57" font-family="Arial" font-size="14.00">World src/world.rs</text>
</g>
<!-- az_impl&#45;&gt;world -->
<g id="edge8" class="edge">
<title>az_impl&#45;&gt;world</title>
<path fill="none" stroke="black" d="M1390.14,-327.34C1406.67,-335.39 1425.68,-345.41 1442,-356 1459.76,-367.53 1460.58,-375.57 1479,-386 1481.31,-387.31 1483.7,-388.58 1486.14,-389.8"/>
<polygon fill="black" stroke="black" points="1484.47,-392.88 1495.01,-393.93 1487.43,-386.54 1484.47,-392.88"/>
</g>
<!-- az_runner -->
<g id="node16" class="node">
<title>az_runner</title>
<path fill="none" stroke="black" d="M1593.25,-157C1593.25,-157 1515,-157 1515,-157 1509,-157 1503,-151 1503,-145 1503,-145 1503,-133 1503,-133 1503,-127 1509,-121 1515,-121 1515,-121 1593.25,-121 1593.25,-121 1599.25,-121 1605.25,-127 1605.25,-133 1605.25,-133 1605.25,-145 1605.25,-145 1605.25,-151 1599.25,-157 1593.25,-157"/>
<text xml:space="preserve" text-anchor="middle" x="1554.12" y="-133.57" font-family="Arial" font-size="14.00">AzRunner trait</text>
</g>
<!-- az_impl&#45;&gt;az_runner -->
<g id="edge9" class="edge">
<title>az_impl&#45;&gt;az_runner</title>
<path fill="none" stroke="black" d="M1371.29,-290.81C1407.71,-260.4 1481.03,-199.19 1522.58,-164.5"/>
<polygon fill="black" stroke="black" points="1524.59,-167.38 1530.02,-158.29 1520.1,-162.01 1524.59,-167.38"/>
</g>
<!-- secrets -->
<g id="node17" class="node">
<title>secrets</title>
<path fill="none" stroke="black" d="M1590.25,-261C1590.25,-261 1518,-261 1518,-261 1512,-261 1506,-255 1506,-249 1506,-249 1506,-237 1506,-237 1506,-231 1512,-225 1518,-225 1518,-225 1590.25,-225 1590.25,-225 1596.25,-225 1602.25,-231 1602.25,-237 1602.25,-237 1602.25,-249 1602.25,-249 1602.25,-255 1596.25,-261 1590.25,-261"/>
<text xml:space="preserve" text-anchor="middle" x="1554.12" y="-237.57" font-family="Arial" font-size="14.00">secrets scrub</text>
</g>
<!-- az_impl&#45;&gt;secrets -->
<g id="edge10" class="edge">
<title>az_impl&#45;&gt;secrets</title>
<path fill="none" stroke="black" d="M1433.61,-298.4C1442.96,-296.34 1452.25,-293.9 1461,-291 1479.11,-284.99 1497.99,-275.75 1513.91,-266.97"/>
<polygon fill="black" stroke="black" points="1515.61,-270.03 1522.59,-262.06 1512.16,-263.94 1515.61,-270.03"/>
</g>
<!-- mock_gen -->
<g id="node5" class="node">
<title>mock_gen</title>
<path fill="none" stroke="black" d="M1617.25,-377C1617.25,-377 1491,-377 1491,-377 1485,-377 1479,-371 1479,-365 1479,-365 1479,-353 1479,-353 1479,-347 1485,-341 1491,-341 1491,-341 1617.25,-341 1617.25,-341 1623.25,-341 1629.25,-347 1629.25,-353 1629.25,-353 1629.25,-365 1629.25,-365 1629.25,-371 1623.25,-377 1617.25,-377"/>
<text xml:space="preserve" text-anchor="middle" x="1554.12" y="-353.57" font-family="Arial" font-size="14.00">mock_gen sized world</text>
</g>
<!-- mock_impl&#45;&gt;mock_gen -->
<g id="edge6" class="edge">
<title>mock_impl&#45;&gt;mock_gen</title>
<path fill="none" stroke="black" d="M1442.37,-372.05C1450.74,-371.07 1459.19,-370.07 1467.48,-369.09"/>
<polygon fill="black" stroke="black" points="1467.66,-372.6 1477.19,-367.95 1466.84,-365.65 1467.66,-372.6"/>
</g>
<!-- mock_impl&#45;&gt;world -->
<g id="edge7" class="edge">
<title>mock_impl&#45;&gt;world</title>
<path fill="none" stroke="black" d="M1442.37,-396.68C1455.22,-398.58 1468.26,-400.5 1480.67,-402.33"/>
<polygon fill="black" stroke="black" points="1479.96,-405.76 1490.36,-403.75 1480.98,-398.83 1479.96,-405.76"/>
</g>
<!-- parser -->
<g id="node7" class="node">
<title>parser</title>
<path fill="none" stroke="black" d="M169.75,-200C169.75,-200 12,-200 12,-200 6,-200 0,-194 0,-188 0,-188 0,-176 0,-176 0,-170 6,-164 12,-164 12,-164 169.75,-164 169.75,-164 175.75,-164 181.75,-170 181.75,-176 181.75,-176 181.75,-188 181.75,-188 181.75,-194 175.75,-200 169.75,-200"/>
<text xml:space="preserve" text-anchor="middle" x="90.88" y="-176.57" font-family="Arial" font-size="14.00">Command enum and parse</text>
</g>
<!-- main -->
<g id="node8" class="node">
<title>main</title>
<path fill="none" stroke="black" d="M375.38,-200C375.38,-200 255.12,-200 255.12,-200 249.12,-200 243.12,-194 243.12,-188 243.12,-188 243.12,-176 243.12,-176 243.12,-170 249.12,-164 255.12,-164 255.12,-164 375.38,-164 375.38,-164 381.38,-164 387.38,-170 387.38,-176 387.38,-176 387.38,-188 387.38,-188 387.38,-194 381.38,-200 375.38,-200"/>
<text xml:space="preserve" text-anchor="middle" x="315.25" y="-176.57" font-family="Arial" font-size="14.00">main handle dispatch</text>
</g>
<!-- parser&#45;&gt;main -->
<g id="edge19" class="edge">
<title>parser&#45;&gt;main</title>
<path fill="none" stroke="black" d="M182,-182C198.44,-182 215.51,-182 231.71,-182"/>
<polygon fill="black" stroke="black" points="231.25,-185.5 241.25,-182 231.25,-178.5 231.25,-185.5"/>
</g>
<!-- main&#45;&gt;select -->
<g id="edge11" class="edge">
<title>main&#45;&gt;select</title>
<path fill="none" stroke="black" d="M387.87,-193.57C396.68,-197.37 404.96,-202.39 411.75,-209 431.58,-228.33 428.8,-308.79 448.75,-328 467.4,-345.96 494.05,-355.17 518.62,-359.83"/>
<polygon fill="black" stroke="black" points="517.8,-363.24 528.24,-361.41 518.94,-356.33 517.8,-363.24"/>
</g>
<!-- main&#45;&gt;world -->
<g id="edge12" class="edge">
<title>main&#45;&gt;world</title>
<path fill="none" stroke="black" d="M387.55,-192.53C396.63,-196.47 405.07,-201.8 411.75,-209 439.82,-239.26 421.76,-359.78 448.75,-391 489.96,-438.66 519.13,-439 582.12,-439 582.12,-439 582.12,-439 1349.5,-439 1393.29,-439 1441.95,-433.01 1480.72,-426.78"/>
<polygon fill="black" stroke="black" points="1481.11,-430.26 1490.41,-425.18 1479.97,-423.36 1481.11,-430.26"/>
</g>
<!-- crawl -->
<g id="node9" class="node">
<title>crawl</title>
<path fill="none" stroke="black" d="M608.38,-220C608.38,-220 557.88,-220 557.88,-220 551.88,-220 545.88,-214 545.88,-208 545.88,-208 545.88,-196 545.88,-196 545.88,-190 551.88,-184 557.88,-184 557.88,-184 608.38,-184 608.38,-184 614.38,-184 620.38,-190 620.38,-196 620.38,-196 620.38,-208 620.38,-208 620.38,-214 614.38,-220 608.38,-220"/>
<text xml:space="preserve" text-anchor="middle" x="583.12" y="-196.57" font-family="Arial" font-size="14.00">run_crawl</text>
</g>
<!-- main&#45;&gt;crawl -->
<g id="edge13" class="edge">
<title>main&#45;&gt;crawl</title>
<path fill="none" stroke="black" d="M387.85,-187.39C434.28,-190.88 493.51,-195.33 534.29,-198.4"/>
<polygon fill="black" stroke="black" points="533.8,-201.87 544.03,-199.13 534.32,-194.89 533.8,-201.87"/>
</g>
<!-- dungeon_build -->
<g id="node10" class="node">
<title>dungeon_build</title>
<path fill="none" stroke="black" d="M1206,-153C1206,-153 998.75,-153 998.75,-153 992.75,-153 986.75,-147 986.75,-141 986.75,-141 986.75,-129 986.75,-129 986.75,-123 992.75,-117 998.75,-117 998.75,-117 1206,-117 1206,-117 1212,-117 1218,-123 1218,-129 1218,-129 1218,-141 1218,-141 1218,-147 1212,-153 1206,-153"/>
<text xml:space="preserve" text-anchor="middle" x="1102.38" y="-129.57" font-family="Arial" font-size="14.00">DungeonMap and build_cancellable</text>
</g>
<!-- main&#45;&gt;dungeon_build -->
<g id="edge14" class="edge">
<title>main&#45;&gt;dungeon_build</title>
<path fill="none" stroke="black" d="M346.24,-163.62C372.27,-148.81 411.52,-129.16 448.75,-121 628.79,-81.55 843.47,-97.87 976.12,-115.03"/>
<polygon fill="black" stroke="black" points="975.63,-118.49 986,-116.33 976.54,-111.55 975.63,-118.49"/>
</g>
<!-- server -->
<g id="node11" class="node">
<title>server</title>
<path fill="none" stroke="black" d="M646.62,-166C646.62,-166 519.62,-166 519.62,-166 513.62,-166 507.62,-160 507.62,-154 507.62,-154 507.62,-142 507.62,-142 507.62,-136 513.62,-130 519.62,-130 519.62,-130 646.62,-130 646.62,-130 652.62,-130 658.62,-136 658.62,-142 658.62,-142 658.62,-154 658.62,-154 658.62,-160 652.62,-166 646.62,-166"/>
<text xml:space="preserve" text-anchor="middle" x="583.12" y="-142.57" font-family="Arial" font-size="14.00">server serve and route</text>
</g>
<!-- main&#45;&gt;server -->
<g id="edge15" class="edge">
<title>main&#45;&gt;server</title>
<path fill="none" stroke="black" d="M387.85,-172.84C421.16,-168.58 461.05,-163.48 495.99,-159.02"/>
<polygon fill="black" stroke="black" points="496.17,-162.52 505.64,-157.78 495.28,-155.58 496.17,-162.52"/>
</g>
<!-- registry -->
<g id="node12" class="node">
<title>registry</title>
<path fill="none" stroke="black" d="M1152.75,-77C1152.75,-77 1052,-77 1052,-77 1046,-77 1040,-71 1040,-65 1040,-65 1040,-53 1040,-53 1040,-47 1046,-41 1052,-41 1052,-41 1152.75,-41 1152.75,-41 1158.75,-41 1164.75,-47 1164.75,-53 1164.75,-53 1164.75,-65 1164.75,-65 1164.75,-71 1158.75,-77 1152.75,-77"/>
<text xml:space="preserve" text-anchor="middle" x="1102.38" y="-53.58" font-family="Arial" font-size="14.00">CapabilityRegistry</text>
</g>
<!-- main&#45;&gt;registry -->
<g id="edge16" class="edge">
<title>main&#45;&gt;registry</title>
<path fill="none" stroke="black" d="M335.93,-163.66C360.29,-142.26 404.06,-107.9 448.75,-93 554.37,-57.79 881.62,-56.58 1028.6,-57.94"/>
<polygon fill="black" stroke="black" points="1028.17,-61.43 1038.2,-58.03 1028.24,-54.43 1028.17,-61.43"/>
</g>
<!-- agent -->
<g id="node14" class="node">
<title>agent</title>
<path fill="none" stroke="black" d="M622.62,-36C622.62,-36 543.62,-36 543.62,-36 537.62,-36 531.62,-30 531.62,-24 531.62,-24 531.62,-12 531.62,-12 531.62,-6 537.62,0 543.62,0 543.62,0 622.62,0 622.62,0 628.62,0 634.62,-6 634.62,-12 634.62,-12 634.62,-24 634.62,-24 634.62,-30 628.62,-36 622.62,-36"/>
<text xml:space="preserve" text-anchor="middle" x="583.12" y="-12.57" font-family="Arial" font-size="14.00">IntentResolver</text>
</g>
<!-- main&#45;&gt;agent -->
<g id="edge17" class="edge">
<title>main&#45;&gt;agent</title>
<path fill="none" stroke="black" d="M326.49,-163.74C343.78,-134.72 381.62,-78.45 429.75,-50 456.87,-33.97 490.87,-25.91 519.87,-21.87"/>
<polygon fill="black" stroke="black" points="520.14,-25.37 529.63,-20.66 519.27,-18.42 520.14,-25.37"/>
</g>
<!-- memory -->
<g id="node15" class="node">
<title>memory</title>
<path fill="none" stroke="black" d="M1142.62,-261C1142.62,-261 1062.12,-261 1062.12,-261 1056.12,-261 1050.12,-255 1050.12,-249 1050.12,-249 1050.12,-237 1050.12,-237 1050.12,-231 1056.12,-225 1062.12,-225 1062.12,-225 1142.62,-225 1142.62,-225 1148.62,-225 1154.62,-231 1154.62,-237 1154.62,-237 1154.62,-249 1154.62,-249 1154.62,-255 1148.62,-261 1142.62,-261"/>
<text xml:space="preserve" text-anchor="middle" x="1102.38" y="-237.57" font-family="Arial" font-size="14.00">GraphMemory</text>
</g>
<!-- main&#45;&gt;memory -->
<g id="edge18" class="edge">
<title>main&#45;&gt;memory</title>
<path fill="none" stroke="black" d="M387.76,-200.35C395.94,-203 404.09,-205.89 411.75,-209 429.07,-216.03 430.68,-224.22 448.75,-229 558.65,-258.06 897.07,-250.17 1038.37,-245.4"/>
<polygon fill="black" stroke="black" points="1038.43,-248.9 1048.3,-245.06 1038.19,-241.9 1038.43,-248.9"/>
</g>
<!-- crawl&#45;&gt;dungeon_build -->
<g id="edge24" class="edge">
<title>crawl&#45;&gt;dungeon_build</title>
<path fill="none" stroke="black" d="M620.76,-197.87C689.2,-190.08 841.11,-172.42 968.75,-155 970.82,-154.72 972.91,-154.43 975.02,-154.14"/>
<polygon fill="black" stroke="black" points="975.47,-157.61 984.89,-152.75 974.5,-150.68 975.47,-157.61"/>
</g>
<!-- dungeon_build&#45;&gt;az_runner -->
<g id="edge25" class="edge">
<title>dungeon_build&#45;&gt;az_runner</title>
<path fill="none" stroke="black" d="M1218.32,-136.02C1305.22,-136.8 1421.18,-137.83 1491.33,-138.45"/>
<polygon fill="black" stroke="black" points="1491.06,-141.95 1501.09,-138.54 1491.12,-134.95 1491.06,-141.95"/>
</g>
<!-- server&#45;&gt;dungeon_build -->
<g id="edge26" class="edge">
<title>server&#45;&gt;dungeon_build</title>
<path fill="none" stroke="black" d="M659.06,-146.12C741.69,-144.04 876.02,-140.66 975,-138.18"/>
<polygon fill="black" stroke="black" points="974.86,-141.68 984.77,-137.93 974.68,-134.68 974.86,-141.68"/>
</g>
<!-- server&#45;&gt;secrets -->
<g id="edge27" class="edge">
<title>server&#45;&gt;secrets</title>
<path fill="none" stroke="black" d="M658.95,-155.34C845.13,-173.59 1326.28,-220.76 1494.23,-237.23"/>
<polygon fill="black" stroke="black" points="1493.74,-240.69 1504.03,-238.19 1494.42,-233.73 1493.74,-240.69"/>
</g>
<!-- capability -->
<g id="node13" class="node">
<title>capability</title>
<path fill="none" stroke="black" d="M1374.12,-73C1374.12,-73 1322.88,-73 1322.88,-73 1316.88,-73 1310.88,-67 1310.88,-61 1310.88,-61 1310.88,-49 1310.88,-49 1310.88,-43 1316.88,-37 1322.88,-37 1322.88,-37 1374.12,-37 1374.12,-37 1380.12,-37 1386.12,-43 1386.12,-49 1386.12,-49 1386.12,-61 1386.12,-61 1386.12,-67 1380.12,-73 1374.12,-73"/>
<text xml:space="preserve" text-anchor="middle" x="1348.5" y="-49.58" font-family="Arial" font-size="14.00">Capability</text>
</g>
<!-- registry&#45;&gt;capability -->
<g id="edge21" class="edge">
<title>registry&#45;&gt;capability</title>
<path fill="none" stroke="black" d="M1164.98,-57.99C1206.58,-57.31 1260.72,-56.42 1299.2,-55.79"/>
<polygon fill="black" stroke="black" points="1299.16,-59.29 1309.1,-55.63 1299.04,-52.29 1299.16,-59.29"/>
</g>
<!-- registry&#45;&gt;az_runner -->
<g id="edge22" class="edge">
<title>registry&#45;&gt;az_runner</title>
<path fill="none" stroke="black" d="M1164.97,-69.96C1250.85,-85.23 1405.66,-112.77 1491.54,-128.04"/>
<polygon fill="black" stroke="black" points="1490.73,-131.46 1501.18,-129.76 1491.95,-124.56 1490.73,-131.46"/>
</g>
<!-- agent&#45;&gt;registry -->
<g id="edge20" class="edge">
<title>agent&#45;&gt;registry</title>
<path fill="none" stroke="black" d="M634.66,-22.01C726.76,-29.31 922.21,-44.8 1028.63,-53.23"/>
<polygon fill="black" stroke="black" points="1028.15,-56.71 1038.39,-54.01 1028.7,-49.73 1028.15,-56.71"/>
</g>
<!-- memory&#45;&gt;secrets -->
<g id="edge23" class="edge">
<title>memory&#45;&gt;secrets</title>
<path fill="none" stroke="black" d="M1154.97,-243C1239.1,-243 1405.34,-243 1494.06,-243"/>
<polygon fill="black" stroke="black" points="1494.02,-246.5 1504.02,-243 1494.02,-239.5 1494.02,-246.5"/>
</g>
<!-- oit -->
<g id="node18" class="node">
<title>oit</title>
<path fill="none" stroke="black" d="M131.5,-254C131.5,-254 50.25,-254 50.25,-254 44.25,-254 38.25,-248 38.25,-242 38.25,-242 38.25,-230 38.25,-230 38.25,-224 44.25,-218 50.25,-218 50.25,-218 131.5,-218 131.5,-218 137.5,-218 143.5,-224 143.5,-230 143.5,-230 143.5,-242 143.5,-242 143.5,-248 137.5,-254 131.5,-254"/>
<text xml:space="preserve" text-anchor="middle" x="90.88" y="-230.57" font-family="Arial" font-size="14.00">azork&#45;oit driver</text>
</g>
<!-- oit_lib -->
<g id="node19" class="node">
<title>oit_lib</title>
<path fill="none" stroke="black" d="M399.75,-254C399.75,-254 230.75,-254 230.75,-254 224.75,-254 218.75,-248 218.75,-242 218.75,-242 218.75,-230 218.75,-230 218.75,-224 224.75,-218 230.75,-218 230.75,-218 399.75,-218 399.75,-218 405.75,-218 411.75,-224 411.75,-230 411.75,-230 411.75,-242 411.75,-242 411.75,-248 405.75,-254 399.75,-254"/>
<text xml:space="preserve" text-anchor="middle" x="315.25" y="-230.57" font-family="Arial" font-size="14.00">oit guardrails report usecases</text>
</g>
<!-- oit&#45;&gt;oit_lib -->
<g id="edge28" class="edge">
<title>oit&#45;&gt;oit_lib</title>
<path fill="none" stroke="black" d="M143.73,-236C162.75,-236 185.04,-236 207.12,-236"/>
<polygon fill="black" stroke="black" points="207.11,-239.5 217.11,-236 207.11,-232.5 207.11,-239.5"/>
</g>
<!-- dead -->
<g id="node20" class="node">
<title>dead</title>
<path fill="none" stroke="black" stroke-dasharray="5,2" d="M705.5,-319C705.5,-319 460.75,-319 460.75,-319 454.75,-319 448.75,-313 448.75,-307 448.75,-307 448.75,-295 448.75,-295 448.75,-289 454.75,-283 460.75,-283 460.75,-283 705.5,-283 705.5,-283 711.5,-283 717.5,-289 717.5,-295 717.5,-295 717.5,-307 717.5,-307 717.5,-313 711.5,-319 705.5,-319"/>
<text xml:space="preserve" text-anchor="middle" x="583.12" y="-295.57" font-family="Arial" font-size="14.00">No clear dead public target symbols found</text>
</g>
<!-- dead&#45;&gt;backend_trait -->
<g id="edge29" class="edge">
<title>dead&#45;&gt;backend_trait</title>
<path fill="none" stroke="black" stroke-dasharray="5,2" d="M717.76,-312.3C791.8,-318.89 885.45,-327.75 968.75,-337.25 973.17,-337.75 977.67,-338.28 982.21,-338.83"/>
<polygon fill="black" stroke="black" points="981.72,-342.29 992.07,-340.03 982.57,-335.34 981.72,-342.29"/>
<text xml:space="preserve" text-anchor="middle" x="852.12" y="-339.7" font-family="Arial" font-size="14.00">cargo check quiet</text>
</g>
<!-- dead&#45;&gt;memory -->
<g id="edge30" class="edge">
<title>dead&#45;&gt;memory</title>
<path fill="none" stroke="black" stroke-dasharray="5,2" d="M717.67,-286.03C820.95,-274.45 959.28,-258.93 1038.52,-250.05"/>
<polygon fill="black" stroke="black" points="1038.72,-253.55 1048.27,-248.96 1037.94,-246.59 1038.72,-253.55"/>
<text xml:space="preserve" text-anchor="middle" x="852.12" y="-286.31" font-family="Arial" font-size="14.00">lower helpers are library or test surface</text>
</g>
</g>
</svg>
