<?xml version="1.0" encoding="UTF-8" standalone="no"?>
<!DOCTYPE svg PUBLIC "-//W3C//DTD SVG 1.1//EN"
 "http://www.w3.org/Graphics/SVG/1.1/DTD/svg11.dtd">
<!-- Generated by graphviz version 14.1.2 (0)
 -->
<!-- Title: repo_surface Pages: 1 -->
<svg width="2691pt" height="260pt"
 viewBox="0.00 0.00 2691.00 260.00" xmlns="http://www.w3.org/2000/svg" xmlns:xlink="http://www.w3.org/1999/xlink">
<g id="graph0" class="graph" transform="scale(1 1) rotate(0) translate(4 256)">
<title>repo_surface</title>
<polygon fill="white" stroke="none" points="-4,4 -4,-256 2687.12,-256 2687.12,4 -4,4"/>
<!-- repo -->
<g id="node1" class="node">
<title>repo</title>
<path fill="none" stroke="black" d="M1614.38,-252C1614.38,-252 1526.38,-252 1526.38,-252 1520.38,-252 1514.38,-246 1514.38,-240 1514.38,-240 1514.38,-228 1514.38,-228 1514.38,-222 1520.38,-216 1526.38,-216 1526.38,-216 1614.38,-216 1614.38,-216 1620.38,-216 1626.38,-222 1626.38,-228 1626.38,-228 1626.38,-240 1626.38,-240 1626.38,-246 1620.38,-252 1614.38,-252"/>
<text xml:space="preserve" text-anchor="middle" x="1570.38" y="-228.57" font-family="Arial" font-size="14.00">azork repository</text>
</g>
<!-- src -->
<g id="node2" class="node">
<title>src</title>
<path fill="none" stroke="black" d="M648,-180C648,-180 572.75,-180 572.75,-180 566.75,-180 560.75,-174 560.75,-168 560.75,-168 560.75,-156 560.75,-156 560.75,-150 566.75,-144 572.75,-144 572.75,-144 648,-144 648,-144 654,-144 660,-150 660,-156 660,-156 660,-168 660,-168 660,-174 654,-180 648,-180"/>
<text xml:space="preserve" text-anchor="middle" x="610.38" y="-156.57" font-family="Arial" font-size="14.00">src Rust crate</text>
</g>
<!-- repo&#45;&gt;src -->
<g id="edge1" class="edge">
<title>repo&#45;&gt;src</title>
<path fill="none" stroke="black" d="M1514.03,-231.65C1376.26,-227.88 1011.54,-215.14 709.38,-180 697.11,-178.57 684.05,-176.64 671.58,-174.58"/>
<polygon fill="black" stroke="black" points="672.27,-171.14 661.82,-172.92 671.1,-178.05 672.27,-171.14"/>
</g>
<!-- tests -->
<g id="node3" class="node">
<title>tests</title>
<path fill="none" stroke="black" d="M856.5,-180C856.5,-180 730.25,-180 730.25,-180 724.25,-180 718.25,-174 718.25,-168 718.25,-168 718.25,-156 718.25,-156 718.25,-150 724.25,-144 730.25,-144 730.25,-144 856.5,-144 856.5,-144 862.5,-144 868.5,-150 868.5,-156 868.5,-156 868.5,-168 868.5,-168 868.5,-174 862.5,-180 856.5,-180"/>
<text xml:space="preserve" text-anchor="middle" x="793.38" y="-156.57" font-family="Arial" font-size="14.00">tests integration suites</text>
</g>
<!-- repo&#45;&gt;tests -->
<g id="edge2" class="edge">
<title>repo&#45;&gt;tests</title>
<path fill="none" stroke="black" d="M1514.07,-231C1397.62,-226.36 1121.74,-212.78 879.96,-180.11"/>
<polygon fill="black" stroke="black" points="880.72,-176.68 870.34,-178.79 879.77,-183.61 880.72,-176.68"/>
</g>
<!-- azext -->
<g id="node4" class="node">
<title>azext</title>
<path fill="none" stroke="black" d="M1047.75,-180C1047.75,-180 899,-180 899,-180 893,-180 887,-174 887,-168 887,-168 887,-156 887,-156 887,-150 893,-144 899,-144 899,-144 1047.75,-144 1047.75,-144 1053.75,-144 1059.75,-150 1059.75,-156 1059.75,-156 1059.75,-168 1059.75,-168 1059.75,-174 1053.75,-180 1047.75,-180"/>
<text xml:space="preserve" text-anchor="middle" x="973.38" y="-156.57" font-family="Arial" font-size="14.00">azext Azure CLI extension</text>
</g>
<!-- repo&#45;&gt;azext -->
<g id="edge3" class="edge">
<title>repo&#45;&gt;azext</title>
<path fill="none" stroke="black" d="M1514.24,-228.35C1423.47,-220.55 1238.6,-203.5 1071.43,-180.23"/>
<polygon fill="black" stroke="black" points="1072.08,-176.79 1061.69,-178.87 1071.11,-183.72 1072.08,-176.79"/>
</g>
<!-- scripts -->
<g id="node5" class="node">
<title>scripts</title>
<path fill="none" stroke="black" d="M1200.62,-180C1200.62,-180 1090.12,-180 1090.12,-180 1084.12,-180 1078.12,-174 1078.12,-168 1078.12,-168 1078.12,-156 1078.12,-156 1078.12,-150 1084.12,-144 1090.12,-144 1090.12,-144 1200.62,-144 1200.62,-144 1206.62,-144 1212.62,-150 1212.62,-156 1212.62,-156 1212.62,-168 1212.62,-168 1212.62,-174 1206.62,-180 1200.62,-180"/>
<text xml:space="preserve" text-anchor="middle" x="1145.38" y="-156.57" font-family="Arial" font-size="14.00">scripts Node tooling</text>
</g>
<!-- repo&#45;&gt;scripts -->
<g id="edge4" class="edge">
<title>repo&#45;&gt;scripts</title>
<path fill="none" stroke="black" d="M1514.13,-225.6C1447.45,-216.57 1332.75,-200.22 1224.1,-180.25"/>
<polygon fill="black" stroke="black" points="1224.89,-176.84 1214.42,-178.46 1223.61,-183.72 1224.89,-176.84"/>
</g>
<!-- assets -->
<g id="node6" class="node">
<title>assets</title>
<path fill="none" stroke="black" d="M1441.88,-180C1441.88,-180 1242.88,-180 1242.88,-180 1236.88,-180 1230.88,-174 1230.88,-168 1230.88,-168 1230.88,-156 1230.88,-156 1230.88,-150 1236.88,-144 1242.88,-144 1242.88,-144 1441.88,-144 1441.88,-144 1447.88,-144 1453.88,-150 1453.88,-156 1453.88,-156 1453.88,-168 1453.88,-168 1453.88,-174 1447.88,-180 1441.88,-180"/>
<text xml:space="preserve" text-anchor="middle" x="1342.38" y="-156.57" font-family="Arial" font-size="14.00">assets SVG icons and decorations</text>
</g>
<!-- repo&#45;&gt;assets -->
<g id="edge5" class="edge">
<title>repo&#45;&gt;assets</title>
<path fill="none" stroke="black" d="M1514.02,-215.7C1482.62,-206.06 1443.31,-193.99 1410.23,-183.83"/>
<polygon fill="black" stroke="black" points="1411.31,-180.5 1400.72,-180.91 1409.25,-187.19 1411.31,-180.5"/>
</g>
<!-- docs -->
<g id="node7" class="node">
<title>docs</title>
<path fill="none" stroke="black" d="M1656.38,-180C1656.38,-180 1484.38,-180 1484.38,-180 1478.38,-180 1472.38,-174 1472.38,-168 1472.38,-168 1472.38,-156 1472.38,-156 1472.38,-150 1478.38,-144 1484.38,-144 1484.38,-144 1656.38,-144 1656.38,-144 1662.38,-144 1668.38,-150 1668.38,-156 1668.38,-156 1668.38,-168 1668.38,-168 1668.38,-174 1662.38,-180 1656.38,-180"/>
<text xml:space="preserve" text-anchor="middle" x="1570.38" y="-156.57" font-family="Arial" font-size="14.00">docs documentation and atlas</text>
</g>
<!-- repo&#45;&gt;docs -->
<g id="edge6" class="edge">
<title>repo&#45;&gt;docs</title>
<path fill="none" stroke="black" d="M1570.38,-215.7C1570.38,-208.41 1570.38,-199.73 1570.38,-191.54"/>
<polygon fill="black" stroke="black" points="1573.88,-191.62 1570.38,-181.62 1566.88,-191.62 1573.88,-191.62"/>
</g>
<!-- memory_store -->
<g id="node8" class="node">
<title>memory_store</title>
<path fill="none" stroke="black" d="M1879.88,-180C1879.88,-180 1698.88,-180 1698.88,-180 1692.88,-180 1686.88,-174 1686.88,-168 1686.88,-168 1686.88,-156 1686.88,-156 1686.88,-150 1692.88,-144 1698.88,-144 1698.88,-144 1879.88,-144 1879.88,-144 1885.88,-144 1891.88,-150 1891.88,-156 1891.88,-156 1891.88,-168 1891.88,-168 1891.88,-174 1885.88,-180 1879.88,-180"/>
<text xml:space="preserve" text-anchor="middle" x="1789.38" y="-156.57" font-family="Arial" font-size="14.00">memory&#45;store companion crate</text>
</g>
<!-- repo&#45;&gt;memory_store -->
<g id="edge7" class="edge">
<title>repo&#45;&gt;memory_store</title>
<path fill="none" stroke="black" d="M1625.07,-215.52C1655.11,-205.92 1692.55,-193.95 1724.1,-183.86"/>
<polygon fill="black" stroke="black" points="1725.09,-187.22 1733.55,-180.84 1722.96,-180.55 1725.09,-187.22"/>
</g>
<!-- cargo -->
<g id="node9" class="node">
<title>cargo</title>
<path fill="none" stroke="black" d="M2066.88,-180C2066.88,-180 1921.88,-180 1921.88,-180 1915.88,-180 1909.88,-174 1909.88,-168 1909.88,-168 1909.88,-156 1909.88,-156 1909.88,-150 1915.88,-144 1921.88,-144 1921.88,-144 2066.88,-144 2066.88,-144 2072.88,-144 2078.88,-150 2078.88,-156 2078.88,-156 2078.88,-168 2078.88,-168 2078.88,-174 2072.88,-180 2066.88,-180"/>
<text xml:space="preserve" text-anchor="middle" x="1994.38" y="-156.57" font-family="Arial" font-size="14.00">Cargo.toml Rust package</text>
</g>
<!-- repo&#45;&gt;cargo -->
<g id="edge8" class="edge">
<title>repo&#45;&gt;cargo</title>
<path fill="none" stroke="black" d="M1626.66,-224.37C1690.26,-214.54 1797.16,-197.75 1898.67,-180.45"/>
<polygon fill="black" stroke="black" points="1898.98,-183.94 1908.25,-178.81 1897.8,-177.04 1898.98,-183.94"/>
</g>
<!-- build_rs -->
<g id="node10" class="node">
<title>build_rs</title>
<path fill="none" stroke="black" d="M2212.25,-180C2212.25,-180 2108.5,-180 2108.5,-180 2102.5,-180 2096.5,-174 2096.5,-168 2096.5,-168 2096.5,-156 2096.5,-156 2096.5,-150 2102.5,-144 2108.5,-144 2108.5,-144 2212.25,-144 2212.25,-144 2218.25,-144 2224.25,-150 2224.25,-156 2224.25,-156 2224.25,-168 2224.25,-168 2224.25,-174 2218.25,-180 2212.25,-180"/>
<text xml:space="preserve" text-anchor="middle" x="2160.38" y="-156.57" font-family="Arial" font-size="14.00">build.rs build script</text>
</g>
<!-- repo&#45;&gt;build_rs -->
<g id="edge9" class="edge">
<title>repo&#45;&gt;build_rs</title>
<path fill="none" stroke="black" d="M1626.65,-229.65C1720.07,-223.55 1913.15,-208.74 2084.81,-180.5"/>
<polygon fill="black" stroke="black" points="2085.3,-183.96 2094.59,-178.87 2084.15,-177.06 2085.3,-183.96"/>
</g>
<!-- py_setup -->
<g id="node11" class="node">
<title>py_setup</title>
<path fill="none" stroke="black" d="M2434.12,-180C2434.12,-180 2254.62,-180 2254.62,-180 2248.62,-180 2242.62,-174 2242.62,-168 2242.62,-168 2242.62,-156 2242.62,-156 2242.62,-150 2248.62,-144 2254.62,-144 2254.62,-144 2434.12,-144 2434.12,-144 2440.12,-144 2446.12,-150 2446.12,-156 2446.12,-156 2446.12,-168 2446.12,-168 2446.12,-174 2440.12,-180 2434.12,-180"/>
<text xml:space="preserve" text-anchor="middle" x="2344.38" y="-156.57" font-family="Arial" font-size="14.00">azext setup.py Python package</text>
</g>
<!-- repo&#45;&gt;py_setup -->
<g id="edge10" class="edge">
<title>repo&#45;&gt;py_setup</title>
<path fill="none" stroke="black" d="M1626.83,-229.87C1739.57,-223.31 2000.83,-206.62 2230.92,-180.24"/>
<polygon fill="black" stroke="black" points="2231.16,-183.73 2240.69,-179.11 2230.36,-176.78 2231.16,-183.73"/>
</g>
<!-- package_json -->
<g id="node12" class="node">
<title>package_json</title>
<path fill="none" stroke="black" d="M2656.88,-180C2656.88,-180 2475.88,-180 2475.88,-180 2469.88,-180 2463.88,-174 2463.88,-168 2463.88,-168 2463.88,-156 2463.88,-156 2463.88,-150 2469.88,-144 2475.88,-144 2475.88,-144 2656.88,-144 2656.88,-144 2662.88,-144 2668.88,-150 2668.88,-156 2668.88,-156 2668.88,-168 2668.88,-168 2668.88,-174 2662.88,-180 2656.88,-180"/>
<text xml:space="preserve" text-anchor="middle" x="2566.38" y="-156.57" font-family="Arial" font-size="14.00">package.json Playwright tooling</text>
</g>
<!-- repo&#45;&gt;package_json -->
<g id="edge11" class="edge">
<title>repo&#45;&gt;package_json</title>
<path fill="none" stroke="black" d="M1626.69,-231.43C1765.36,-227.17 2134.54,-213.49 2452.33,-180.27"/>
<polygon fill="black" stroke="black" points="2452.53,-183.77 2462.11,-179.24 2451.79,-176.81 2452.53,-183.77"/>
</g>
<!-- backend -->
<g id="node18" class="node">
<title>backend</title>
<path fill="none" stroke="black" d="M76.75,-108C76.75,-108 12,-108 12,-108 6,-108 0,-102 0,-96 0,-96 0,-84 0,-84 0,-78 6,-72 12,-72 12,-72 76.75,-72 76.75,-72 82.75,-72 88.75,-78 88.75,-84 88.75,-84 88.75,-96 88.75,-96 88.75,-102 82.75,-108 76.75,-108"/>
<text xml:space="preserve" text-anchor="middle" x="44.38" y="-84.58" font-family="Arial" font-size="14.00">src/backend</text>
</g>
<!-- src&#45;&gt;backend -->
<g id="edge17" class="edge">
<title>src&#45;&gt;backend</title>
<path fill="none" stroke="black" d="M560.44,-159.17C470.2,-155.15 273.98,-143.11 100.13,-108.09"/>
<polygon fill="black" stroke="black" points="100.96,-104.69 90.46,-106.11 99.56,-111.55 100.96,-104.69"/>
</g>
<!-- dungeon -->
<g id="node19" class="node">
<title>dungeon</title>
<path fill="none" stroke="black" d="M185.5,-108C185.5,-108 119.25,-108 119.25,-108 113.25,-108 107.25,-102 107.25,-96 107.25,-96 107.25,-84 107.25,-84 107.25,-78 113.25,-72 119.25,-72 119.25,-72 185.5,-72 185.5,-72 191.5,-72 197.5,-78 197.5,-84 197.5,-84 197.5,-96 197.5,-96 197.5,-102 191.5,-108 185.5,-108"/>
<text xml:space="preserve" text-anchor="middle" x="152.38" y="-84.58" font-family="Arial" font-size="14.00">src/dungeon</text>
</g>
<!-- src&#45;&gt;dungeon -->
<g id="edge18" class="edge">
<title>src&#45;&gt;dungeon</title>
<path fill="none" stroke="black" d="M560.45,-157.27C485.76,-151.08 340.48,-136.66 208.95,-108.36"/>
<polygon fill="black" stroke="black" points="209.88,-104.98 199.37,-106.27 208.39,-111.82 209.88,-104.98"/>
</g>
<!-- capabilities -->
<g id="node20" class="node">
<title>capabilities</title>
<path fill="none" stroke="black" d="M307.62,-108C307.62,-108 227.12,-108 227.12,-108 221.12,-108 215.12,-102 215.12,-96 215.12,-96 215.12,-84 215.12,-84 215.12,-78 221.12,-72 227.12,-72 227.12,-72 307.62,-72 307.62,-72 313.62,-72 319.62,-78 319.62,-84 319.62,-84 319.62,-96 319.62,-96 319.62,-102 313.62,-108 307.62,-108"/>
<text xml:space="preserve" text-anchor="middle" x="267.38" y="-84.58" font-family="Arial" font-size="14.00">src/capabilities</text>
</g>
<!-- src&#45;&gt;capabilities -->
<g id="edge19" class="edge">
<title>src&#45;&gt;capabilities</title>
<path fill="none" stroke="black" d="M560.44,-152.95C506.18,-143.91 416.75,-128.14 330.87,-108.48"/>
<polygon fill="black" stroke="black" points="331.88,-105.12 321.35,-106.28 330.3,-111.94 331.88,-105.12"/>
</g>
<!-- memory -->
<g id="node21" class="node">
<title>memory</title>
<path fill="none" stroke="black" d="M413.38,-108C413.38,-108 349.38,-108 349.38,-108 343.38,-108 337.38,-102 337.38,-96 337.38,-96 337.38,-84 337.38,-84 337.38,-78 343.38,-72 349.38,-72 349.38,-72 413.38,-72 413.38,-72 419.38,-72 425.38,-78 425.38,-84 425.38,-84 425.38,-96 425.38,-96 425.38,-102 419.38,-108 413.38,-108"/>
<text xml:space="preserve" text-anchor="middle" x="381.38" y="-84.58" font-family="Arial" font-size="14.00">src/memory</text>
</g>
<!-- src&#45;&gt;memory -->
<g id="edge20" class="edge">
<title>src&#45;&gt;memory</title>
<path fill="none" stroke="black" d="M560.61,-146.27C527.81,-136.51 483.63,-123.24 436.37,-108.6"/>
<polygon fill="black" stroke="black" points="437.64,-105.32 427.05,-105.7 435.56,-112.01 437.64,-105.32"/>
</g>
<!-- update -->
<g id="node22" class="node">
<title>update</title>
<path fill="none" stroke="black" d="M510.88,-108C510.88,-108 455.88,-108 455.88,-108 449.88,-108 443.88,-102 443.88,-96 443.88,-96 443.88,-84 443.88,-84 443.88,-78 449.88,-72 455.88,-72 455.88,-72 510.88,-72 510.88,-72 516.88,-72 522.88,-78 522.88,-84 522.88,-84 522.88,-96 522.88,-96 522.88,-102 516.88,-108 510.88,-108"/>
<text xml:space="preserve" text-anchor="middle" x="483.38" y="-84.58" font-family="Arial" font-size="14.00">src/update</text>
</g>
<!-- src&#45;&gt;update -->
<g id="edge21" class="edge">
<title>src&#45;&gt;update</title>
<path fill="none" stroke="black" d="M578.66,-143.52C562.32,-134.51 542.2,-123.42 524.67,-113.76"/>
<polygon fill="black" stroke="black" points="526.46,-110.75 516.02,-108.99 523.08,-116.88 526.46,-110.75"/>
</g>
<!-- oit -->
<g id="node23" class="node">
<title>oit</title>
<path fill="none" stroke="black" d="M583.38,-108C583.38,-108 553.38,-108 553.38,-108 547.38,-108 541.38,-102 541.38,-96 541.38,-96 541.38,-84 541.38,-84 541.38,-78 547.38,-72 553.38,-72 553.38,-72 583.38,-72 583.38,-72 589.38,-72 595.38,-78 595.38,-84 595.38,-84 595.38,-96 595.38,-96 595.38,-102 589.38,-108 583.38,-108"/>
<text xml:space="preserve" text-anchor="middle" x="568.38" y="-84.58" font-family="Arial" font-size="14.00">src/oit</text>
</g>
<!-- src&#45;&gt;oit -->
<g id="edge22" class="edge">
<title>src&#45;&gt;oit</title>
<path fill="none" stroke="black" d="M599.99,-143.7C595.31,-135.9 589.68,-126.51 584.47,-117.83"/>
<polygon fill="black" stroke="black" points="587.56,-116.18 579.42,-109.4 581.56,-119.78 587.56,-116.18"/>
</g>
<!-- world -->
<g id="node24" class="node">
<title>world</title>
<path fill="none" stroke="black" d="M686.88,-108C686.88,-108 625.88,-108 625.88,-108 619.88,-108 613.88,-102 613.88,-96 613.88,-96 613.88,-84 613.88,-84 613.88,-78 619.88,-72 625.88,-72 625.88,-72 686.88,-72 686.88,-72 692.88,-72 698.88,-78 698.88,-84 698.88,-84 698.88,-96 698.88,-96 698.88,-102 692.88,-108 686.88,-108"/>
<text xml:space="preserve" text-anchor="middle" x="656.38" y="-84.58" font-family="Arial" font-size="14.00">src/world.rs</text>
</g>
<!-- src&#45;&gt;world -->
<g id="edge23" class="edge">
<title>src&#45;&gt;world</title>
<path fill="none" stroke="black" d="M621.75,-143.7C626.93,-135.81 633.18,-126.3 638.93,-117.55"/>
<polygon fill="black" stroke="black" points="641.74,-119.65 644.3,-109.37 635.89,-115.8 641.74,-119.65"/>
</g>
<!-- parser -->
<g id="node25" class="node">
<title>parser</title>
<path fill="none" stroke="black" d="M795.5,-108C795.5,-108 729.25,-108 729.25,-108 723.25,-108 717.25,-102 717.25,-96 717.25,-96 717.25,-84 717.25,-84 717.25,-78 723.25,-72 729.25,-72 729.25,-72 795.5,-72 795.5,-72 801.5,-72 807.5,-78 807.5,-84 807.5,-84 807.5,-96 807.5,-96 807.5,-102 801.5,-108 795.5,-108"/>
<text xml:space="preserve" text-anchor="middle" x="762.38" y="-84.58" font-family="Arial" font-size="14.00">src/parser.rs</text>
</g>
<!-- src&#45;&gt;parser -->
<g id="edge24" class="edge">
<title>src&#45;&gt;parser</title>
<path fill="none" stroke="black" d="M648.34,-143.52C668.27,-134.34 692.91,-122.99 714.18,-113.2"/>
<polygon fill="black" stroke="black" points="715.64,-116.38 723.26,-109.01 712.71,-110.02 715.64,-116.38"/>
</g>
<!-- secrets -->
<g id="node26" class="node">
<title>secrets</title>
<path fill="none" stroke="black" d="M909.5,-108C909.5,-108 837.25,-108 837.25,-108 831.25,-108 825.25,-102 825.25,-96 825.25,-96 825.25,-84 825.25,-84 825.25,-78 831.25,-72 837.25,-72 837.25,-72 909.5,-72 909.5,-72 915.5,-72 921.5,-78 921.5,-84 921.5,-84 921.5,-96 921.5,-96 921.5,-102 915.5,-108 909.5,-108"/>
<text xml:space="preserve" text-anchor="middle" x="873.38" y="-84.58" font-family="Arial" font-size="14.00">src/secrets.rs</text>
</g>
<!-- src&#45;&gt;secrets -->
<g id="edge25" class="edge">
<title>src&#45;&gt;secrets</title>
<path fill="none" stroke="black" d="M660.47,-148.68C699.82,-138.87 756.26,-124.52 814.09,-108.59"/>
<polygon fill="black" stroke="black" points="814.74,-112.04 823.44,-106 812.87,-105.29 814.74,-112.04"/>
</g>
<!-- az_runner -->
<g id="node27" class="node">
<title>az_runner</title>
<path fill="none" stroke="black" d="M1040.75,-108C1040.75,-108 952,-108 952,-108 946,-108 940,-102 940,-96 940,-96 940,-84 940,-84 940,-78 946,-72 952,-72 952,-72 1040.75,-72 1040.75,-72 1046.75,-72 1052.75,-78 1052.75,-84 1052.75,-84 1052.75,-96 1052.75,-96 1052.75,-102 1046.75,-108 1040.75,-108"/>
<text xml:space="preserve" text-anchor="middle" x="996.38" y="-84.58" font-family="Arial" font-size="14.00">src/az_runner.rs</text>
</g>
<!-- src&#45;&gt;az_runner -->
<g id="edge26" class="edge">
<title>src&#45;&gt;az_runner</title>
<path fill="none" stroke="black" d="M660.47,-152.31C676.13,-149.62 693.46,-146.66 709.38,-144 803.98,-128.17 831.04,-128.39 928.33,-108.32"/>
<polygon fill="black" stroke="black" points="929.01,-111.76 938.09,-106.29 927.58,-104.9 929.01,-111.76"/>
</g>
<!-- agent -->
<g id="node28" class="node">
<title>agent</title>
<path fill="none" stroke="black" d="M1242,-108C1242,-108 1082.75,-108 1082.75,-108 1076.75,-108 1070.75,-102 1070.75,-96 1070.75,-96 1070.75,-84 1070.75,-84 1070.75,-78 1076.75,-72 1082.75,-72 1082.75,-72 1242,-72 1242,-72 1248,-72 1254,-78 1254,-84 1254,-84 1254,-96 1254,-96 1254,-102 1248,-108 1242,-108"/>
<text xml:space="preserve" text-anchor="middle" x="1162.38" y="-84.58" font-family="Arial" font-size="14.00">src/agent and agent_engine</text>
</g>
<!-- src&#45;&gt;agent -->
<g id="edge27" class="edge">
<title>src&#45;&gt;agent</title>
<path fill="none" stroke="black" d="M660.38,-151.73C676.03,-149.01 693.39,-146.19 709.38,-144 861.53,-123.18 903.58,-128.78 1059.09,-108.25"/>
<polygon fill="black" stroke="black" points="1059.54,-111.72 1068.98,-106.93 1058.61,-104.78 1059.54,-111.72"/>
</g>
<!-- dungeon_render -->
<g id="node31" class="node">
<title>dungeon_render</title>
<path fill="none" stroke="black" d="M1442.62,-108C1442.62,-108 1284.12,-108 1284.12,-108 1278.12,-108 1272.12,-102 1272.12,-96 1272.12,-96 1272.12,-84 1272.12,-84 1272.12,-78 1278.12,-72 1284.12,-72 1284.12,-72 1442.62,-72 1442.62,-72 1448.62,-72 1454.62,-78 1454.62,-84 1454.62,-84 1454.62,-96 1454.62,-96 1454.62,-102 1448.62,-108 1442.62,-108"/>
<text xml:space="preserve" text-anchor="middle" x="1363.38" y="-84.58" font-family="Arial" font-size="14.00">dungeon render icon assets</text>
</g>
<!-- assets&#45;&gt;dungeon_render -->
<g id="edge30" class="edge">
<title>assets&#45;&gt;dungeon_render</title>
<path fill="none" stroke="black" d="M1347.57,-143.7C1349.8,-136.24 1352.48,-127.32 1354.99,-118.97"/>
<polygon fill="black" stroke="black" points="1358.29,-120.14 1357.81,-109.55 1351.58,-118.13 1358.29,-120.14"/>
</g>
<!-- atlas -->
<g id="node32" class="node">
<title>atlas</title>
<path fill="none" stroke="black" d="M1647.88,-108C1647.88,-108 1490.88,-108 1490.88,-108 1484.88,-108 1478.88,-102 1478.88,-96 1478.88,-96 1478.88,-84 1478.88,-84 1478.88,-78 1484.88,-72 1490.88,-72 1490.88,-72 1647.88,-72 1647.88,-72 1653.88,-72 1659.88,-78 1659.88,-84 1659.88,-84 1659.88,-96 1659.88,-96 1659.88,-102 1653.88,-108 1647.88,-108"/>
<text xml:space="preserve" text-anchor="middle" x="1569.38" y="-84.58" font-family="Arial" font-size="14.00">docs/atlas generated layers</text>
</g>
<!-- docs&#45;&gt;atlas -->
<g id="edge31" class="edge">
<title>docs&#45;&gt;atlas</title>
<path fill="none" stroke="black" d="M1570.13,-143.7C1570.02,-136.41 1569.9,-127.73 1569.78,-119.54"/>
<polygon fill="black" stroke="black" points="1573.28,-119.57 1569.64,-109.62 1566.28,-119.67 1573.28,-119.57"/>
</g>
<!-- native_memory -->
<g id="node33" class="node">
<title>native_memory</title>
<path fill="none" stroke="black" d="M1820.75,-108C1820.75,-108 1690,-108 1690,-108 1684,-108 1678,-102 1678,-96 1678,-96 1678,-84 1678,-84 1678,-78 1684,-72 1690,-72 1690,-72 1820.75,-72 1820.75,-72 1826.75,-72 1832.75,-78 1832.75,-84 1832.75,-84 1832.75,-96 1832.75,-96 1832.75,-102 1826.75,-108 1820.75,-108"/>
<text xml:space="preserve" text-anchor="middle" x="1755.38" y="-84.58" font-family="Arial" font-size="14.00">memory&#45;store/src/lib.rs</text>
</g>
<!-- memory_store&#45;&gt;native_memory -->
<g id="edge32" class="edge">
<title>memory_store&#45;&gt;native_memory</title>
<path fill="none" stroke="black" d="M1780.97,-143.7C1777.26,-136.07 1772.82,-126.92 1768.68,-118.4"/>
<polygon fill="black" stroke="black" points="1771.86,-116.93 1764.34,-109.47 1765.56,-119.99 1771.86,-116.93"/>
</g>
<!-- lib -->
<g id="node13" class="node">
<title>lib</title>
<path fill="none" stroke="black" d="M2001.5,-108C2001.5,-108 1863.25,-108 1863.25,-108 1857.25,-108 1851.25,-102 1851.25,-96 1851.25,-96 1851.25,-84 1851.25,-84 1851.25,-78 1857.25,-72 1863.25,-72 1863.25,-72 2001.5,-72 2001.5,-72 2007.5,-72 2013.5,-78 2013.5,-84 2013.5,-84 2013.5,-96 2013.5,-96 2013.5,-102 2007.5,-108 2001.5,-108"/>
<text xml:space="preserve" text-anchor="middle" x="1932.38" y="-84.58" font-family="Arial" font-size="14.00">src/lib.rs library modules</text>
</g>
<!-- cargo&#45;&gt;lib -->
<g id="edge12" class="edge">
<title>cargo&#45;&gt;lib</title>
<path fill="none" stroke="black" d="M1979.05,-143.7C1971.84,-135.56 1963.1,-125.69 1955.14,-116.7"/>
<polygon fill="black" stroke="black" points="1957.78,-114.4 1948.53,-109.24 1952.54,-119.04 1957.78,-114.4"/>
</g>
<!-- bin_azork -->
<g id="node14" class="node">
<title>bin_azork</title>
<path fill="none" stroke="black" d="M2109.12,-108C2109.12,-108 2043.62,-108 2043.62,-108 2037.62,-108 2031.62,-102 2031.62,-96 2031.62,-96 2031.62,-84 2031.62,-84 2031.62,-78 2037.62,-72 2043.62,-72 2043.62,-72 2109.12,-72 2109.12,-72 2115.12,-72 2121.12,-78 2121.12,-84 2121.12,-84 2121.12,-96 2121.12,-96 2121.12,-102 2115.12,-108 2109.12,-108"/>
<text xml:space="preserve" text-anchor="middle" x="2076.38" y="-84.58" font-family="Arial" font-size="14.00">azork binary</text>
</g>
<!-- cargo&#45;&gt;bin_azork -->
<g id="edge13" class="edge">
<title>cargo&#45;&gt;bin_azork</title>
<path fill="none" stroke="black" d="M2014.64,-143.7C2024.5,-135.28 2036.53,-125.02 2047.33,-115.79"/>
<polygon fill="black" stroke="black" points="2049.57,-118.48 2054.9,-109.33 2045.03,-113.16 2049.57,-118.48"/>
</g>
<!-- bin_oit -->
<g id="node15" class="node">
<title>bin_oit</title>
<path fill="none" stroke="black" d="M2235.5,-108C2235.5,-108 2151.25,-108 2151.25,-108 2145.25,-108 2139.25,-102 2139.25,-96 2139.25,-96 2139.25,-84 2139.25,-84 2139.25,-78 2145.25,-72 2151.25,-72 2151.25,-72 2235.5,-72 2235.5,-72 2241.5,-72 2247.5,-78 2247.5,-84 2247.5,-84 2247.5,-96 2247.5,-96 2247.5,-102 2241.5,-108 2235.5,-108"/>
<text xml:space="preserve" text-anchor="middle" x="2193.38" y="-84.58" font-family="Arial" font-size="14.00">azork&#45;oit binary</text>
</g>
<!-- cargo&#45;&gt;bin_oit -->
<g id="edge14" class="edge">
<title>cargo&#45;&gt;bin_oit</title>
<path fill="none" stroke="black" d="M2044.08,-143.52C2071.13,-134 2104.8,-122.16 2133.31,-112.13"/>
<polygon fill="black" stroke="black" points="2134.26,-115.5 2142.53,-108.88 2131.94,-108.9 2134.26,-115.5"/>
</g>
<!-- azext_pkg -->
<g id="node29" class="node">
<title>azext_pkg</title>
<path fill="none" stroke="black" d="M2413.38,-108C2413.38,-108 2277.38,-108 2277.38,-108 2271.38,-108 2265.38,-102 2265.38,-96 2265.38,-96 2265.38,-84 2265.38,-84 2265.38,-78 2271.38,-72 2277.38,-72 2277.38,-72 2413.38,-72 2413.38,-72 2419.38,-72 2425.38,-78 2425.38,-84 2425.38,-84 2425.38,-96 2425.38,-96 2425.38,-102 2419.38,-108 2413.38,-108"/>
<text xml:space="preserve" text-anchor="middle" x="2345.38" y="-84.58" font-family="Arial" font-size="14.00">azext_azork commands</text>
</g>
<!-- py_setup&#45;&gt;azext_pkg -->
<g id="edge28" class="edge">
<title>py_setup&#45;&gt;azext_pkg</title>
<path fill="none" stroke="black" d="M2344.62,-143.7C2344.73,-136.41 2344.85,-127.73 2344.97,-119.54"/>
<polygon fill="black" stroke="black" points="2348.47,-119.67 2345.11,-109.62 2341.47,-119.57 2348.47,-119.67"/>
</g>
<!-- screenshot_script -->
<g id="node30" class="node">
<title>screenshot_script</title>
<path fill="none" stroke="black" d="M2671.12,-108C2671.12,-108 2461.62,-108 2461.62,-108 2455.62,-108 2449.62,-102 2449.62,-96 2449.62,-96 2449.62,-84 2449.62,-84 2449.62,-78 2455.62,-72 2461.62,-72 2461.62,-72 2671.12,-72 2671.12,-72 2677.12,-72 2683.12,-78 2683.12,-84 2683.12,-84 2683.12,-96 2683.12,-96 2683.12,-102 2677.12,-108 2671.12,-108"/>
<text xml:space="preserve" text-anchor="middle" x="2566.38" y="-84.58" font-family="Arial" font-size="14.00">scripts/capture&#45;real&#45;screenshots.mjs</text>
</g>
<!-- package_json&#45;&gt;screenshot_script -->
<g id="edge29" class="edge">
<title>package_json&#45;&gt;screenshot_script</title>
<path fill="none" stroke="black" d="M2566.38,-143.7C2566.38,-136.41 2566.38,-127.73 2566.38,-119.54"/>
<polygon fill="black" stroke="black" points="2569.88,-119.62 2566.38,-109.62 2562.88,-119.62 2569.88,-119.62"/>
</g>
<!-- main_entry -->
<g id="node16" class="node">
<title>main_entry</title>
<path fill="none" stroke="black" d="M2102.62,-36C2102.62,-36 2010.12,-36 2010.12,-36 2004.12,-36 1998.12,-30 1998.12,-24 1998.12,-24 1998.12,-12 1998.12,-12 1998.12,-6 2004.12,0 2010.12,0 2010.12,0 2102.62,0 2102.62,0 2108.62,0 2114.62,-6 2114.62,-12 2114.62,-12 2114.62,-24 2114.62,-24 2114.62,-30 2108.62,-36 2102.62,-36"/>
<text xml:space="preserve" text-anchor="middle" x="2056.38" y="-12.57" font-family="Arial" font-size="14.00">src/main.rs main</text>
</g>
<!-- bin_azork&#45;&gt;main_entry -->
<g id="edge15" class="edge">
<title>bin_azork&#45;&gt;main_entry</title>
<path fill="none" stroke="black" d="M2071.43,-71.7C2069.3,-64.24 2066.75,-55.32 2064.37,-46.97"/>
<polygon fill="black" stroke="black" points="2067.79,-46.21 2061.68,-37.56 2061.06,-48.14 2067.79,-46.21"/>
</g>
<!-- oit_entry -->
<g id="node17" class="node">
<title>oit_entry</title>
<path fill="none" stroke="black" d="M2280.38,-36C2280.38,-36 2144.38,-36 2144.38,-36 2138.38,-36 2132.38,-30 2132.38,-24 2132.38,-24 2132.38,-12 2132.38,-12 2132.38,-6 2138.38,0 2144.38,0 2144.38,0 2280.38,0 2280.38,0 2286.38,0 2292.38,-6 2292.38,-12 2292.38,-12 2292.38,-24 2292.38,-24 2292.38,-30 2286.38,-36 2280.38,-36"/>
<text xml:space="preserve" text-anchor="middle" x="2212.38" y="-12.57" font-family="Arial" font-size="14.00">src/bin/azork&#45;oit.rs main</text>
</g>
<!-- bin_oit&#45;&gt;oit_entry -->
<g id="edge16" class="edge">
<title>bin_oit&#45;&gt;oit_entry</title>
<path fill="none" stroke="black" d="M2198.07,-71.7C2200.1,-64.24 2202.52,-55.32 2204.78,-46.97"/>
<polygon fill="black" stroke="black" points="2208.09,-48.13 2207.34,-37.57 2201.34,-46.3 2208.09,-48.13"/>
</g>
</g>
</svg>
