<?xml version="1.0" encoding="UTF-8" standalone="no"?>
<!DOCTYPE svg PUBLIC "-//W3C//DTD SVG 1.1//EN"
 "http://www.w3.org/Graphics/SVG/1.1/DTD/svg11.dtd">
<!-- Generated by graphviz version 14.1.2 (0)
 -->
<!-- Title: service_components_update Pages: 1 -->
<svg width="1918pt" height="357pt"
 viewBox="0.00 0.00 1918.00 357.00" xmlns="http://www.w3.org/2000/svg" xmlns:xlink="http://www.w3.org/1999/xlink">
<g id="graph0" class="graph" transform="scale(1 1) rotate(0) translate(4 353.25)">
<title>service_components_update</title>
<polygon fill="white" stroke="none" points="-4,4 -4,-353.25 1914.01,-353.25 1914.01,4 -4,4"/>
<text xml:space="preserve" text-anchor="middle" x="955.01" y="-331.95" font-family="Times,serif" font-size="14.00">service&#45;components update</text>
<!-- update_mod -->
<g id="node1" class="node">
<title>update_mod</title>
<path fill="none" stroke="black" d="M1071.51,-252C1071.51,-252 976.01,-252 976.01,-252 970.01,-252 964.01,-246 964.01,-240 964.01,-240 964.01,-228 964.01,-228 964.01,-222 970.01,-216 976.01,-216 976.01,-216 1071.51,-216 1071.51,-216 1077.51,-216 1083.51,-222 1083.51,-228 1083.51,-228 1083.51,-240 1083.51,-240 1083.51,-246 1077.51,-252 1071.51,-252"/>
<text xml:space="preserve" text-anchor="middle" x="1023.76" y="-229.32" font-family="Times,serif" font-size="14.00">update/mod.rs</text>
</g>
<!-- check -->
<g id="node2" class="node">
<title>check</title>
<path fill="none" stroke="black" d="M474.14,-180C474.14,-180 277.39,-180 277.39,-180 271.39,-180 265.39,-174 265.39,-168 265.39,-168 265.39,-156 265.39,-156 265.39,-150 271.39,-144 277.39,-144 277.39,-144 474.14,-144 474.14,-144 480.14,-144 486.14,-150 486.14,-156 486.14,-156 486.14,-168 486.14,-168 486.14,-174 480.14,-180 474.14,-180"/>
<text xml:space="preserve" text-anchor="middle" x="375.76" y="-157.32" font-family="Times,serif" font-size="14.00">check.rs startup check gates</text>
</g>
<!-- update_mod&#45;&gt;check -->
<g id="edge1" class="edge">
<title>update_mod&#45;&gt;check</title>
<path fill="none" stroke="black" d="M963.67,-226.51C857.9,-215.08 636.53,-191.17 497.65,-176.17"/>
<polygon fill="black" stroke="black" points="498.38,-172.73 488.06,-175.13 497.62,-179.68 498.38,-172.73"/>
</g>
<!-- network -->
<g id="node3" class="node">
<title>network</title>
<path fill="none" stroke="black" d="M1533.64,-108C1533.64,-108 1267.89,-108 1267.89,-108 1261.89,-108 1255.89,-102 1255.89,-96 1255.89,-96 1255.89,-84 1255.89,-84 1255.89,-78 1261.89,-72 1267.89,-72 1267.89,-72 1533.64,-72 1533.64,-72 1539.64,-72 1545.64,-78 1545.64,-84 1545.64,-84 1545.64,-96 1545.64,-96 1545.64,-102 1539.64,-108 1533.64,-108"/>
<text xml:space="preserve" text-anchor="middle" x="1400.76" y="-85.33" font-family="Times,serif" font-size="14.00">network.rs GitHub API and downloads</text>
</g>
<!-- update_mod&#45;&gt;network -->
<g id="edge2" class="edge">
<title>update_mod&#45;&gt;network</title>
<path fill="none" stroke="black" d="M1026.32,-215.54C1030.3,-195.01 1040.05,-161.51 1062.76,-144 1077.9,-132.33 1163.24,-119 1244.37,-108.63"/>
<polygon fill="black" stroke="black" points="1244.8,-112.1 1254.28,-107.37 1243.92,-105.16 1244.8,-112.1"/>
</g>
<!-- checksum -->
<g id="node4" class="node">
<title>checksum</title>
<path fill="none" stroke="black" d="M706.51,-108C706.51,-108 521.01,-108 521.01,-108 515.01,-108 509.01,-102 509.01,-96 509.01,-96 509.01,-84 509.01,-84 509.01,-78 515.01,-72 521.01,-72 521.01,-72 706.51,-72 706.51,-72 712.51,-72 718.51,-78 718.51,-84 718.51,-84 718.51,-96 718.51,-96 718.51,-102 712.51,-108 706.51,-108"/>
<text xml:space="preserve" text-anchor="middle" x="613.76" y="-85.33" font-family="Times,serif" font-size="14.00">checksum.rs verify_sha256</text>
</g>
<!-- update_mod&#45;&gt;checksum -->
<g id="edge3" class="edge">
<title>update_mod&#45;&gt;checksum</title>
<path fill="none" stroke="black" d="M963.76,-232.55C898.84,-229.9 793.75,-219.17 712.76,-180 681.77,-165.01 653.33,-137.33 634.96,-116.81"/>
<polygon fill="black" stroke="black" points="637.69,-114.61 628.48,-109.37 632.41,-119.21 637.69,-114.61"/>
</g>
<!-- archive -->
<g id="node5" class="node">
<title>archive</title>
<path fill="none" stroke="black" d="M919.39,-108C919.39,-108 748.14,-108 748.14,-108 742.14,-108 736.14,-102 736.14,-96 736.14,-96 736.14,-84 736.14,-84 736.14,-78 742.14,-72 748.14,-72 748.14,-72 919.39,-72 919.39,-72 925.39,-72 931.39,-78 931.39,-84 931.39,-84 931.39,-96 931.39,-96 931.39,-102 925.39,-108 919.39,-108"/>
<text xml:space="preserve" text-anchor="middle" x="833.76" y="-85.33" font-family="Times,serif" font-size="14.00">archive.rs extract_binary</text>
</g>
<!-- update_mod&#45;&gt;archive -->
<g id="edge4" class="edge">
<title>update_mod&#45;&gt;archive</title>
<path fill="none" stroke="black" d="M963.61,-231.19C885,-227.4 753.76,-215.76 723.76,-180 713.48,-167.74 715.25,-157.55 723.76,-144 731.97,-130.93 744.41,-121 758.01,-113.5"/>
<polygon fill="black" stroke="black" points="759.36,-116.74 766.73,-109.12 756.22,-110.48 759.36,-116.74"/>
</g>
<!-- install -->
<g id="node6" class="node">
<title>install</title>
<path fill="none" stroke="black" d="M964.76,-180C964.76,-180 744.76,-180 744.76,-180 738.76,-180 732.76,-174 732.76,-168 732.76,-168 732.76,-156 732.76,-156 732.76,-150 738.76,-144 744.76,-144 744.76,-144 964.76,-144 964.76,-144 970.76,-144 976.76,-150 976.76,-156 976.76,-156 976.76,-168 976.76,-168 976.76,-174 970.76,-180 964.76,-180"/>
<text xml:space="preserve" text-anchor="middle" x="854.76" y="-157.32" font-family="Times,serif" font-size="14.00">install.rs download_and_replace</text>
</g>
<!-- update_mod&#45;&gt;install -->
<g id="edge5" class="edge">
<title>update_mod&#45;&gt;install</title>
<path fill="none" stroke="black" d="M981.55,-215.52C958.98,-206.17 930.99,-194.57 907.05,-184.66"/>
<polygon fill="black" stroke="black" points="908.7,-181.55 898.12,-180.96 906.02,-188.02 908.7,-181.55"/>
</g>
<!-- post_install -->
<g id="node7" class="node">
<title>post_install</title>
<path fill="none" stroke="black" d="M1225.89,-108C1225.89,-108 961.64,-108 961.64,-108 955.64,-108 949.64,-102 949.64,-96 949.64,-96 949.64,-84 949.64,-84 949.64,-78 955.64,-72 961.64,-72 961.64,-72 1225.89,-72 1225.89,-72 1231.89,-72 1237.89,-78 1237.89,-84 1237.89,-84 1237.89,-96 1237.89,-96 1237.89,-102 1231.89,-108 1225.89,-108"/>
<text xml:space="preserve" text-anchor="middle" x="1093.76" y="-85.33" font-family="Times,serif" font-size="14.00">post_install.rs installed&#45;version stamp</text>
</g>
<!-- update_mod&#45;&gt;post_install -->
<g id="edge6" class="edge">
<title>update_mod&#45;&gt;post_install</title>
<path fill="none" stroke="black" d="M1020.77,-215.54C1018.42,-196.78 1017.23,-166.61 1028.76,-144 1034.48,-132.78 1043.76,-123.09 1053.54,-115.17"/>
<polygon fill="black" stroke="black" points="1055.45,-118.12 1061.36,-109.32 1051.25,-112.51 1055.45,-118.12"/>
</g>
<!-- gh_release -->
<g id="node8" class="node">
<title>gh_release</title>
<path fill="none" stroke="black" d="M745.89,-36C745.89,-36 649.64,-36 649.64,-36 643.64,-36 637.64,-30 637.64,-24 637.64,-24 637.64,-12 637.64,-12 637.64,-6 643.64,0 649.64,0 649.64,0 745.89,0 745.89,0 751.89,0 757.89,-6 757.89,-12 757.89,-12 757.89,-24 757.89,-24 757.89,-30 751.89,-36 745.89,-36"/>
<text xml:space="preserve" text-anchor="middle" x="697.76" y="-13.32" font-family="Times,serif" font-size="14.00">GithubRelease</text>
</g>
<!-- update_mod&#45;&gt;gh_release -->
<g id="edge7" class="edge">
<title>update_mod&#45;&gt;gh_release</title>
<path fill="none" stroke="black" d="M963.56,-233.17C833.5,-232.58 517,-226.08 256.76,-180 143.32,-159.92 76.99,-200.08 7.76,-108 -1.85,-95.21 -3.11,-83.74 7.76,-72 49.14,-27.32 457.73,-20.17 625.96,-19.13"/>
<polygon fill="black" stroke="black" points="625.91,-22.63 635.89,-19.07 625.87,-15.63 625.91,-22.63"/>
</g>
<!-- gh_asset -->
<g id="node9" class="node">
<title>gh_asset</title>
<path fill="none" stroke="black" d="M1508.64,-36C1508.64,-36 1428.89,-36 1428.89,-36 1422.89,-36 1416.89,-30 1416.89,-24 1416.89,-24 1416.89,-12 1416.89,-12 1416.89,-6 1422.89,0 1428.89,0 1428.89,0 1508.64,0 1508.64,0 1514.64,0 1520.64,-6 1520.64,-12 1520.64,-12 1520.64,-24 1520.64,-24 1520.64,-30 1514.64,-36 1508.64,-36"/>
<text xml:space="preserve" text-anchor="middle" x="1468.76" y="-13.32" font-family="Times,serif" font-size="14.00">GithubAsset</text>
</g>
<!-- update_mod&#45;&gt;gh_asset -->
<g id="edge8" class="edge">
<title>update_mod&#45;&gt;gh_asset</title>
<path fill="none" stroke="black" d="M1083.91,-231.45C1216.3,-227.41 1523.64,-214.39 1554.76,-180 1586.97,-144.41 1578.16,-113.91 1554.76,-72 1547.81,-59.55 1536.61,-49.67 1524.55,-41.97"/>
<polygon fill="black" stroke="black" points="1526.47,-39.04 1516.07,-37.03 1522.94,-45.09 1526.47,-39.04"/>
</g>
<!-- resolved -->
<g id="node10" class="node">
<title>resolved</title>
<path fill="none" stroke="black" d="M1192.26,-180C1192.26,-180 1083.26,-180 1083.26,-180 1077.26,-180 1071.26,-174 1071.26,-168 1071.26,-168 1071.26,-156 1071.26,-156 1071.26,-150 1077.26,-144 1083.26,-144 1083.26,-144 1192.26,-144 1192.26,-144 1198.26,-144 1204.26,-150 1204.26,-156 1204.26,-156 1204.26,-168 1204.26,-168 1204.26,-174 1198.26,-180 1192.26,-180"/>
<text xml:space="preserve" text-anchor="middle" x="1137.76" y="-157.32" font-family="Times,serif" font-size="14.00">ResolvedUpdate</text>
</g>
<!-- update_mod&#45;&gt;resolved -->
<g id="edge9" class="edge">
<title>update_mod&#45;&gt;resolved</title>
<path fill="none" stroke="black" d="M1052.23,-215.52C1066.76,-206.6 1084.62,-195.63 1100.25,-186.03"/>
<polygon fill="black" stroke="black" points="1101.67,-189.27 1108.36,-181.05 1098.01,-183.3 1101.67,-189.27"/>
</g>
<!-- errors -->
<g id="node11" class="node">
<title>errors</title>
<path fill="none" stroke="black" d="M1389.14,-180C1389.14,-180 1234.39,-180 1234.39,-180 1228.39,-180 1222.39,-174 1222.39,-168 1222.39,-168 1222.39,-156 1222.39,-156 1222.39,-150 1228.39,-144 1234.39,-144 1234.39,-144 1389.14,-144 1389.14,-144 1395.14,-144 1401.14,-150 1401.14,-156 1401.14,-156 1401.14,-168 1401.14,-168 1401.14,-174 1395.14,-180 1389.14,-180"/>
<text xml:space="preserve" text-anchor="middle" x="1311.76" y="-157.32" font-family="Times,serif" font-size="14.00">UpdateError exit_code</text>
</g>
<!-- update_mod&#45;&gt;errors -->
<g id="edge10" class="edge">
<title>update_mod&#45;&gt;errors</title>
<path fill="none" stroke="black" d="M1083.78,-218.41C1125.83,-208.19 1182.56,-194.4 1228.91,-183.14"/>
<polygon fill="black" stroke="black" points="1229.48,-186.6 1238.37,-180.84 1227.83,-179.8 1229.48,-186.6"/>
</g>
<!-- semver -->
<g id="node12" class="node">
<title>semver</title>
<path fill="none" stroke="black" d="M1533.89,-180C1533.89,-180 1431.64,-180 1431.64,-180 1425.64,-180 1419.64,-174 1419.64,-168 1419.64,-168 1419.64,-156 1419.64,-156 1419.64,-150 1425.64,-144 1431.64,-144 1431.64,-144 1533.89,-144 1533.89,-144 1539.89,-144 1545.89,-150 1545.89,-156 1545.89,-156 1545.89,-168 1545.89,-168 1545.89,-174 1539.89,-180 1533.89,-180"/>
<text xml:space="preserve" text-anchor="middle" x="1482.76" y="-157.32" font-family="Times,serif" font-size="14.00">semver Version</text>
</g>
<!-- update_mod&#45;&gt;semver -->
<g id="edge11" class="edge">
<title>update_mod&#45;&gt;semver</title>
<path fill="none" stroke="black" d="M1083.88,-226.49C1157.73,-218.1 1287.06,-202.16 1408.21,-180.18"/>
<polygon fill="black" stroke="black" points="1408.83,-183.62 1418.04,-178.38 1407.57,-176.74 1408.83,-183.62"/>
</g>
<!-- cache -->
<g id="node13" class="node">
<title>cache</title>
<path fill="none" stroke="black" d="M478.64,-108C478.64,-108 272.89,-108 272.89,-108 266.89,-108 260.89,-102 260.89,-96 260.89,-96 260.89,-84 260.89,-84 260.89,-78 266.89,-72 272.89,-72 272.89,-72 478.64,-72 478.64,-72 484.64,-72 490.64,-78 490.64,-84 490.64,-84 490.64,-96 490.64,-96 490.64,-102 484.64,-108 478.64,-108"/>
<text xml:space="preserve" text-anchor="middle" x="375.76" y="-85.33" font-family="Times,serif" font-size="14.00">cache_path last_update_check</text>
</g>
<!-- update_mod&#45;&gt;cache -->
<g id="edge12" class="edge">
<title>update_mod&#45;&gt;cache</title>
<path fill="none" stroke="black" d="M963.79,-227.28C891.02,-219.65 764.89,-204.23 658.76,-180 579.51,-161.91 490.41,-132.3 433.73,-112.24"/>
<polygon fill="black" stroke="black" points="435.21,-109.06 424.61,-109 432.86,-115.65 435.21,-109.06"/>
</g>
<!-- repo -->
<g id="node14" class="node">
<title>repo</title>
<path fill="none" stroke="black" d="M1819.64,-180C1819.64,-180 1613.89,-180 1613.89,-180 1607.89,-180 1601.89,-174 1601.89,-168 1601.89,-168 1601.89,-156 1601.89,-156 1601.89,-150 1607.89,-144 1613.89,-144 1613.89,-144 1819.64,-144 1819.64,-144 1825.64,-144 1831.64,-150 1831.64,-156 1831.64,-156 1831.64,-168 1831.64,-168 1831.64,-174 1825.64,-180 1819.64,-180"/>
<text xml:space="preserve" text-anchor="middle" x="1716.76" y="-157.32" font-family="Times,serif" font-size="14.00">GITHUB_REPO rysweet/azork</text>
</g>
<!-- update_mod&#45;&gt;repo -->
<g id="edge13" class="edge">
<title>update_mod&#45;&gt;repo</title>
<path fill="none" stroke="black" d="M1083.94,-228.09C1187.15,-219.5 1404.52,-200.68 1587.76,-180 1588.6,-179.91 1589.45,-179.81 1590.3,-179.71"/>
<polygon fill="black" stroke="black" points="1590.41,-183.22 1599.94,-178.59 1589.6,-176.27 1590.41,-183.22"/>
</g>
<!-- max_bytes -->
<g id="node15" class="node">
<title>max_bytes</title>
<path fill="none" stroke="black" d="M1898.01,-36C1898.01,-36 1685.51,-36 1685.51,-36 1679.51,-36 1673.51,-30 1673.51,-24 1673.51,-24 1673.51,-12 1673.51,-12 1673.51,-6 1679.51,0 1685.51,0 1685.51,0 1898.01,0 1898.01,0 1904.01,0 1910.01,-6 1910.01,-12 1910.01,-12 1910.01,-24 1910.01,-24 1910.01,-30 1904.01,-36 1898.01,-36"/>
<text xml:space="preserve" text-anchor="middle" x="1791.76" y="-13.32" font-family="Times,serif" font-size="14.00">MAX_RELEASE_ASSET_BYTES</text>
</g>
<!-- update_mod&#45;&gt;max_bytes -->
<g id="edge14" class="edge">
<title>update_mod&#45;&gt;max_bytes</title>
<path fill="none" stroke="black" d="M1083.95,-231.32C1268.41,-225.9 1814.93,-207.56 1840.76,-180 1875.98,-142.43 1839.48,-80.28 1813.32,-45.2"/>
<polygon fill="black" stroke="black" points="1816.4,-43.47 1807.53,-37.68 1810.86,-47.74 1816.4,-43.47"/>
</g>
<!-- check&#45;&gt;cache -->
<g id="edge16" class="edge">
<title>check&#45;&gt;cache</title>
<path fill="none" stroke="black" d="M375.76,-143.7C375.76,-136.41 375.76,-127.73 375.76,-119.54"/>
<polygon fill="black" stroke="black" points="379.26,-119.62 375.76,-109.62 372.26,-119.62 379.26,-119.62"/>
</g>
<!-- no_env -->
<g id="node17" class="node">
<title>no_env</title>
<path fill="none" stroke="black" d="M231.14,-108C231.14,-108 28.39,-108 28.39,-108 22.39,-108 16.39,-102 16.39,-96 16.39,-96 16.39,-84 16.39,-84 16.39,-78 22.39,-72 28.39,-72 28.39,-72 231.14,-72 231.14,-72 237.14,-72 243.14,-78 243.14,-84 243.14,-84 243.14,-96 243.14,-96 243.14,-102 237.14,-108 231.14,-108"/>
<text xml:space="preserve" text-anchor="middle" x="129.76" y="-85.33" font-family="Times,serif" font-size="14.00">AZORK_NO_UPDATE_CHECK</text>
</g>
<!-- check&#45;&gt;no_env -->
<g id="edge15" class="edge">
<title>check&#45;&gt;no_env</title>
<path fill="none" stroke="black" d="M314.32,-143.52C280.14,-133.79 237.42,-121.64 201.69,-111.47"/>
<polygon fill="black" stroke="black" points="202.88,-108.17 192.3,-108.8 200.96,-114.9 202.88,-108.17"/>
</g>
<!-- network&#45;&gt;gh_release -->
<g id="edge17" class="edge">
<title>network&#45;&gt;gh_release</title>
<path fill="none" stroke="black" d="M1255.68,-72.93C1252.68,-72.61 1249.7,-72.3 1246.76,-72 1075.77,-54.31 874.62,-35.37 769.7,-25.63"/>
<polygon fill="black" stroke="black" points="770.1,-22.15 759.82,-24.71 769.45,-29.12 770.1,-22.15"/>
</g>
<!-- network&#45;&gt;gh_asset -->
<g id="edge18" class="edge">
<title>network&#45;&gt;gh_asset</title>
<path fill="none" stroke="black" d="M1417.57,-71.7C1425.64,-63.39 1435.46,-53.28 1444.34,-44.14"/>
<polygon fill="black" stroke="black" points="1446.63,-46.8 1451.09,-37.19 1441.61,-41.92 1446.63,-46.8"/>
</g>
<!-- network&#45;&gt;max_bytes -->
<g id="edge19" class="edge">
<title>network&#45;&gt;max_bytes</title>
<path fill="none" stroke="black" d="M1498.42,-71.52C1554.62,-61.45 1625.37,-48.79 1683.3,-38.42"/>
<polygon fill="black" stroke="black" points="1683.62,-41.92 1692.84,-36.71 1682.38,-35.03 1683.62,-41.92"/>
</g>
<!-- install&#45;&gt;network -->
<g id="edge20" class="edge">
<title>install&#45;&gt;network</title>
<path fill="none" stroke="black" d="M976.95,-145.33C1058.72,-134.85 1166.78,-121 1253.32,-109.9"/>
<polygon fill="black" stroke="black" points="1253.6,-113.4 1263.07,-108.65 1252.71,-106.45 1253.6,-113.4"/>
</g>
<!-- install&#45;&gt;checksum -->
<g id="edge21" class="edge">
<title>install&#45;&gt;checksum</title>
<path fill="none" stroke="black" d="M794.57,-143.52C761.09,-133.79 719.23,-121.64 684.23,-111.47"/>
<polygon fill="black" stroke="black" points="685.64,-108.23 675.06,-108.8 683.68,-114.95 685.64,-108.23"/>
</g>
<!-- install&#45;&gt;archive -->
<g id="edge22" class="edge">
<title>install&#45;&gt;archive</title>
<path fill="none" stroke="black" d="M849.57,-143.7C847.33,-136.24 844.66,-127.32 842.15,-118.97"/>
<polygon fill="black" stroke="black" points="845.55,-118.13 839.33,-109.55 838.85,-120.14 845.55,-118.13"/>
</g>
<!-- install&#45;&gt;post_install -->
<g id="edge23" class="edge">
<title>install&#45;&gt;post_install</title>
<path fill="none" stroke="black" d="M914.45,-143.52C947.52,-133.83 988.81,-121.74 1023.43,-111.6"/>
<polygon fill="black" stroke="black" points="1024.35,-114.98 1032.96,-108.81 1022.38,-108.26 1024.35,-114.98"/>
</g>
<!-- main_update -->
<g id="node16" class="node">
<title>main_update</title>
<path fill="none" stroke="black" d="M1086.14,-324C1086.14,-324 961.39,-324 961.39,-324 955.39,-324 949.39,-318 949.39,-312 949.39,-312 949.39,-300 949.39,-300 949.39,-294 955.39,-288 961.39,-288 961.39,-288 1086.14,-288 1086.14,-288 1092.14,-288 1098.14,-294 1098.14,-300 1098.14,-300 1098.14,-312 1098.14,-312 1098.14,-318 1092.14,-324 1086.14,-324"/>
<text xml:space="preserve" text-anchor="middle" x="1023.76" y="-301.32" font-family="Times,serif" font-size="14.00">main azork update</text>
</g>
<!-- main_update&#45;&gt;update_mod -->
<g id="edge24" class="edge">
<title>main_update&#45;&gt;update_mod</title>
<path fill="none" stroke="black" d="M1023.76,-287.7C1023.76,-280.41 1023.76,-271.73 1023.76,-263.54"/>
<polygon fill="black" stroke="black" points="1027.26,-263.62 1023.76,-253.62 1020.26,-263.62 1027.26,-263.62"/>
</g>
</g>
</svg>
