<?xml version="1.0" encoding="UTF-8" standalone="no"?>
<!DOCTYPE svg PUBLIC "-//W3C//DTD SVG 1.1//EN"
 "http://www.w3.org/Graphics/SVG/1.1/DTD/svg11.dtd">
<!-- Generated by graphviz version 14.1.2 (0)
 -->
<!-- Title: service_components_backend Pages: 1 -->
<svg width="1949pt" height="429pt"
 viewBox="0.00 0.00 1949.00 429.00" xmlns="http://www.w3.org/2000/svg" xmlns:xlink="http://www.w3.org/1999/xlink">
<g id="graph0" class="graph" transform="scale(1 1) rotate(0) translate(4 425.25)">
<title>service_components_backend</title>
<polygon fill="white" stroke="none" points="-4,4 -4,-425.25 1945,-425.25 1945,4 -4,4"/>
<text xml:space="preserve" text-anchor="middle" x="970.5" y="-403.95" font-family="Times,serif" font-size="14.00">service&#45;components backend</text>
<!-- backend_mod -->
<g id="node1" class="node">
<title>backend_mod</title>
<path fill="none" stroke="black" d="M1141.38,-396C1141.38,-396 1036.12,-396 1036.12,-396 1030.12,-396 1024.12,-390 1024.12,-384 1024.12,-384 1024.12,-372 1024.12,-372 1024.12,-366 1030.12,-360 1036.12,-360 1036.12,-360 1141.38,-360 1141.38,-360 1147.38,-360 1153.38,-366 1153.38,-372 1153.38,-372 1153.38,-384 1153.38,-384 1153.38,-390 1147.38,-396 1141.38,-396"/>
<text xml:space="preserve" text-anchor="middle" x="1088.75" y="-373.32" font-family="Times,serif" font-size="14.00">backend/mod.rs</text>
</g>
<!-- trait_backend -->
<g id="node2" class="node">
<title>trait_backend</title>
<path fill="none" stroke="black" d="M1049.12,-324C1049.12,-324 960.38,-324 960.38,-324 954.38,-324 948.38,-318 948.38,-312 948.38,-312 948.38,-300 948.38,-300 948.38,-294 954.38,-288 960.38,-288 960.38,-288 1049.12,-288 1049.12,-288 1055.12,-288 1061.12,-294 1061.12,-300 1061.12,-300 1061.12,-312 1061.12,-312 1061.12,-318 1055.12,-324 1049.12,-324"/>
<text xml:space="preserve" text-anchor="middle" x="1004.75" y="-301.32" font-family="Times,serif" font-size="14.00">Backend trait</text>
</g>
<!-- backend_mod&#45;&gt;trait_backend -->
<g id="edge1" class="edge">
<title>backend_mod&#45;&gt;trait_backend</title>
<path fill="none" stroke="black" d="M1067.99,-359.7C1057.79,-351.2 1045.33,-340.81 1034.17,-331.51"/>
<polygon fill="black" stroke="black" points="1036.65,-329.03 1026.73,-325.32 1032.17,-334.41 1036.65,-329.03"/>
</g>
<!-- select -->
<g id="node3" class="node">
<title>select</title>
<path fill="none" stroke="black" d="M1256.75,-324C1256.75,-324 1090.75,-324 1090.75,-324 1084.75,-324 1078.75,-318 1078.75,-312 1078.75,-312 1078.75,-300 1078.75,-300 1078.75,-294 1084.75,-288 1090.75,-288 1090.75,-288 1256.75,-288 1256.75,-288 1262.75,-288 1268.75,-294 1268.75,-300 1268.75,-300 1268.75,-312 1268.75,-312 1268.75,-318 1262.75,-324 1256.75,-324"/>
<text xml:space="preserve" text-anchor="middle" x="1173.75" y="-301.32" font-family="Times,serif" font-size="14.00">select and is_recognized</text>
</g>
<!-- backend_mod&#45;&gt;select -->
<g id="edge2" class="edge">
<title>backend_mod&#45;&gt;select</title>
<path fill="none" stroke="black" d="M1109.76,-359.7C1120.08,-351.2 1132.69,-340.81 1143.98,-331.51"/>
<polygon fill="black" stroke="black" points="1146.02,-334.37 1151.52,-325.31 1141.57,-328.96 1146.02,-334.37"/>
</g>
<!-- mock_env -->
<g id="node4" class="node">
<title>mock_env</title>
<path fill="none" stroke="black" d="M1098.88,-252C1098.88,-252 930.62,-252 930.62,-252 924.62,-252 918.62,-246 918.62,-240 918.62,-240 918.62,-228 918.62,-228 918.62,-222 924.62,-216 930.62,-216 930.62,-216 1098.88,-216 1098.88,-216 1104.88,-216 1110.88,-222 1110.88,-228 1110.88,-228 1110.88,-240 1110.88,-240 1110.88,-246 1104.88,-252 1098.88,-252"/>
<text xml:space="preserve" text-anchor="middle" x="1014.75" y="-229.32" font-family="Times,serif" font-size="14.00">mock_backend_from_env</text>
</g>
<!-- select&#45;&gt;mock_env -->
<g id="edge4" class="edge">
<title>select&#45;&gt;mock_env</title>
<path fill="none" stroke="black" d="M1134.04,-287.52C1113,-278.25 1086.94,-266.78 1064.56,-256.93"/>
<polygon fill="black" stroke="black" points="1066.18,-253.82 1055.62,-252.99 1063.36,-260.22 1066.18,-253.82"/>
</g>
<!-- az -->
<g id="node14" class="node">
<title>az</title>
<path fill="none" stroke="black" d="M1613.12,-108C1613.12,-108 1440.38,-108 1440.38,-108 1434.38,-108 1428.38,-102 1428.38,-96 1428.38,-96 1428.38,-84 1428.38,-84 1428.38,-78 1434.38,-72 1440.38,-72 1440.38,-72 1613.12,-72 1613.12,-72 1619.12,-72 1625.12,-78 1625.12,-84 1625.12,-84 1625.12,-96 1625.12,-96 1625.12,-102 1619.12,-108 1613.12,-108"/>
<text xml:space="preserve" text-anchor="middle" x="1526.75" y="-85.33" font-family="Times,serif" font-size="14.00">backend/az.rs AzBackend</text>
</g>
<!-- select&#45;&gt;az -->
<g id="edge3" class="edge">
<title>select&#45;&gt;az</title>
<path fill="none" stroke="black" d="M1202.34,-287.67C1265.51,-249.37 1417.04,-157.51 1488.38,-114.26"/>
<polygon fill="black" stroke="black" points="1489.86,-117.45 1496.6,-109.28 1486.23,-111.47 1489.86,-117.45"/>
</g>
<!-- mock -->
<g id="node5" class="node">
<title>mock</title>
<path fill="none" stroke="black" d="M543.5,-180C543.5,-180 328,-180 328,-180 322,-180 316,-174 316,-168 316,-168 316,-156 316,-156 316,-150 322,-144 328,-144 328,-144 543.5,-144 543.5,-144 549.5,-144 555.5,-150 555.5,-156 555.5,-156 555.5,-168 555.5,-168 555.5,-174 549.5,-180 543.5,-180"/>
<text xml:space="preserve" text-anchor="middle" x="435.75" y="-157.32" font-family="Times,serif" font-size="14.00">backend/mock.rs MockBackend</text>
</g>
<!-- mock_env&#45;&gt;mock -->
<g id="edge5" class="edge">
<title>mock_env&#45;&gt;mock</title>
<path fill="none" stroke="black" d="M918.16,-221.32C822.07,-209.7 673.92,-191.79 567.15,-178.89"/>
<polygon fill="black" stroke="black" points="567.82,-175.44 557.48,-177.72 566.98,-182.39 567.82,-175.44"/>
</g>
<!-- mock_gen -->
<g id="node8" class="node">
<title>mock_gen</title>
<path fill="none" stroke="black" d="M1087.25,-180C1087.25,-180 942.25,-180 942.25,-180 936.25,-180 930.25,-174 930.25,-168 930.25,-168 930.25,-156 930.25,-156 930.25,-150 936.25,-144 942.25,-144 942.25,-144 1087.25,-144 1087.25,-144 1093.25,-144 1099.25,-150 1099.25,-156 1099.25,-156 1099.25,-168 1099.25,-168 1099.25,-174 1093.25,-180 1087.25,-180"/>
<text xml:space="preserve" text-anchor="middle" x="1014.75" y="-157.32" font-family="Times,serif" font-size="14.00">backend/mock_gen.rs</text>
</g>
<!-- mock_env&#45;&gt;mock_gen -->
<g id="edge6" class="edge">
<title>mock_env&#45;&gt;mock_gen</title>
<path fill="none" stroke="black" d="M1014.75,-215.7C1014.75,-208.41 1014.75,-199.73 1014.75,-191.54"/>
<polygon fill="black" stroke="black" points="1018.25,-191.62 1014.75,-181.62 1011.25,-191.62 1018.25,-191.62"/>
</g>
<!-- fixed -->
<g id="node6" class="node">
<title>fixed</title>
<path fill="none" stroke="black" d="M318.25,-108C318.25,-108 167.25,-108 167.25,-108 161.25,-108 155.25,-102 155.25,-96 155.25,-96 155.25,-84 155.25,-84 155.25,-78 161.25,-72 167.25,-72 167.25,-72 318.25,-72 318.25,-72 324.25,-72 330.25,-78 330.25,-84 330.25,-84 330.25,-96 330.25,-96 330.25,-102 324.25,-108 318.25,-108"/>
<text xml:space="preserve" text-anchor="middle" x="242.75" y="-85.33" font-family="Times,serif" font-size="14.00">MockWorldSpec Fixed</text>
</g>
<!-- mock&#45;&gt;fixed -->
<g id="edge7" class="edge">
<title>mock&#45;&gt;fixed</title>
<path fill="none" stroke="black" d="M387.55,-143.52C361.43,-134.04 328.94,-122.26 301.37,-112.26"/>
<polygon fill="black" stroke="black" points="302.69,-109.02 292.1,-108.9 300.3,-115.6 302.69,-109.02"/>
</g>
<!-- sized -->
<g id="node7" class="node">
<title>sized</title>
<path fill="none" stroke="black" d="M510.88,-108C510.88,-108 360.62,-108 360.62,-108 354.62,-108 348.62,-102 348.62,-96 348.62,-96 348.62,-84 348.62,-84 348.62,-78 354.62,-72 360.62,-72 360.62,-72 510.88,-72 510.88,-72 516.88,-72 522.88,-78 522.88,-84 522.88,-84 522.88,-96 522.88,-96 522.88,-102 516.88,-108 510.88,-108"/>
<text xml:space="preserve" text-anchor="middle" x="435.75" y="-85.33" font-family="Times,serif" font-size="14.00">MockWorldSpec Sized</text>
</g>
<!-- mock&#45;&gt;sized -->
<g id="edge8" class="edge">
<title>mock&#45;&gt;sized</title>
<path fill="none" stroke="black" d="M435.75,-143.7C435.75,-136.41 435.75,-127.73 435.75,-119.54"/>
<polygon fill="black" stroke="black" points="439.25,-119.62 435.75,-109.62 432.25,-119.62 439.25,-119.62"/>
</g>
<!-- world -->
<g id="node17" class="node">
<title>world</title>
<path fill="none" stroke="black" d="M1247.25,-36C1247.25,-36 1048.25,-36 1048.25,-36 1042.25,-36 1036.25,-30 1036.25,-24 1036.25,-24 1036.25,-12 1036.25,-12 1036.25,-6 1042.25,0 1048.25,0 1048.25,0 1247.25,0 1247.25,0 1253.25,0 1259.25,-6 1259.25,-12 1259.25,-12 1259.25,-24 1259.25,-24 1259.25,-30 1253.25,-36 1247.25,-36"/>
<text xml:space="preserve" text-anchor="middle" x="1147.75" y="-13.32" font-family="Times,serif" font-size="14.00">world::World Room Resource</text>
</g>
<!-- mock&#45;&gt;world -->
<g id="edge9" class="edge">
<title>mock&#45;&gt;world</title>
<path fill="none" stroke="black" d="M467.63,-143.67C513.22,-119.02 593.16,-76.32 607.75,-72 683.2,-49.68 890.13,-33.92 1024.81,-25.66"/>
<polygon fill="black" stroke="black" points="1024.71,-29.18 1034.48,-25.08 1024.29,-22.19 1024.71,-29.18"/>
</g>
<!-- parser -->
<g id="node18" class="node">
<title>parser</title>
<path fill="none" stroke="black" d="M125.5,-108C125.5,-108 12,-108 12,-108 6,-108 0,-102 0,-96 0,-96 0,-84 0,-84 0,-78 6,-72 12,-72 12,-72 125.5,-72 125.5,-72 131.5,-72 137.5,-78 137.5,-84 137.5,-84 137.5,-96 137.5,-96 137.5,-102 131.5,-108 125.5,-108"/>
<text xml:space="preserve" text-anchor="middle" x="68.75" y="-85.33" font-family="Times,serif" font-size="14.00">parser::Direction</text>
</g>
<!-- mock&#45;&gt;parser -->
<g id="edge10" class="edge">
<title>mock&#45;&gt;parser</title>
<path fill="none" stroke="black" d="M334.92,-143.51C282.02,-134.11 215.87,-122 149.13,-108.65"/>
<polygon fill="black" stroke="black" points="149.96,-105.25 139.47,-106.71 148.58,-112.11 149.96,-105.25"/>
</g>
<!-- params -->
<g id="node9" class="node">
<title>params</title>
<path fill="none" stroke="black" d="M626.88,-36C626.88,-36 398.62,-36 398.62,-36 392.62,-36 386.62,-30 386.62,-24 386.62,-24 386.62,-12 386.62,-12 386.62,-6 392.62,0 398.62,0 398.62,0 626.88,0 626.88,0 632.88,0 638.88,-6 638.88,-12 638.88,-12 638.88,-24 638.88,-24 638.88,-30 632.88,-36 626.88,-36"/>
<text xml:space="preserve" text-anchor="middle" x="512.75" y="-13.32" font-family="Times,serif" font-size="14.00">MockSizeParams parse from_env</text>
</g>
<!-- sized&#45;&gt;params -->
<g id="edge11" class="edge">
<title>sized&#45;&gt;params</title>
<path fill="none" stroke="black" d="M454.78,-71.7C463.95,-63.37 475.1,-53.22 485.18,-44.07"/>
<polygon fill="black" stroke="black" points="487.5,-46.68 492.55,-37.37 482.79,-41.5 487.5,-46.68"/>
</g>
<!-- mock_gen&#45;&gt;params -->
<g id="edge12" class="edge">
<title>mock_gen&#45;&gt;params</title>
<path fill="none" stroke="black" d="M929.95,-156.08C827.84,-149.1 663.16,-134.17 607.75,-108 577.31,-93.63 550.13,-65.85 532.72,-45.13"/>
<polygon fill="black" stroke="black" points="535.64,-43.18 526.61,-37.64 530.22,-47.6 535.64,-43.18"/>
</g>
<!-- presets -->
<g id="node10" class="node">
<title>presets</title>
<path fill="none" stroke="black" d="M921.12,-108C921.12,-108 628.38,-108 628.38,-108 622.38,-108 616.38,-102 616.38,-96 616.38,-96 616.38,-84 616.38,-84 616.38,-78 622.38,-72 628.38,-72 628.38,-72 921.12,-72 921.12,-72 927.12,-72 933.12,-78 933.12,-84 933.12,-84 933.12,-96 933.12,-96 933.12,-102 927.12,-108 921.12,-108"/>
<text xml:space="preserve" text-anchor="middle" x="774.75" y="-85.33" font-family="Times,serif" font-size="14.00">MockSizePreset small medium large huge</text>
</g>
<!-- mock_gen&#45;&gt;presets -->
<g id="edge13" class="edge">
<title>mock_gen&#45;&gt;presets</title>
<path fill="none" stroke="black" d="M954.81,-143.52C921.61,-133.83 880.14,-121.74 845.38,-111.6"/>
<polygon fill="black" stroke="black" points="846.38,-108.25 835.8,-108.81 844.42,-114.97 846.38,-108.25"/>
</g>
<!-- rng -->
<g id="node11" class="node">
<title>rng</title>
<path fill="none" stroke="black" d="M1066.62,-108C1066.62,-108 962.88,-108 962.88,-108 956.88,-108 950.88,-102 950.88,-96 950.88,-96 950.88,-84 950.88,-84 950.88,-78 956.88,-72 962.88,-72 962.88,-72 1066.62,-72 1066.62,-72 1072.62,-72 1078.62,-78 1078.62,-84 1078.62,-84 1078.62,-96 1078.62,-96 1078.62,-102 1072.62,-108 1066.62,-108"/>
<text xml:space="preserve" text-anchor="middle" x="1014.75" y="-85.33" font-family="Times,serif" font-size="14.00">SplitMix64 Rng</text>
</g>
<!-- mock_gen&#45;&gt;rng -->
<g id="edge14" class="edge">
<title>mock_gen&#45;&gt;rng</title>
<path fill="none" stroke="black" d="M1014.75,-143.7C1014.75,-136.41 1014.75,-127.73 1014.75,-119.54"/>
<polygon fill="black" stroke="black" points="1018.25,-119.62 1014.75,-109.62 1011.25,-119.62 1018.25,-119.62"/>
</g>
<!-- gen_world -->
<g id="node12" class="node">
<title>gen_world</title>
<path fill="none" stroke="black" d="M1211.25,-108C1211.25,-108 1108.25,-108 1108.25,-108 1102.25,-108 1096.25,-102 1096.25,-96 1096.25,-96 1096.25,-84 1096.25,-84 1096.25,-78 1102.25,-72 1108.25,-72 1108.25,-72 1211.25,-72 1211.25,-72 1217.25,-72 1223.25,-78 1223.25,-84 1223.25,-84 1223.25,-96 1223.25,-96 1223.25,-102 1217.25,-108 1211.25,-108"/>
<text xml:space="preserve" text-anchor="middle" x="1159.75" y="-85.33" font-family="Times,serif" font-size="14.00">generate_world</text>
</g>
<!-- mock_gen&#45;&gt;gen_world -->
<g id="edge15" class="edge">
<title>mock_gen&#45;&gt;gen_world</title>
<path fill="none" stroke="black" d="M1050.97,-143.52C1069.89,-134.38 1093.27,-123.09 1113.5,-113.33"/>
<polygon fill="black" stroke="black" points="1114.9,-116.54 1122.38,-109.04 1111.85,-110.24 1114.9,-116.54"/>
</g>
<!-- fake_runner -->
<g id="node13" class="node">
<title>fake_runner</title>
<path fill="none" stroke="black" d="M1398.62,-108C1398.62,-108 1252.88,-108 1252.88,-108 1246.88,-108 1240.88,-102 1240.88,-96 1240.88,-96 1240.88,-84 1240.88,-84 1240.88,-78 1246.88,-72 1252.88,-72 1252.88,-72 1398.62,-72 1398.62,-72 1404.62,-72 1410.62,-78 1410.62,-84 1410.62,-84 1410.62,-96 1410.62,-96 1410.62,-102 1404.62,-108 1398.62,-108"/>
<text xml:space="preserve" text-anchor="middle" x="1325.75" y="-85.33" font-family="Times,serif" font-size="14.00">fake_runner for crawl</text>
</g>
<!-- mock_gen&#45;&gt;fake_runner -->
<g id="edge16" class="edge">
<title>mock_gen&#45;&gt;fake_runner</title>
<path fill="none" stroke="black" d="M1092.43,-143.52C1136.39,-133.62 1191.53,-121.21 1237.17,-110.94"/>
<polygon fill="black" stroke="black" points="1237.79,-114.39 1246.78,-108.77 1236.25,-107.56 1237.79,-114.39"/>
</g>
<!-- gen_world&#45;&gt;world -->
<g id="edge17" class="edge">
<title>gen_world&#45;&gt;world</title>
<path fill="none" stroke="black" d="M1156.78,-71.7C1155.52,-64.32 1154.01,-55.52 1152.59,-47.25"/>
<polygon fill="black" stroke="black" points="1156.08,-46.86 1150.94,-37.6 1149.18,-48.04 1156.08,-46.86"/>
</g>
<!-- az_runner -->
<g id="node15" class="node">
<title>az_runner</title>
<path fill="none" stroke="black" d="M1386.62,-36C1386.62,-36 1288.88,-36 1288.88,-36 1282.88,-36 1276.88,-30 1276.88,-24 1276.88,-24 1276.88,-12 1276.88,-12 1276.88,-6 1282.88,0 1288.88,0 1288.88,0 1386.62,0 1386.62,0 1392.62,0 1398.62,-6 1398.62,-12 1398.62,-12 1398.62,-24 1398.62,-24 1398.62,-30 1392.62,-36 1386.62,-36"/>
<text xml:space="preserve" text-anchor="middle" x="1337.75" y="-13.32" font-family="Times,serif" font-size="14.00">AzRunner trait</text>
</g>
<!-- fake_runner&#45;&gt;az_runner -->
<g id="edge18" class="edge">
<title>fake_runner&#45;&gt;az_runner</title>
<path fill="none" stroke="black" d="M1328.72,-71.7C1329.98,-64.32 1331.49,-55.52 1332.91,-47.25"/>
<polygon fill="black" stroke="black" points="1336.32,-48.04 1334.56,-37.6 1329.42,-46.86 1336.32,-48.04"/>
</g>
<!-- az&#45;&gt;az_runner -->
<g id="edge19" class="edge">
<title>az&#45;&gt;az_runner</title>
<path fill="none" stroke="black" d="M1479.54,-71.52C1453.97,-62.04 1422.16,-50.26 1395.15,-40.26"/>
<polygon fill="black" stroke="black" points="1396.69,-37.1 1386.1,-36.91 1394.26,-43.66 1396.69,-37.1"/>
</g>
<!-- process_runner -->
<g id="node16" class="node">
<title>process_runner</title>
<path fill="none" stroke="black" d="M1546.38,-36C1546.38,-36 1429.12,-36 1429.12,-36 1423.12,-36 1417.12,-30 1417.12,-24 1417.12,-24 1417.12,-12 1417.12,-12 1417.12,-6 1423.12,0 1429.12,0 1429.12,0 1546.38,0 1546.38,0 1552.38,0 1558.38,-6 1558.38,-12 1558.38,-12 1558.38,-24 1558.38,-24 1558.38,-30 1552.38,-36 1546.38,-36"/>
<text xml:space="preserve" text-anchor="middle" x="1487.75" y="-13.32" font-family="Times,serif" font-size="14.00">ProcessAzRunner</text>
</g>
<!-- az&#45;&gt;process_runner -->
<g id="edge20" class="edge">
<title>az&#45;&gt;process_runner</title>
<path fill="none" stroke="black" d="M1517.11,-71.7C1512.81,-63.98 1507.65,-54.71 1502.86,-46.11"/>
<polygon fill="black" stroke="black" points="1505.94,-44.46 1498.02,-37.43 1499.83,-47.87 1505.94,-44.46"/>
</g>
<!-- az&#45;&gt;world -->
<g id="edge21" class="edge">
<title>az&#45;&gt;world</title>
<path fill="none" stroke="black" d="M1432.09,-71.52C1377.72,-61.48 1309.32,-48.84 1253.23,-38.48"/>
<polygon fill="black" stroke="black" points="1254.15,-35.09 1243.68,-36.72 1252.87,-41.98 1254.15,-35.09"/>
</g>
<!-- concurrency -->
<g id="node19" class="node">
<title>concurrency</title>
<path fill="none" stroke="black" d="M1794.62,-36C1794.62,-36 1588.88,-36 1588.88,-36 1582.88,-36 1576.88,-30 1576.88,-24 1576.88,-24 1576.88,-12 1576.88,-12 1576.88,-6 1582.88,0 1588.88,0 1588.88,0 1794.62,0 1794.62,0 1800.62,0 1806.62,-6 1806.62,-12 1806.62,-12 1806.62,-24 1806.62,-24 1806.62,-30 1800.62,-36 1794.62,-36"/>
<text xml:space="preserve" text-anchor="middle" x="1691.75" y="-13.32" font-family="Times,serif" font-size="14.00">dungeon::concurrency backoff</text>
</g>
<!-- az&#45;&gt;concurrency -->
<g id="edge22" class="edge">
<title>az&#45;&gt;concurrency</title>
<path fill="none" stroke="black" d="M1567.96,-71.52C1589.9,-62.21 1617.08,-50.68 1640.38,-40.79"/>
<polygon fill="black" stroke="black" points="1641.55,-44.1 1649.39,-36.97 1638.81,-37.66 1641.55,-44.1"/>
</g>
<!-- secrets -->
<g id="node20" class="node">
<title>secrets</title>
<path fill="none" stroke="black" d="M1929,-36C1929,-36 1836.5,-36 1836.5,-36 1830.5,-36 1824.5,-30 1824.5,-24 1824.5,-24 1824.5,-12 1824.5,-12 1824.5,-6 1830.5,0 1836.5,0 1836.5,0 1929,0 1929,0 1935,0 1941,-6 1941,-12 1941,-12 1941,-24 1941,-24 1941,-30 1935,-36 1929,-36"/>
<text xml:space="preserve" text-anchor="middle" x="1882.75" y="-13.32" font-family="Times,serif" font-size="14.00">secrets::scrub</text>
</g>
<!-- az&#45;&gt;secrets -->
<g id="edge23" class="edge">
<title>az&#45;&gt;secrets</title>
<path fill="none" stroke="black" d="M1625.39,-72.6C1678.56,-63.36 1745.5,-51.08 1813.43,-36.44"/>
<polygon fill="black" stroke="black" points="1813.83,-39.93 1822.86,-34.39 1812.34,-33.09 1813.83,-39.93"/>
</g>
</g>
</svg>
