<?xml version="1.0" encoding="UTF-8" standalone="no"?>
<!DOCTYPE svg PUBLIC "-//W3C//DTD SVG 1.1//EN"
 "http://www.w3.org/Graphics/SVG/1.1/DTD/svg11.dtd">
<!-- Generated by graphviz version 14.1.2 (0)
 -->
<!-- Title: service_components_dungeon Pages: 1 -->
<svg width="2201pt" height="357pt"
 viewBox="0.00 0.00 2201.00 357.00" xmlns="http://www.w3.org/2000/svg" xmlns:xlink="http://www.w3.org/1999/xlink">
<g id="graph0" class="graph" transform="scale(1 1) rotate(0) translate(4 353.25)">
<title>service_components_dungeon</title>
<polygon fill="white" stroke="none" points="-4,4 -4,-353.25 2196.5,-353.25 2196.5,4 -4,4"/>
<text xml:space="preserve" text-anchor="middle" x="1096.25" y="-331.95" font-family="Times,serif" font-size="14.00">service&#45;components dungeon</text>
<!-- dungeon_mod -->
<g id="node1" class="node">
<title>dungeon_mod</title>
<path fill="none" stroke="black" d="M1070.75,-324C1070.75,-324 937,-324 937,-324 931,-324 925,-318 925,-312 925,-312 925,-300 925,-300 925,-294 931,-288 937,-288 937,-288 1070.75,-288 1070.75,-288 1076.75,-288 1082.75,-294 1082.75,-300 1082.75,-300 1082.75,-312 1082.75,-312 1082.75,-318 1076.75,-324 1070.75,-324"/>
<text xml:space="preserve" text-anchor="middle" x="1003.88" y="-301.32" font-family="Times,serif" font-size="14.00">src/dungeon/mod.rs</text>
</g>
<!-- cli -->
<g id="node2" class="node">
<title>cli</title>
<path fill="none" stroke="black" d="M968.38,-252C968.38,-252 817.38,-252 817.38,-252 811.38,-252 805.38,-246 805.38,-240 805.38,-240 805.38,-228 805.38,-228 805.38,-222 811.38,-216 817.38,-216 817.38,-216 968.38,-216 968.38,-216 974.38,-216 980.38,-222 980.38,-228 980.38,-228 980.38,-240 980.38,-240 980.38,-246 974.38,-252 968.38,-252"/>
<text xml:space="preserve" text-anchor="middle" x="892.88" y="-229.32" font-family="Times,serif" font-size="14.00">cli.rs CrawlArgs parse</text>
</g>
<!-- dungeon_mod&#45;&gt;cli -->
<g id="edge1" class="edge">
<title>dungeon_mod&#45;&gt;cli</title>
<path fill="none" stroke="black" d="M976.15,-287.52C962.14,-278.68 944.95,-267.84 929.83,-258.3"/>
<polygon fill="black" stroke="black" points="931.85,-255.44 921.53,-253.07 928.12,-261.36 931.85,-255.44"/>
</g>
<!-- map -->
<g id="node3" class="node">
<title>map</title>
<path fill="none" stroke="black" d="M920.88,-180C920.88,-180 652.88,-180 652.88,-180 646.88,-180 640.88,-174 640.88,-168 640.88,-168 640.88,-156 640.88,-156 640.88,-150 646.88,-144 652.88,-144 652.88,-144 920.88,-144 920.88,-144 926.88,-144 932.88,-150 932.88,-156 932.88,-156 932.88,-168 932.88,-168 932.88,-174 926.88,-180 920.88,-180"/>
<text xml:space="preserve" text-anchor="middle" x="786.88" y="-157.32" font-family="Times,serif" font-size="14.00">map.rs DungeonMap build_cancellable</text>
</g>
<!-- dungeon_mod&#45;&gt;map -->
<g id="edge2" class="edge">
<title>dungeon_mod&#45;&gt;map</title>
<path fill="none" stroke="black" d="M924.56,-294.14C873.58,-285.45 813.83,-271.49 796.88,-252 782.74,-235.76 780.97,-211.05 782.33,-191.78"/>
<polygon fill="black" stroke="black" points="785.81,-192.15 783.37,-181.84 778.85,-191.42 785.81,-192.15"/>
</g>
<!-- concurrency -->
<g id="node4" class="node">
<title>concurrency</title>
<path fill="none" stroke="black" d="M301.75,-108C301.75,-108 12,-108 12,-108 6,-108 0,-102 0,-96 0,-96 0,-84 0,-84 0,-78 6,-72 12,-72 12,-72 301.75,-72 301.75,-72 307.75,-72 313.75,-78 313.75,-84 313.75,-84 313.75,-96 313.75,-96 313.75,-102 307.75,-108 301.75,-108"/>
<text xml:space="preserve" text-anchor="middle" x="156.88" y="-85.33" font-family="Times,serif" font-size="14.00">concurrency.rs AimdLimiter throttle retry</text>
</g>
<!-- dungeon_mod&#45;&gt;concurrency -->
<g id="edge3" class="edge">
<title>dungeon_mod&#45;&gt;concurrency</title>
<path fill="none" stroke="black" d="M927.75,-287.51C884.11,-277.37 828.35,-264.23 778.88,-252 581.66,-203.25 350.24,-142.38 233.1,-111.31"/>
<polygon fill="black" stroke="black" points="234.15,-107.96 223.59,-108.78 232.36,-114.73 234.15,-107.96"/>
</g>
<!-- render -->
<g id="node5" class="node">
<title>render</title>
<path fill="none" stroke="black" d="M1764.12,-180C1764.12,-180 1521.62,-180 1521.62,-180 1515.62,-180 1509.62,-174 1509.62,-168 1509.62,-168 1509.62,-156 1509.62,-156 1509.62,-150 1515.62,-144 1521.62,-144 1521.62,-144 1764.12,-144 1764.12,-144 1770.12,-144 1776.12,-150 1776.12,-156 1776.12,-156 1776.12,-168 1776.12,-168 1776.12,-174 1770.12,-180 1764.12,-180"/>
<text xml:space="preserve" text-anchor="middle" x="1642.88" y="-157.32" font-family="Times,serif" font-size="14.00">render.rs render_html escape_html</text>
</g>
<!-- dungeon_mod&#45;&gt;render -->
<g id="edge4" class="edge">
<title>dungeon_mod&#45;&gt;render</title>
<path fill="none" stroke="black" d="M1082.93,-305.31C1265.3,-305.19 1703.28,-299.89 1747.88,-252 1758.78,-240.29 1756.26,-229.63 1747.88,-216 1739.87,-202.99 1727.57,-193.05 1714.17,-185.51"/>
<polygon fill="black" stroke="black" points="1716.11,-182.57 1705.61,-181.12 1712.91,-188.8 1716.11,-182.57"/>
</g>
<!-- server -->
<g id="node6" class="node">
<title>server</title>
<path fill="none" stroke="black" d="M1516.75,-252C1516.75,-252 1263,-252 1263,-252 1257,-252 1251,-246 1251,-240 1251,-240 1251,-228 1251,-228 1251,-222 1257,-216 1263,-216 1263,-216 1516.75,-216 1516.75,-216 1522.75,-216 1528.75,-222 1528.75,-228 1528.75,-228 1528.75,-240 1528.75,-240 1528.75,-246 1522.75,-252 1516.75,-252"/>
<text xml:space="preserve" text-anchor="middle" x="1389.88" y="-229.32" font-family="Times,serif" font-size="14.00">server.rs loopback HTTP route serve</text>
</g>
<!-- dungeon_mod&#45;&gt;server -->
<g id="edge5" class="edge">
<title>dungeon_mod&#45;&gt;server</title>
<path fill="none" stroke="black" d="M1082.92,-290.67C1140.45,-280.23 1219.03,-265.98 1282.28,-254.51"/>
<polygon fill="black" stroke="black" points="1282.8,-257.98 1292.01,-252.75 1281.55,-251.09 1282.8,-257.98"/>
</g>
<!-- diff -->
<g id="node7" class="node">
<title>diff</title>
<path fill="none" stroke="black" d="M1221.38,-252C1221.38,-252 1010.38,-252 1010.38,-252 1004.38,-252 998.38,-246 998.38,-240 998.38,-240 998.38,-228 998.38,-228 998.38,-222 1004.38,-216 1010.38,-216 1010.38,-216 1221.38,-216 1221.38,-216 1227.38,-216 1233.38,-222 1233.38,-228 1233.38,-228 1233.38,-240 1233.38,-240 1233.38,-246 1227.38,-252 1221.38,-252"/>
<text xml:space="preserve" text-anchor="middle" x="1115.88" y="-229.32" font-family="Times,serif" font-size="14.00">diff.rs diff_maps render_report</text>
</g>
<!-- dungeon_mod&#45;&gt;diff -->
<g id="edge6" class="edge">
<title>dungeon_mod&#45;&gt;diff</title>
<path fill="none" stroke="black" d="M1031.85,-287.52C1045.99,-278.68 1063.34,-267.84 1078.59,-258.3"/>
<polygon fill="black" stroke="black" points="1080.35,-261.33 1086.97,-253.06 1076.64,-255.39 1080.35,-261.33"/>
</g>
<!-- map&#45;&gt;concurrency -->
<g id="edge8" class="edge">
<title>map&#45;&gt;concurrency</title>
<path fill="none" stroke="black" d="M640.76,-144.76C546.52,-134.29 423.65,-120.64 325.31,-109.71"/>
<polygon fill="black" stroke="black" points="325.88,-106.26 315.55,-108.63 325.1,-113.21 325.88,-106.26"/>
</g>
<!-- icons -->
<g id="node10" class="node">
<title>icons</title>
<path fill="none" stroke="black" d="M860,-108C860,-108 751.75,-108 751.75,-108 745.75,-108 739.75,-102 739.75,-96 739.75,-96 739.75,-84 739.75,-84 739.75,-78 745.75,-72 751.75,-72 751.75,-72 860,-72 860,-72 866,-72 872,-78 872,-84 872,-84 872,-96 872,-96 872,-102 866,-108 860,-108"/>
<text xml:space="preserve" text-anchor="middle" x="805.88" y="-85.33" font-family="Times,serif" font-size="14.00">icons.rs icon_for</text>
</g>
<!-- map&#45;&gt;icons -->
<g id="edge9" class="edge">
<title>map&#45;&gt;icons</title>
<path fill="none" stroke="black" d="M791.57,-143.7C793.6,-136.24 796.02,-127.32 798.28,-118.97"/>
<polygon fill="black" stroke="black" points="801.59,-120.13 800.84,-109.57 794.84,-118.3 801.59,-120.13"/>
</g>
<!-- type_table -->
<g id="node14" class="node">
<title>type_table</title>
<path fill="none" stroke="black" d="M1355.75,-36C1355.75,-36 1096,-36 1096,-36 1090,-36 1084,-30 1084,-24 1084,-24 1084,-12 1084,-12 1084,-6 1090,0 1096,0 1096,0 1355.75,0 1355.75,0 1361.75,0 1367.75,-6 1367.75,-12 1367.75,-12 1367.75,-24 1367.75,-24 1367.75,-30 1361.75,-36 1355.75,-36"/>
<text xml:space="preserve" text-anchor="middle" x="1225.88" y="-13.32" font-family="Times,serif" font-size="14.00">type_table.rs resource type metadata</text>
</g>
<!-- map&#45;&gt;type_table -->
<g id="edge12" class="edge">
<title>map&#45;&gt;type_table</title>
<path fill="none" stroke="black" d="M933.11,-150.83C1046.11,-141.61 1186.6,-126.63 1206.88,-108 1223.26,-92.95 1227.37,-67.54 1227.75,-47.71"/>
<polygon fill="black" stroke="black" points="1231.25,-47.69 1227.6,-37.75 1224.25,-47.8 1231.25,-47.69"/>
</g>
<!-- validate -->
<g id="node15" class="node">
<title>validate</title>
<path fill="none" stroke="black" d="M1186.12,-108C1186.12,-108 901.62,-108 901.62,-108 895.62,-108 889.62,-102 889.62,-96 889.62,-96 889.62,-84 889.62,-84 889.62,-78 895.62,-72 901.62,-72 901.62,-72 1186.12,-72 1186.12,-72 1192.12,-72 1198.12,-78 1198.12,-84 1198.12,-84 1198.12,-96 1198.12,-96 1198.12,-102 1192.12,-108 1186.12,-108"/>
<text xml:space="preserve" text-anchor="middle" x="1043.88" y="-85.33" font-family="Times,serif" font-size="14.00">validate.rs resource id and RG validation</text>
</g>
<!-- map&#45;&gt;validate -->
<g id="edge10" class="edge">
<title>map&#45;&gt;validate</title>
<path fill="none" stroke="black" d="M851.06,-143.52C886.92,-133.75 931.78,-121.53 969.21,-111.34"/>
<polygon fill="black" stroke="black" points="969.87,-114.78 978.6,-108.78 968.03,-108.03 969.87,-114.78"/>
</g>
<!-- az_runner -->
<g id="node16" class="node">
<title>az_runner</title>
<path fill="none" stroke="black" d="M485.88,-108C485.88,-108 343.88,-108 343.88,-108 337.88,-108 331.88,-102 331.88,-96 331.88,-96 331.88,-84 331.88,-84 331.88,-78 337.88,-72 343.88,-72 343.88,-72 485.88,-72 485.88,-72 491.88,-72 497.88,-78 497.88,-84 497.88,-84 497.88,-96 497.88,-96 497.88,-102 491.88,-108 485.88,-108"/>
<text xml:space="preserve" text-anchor="middle" x="414.88" y="-85.33" font-family="Times,serif" font-size="14.00">az_runner::AzRunner</text>
</g>
<!-- map&#45;&gt;az_runner -->
<g id="edge7" class="edge">
<title>map&#45;&gt;az_runner</title>
<path fill="none" stroke="black" d="M693.96,-143.52C637.67,-132.92 566.06,-119.45 509.47,-108.8"/>
<polygon fill="black" stroke="black" points="510.32,-105.4 499.85,-106.99 509.03,-112.28 510.32,-105.4"/>
</g>
<!-- serde -->
<g id="node18" class="node">
<title>serde</title>
<path fill="none" stroke="black" d="M710.12,-108C710.12,-108 527.62,-108 527.62,-108 521.62,-108 515.62,-102 515.62,-96 515.62,-96 515.62,-84 515.62,-84 515.62,-78 521.62,-72 527.62,-72 527.62,-72 710.12,-72 710.12,-72 716.12,-72 722.12,-78 722.12,-84 722.12,-84 722.12,-96 722.12,-96 722.12,-102 716.12,-108 710.12,-108"/>
<text xml:space="preserve" text-anchor="middle" x="618.88" y="-85.33" font-family="Times,serif" font-size="14.00">serde Serialize Deserialize</text>
</g>
<!-- map&#45;&gt;serde -->
<g id="edge11" class="edge">
<title>map&#45;&gt;serde</title>
<path fill="none" stroke="black" d="M744.91,-143.52C722.58,-134.21 694.9,-122.68 671.18,-112.79"/>
<polygon fill="black" stroke="black" points="672.57,-109.58 661.99,-108.96 669.87,-116.04 672.57,-109.58"/>
</g>
<!-- links -->
<g id="node9" class="node">
<title>links</title>
<path fill="none" stroke="black" d="M1454.25,-108C1454.25,-108 1335.5,-108 1335.5,-108 1329.5,-108 1323.5,-102 1323.5,-96 1323.5,-96 1323.5,-84 1323.5,-84 1323.5,-78 1329.5,-72 1335.5,-72 1335.5,-72 1454.25,-72 1454.25,-72 1460.25,-72 1466.25,-78 1466.25,-84 1466.25,-84 1466.25,-96 1466.25,-96 1466.25,-102 1460.25,-108 1454.25,-108"/>
<text xml:space="preserve" text-anchor="middle" x="1394.88" y="-85.33" font-family="Times,serif" font-size="14.00">links.rs portal_url</text>
</g>
<!-- render&#45;&gt;links -->
<g id="edge14" class="edge">
<title>render&#45;&gt;links</title>
<path fill="none" stroke="black" d="M1580.93,-143.52C1546.48,-133.79 1503.41,-121.64 1467.39,-111.47"/>
<polygon fill="black" stroke="black" points="1468.49,-108.14 1457.91,-108.79 1466.59,-114.88 1468.49,-108.14"/>
</g>
<!-- icon_assets -->
<g id="node11" class="node">
<title>icon_assets</title>
<path fill="none" stroke="black" d="M2180.5,-108C2180.5,-108 1925.25,-108 1925.25,-108 1919.25,-108 1913.25,-102 1913.25,-96 1913.25,-96 1913.25,-84 1913.25,-84 1913.25,-78 1919.25,-72 1925.25,-72 1925.25,-72 2180.5,-72 2180.5,-72 2186.5,-72 2192.5,-78 2192.5,-84 2192.5,-84 2192.5,-96 2192.5,-96 2192.5,-102 2186.5,-108 2180.5,-108"/>
<text xml:space="preserve" text-anchor="middle" x="2052.88" y="-85.33" font-family="Times,serif" font-size="14.00">icon_assets.rs embedded SVG assets</text>
</g>
<!-- render&#45;&gt;icon_assets -->
<g id="edge15" class="edge">
<title>render&#45;&gt;icon_assets</title>
<path fill="none" stroke="black" d="M1745.28,-143.52C1804.34,-133.43 1878.7,-120.74 1939.52,-110.35"/>
<polygon fill="black" stroke="black" points="1939.95,-113.83 1949.22,-108.7 1938.77,-106.93 1939.95,-113.83"/>
</g>
<!-- decorations -->
<g id="node12" class="node">
<title>decorations</title>
<path fill="none" stroke="black" d="M1883,-108C1883,-108 1630.75,-108 1630.75,-108 1624.75,-108 1618.75,-102 1618.75,-96 1618.75,-96 1618.75,-84 1618.75,-84 1618.75,-78 1624.75,-72 1630.75,-72 1630.75,-72 1883,-72 1883,-72 1889,-72 1895,-78 1895,-84 1895,-84 1895,-96 1895,-96 1895,-102 1889,-108 1883,-108"/>
<text xml:space="preserve" text-anchor="middle" x="1756.88" y="-85.33" font-family="Times,serif" font-size="14.00">decorations.rs decorative placement</text>
</g>
<!-- render&#45;&gt;decorations -->
<g id="edge13" class="edge">
<title>render&#45;&gt;decorations</title>
<path fill="none" stroke="black" d="M1671.35,-143.52C1685.88,-134.6 1703.73,-123.63 1719.37,-114.03"/>
<polygon fill="black" stroke="black" points="1720.78,-117.27 1727.48,-109.05 1717.12,-111.3 1720.78,-117.27"/>
</g>
<!-- secrets -->
<g id="node17" class="node">
<title>secrets</title>
<path fill="none" stroke="black" d="M1589.12,-108C1589.12,-108 1496.62,-108 1496.62,-108 1490.62,-108 1484.62,-102 1484.62,-96 1484.62,-96 1484.62,-84 1484.62,-84 1484.62,-78 1490.62,-72 1496.62,-72 1496.62,-72 1589.12,-72 1589.12,-72 1595.12,-72 1601.12,-78 1601.12,-84 1601.12,-84 1601.12,-96 1601.12,-96 1601.12,-102 1595.12,-108 1589.12,-108"/>
<text xml:space="preserve" text-anchor="middle" x="1542.88" y="-85.33" font-family="Times,serif" font-size="14.00">secrets::scrub</text>
</g>
<!-- render&#45;&gt;secrets -->
<g id="edge16" class="edge">
<title>render&#45;&gt;secrets</title>
<path fill="none" stroke="black" d="M1617.9,-143.52C1605.52,-134.85 1590.37,-124.25 1576.95,-114.85"/>
<polygon fill="black" stroke="black" points="1578.97,-112 1568.77,-109.13 1574.96,-117.73 1578.97,-112"/>
</g>
<!-- server&#45;&gt;render -->
<g id="edge17" class="edge">
<title>server&#45;&gt;render</title>
<path fill="none" stroke="black" d="M1453.06,-215.52C1488.37,-205.75 1532.53,-193.53 1569.37,-183.34"/>
<polygon fill="black" stroke="black" points="1569.89,-186.83 1578.59,-180.79 1568.02,-180.08 1569.89,-186.83"/>
</g>
<!-- commands -->
<g id="node8" class="node">
<title>commands</title>
<path fill="none" stroke="black" d="M1364.12,-180C1364.12,-180 1115.62,-180 1115.62,-180 1109.62,-180 1103.62,-174 1103.62,-168 1103.62,-168 1103.62,-156 1103.62,-156 1103.62,-150 1109.62,-144 1115.62,-144 1115.62,-144 1364.12,-144 1364.12,-144 1370.12,-144 1376.12,-150 1376.12,-156 1376.12,-156 1376.12,-168 1376.12,-168 1376.12,-174 1370.12,-180 1364.12,-180"/>
<text xml:space="preserve" text-anchor="middle" x="1239.88" y="-157.32" font-family="Times,serif" font-size="14.00">commands.rs suggested_commands</text>
</g>
<!-- server&#45;&gt;commands -->
<g id="edge19" class="edge">
<title>server&#45;&gt;commands</title>
<path fill="none" stroke="black" d="M1352.41,-215.52C1332.74,-206.34 1308.42,-194.99 1287.44,-185.2"/>
<polygon fill="black" stroke="black" points="1289.04,-182.08 1278.49,-181.02 1286.07,-188.42 1289.04,-182.08"/>
</g>
<!-- server&#45;&gt;links -->
<g id="edge18" class="edge">
<title>server&#45;&gt;links</title>
<path fill="none" stroke="black" d="M1390.49,-215.59C1391.33,-191.61 1392.86,-148.14 1393.87,-119.42"/>
<polygon fill="black" stroke="black" points="1397.37,-119.74 1394.22,-109.62 1390.37,-119.49 1397.37,-119.74"/>
</g>
<!-- server&#45;&gt;secrets -->
<g id="edge20" class="edge">
<title>server&#45;&gt;secrets</title>
<path fill="none" stroke="black" d="M1408.64,-215.59C1435.62,-190.54 1485.53,-144.22 1516.3,-115.66"/>
<polygon fill="black" stroke="black" points="1518.38,-118.51 1523.33,-109.14 1513.62,-113.38 1518.38,-118.51"/>
</g>
<!-- diff&#45;&gt;map -->
<g id="edge21" class="edge">
<title>diff&#45;&gt;map</title>
<path fill="none" stroke="black" d="M1033.7,-215.52C987,-205.58 928.37,-193.1 879.97,-182.81"/>
<polygon fill="black" stroke="black" points="880.84,-179.42 870.33,-180.76 879.39,-186.26 880.84,-179.42"/>
</g>
<!-- commands&#45;&gt;type_table -->
<g id="edge22" class="edge">
<title>commands&#45;&gt;type_table</title>
<path fill="none" stroke="black" d="M1241.2,-143.52C1242.25,-125.51 1243.08,-96.67 1239.88,-72 1238.82,-63.88 1236.9,-55.24 1234.8,-47.34"/>
<polygon fill="black" stroke="black" points="1238.22,-46.55 1232.11,-37.9 1231.49,-48.47 1238.22,-46.55"/>
</g>
<!-- icons&#45;&gt;type_table -->
<g id="edge23" class="edge">
<title>icons&#45;&gt;type_table</title>
<path fill="none" stroke="black" d="M872.48,-73.65C875.31,-73.07 878.12,-72.52 880.88,-72 948.27,-59.2 1023.52,-47.36 1086.5,-38.13"/>
<polygon fill="black" stroke="black" points="1086.82,-41.62 1096.21,-36.71 1085.81,-34.69 1086.82,-41.62"/>
</g>
<!-- playwright -->
<g id="node13" class="node">
<title>playwright</title>
<path fill="none" stroke="black" d="M1727,-252C1727,-252 1558.75,-252 1558.75,-252 1552.75,-252 1546.75,-246 1546.75,-240 1546.75,-240 1546.75,-228 1546.75,-228 1546.75,-222 1552.75,-216 1558.75,-216 1558.75,-216 1727,-216 1727,-216 1733,-216 1739,-222 1739,-228 1739,-228 1739,-240 1739,-240 1739,-246 1733,-252 1727,-252"/>
<text xml:space="preserve" text-anchor="middle" x="1642.88" y="-229.32" font-family="Times,serif" font-size="14.00">playwright.rs try_render</text>
</g>
<!-- playwright&#45;&gt;render -->
<g id="edge24" class="edge">
<title>playwright&#45;&gt;render</title>
<path fill="none" stroke="black" d="M1642.88,-215.7C1642.88,-208.41 1642.88,-199.73 1642.88,-191.54"/>
<polygon fill="black" stroke="black" points="1646.38,-191.62 1642.88,-181.62 1639.38,-191.62 1646.38,-191.62"/>
</g>
</g>
</svg>
