<?xml version="1.0" encoding="UTF-8" standalone="no"?>
<!DOCTYPE svg PUBLIC "-//W3C//DTD SVG 1.1//EN"
 "http://www.w3.org/Graphics/SVG/1.1/DTD/svg11.dtd">
<!-- Generated by graphviz version 14.1.2 (0)
 -->
<!-- Title: service_components_memory Pages: 1 -->
<svg width="1676pt" height="357pt"
 viewBox="0.00 0.00 1676.00 357.00" xmlns="http://www.w3.org/2000/svg" xmlns:xlink="http://www.w3.org/1999/xlink">
<g id="graph0" class="graph" transform="scale(1 1) rotate(0) translate(4 353.25)">
<title>service_components_memory</title>
<polygon fill="white" stroke="none" points="-4,4 -4,-353.25 1671.62,-353.25 1671.62,4 -4,4"/>
<text xml:space="preserve" text-anchor="middle" x="833.81" y="-331.95" font-family="Times,serif" font-size="14.00">service&#45;components memory</text>
<!-- memory_mod -->
<g id="node1" class="node">
<title>memory_mod</title>
<path fill="none" stroke="black" d="M517.25,-324C517.25,-324 412.75,-324 412.75,-324 406.75,-324 400.75,-318 400.75,-312 400.75,-312 400.75,-300 400.75,-300 400.75,-294 406.75,-288 412.75,-288 412.75,-288 517.25,-288 517.25,-288 523.25,-288 529.25,-294 529.25,-300 529.25,-300 529.25,-312 529.25,-312 529.25,-318 523.25,-324 517.25,-324"/>
<text xml:space="preserve" text-anchor="middle" x="465" y="-301.32" font-family="Times,serif" font-size="14.00">memory/mod.rs</text>
</g>
<!-- gmem -->
<g id="node2" class="node">
<title>gmem</title>
<path fill="none" stroke="black" d="M512.75,-252C512.75,-252 417.25,-252 417.25,-252 411.25,-252 405.25,-246 405.25,-240 405.25,-240 405.25,-228 405.25,-228 405.25,-222 411.25,-216 417.25,-216 417.25,-216 512.75,-216 512.75,-216 518.75,-216 524.75,-222 524.75,-228 524.75,-228 524.75,-240 524.75,-240 524.75,-246 518.75,-252 512.75,-252"/>
<text xml:space="preserve" text-anchor="middle" x="465" y="-229.32" font-family="Times,serif" font-size="14.00">GraphMemory</text>
</g>
<!-- memory_mod&#45;&gt;gmem -->
<g id="edge1" class="edge">
<title>memory_mod&#45;&gt;gmem</title>
<path fill="none" stroke="black" d="M465,-287.7C465,-280.41 465,-271.73 465,-263.54"/>
<polygon fill="black" stroke="black" points="468.5,-263.62 465,-253.62 461.5,-263.62 468.5,-263.62"/>
</g>
<!-- mem_node -->
<g id="node3" class="node">
<title>mem_node</title>
<path fill="none" stroke="black" d="M308.38,-180C308.38,-180 219.62,-180 219.62,-180 213.62,-180 207.62,-174 207.62,-168 207.62,-168 207.62,-156 207.62,-156 207.62,-150 213.62,-144 219.62,-144 219.62,-144 308.38,-144 308.38,-144 314.38,-144 320.38,-150 320.38,-156 320.38,-156 320.38,-168 320.38,-168 320.38,-174 314.38,-180 308.38,-180"/>
<text xml:space="preserve" text-anchor="middle" x="264" y="-157.32" font-family="Times,serif" font-size="14.00">MemoryNode</text>
</g>
<!-- gmem&#45;&gt;mem_node -->
<g id="edge2" class="edge">
<title>gmem&#45;&gt;mem_node</title>
<path fill="none" stroke="black" d="M414.8,-215.52C387.47,-206 353.47,-194.16 324.67,-184.13"/>
<polygon fill="black" stroke="black" points="325.93,-180.86 315.34,-180.88 323.63,-187.47 325.93,-180.86"/>
</g>
<!-- mem_edge -->
<g id="node4" class="node">
<title>mem_edge</title>
<path fill="none" stroke="black" d="M42,-180C42,-180 12,-180 12,-180 6,-180 0,-174 0,-168 0,-168 0,-156 0,-156 0,-150 6,-144 12,-144 12,-144 42,-144 42,-144 48,-144 54,-150 54,-156 54,-156 54,-168 54,-168 54,-174 48,-180 42,-180"/>
<text xml:space="preserve" text-anchor="middle" x="27" y="-157.32" font-family="Times,serif" font-size="14.00">Edge</text>
</g>
<!-- gmem&#45;&gt;mem_edge -->
<g id="edge3" class="edge">
<title>gmem&#45;&gt;mem_edge</title>
<path fill="none" stroke="black" d="M404.89,-230.86C327.49,-226.85 189.13,-215.39 64.99,-180.05"/>
<polygon fill="black" stroke="black" points="66.21,-176.76 55.63,-177.32 64.25,-183.48 66.21,-176.76"/>
</g>
<!-- weights -->
<g id="node6" class="node">
<title>weights</title>
<path fill="none" stroke="black" d="M177.62,-180C177.62,-180 84.38,-180 84.38,-180 78.38,-180 72.38,-174 72.38,-168 72.38,-168 72.38,-156 72.38,-156 72.38,-150 78.38,-144 84.38,-144 84.38,-144 177.62,-144 177.62,-144 183.62,-144 189.62,-150 189.62,-156 189.62,-156 189.62,-168 189.62,-168 189.62,-174 183.62,-180 177.62,-180"/>
<text xml:space="preserve" text-anchor="middle" x="131" y="-157.32" font-family="Times,serif" font-size="14.00">RecallWeights</text>
</g>
<!-- gmem&#45;&gt;weights -->
<g id="edge5" class="edge">
<title>gmem&#45;&gt;weights</title>
<path fill="none" stroke="black" d="M404.87,-221.88C353.38,-212.16 276.98,-197.28 201.12,-180.42"/>
<polygon fill="black" stroke="black" points="201.93,-177.02 191.41,-178.25 200.4,-183.85 201.93,-177.02"/>
</g>
<!-- remember -->
<g id="node7" class="node">
<title>remember</title>
<path fill="none" stroke="black" d="M1312.38,-108C1312.38,-108 1073.62,-108 1073.62,-108 1067.62,-108 1061.62,-102 1061.62,-96 1061.62,-96 1061.62,-84 1061.62,-84 1061.62,-78 1067.62,-72 1073.62,-72 1073.62,-72 1312.38,-72 1312.38,-72 1318.38,-72 1324.38,-78 1324.38,-84 1324.38,-84 1324.38,-96 1324.38,-96 1324.38,-102 1318.38,-108 1312.38,-108"/>
<text xml:space="preserve" text-anchor="middle" x="1193" y="-85.33" font-family="Times,serif" font-size="14.00">remember scrubbed node creation</text>
</g>
<!-- gmem&#45;&gt;remember -->
<g id="edge6" class="edge">
<title>gmem&#45;&gt;remember</title>
<path fill="none" stroke="black" d="M510.1,-215.55C531.27,-206.4 556.32,-194.15 577,-180 596.2,-166.86 593.8,-153.59 615,-144 689.99,-110.07 904.66,-97.86 1050.19,-93.47"/>
<polygon fill="black" stroke="black" points="1050.02,-96.97 1059.91,-93.18 1049.81,-89.98 1050.02,-96.97"/>
</g>
<!-- recall -->
<g id="node14" class="node">
<title>recall</title>
<path fill="none" stroke="black" d="M724,-180C724,-180 636,-180 636,-180 630,-180 624,-174 624,-168 624,-168 624,-156 624,-156 624,-150 630,-144 636,-144 636,-144 724,-144 724,-144 730,-144 736,-150 736,-156 736,-156 736,-168 736,-168 736,-174 730,-180 724,-180"/>
<text xml:space="preserve" text-anchor="middle" x="680" y="-157.32" font-family="Times,serif" font-size="14.00">recall_ranked</text>
</g>
<!-- gmem&#45;&gt;recall -->
<g id="edge14" class="edge">
<title>gmem&#45;&gt;recall</title>
<path fill="none" stroke="black" d="M518.7,-215.52C548.18,-205.92 584.94,-193.95 615.92,-183.86"/>
<polygon fill="black" stroke="black" points="616.75,-187.27 625.17,-180.85 614.58,-180.62 616.75,-187.27"/>
</g>
<!-- summary -->
<g id="node15" class="node">
<title>summary</title>
<path fill="none" stroke="black" d="M556.38,-180C556.38,-180 497.62,-180 497.62,-180 491.62,-180 485.62,-174 485.62,-168 485.62,-168 485.62,-156 485.62,-156 485.62,-150 491.62,-144 497.62,-144 497.62,-144 556.38,-144 556.38,-144 562.38,-144 568.38,-150 568.38,-156 568.38,-156 568.38,-168 568.38,-168 568.38,-174 562.38,-180 556.38,-180"/>
<text xml:space="preserve" text-anchor="middle" x="527" y="-157.32" font-family="Times,serif" font-size="14.00">summary</text>
</g>
<!-- gmem&#45;&gt;summary -->
<g id="edge15" class="edge">
<title>gmem&#45;&gt;summary</title>
<path fill="none" stroke="black" d="M480.33,-215.7C487.53,-207.56 496.28,-197.69 504.24,-188.7"/>
<polygon fill="black" stroke="black" points="506.84,-191.04 510.85,-181.24 501.6,-186.4 506.84,-191.04"/>
</g>
<!-- save -->
<g id="node16" class="node">
<title>save</title>
<path fill="none" stroke="black" d="M873.75,-180C873.75,-180 766.25,-180 766.25,-180 760.25,-180 754.25,-174 754.25,-168 754.25,-168 754.25,-156 754.25,-156 754.25,-150 760.25,-144 766.25,-144 766.25,-144 873.75,-144 873.75,-144 879.75,-144 885.75,-150 885.75,-156 885.75,-156 885.75,-168 885.75,-168 885.75,-174 879.75,-180 873.75,-180"/>
<text xml:space="preserve" text-anchor="middle" x="820" y="-157.32" font-family="Times,serif" font-size="14.00">save line format</text>
</g>
<!-- gmem&#45;&gt;save -->
<g id="edge16" class="edge">
<title>gmem&#45;&gt;save</title>
<path fill="none" stroke="black" d="M525.2,-222.25C579.55,-212.4 661.98,-197.1 742.89,-180.4"/>
<polygon fill="black" stroke="black" points="743.21,-183.91 752.29,-178.45 741.79,-177.06 743.21,-183.91"/>
</g>
<!-- load -->
<g id="node17" class="node">
<title>load</title>
<path fill="none" stroke="black" d="M455.62,-180C455.62,-180 350.38,-180 350.38,-180 344.38,-180 338.38,-174 338.38,-168 338.38,-168 338.38,-156 338.38,-156 338.38,-150 344.38,-144 350.38,-144 350.38,-144 455.62,-144 455.62,-144 461.62,-144 467.62,-150 467.62,-156 467.62,-156 467.62,-168 467.62,-168 467.62,-174 461.62,-180 455.62,-180"/>
<text xml:space="preserve" text-anchor="middle" x="403" y="-157.32" font-family="Times,serif" font-size="14.00">load line format</text>
</g>
<!-- gmem&#45;&gt;load -->
<g id="edge17" class="edge">
<title>gmem&#45;&gt;load</title>
<path fill="none" stroke="black" d="M449.67,-215.7C442.47,-207.56 433.72,-197.69 425.76,-188.7"/>
<polygon fill="black" stroke="black" points="428.4,-186.4 419.15,-181.24 423.16,-191.04 428.4,-186.4"/>
</g>
<!-- kind -->
<g id="node5" class="node">
<title>kind</title>
<path fill="none" stroke="black" d="M306.12,-108C306.12,-108 221.88,-108 221.88,-108 215.88,-108 209.88,-102 209.88,-96 209.88,-96 209.88,-84 209.88,-84 209.88,-78 215.88,-72 221.88,-72 221.88,-72 306.12,-72 306.12,-72 312.12,-72 318.12,-78 318.12,-84 318.12,-84 318.12,-96 318.12,-96 318.12,-102 312.12,-108 306.12,-108"/>
<text xml:space="preserve" text-anchor="middle" x="264" y="-85.33" font-family="Times,serif" font-size="14.00">MemoryKind</text>
</g>
<!-- mem_node&#45;&gt;kind -->
<g id="edge4" class="edge">
<title>mem_node&#45;&gt;kind</title>
<path fill="none" stroke="black" d="M264,-143.7C264,-136.41 264,-127.73 264,-119.54"/>
<polygon fill="black" stroke="black" points="267.5,-119.62 264,-109.62 260.5,-119.62 267.5,-119.62"/>
</g>
<!-- secrets -->
<g id="node19" class="node">
<title>secrets</title>
<path fill="none" stroke="black" d="M1239.25,-36C1239.25,-36 1146.75,-36 1146.75,-36 1140.75,-36 1134.75,-30 1134.75,-24 1134.75,-24 1134.75,-12 1134.75,-12 1134.75,-6 1140.75,0 1146.75,0 1146.75,0 1239.25,0 1239.25,0 1245.25,0 1251.25,-6 1251.25,-12 1251.25,-12 1251.25,-24 1251.25,-24 1251.25,-30 1245.25,-36 1239.25,-36"/>
<text xml:space="preserve" text-anchor="middle" x="1193" y="-13.32" font-family="Times,serif" font-size="14.00">secrets::scrub</text>
</g>
<!-- remember&#45;&gt;secrets -->
<g id="edge7" class="edge">
<title>remember&#45;&gt;secrets</title>
<path fill="none" stroke="black" d="M1193,-71.7C1193,-64.41 1193,-55.73 1193,-47.54"/>
<polygon fill="black" stroke="black" points="1196.5,-47.62 1193,-37.62 1189.5,-47.62 1196.5,-47.62"/>
</g>
<!-- record_intent -->
<g id="node8" class="node">
<title>record_intent</title>
<path fill="none" stroke="black" d="M1478,-180C1478,-180 1390,-180 1390,-180 1384,-180 1378,-174 1378,-168 1378,-168 1378,-156 1378,-156 1378,-150 1384,-144 1390,-144 1390,-144 1478,-144 1478,-144 1484,-144 1490,-150 1490,-156 1490,-156 1490,-168 1490,-168 1490,-174 1484,-180 1478,-180"/>
<text xml:space="preserve" text-anchor="middle" x="1434" y="-157.32" font-family="Times,serif" font-size="14.00">record_intent</text>
</g>
<!-- record_intent&#45;&gt;remember -->
<g id="edge8" class="edge">
<title>record_intent&#45;&gt;remember</title>
<path fill="none" stroke="black" d="M1377.8,-144.68C1343.89,-134.83 1300.38,-122.19 1264.09,-111.65"/>
<polygon fill="black" stroke="black" points="1265.12,-108.3 1254.54,-108.87 1263.16,-115.02 1265.12,-108.3"/>
</g>
<!-- record_friction -->
<g id="node9" class="node">
<title>record_friction</title>
<path fill="none" stroke="black" d="M1012.5,-180C1012.5,-180 915.5,-180 915.5,-180 909.5,-180 903.5,-174 903.5,-168 903.5,-168 903.5,-156 903.5,-156 903.5,-150 909.5,-144 915.5,-144 915.5,-144 1012.5,-144 1012.5,-144 1018.5,-144 1024.5,-150 1024.5,-156 1024.5,-156 1024.5,-168 1024.5,-168 1024.5,-174 1018.5,-180 1012.5,-180"/>
<text xml:space="preserve" text-anchor="middle" x="964" y="-157.32" font-family="Times,serif" font-size="14.00">record_friction</text>
</g>
<!-- record_friction&#45;&gt;remember -->
<g id="edge9" class="edge">
<title>record_friction&#45;&gt;remember</title>
<path fill="none" stroke="black" d="M1021.2,-143.52C1052.74,-133.88 1092.09,-121.84 1125.18,-111.73"/>
<polygon fill="black" stroke="black" points="1126.15,-115.09 1134.69,-108.82 1124.1,-108.4 1126.15,-115.09"/>
</g>
<!-- remember_room -->
<g id="node10" class="node">
<title>remember_room</title>
<path fill="none" stroke="black" d="M1163.88,-180C1163.88,-180 1054.12,-180 1054.12,-180 1048.12,-180 1042.12,-174 1042.12,-168 1042.12,-168 1042.12,-156 1042.12,-156 1042.12,-150 1048.12,-144 1054.12,-144 1054.12,-144 1163.88,-144 1163.88,-144 1169.88,-144 1175.88,-150 1175.88,-156 1175.88,-156 1175.88,-168 1175.88,-168 1175.88,-174 1169.88,-180 1163.88,-180"/>
<text xml:space="preserve" text-anchor="middle" x="1109" y="-157.32" font-family="Times,serif" font-size="14.00">remember_room</text>
</g>
<!-- remember_room&#45;&gt;remember -->
<g id="edge10" class="edge">
<title>remember_room&#45;&gt;remember</title>
<path fill="none" stroke="black" d="M1129.76,-143.7C1139.96,-135.2 1152.42,-124.81 1163.58,-115.51"/>
<polygon fill="black" stroke="black" points="1165.58,-118.41 1171.02,-109.32 1161.1,-113.03 1165.58,-118.41"/>
</g>
<!-- remember_resource -->
<g id="node11" class="node">
<title>remember_resource</title>
<path fill="none" stroke="black" d="M1655.62,-180C1655.62,-180 1520.38,-180 1520.38,-180 1514.38,-180 1508.38,-174 1508.38,-168 1508.38,-168 1508.38,-156 1508.38,-156 1508.38,-150 1514.38,-144 1520.38,-144 1520.38,-144 1655.62,-144 1655.62,-144 1661.62,-144 1667.62,-150 1667.62,-156 1667.62,-156 1667.62,-168 1667.62,-168 1667.62,-174 1661.62,-180 1655.62,-180"/>
<text xml:space="preserve" text-anchor="middle" x="1588" y="-157.32" font-family="Times,serif" font-size="14.00">remember_resource</text>
</g>
<!-- remember_resource&#45;&gt;remember -->
<g id="edge11" class="edge">
<title>remember_resource&#45;&gt;remember</title>
<path fill="none" stroke="black" d="M1507.96,-145.64C1504.93,-145.09 1501.94,-144.54 1499,-144 1435.84,-132.5 1365.25,-120.23 1307.79,-110.4"/>
<polygon fill="black" stroke="black" points="1308.41,-106.96 1297.97,-108.72 1307.24,-113.86 1308.41,-106.96"/>
</g>
<!-- add_edge -->
<g id="node13" class="node">
<title>add_edge</title>
<path fill="none" stroke="black" d="M1617.75,-108C1617.75,-108 1558.25,-108 1558.25,-108 1552.25,-108 1546.25,-102 1546.25,-96 1546.25,-96 1546.25,-84 1546.25,-84 1546.25,-78 1552.25,-72 1558.25,-72 1558.25,-72 1617.75,-72 1617.75,-72 1623.75,-72 1629.75,-78 1629.75,-84 1629.75,-84 1629.75,-96 1629.75,-96 1629.75,-102 1623.75,-108 1617.75,-108"/>
<text xml:space="preserve" text-anchor="middle" x="1588" y="-85.33" font-family="Times,serif" font-size="14.00">add_edge</text>
</g>
<!-- remember_resource&#45;&gt;add_edge -->
<g id="edge12" class="edge">
<title>remember_resource&#45;&gt;add_edge</title>
<path fill="none" stroke="black" d="M1588,-143.7C1588,-136.41 1588,-127.73 1588,-119.54"/>
<polygon fill="black" stroke="black" points="1591.5,-119.62 1588,-109.62 1584.5,-119.62 1591.5,-119.62"/>
</g>
<!-- remember_cap -->
<g id="node12" class="node">
<title>remember_cap</title>
<path fill="none" stroke="black" d="M1348.38,-180C1348.38,-180 1205.62,-180 1205.62,-180 1199.62,-180 1193.62,-174 1193.62,-168 1193.62,-168 1193.62,-156 1193.62,-156 1193.62,-150 1199.62,-144 1205.62,-144 1205.62,-144 1348.38,-144 1348.38,-144 1354.38,-144 1360.38,-150 1360.38,-156 1360.38,-156 1360.38,-168 1360.38,-168 1360.38,-174 1354.38,-180 1348.38,-180"/>
<text xml:space="preserve" text-anchor="middle" x="1277" y="-157.32" font-family="Times,serif" font-size="14.00">remember_capability</text>
</g>
<!-- remember_cap&#45;&gt;remember -->
<g id="edge13" class="edge">
<title>remember_cap&#45;&gt;remember</title>
<path fill="none" stroke="black" d="M1256.24,-143.7C1246.04,-135.2 1233.58,-124.81 1222.42,-115.51"/>
<polygon fill="black" stroke="black" points="1224.9,-113.03 1214.98,-109.32 1220.42,-118.41 1224.9,-113.03"/>
</g>
<!-- path -->
<g id="node18" class="node">
<title>path</title>
<path fill="none" stroke="black" d="M694.25,-108C694.25,-108 547.75,-108 547.75,-108 541.75,-108 535.75,-102 535.75,-96 535.75,-96 535.75,-84 535.75,-84 535.75,-78 541.75,-72 547.75,-72 547.75,-72 694.25,-72 694.25,-72 700.25,-72 706.25,-78 706.25,-84 706.25,-84 706.25,-96 706.25,-96 706.25,-102 700.25,-108 694.25,-108"/>
<text xml:space="preserve" text-anchor="middle" x="621" y="-85.33" font-family="Times,serif" font-size="14.00">default_memory_path</text>
</g>
<!-- save&#45;&gt;path -->
<g id="edge18" class="edge">
<title>save&#45;&gt;path</title>
<path fill="none" stroke="black" d="M770.3,-143.52C743.25,-134 709.58,-122.16 681.06,-112.13"/>
<polygon fill="black" stroke="black" points="682.44,-108.9 671.84,-108.88 680.11,-115.5 682.44,-108.9"/>
</g>
<!-- load&#45;&gt;path -->
<g id="edge19" class="edge">
<title>load&#45;&gt;path</title>
<path fill="none" stroke="black" d="M457.45,-143.52C487.34,-133.92 524.62,-121.95 556.02,-111.86"/>
<polygon fill="black" stroke="black" points="556.98,-115.23 565.43,-108.84 554.84,-108.57 556.98,-115.23"/>
</g>
<!-- main_loop -->
<g id="node20" class="node">
<title>main_loop</title>
<path fill="none" stroke="black" d="M1089,-252C1089,-252 983,-252 983,-252 977,-252 971,-246 971,-240 971,-240 971,-228 971,-228 971,-222 977,-216 983,-216 983,-216 1089,-216 1089,-216 1095,-216 1101,-222 1101,-228 1101,-228 1101,-240 1101,-240 1101,-246 1095,-252 1089,-252"/>
<text xml:space="preserve" text-anchor="middle" x="1036" y="-229.32" font-family="Times,serif" font-size="14.00">main REPL loop</text>
</g>
<!-- main_loop&#45;&gt;record_intent -->
<g id="edge20" class="edge">
<title>main_loop&#45;&gt;record_intent</title>
<path fill="none" stroke="black" d="M1101.43,-224.52C1166.33,-215.67 1268.8,-200.53 1366.44,-180.43"/>
<polygon fill="black" stroke="black" points="1367.15,-183.86 1376.23,-178.39 1365.72,-177 1367.15,-183.86"/>
</g>
<!-- main_loop&#45;&gt;record_friction -->
<g id="edge23" class="edge">
<title>main_loop&#45;&gt;record_friction</title>
<path fill="none" stroke="black" d="M1018.2,-215.7C1009.72,-207.45 999.41,-197.43 990.07,-188.35"/>
<polygon fill="black" stroke="black" points="992.54,-185.86 982.93,-181.4 987.66,-190.88 992.54,-185.86"/>
</g>
<!-- main_loop&#45;&gt;remember_room -->
<g id="edge21" class="edge">
<title>main_loop&#45;&gt;remember_room</title>
<path fill="none" stroke="black" d="M1054.04,-215.7C1062.73,-207.37 1073.31,-197.22 1082.86,-188.07"/>
<polygon fill="black" stroke="black" points="1085.02,-190.84 1089.82,-181.39 1080.18,-185.79 1085.02,-190.84"/>
</g>
<!-- main_loop&#45;&gt;remember_resource -->
<g id="edge22" class="edge">
<title>main_loop&#45;&gt;remember_resource</title>
<path fill="none" stroke="black" d="M1101.38,-227.07C1189.04,-218.77 1349.74,-202.36 1496.97,-180.25"/>
<polygon fill="black" stroke="black" points="1497.14,-183.76 1506.5,-178.8 1496.09,-176.84 1497.14,-183.76"/>
</g>
<!-- main_loop&#45;&gt;recall -->
<g id="edge24" class="edge">
<title>main_loop&#45;&gt;recall</title>
<path fill="none" stroke="black" d="M970.71,-222.56C914.08,-213.18 829.72,-198.41 747.38,-180.44"/>
<polygon fill="black" stroke="black" points="748.3,-177.06 737.79,-178.33 746.8,-183.9 748.3,-177.06"/>
</g>
<!-- main_loop&#45;&gt;save -->
<g id="edge25" class="edge">
<title>main_loop&#45;&gt;save</title>
<path fill="none" stroke="black" d="M982.05,-215.52C952.43,-205.92 915.5,-193.95 884.38,-183.86"/>
<polygon fill="black" stroke="black" points="885.67,-180.6 875.07,-180.85 883.51,-187.26 885.67,-180.6"/>
</g>
</g>
</svg>
