<?xml version="1.0" encoding="UTF-8" standalone="no"?>
<!DOCTYPE svg PUBLIC "-//W3C//DTD SVG 1.1//EN"
 "http://www.w3.org/Graphics/SVG/1.1/DTD/svg11.dtd">
<!-- Generated by graphviz version 14.1.2 (0)
 -->
<!-- Title: service_components_capabilities Pages: 1 -->
<svg width="810pt" height="357pt"
 viewBox="0.00 0.00 810.00 357.00" xmlns="http://www.w3.org/2000/svg" xmlns:xlink="http://www.w3.org/1999/xlink">
<g id="graph0" class="graph" transform="scale(1 1) rotate(0) translate(4 353.25)">
<title>service_components_capabilities</title>
<polygon fill="white" stroke="none" points="-4,4 -4,-353.25 805.65,-353.25 805.65,4 -4,4"/>
<text xml:space="preserve" text-anchor="middle" x="400.82" y="-331.95" font-family="Times,serif" font-size="14.00">service&#45;components capabilities</text>
<!-- cap_mod -->
<g id="node1" class="node">
<title>cap_mod</title>
<path fill="none" stroke="black" d="M685.16,-324C685.16,-324 557.41,-324 557.41,-324 551.41,-324 545.41,-318 545.41,-312 545.41,-312 545.41,-300 545.41,-300 545.41,-294 551.41,-288 557.41,-288 557.41,-288 685.16,-288 685.16,-288 691.16,-288 697.16,-294 697.16,-300 697.16,-300 697.16,-312 697.16,-312 697.16,-318 691.16,-324 685.16,-324"/>
<text xml:space="preserve" text-anchor="middle" x="621.28" y="-301.32" font-family="Times,serif" font-size="14.00">capabilities/mod.rs</text>
</g>
<!-- capability -->
<g id="node2" class="node">
<title>capability</title>
<path fill="none" stroke="black" d="M759.28,-108C759.28,-108 647.28,-108 647.28,-108 641.28,-108 635.28,-102 635.28,-96 635.28,-96 635.28,-84 635.28,-84 635.28,-78 641.28,-72 647.28,-72 647.28,-72 759.28,-72 759.28,-72 765.28,-72 771.28,-78 771.28,-84 771.28,-84 771.28,-96 771.28,-96 771.28,-102 765.28,-108 759.28,-108"/>
<text xml:space="preserve" text-anchor="middle" x="703.28" y="-85.33" font-family="Times,serif" font-size="14.00">Capability struct</text>
</g>
<!-- cap_mod&#45;&gt;capability -->
<g id="edge1" class="edge">
<title>cap_mod&#45;&gt;capability</title>
<path fill="none" stroke="black" d="M697.62,-299.08C729.13,-292.42 762.79,-278.94 782.28,-252 810.42,-213.11 804.87,-186.35 782.28,-144 775.84,-131.93 765.31,-122.13 753.99,-114.38"/>
<polygon fill="black" stroke="black" points="755.99,-111.5 745.66,-109.16 752.28,-117.44 755.99,-111.5"/>
</g>
<!-- registry_mod -->
<g id="node3" class="node">
<title>registry_mod</title>
<path fill="none" stroke="black" d="M423.03,-252C423.03,-252 357.53,-252 357.53,-252 351.53,-252 345.53,-246 345.53,-240 345.53,-240 345.53,-228 345.53,-228 345.53,-222 351.53,-216 357.53,-216 357.53,-216 423.03,-216 423.03,-216 429.03,-216 435.03,-222 435.03,-228 435.03,-228 435.03,-240 435.03,-240 435.03,-246 429.03,-252 423.03,-252"/>
<text xml:space="preserve" text-anchor="middle" x="390.28" y="-229.32" font-family="Times,serif" font-size="14.00">registry.rs</text>
</g>
<!-- cap_mod&#45;&gt;registry_mod -->
<g id="edge2" class="edge">
<title>cap_mod&#45;&gt;registry_mod</title>
<path fill="none" stroke="black" d="M562.22,-287.54C530.4,-278.08 490.21,-266.05 446.29,-252.6"/>
<polygon fill="black" stroke="black" points="447.38,-249.27 436.79,-249.68 445.33,-255.96 447.38,-249.27"/>
</g>
<!-- derive_mod -->
<g id="node5" class="node">
<title>derive_mod</title>
<path fill="none" stroke="black" d="M502.16,-108C502.16,-108 446.41,-108 446.41,-108 440.41,-108 434.41,-102 434.41,-96 434.41,-96 434.41,-84 434.41,-84 434.41,-78 440.41,-72 446.41,-72 446.41,-72 502.16,-72 502.16,-72 508.16,-72 514.16,-78 514.16,-84 514.16,-84 514.16,-96 514.16,-96 514.16,-102 508.16,-108 502.16,-108"/>
<text xml:space="preserve" text-anchor="middle" x="474.28" y="-85.33" font-family="Times,serif" font-size="14.00">derive.rs</text>
</g>
<!-- cap_mod&#45;&gt;derive_mod -->
<g id="edge3" class="edge">
<title>cap_mod&#45;&gt;derive_mod</title>
<path fill="none" stroke="black" d="M653.03,-287.68C703.43,-258 791.91,-195.63 749.28,-144 735.15,-126.88 601.23,-107.22 525.62,-97.35"/>
<polygon fill="black" stroke="black" points="526.33,-93.91 515.96,-96.1 525.43,-100.85 526.33,-93.91"/>
</g>
<!-- autodiscover_mod -->
<g id="node8" class="node">
<title>autodiscover_mod</title>
<path fill="none" stroke="black" d="M565.66,-252C565.66,-252 464.91,-252 464.91,-252 458.91,-252 452.91,-246 452.91,-240 452.91,-240 452.91,-228 452.91,-228 452.91,-222 458.91,-216 464.91,-216 464.91,-216 565.66,-216 565.66,-216 571.66,-216 577.66,-222 577.66,-228 577.66,-228 577.66,-240 577.66,-240 577.66,-246 571.66,-252 565.66,-252"/>
<text xml:space="preserve" text-anchor="middle" x="515.28" y="-229.32" font-family="Times,serif" font-size="14.00">autodiscover.rs</text>
</g>
<!-- cap_mod&#45;&gt;autodiscover_mod -->
<g id="edge4" class="edge">
<title>cap_mod&#45;&gt;autodiscover_mod</title>
<path fill="none" stroke="black" d="M594.81,-287.52C581.55,-278.76 565.32,-268.04 550.98,-258.58"/>
<polygon fill="black" stroke="black" points="552.95,-255.68 542.68,-253.09 549.1,-261.53 552.95,-255.68"/>
</g>
<!-- registry -->
<g id="node4" class="node">
<title>registry</title>
<path fill="none" stroke="black" d="M240.03,-180C240.03,-180 114.53,-180 114.53,-180 108.53,-180 102.53,-174 102.53,-168 102.53,-168 102.53,-156 102.53,-156 102.53,-150 108.53,-144 114.53,-144 114.53,-144 240.03,-144 240.03,-144 246.03,-144 252.03,-150 252.03,-156 252.03,-156 252.03,-168 252.03,-168 252.03,-174 246.03,-180 240.03,-180"/>
<text xml:space="preserve" text-anchor="middle" x="177.28" y="-157.32" font-family="Times,serif" font-size="14.00">CapabilityRegistry</text>
</g>
<!-- registry_mod&#45;&gt;registry -->
<g id="edge5" class="edge">
<title>registry_mod&#45;&gt;registry</title>
<path fill="none" stroke="black" d="M345.11,-218.15C314.81,-208.2 274.45,-194.94 240.91,-183.91"/>
<polygon fill="black" stroke="black" points="242.31,-180.69 231.72,-180.89 240.13,-187.34 242.31,-180.69"/>
</g>
<!-- registry&#45;&gt;capability -->
<g id="edge8" class="edge">
<title>registry&#45;&gt;capability</title>
<path fill="none" stroke="black" d="M252.33,-145.5C255.35,-144.98 258.34,-144.47 261.28,-144 387.38,-123.71 534.86,-107.53 623.58,-98.61"/>
<polygon fill="black" stroke="black" points="623.79,-102.11 633.39,-97.63 623.09,-95.14 623.79,-102.11"/>
</g>
<!-- registry&#45;&gt;derive_mod -->
<g id="edge7" class="edge">
<title>registry&#45;&gt;derive_mod</title>
<path fill="none" stroke="black" d="M251.46,-143.52C304.95,-130.91 375.78,-114.22 423.08,-103.07"/>
<polygon fill="black" stroke="black" points="423.87,-106.48 432.8,-100.78 422.27,-99.66 423.87,-106.48"/>
</g>
<!-- cache -->
<g id="node14" class="node">
<title>cache</title>
<path fill="none" stroke="black" d="M249.78,-108C249.78,-108 104.78,-108 104.78,-108 98.78,-108 92.78,-102 92.78,-96 92.78,-96 92.78,-84 92.78,-84 92.78,-78 98.78,-72 104.78,-72 104.78,-72 249.78,-72 249.78,-72 255.78,-72 261.78,-78 261.78,-84 261.78,-84 261.78,-96 261.78,-96 261.78,-102 255.78,-108 249.78,-108"/>
<text xml:space="preserve" text-anchor="middle" x="177.28" y="-85.33" font-family="Times,serif" font-size="14.00">capabilities.tsv cache</text>
</g>
<!-- registry&#45;&gt;cache -->
<g id="edge6" class="edge">
<title>registry&#45;&gt;cache</title>
<path fill="none" stroke="black" d="M177.28,-143.7C177.28,-136.41 177.28,-127.73 177.28,-119.54"/>
<polygon fill="black" stroke="black" points="180.78,-119.62 177.28,-109.62 173.78,-119.62 180.78,-119.62"/>
</g>
<!-- help_entry -->
<g id="node6" class="node">
<title>help_entry</title>
<path fill="none" stroke="black" d="M196.41,-36C196.41,-36 130.16,-36 130.16,-36 124.16,-36 118.16,-30 118.16,-24 118.16,-24 118.16,-12 118.16,-12 118.16,-6 124.16,0 130.16,0 130.16,0 196.41,0 196.41,0 202.41,0 208.41,-6 208.41,-12 208.41,-12 208.41,-24 208.41,-24 208.41,-30 202.41,-36 196.41,-36"/>
<text xml:space="preserve" text-anchor="middle" x="163.28" y="-13.32" font-family="Times,serif" font-size="14.00">HelpEntry</text>
</g>
<!-- derive_mod&#45;&gt;help_entry -->
<g id="edge9" class="edge">
<title>derive_mod&#45;&gt;help_entry</title>
<path fill="none" stroke="black" d="M433.92,-81.99C385.25,-73.25 300.78,-57.16 219.74,-36.51"/>
<polygon fill="black" stroke="black" points="220.87,-33.19 210.32,-34.08 219.13,-39.97 220.87,-33.19"/>
</g>
<!-- parser_section -->
<g id="node7" class="node">
<title>parser_section</title>
<path fill="none" stroke="black" d="M504.16,-36C504.16,-36 238.41,-36 238.41,-36 232.41,-36 226.41,-30 226.41,-24 226.41,-24 226.41,-12 226.41,-12 226.41,-6 232.41,0 238.41,0 238.41,0 504.16,0 504.16,0 510.16,0 516.16,-6 516.16,-12 516.16,-12 516.16,-24 516.16,-24 516.16,-30 510.16,-36 504.16,-36"/>
<text xml:space="preserve" text-anchor="middle" x="371.28" y="-13.32" font-family="Times,serif" font-size="14.00">parse_section parse_entry split_status</text>
</g>
<!-- derive_mod&#45;&gt;parser_section -->
<g id="edge10" class="edge">
<title>derive_mod&#45;&gt;parser_section</title>
<path fill="none" stroke="black" d="M448.56,-71.52C435.68,-62.76 419.9,-52.04 405.97,-42.58"/>
<polygon fill="black" stroke="black" points="408.17,-39.84 397.93,-37.11 404.23,-45.63 408.17,-39.84"/>
</g>
<!-- az_runner -->
<g id="node12" class="node">
<title>az_runner</title>
<path fill="none" stroke="black" d="M608.16,-36C608.16,-36 546.41,-36 546.41,-36 540.41,-36 534.41,-30 534.41,-24 534.41,-24 534.41,-12 534.41,-12 534.41,-6 540.41,0 546.41,0 546.41,0 608.16,0 608.16,0 614.16,0 620.16,-6 620.16,-12 620.16,-12 620.16,-24 620.16,-24 620.16,-30 614.16,-36 608.16,-36"/>
<text xml:space="preserve" text-anchor="middle" x="577.28" y="-13.32" font-family="Times,serif" font-size="14.00">AzRunner</text>
</g>
<!-- derive_mod&#45;&gt;az_runner -->
<g id="edge11" class="edge">
<title>derive_mod&#45;&gt;az_runner</title>
<path fill="none" stroke="black" d="M500.01,-71.52C512.88,-62.76 528.66,-52.04 542.59,-42.58"/>
<polygon fill="black" stroke="black" points="544.33,-45.63 550.63,-37.11 540.39,-39.84 544.33,-45.63"/>
</g>
<!-- secrets -->
<g id="node13" class="node">
<title>secrets</title>
<path fill="none" stroke="black" d="M742.53,-36C742.53,-36 650.03,-36 650.03,-36 644.03,-36 638.03,-30 638.03,-24 638.03,-24 638.03,-12 638.03,-12 638.03,-6 644.03,0 650.03,0 650.03,0 742.53,0 742.53,0 748.53,0 754.53,-6 754.53,-12 754.53,-12 754.53,-24 754.53,-24 754.53,-30 748.53,-36 742.53,-36"/>
<text xml:space="preserve" text-anchor="middle" x="696.28" y="-13.32" font-family="Times,serif" font-size="14.00">secrets::scrub</text>
</g>
<!-- derive_mod&#45;&gt;secrets -->
<g id="edge12" class="edge">
<title>derive_mod&#45;&gt;secrets</title>
<path fill="none" stroke="black" d="M514.48,-76.32C546.67,-66.18 592.48,-51.73 630.06,-39.88"/>
<polygon fill="black" stroke="black" points="631,-43.25 639.49,-36.91 628.9,-36.58 631,-43.25"/>
</g>
<!-- autodiscover_mod&#45;&gt;registry -->
<g id="edge17" class="edge">
<title>autodiscover_mod&#45;&gt;registry</title>
<path fill="none" stroke="black" d="M452.59,-217.84C449.79,-217.21 447.01,-216.59 444.28,-216 366.77,-199.1 344.46,-196.43 263.63,-180.46"/>
<polygon fill="black" stroke="black" points="264.36,-177.03 253.87,-178.52 262.99,-183.9 264.36,-177.03"/>
</g>
<!-- autodiscover_mod&#45;&gt;derive_mod -->
<g id="edge16" class="edge">
<title>autodiscover_mod&#45;&gt;derive_mod</title>
<path fill="none" stroke="black" d="M507.12,-215.63C502.57,-205.43 497.07,-192.18 493.28,-180 487.1,-160.14 482.25,-137.18 479,-119.55"/>
<polygon fill="black" stroke="black" points="482.46,-119.03 477.27,-109.79 475.57,-120.25 482.46,-119.03"/>
</g>
<!-- group_result -->
<g id="node9" class="node">
<title>group_result</title>
<path fill="none" stroke="black" d="M596.28,-180C596.28,-180 514.28,-180 514.28,-180 508.28,-180 502.28,-174 502.28,-168 502.28,-168 502.28,-156 502.28,-156 502.28,-150 508.28,-144 514.28,-144 514.28,-144 596.28,-144 596.28,-144 602.28,-144 608.28,-150 608.28,-156 608.28,-156 608.28,-168 608.28,-168 608.28,-174 602.28,-180 596.28,-180"/>
<text xml:space="preserve" text-anchor="middle" x="555.28" y="-157.32" font-family="Times,serif" font-size="14.00">GroupResult</text>
</g>
<!-- autodiscover_mod&#45;&gt;group_result -->
<g id="edge13" class="edge">
<title>autodiscover_mod&#45;&gt;group_result</title>
<path fill="none" stroke="black" d="M525.17,-215.7C529.62,-207.9 534.99,-198.51 539.95,-189.83"/>
<polygon fill="black" stroke="black" points="542.83,-191.84 544.76,-181.42 536.76,-188.36 542.83,-191.84"/>
</g>
<!-- applied_group -->
<g id="node10" class="node">
<title>applied_group</title>
<path fill="none" stroke="black" d="M728.41,-180C728.41,-180 638.16,-180 638.16,-180 632.16,-180 626.16,-174 626.16,-168 626.16,-168 626.16,-156 626.16,-156 626.16,-150 632.16,-144 638.16,-144 638.16,-144 728.41,-144 728.41,-144 734.41,-144 740.41,-150 740.41,-156 740.41,-156 740.41,-168 740.41,-168 740.41,-174 734.41,-180 728.41,-180"/>
<text xml:space="preserve" text-anchor="middle" x="683.28" y="-157.32" font-family="Times,serif" font-size="14.00">AppliedGroup</text>
</g>
<!-- autodiscover_mod&#45;&gt;applied_group -->
<g id="edge14" class="edge">
<title>autodiscover_mod&#45;&gt;applied_group</title>
<path fill="none" stroke="black" d="M557.24,-215.52C579.58,-206.21 607.25,-194.68 630.98,-184.79"/>
<polygon fill="black" stroke="black" points="632.28,-188.04 640.17,-180.96 629.59,-181.58 632.28,-188.04"/>
</g>
<!-- env -->
<g id="node11" class="node">
<title>env</title>
<path fill="none" stroke="black" d="M434.16,-180C434.16,-180 282.41,-180 282.41,-180 276.41,-180 270.41,-174 270.41,-168 270.41,-168 270.41,-156 270.41,-156 270.41,-150 276.41,-144 282.41,-144 282.41,-144 434.16,-144 434.16,-144 440.16,-144 446.16,-150 446.16,-156 446.16,-156 446.16,-168 446.16,-168 446.16,-174 440.16,-180 434.16,-180"/>
<text xml:space="preserve" text-anchor="middle" x="358.28" y="-157.32" font-family="Times,serif" font-size="14.00">AUTODISCOVER_ENV</text>
</g>
<!-- autodiscover_mod&#45;&gt;env -->
<g id="edge15" class="edge">
<title>autodiscover_mod&#45;&gt;env</title>
<path fill="none" stroke="black" d="M476.07,-215.52C455.38,-206.29 429.8,-194.89 407.76,-185.06"/>
<polygon fill="black" stroke="black" points="409.21,-181.87 398.65,-181 406.36,-188.27 409.21,-181.87"/>
</g>
<!-- memory -->
<g id="node15" class="node">
<title>memory</title>
<path fill="none" stroke="black" d="M277.66,-252C277.66,-252 26.91,-252 26.91,-252 20.91,-252 14.91,-246 14.91,-240 14.91,-240 14.91,-228 14.91,-228 14.91,-222 20.91,-216 26.91,-216 26.91,-216 277.66,-216 277.66,-216 283.66,-216 289.66,-222 289.66,-228 289.66,-228 289.66,-240 289.66,-240 289.66,-246 283.66,-252 277.66,-252"/>
<text xml:space="preserve" text-anchor="middle" x="152.28" y="-229.32" font-family="Times,serif" font-size="14.00">GraphMemory remember_capability</text>
</g>
<!-- main_learn -->
<g id="node16" class="node">
<title>main_learn</title>
<path fill="none" stroke="black" d="M106.78,-324C106.78,-324 33.78,-324 33.78,-324 27.78,-324 21.78,-318 21.78,-312 21.78,-312 21.78,-300 21.78,-300 21.78,-294 27.78,-288 33.78,-288 33.78,-288 106.78,-288 106.78,-288 112.78,-288 118.78,-294 118.78,-300 118.78,-300 118.78,-312 118.78,-312 118.78,-318 112.78,-324 106.78,-324"/>
<text xml:space="preserve" text-anchor="middle" x="70.28" y="-301.32" font-family="Times,serif" font-size="14.00">main::learn</text>
</g>
<!-- main_learn&#45;&gt;registry -->
<g id="edge18" class="edge">
<title>main_learn&#45;&gt;registry</title>
<path fill="none" stroke="black" d="M39.18,-287.67C26.5,-278.81 13.22,-266.75 6.28,-252 -0.53,-237.52 -3.21,-228.88 6.28,-216 25.99,-189.25 59.06,-175.6 90.89,-168.78"/>
<polygon fill="black" stroke="black" points="91.42,-172.24 100.58,-166.92 90.1,-165.36 91.42,-172.24"/>
</g>
<!-- main_learn&#45;&gt;memory -->
<g id="edge19" class="edge">
<title>main_learn&#45;&gt;memory</title>
<path fill="none" stroke="black" d="M90.55,-287.7C100.41,-279.28 112.43,-269.02 123.24,-259.79"/>
<polygon fill="black" stroke="black" points="125.48,-262.48 130.81,-253.33 120.93,-257.16 125.48,-262.48"/>
</g>
<!-- main_drain -->
<g id="node17" class="node">
<title>main_drain</title>
<path fill="none" stroke="black" d="M391.66,-324C391.66,-324 242.91,-324 242.91,-324 236.91,-324 230.91,-318 230.91,-312 230.91,-312 230.91,-300 230.91,-300 230.91,-294 236.91,-288 242.91,-288 242.91,-288 391.66,-288 391.66,-288 397.66,-288 403.66,-294 403.66,-300 403.66,-300 403.66,-312 403.66,-312 403.66,-318 397.66,-324 391.66,-324"/>
<text xml:space="preserve" text-anchor="middle" x="317.28" y="-301.32" font-family="Times,serif" font-size="14.00">main::drain_discovery</text>
</g>
<!-- main_drain&#45;&gt;registry -->
<g id="edge21" class="edge">
<title>main_drain&#45;&gt;registry</title>
<path fill="none" stroke="black" d="M318.03,-287.62C317.96,-268.09 314.96,-236.45 298.28,-216 287.4,-202.66 272.5,-192.59 256.87,-185.01"/>
<polygon fill="black" stroke="black" points="258.47,-181.89 247.91,-181 255.61,-188.28 258.47,-181.89"/>
</g>
<!-- main_drain&#45;&gt;autodiscover_mod -->
<g id="edge20" class="edge">
<title>main_drain&#45;&gt;autodiscover_mod</title>
<path fill="none" stroke="black" d="M366.73,-287.52C393.65,-278 427.15,-266.16 455.52,-256.13"/>
<polygon fill="black" stroke="black" points="456.43,-259.52 464.69,-252.89 454.09,-252.92 456.43,-259.52"/>
</g>
<!-- main_drain&#45;&gt;memory -->
<g id="edge22" class="edge">
<title>main_drain&#45;&gt;memory</title>
<path fill="none" stroke="black" d="M276.07,-287.52C254.13,-278.21 226.95,-266.68 203.65,-256.79"/>
<polygon fill="black" stroke="black" points="205.22,-253.66 194.65,-252.97 202.48,-260.1 205.22,-253.66"/>
</g>
</g>
</svg>
