<?xml version="1.0" encoding="UTF-8" standalone="no"?>
<!DOCTYPE svg PUBLIC "-//W3C//DTD SVG 1.1//EN"
 "http://www.w3.org/Graphics/SVG/1.1/DTD/svg11.dtd">
<!-- Generated by graphviz version 14.1.2 (0)
 -->
<!-- Title: service_components_oit Pages: 1 -->
<svg width="1915pt" height="285pt"
 viewBox="0.00 0.00 1915.00 285.00" xmlns="http://www.w3.org/2000/svg" xmlns:xlink="http://www.w3.org/1999/xlink">
<g id="graph0" class="graph" transform="scale(1 1) rotate(0) translate(4 281.25)">
<title>service_components_oit</title>
<polygon fill="white" stroke="none" points="-4,4 -4,-281.25 1911.25,-281.25 1911.25,4 -4,4"/>
<text xml:space="preserve" text-anchor="middle" x="953.62" y="-259.95" font-family="Times,serif" font-size="14.00">service&#45;components oit</text>
<!-- oit_mod -->
<g id="node1" class="node">
<title>oit_mod</title>
<path fill="none" stroke="black" d="M817.5,-252C817.5,-252 752.75,-252 752.75,-252 746.75,-252 740.75,-246 740.75,-240 740.75,-240 740.75,-228 740.75,-228 740.75,-222 746.75,-216 752.75,-216 752.75,-216 817.5,-216 817.5,-216 823.5,-216 829.5,-222 829.5,-228 829.5,-228 829.5,-240 829.5,-240 829.5,-246 823.5,-252 817.5,-252"/>
<text xml:space="preserve" text-anchor="middle" x="785.12" y="-229.32" font-family="Times,serif" font-size="14.00">oit/mod.rs</text>
</g>
<!-- guardrails -->
<g id="node3" class="node">
<title>guardrails</title>
<path fill="none" stroke="black" d="M1895.25,-108C1895.25,-108 1811,-108 1811,-108 1805,-108 1799,-102 1799,-96 1799,-96 1799,-84 1799,-84 1799,-78 1805,-72 1811,-72 1811,-72 1895.25,-72 1895.25,-72 1901.25,-72 1907.25,-78 1907.25,-84 1907.25,-84 1907.25,-96 1907.25,-96 1907.25,-102 1901.25,-108 1895.25,-108"/>
<text xml:space="preserve" text-anchor="middle" x="1853.12" y="-85.33" font-family="Times,serif" font-size="14.00">guardrails.rs</text>
</g>
<!-- oit_mod&#45;&gt;guardrails -->
<g id="edge1" class="edge">
<title>oit_mod&#45;&gt;guardrails</title>
<path fill="none" stroke="black" d="M829.86,-229.97C970.3,-219.94 1414.72,-184.12 1787.58,-108.4"/>
<polygon fill="black" stroke="black" points="1788.01,-111.89 1797.1,-106.45 1786.6,-105.03 1788.01,-111.89"/>
</g>
<!-- usecases -->
<g id="node4" class="node">
<title>usecases</title>
<path fill="none" stroke="black" d="M480.38,-180C480.38,-180 405.88,-180 405.88,-180 399.88,-180 393.88,-174 393.88,-168 393.88,-168 393.88,-156 393.88,-156 393.88,-150 399.88,-144 405.88,-144 405.88,-144 480.38,-144 480.38,-144 486.38,-144 492.38,-150 492.38,-156 492.38,-156 492.38,-168 492.38,-168 492.38,-174 486.38,-180 480.38,-180"/>
<text xml:space="preserve" text-anchor="middle" x="443.12" y="-157.32" font-family="Times,serif" font-size="14.00">usecases.rs</text>
</g>
<!-- oit_mod&#45;&gt;usecases -->
<g id="edge2" class="edge">
<title>oit_mod&#45;&gt;usecases</title>
<path fill="none" stroke="black" d="M740.41,-223.85C679.87,-211.46 571.6,-189.3 503.77,-175.41"/>
<polygon fill="black" stroke="black" points="504.82,-172.05 494.32,-173.48 503.42,-178.91 504.82,-172.05"/>
</g>
<!-- report -->
<g id="node5" class="node">
<title>report</title>
<path fill="none" stroke="black" d="M813,-180C813,-180 757.25,-180 757.25,-180 751.25,-180 745.25,-174 745.25,-168 745.25,-168 745.25,-156 745.25,-156 745.25,-150 751.25,-144 757.25,-144 757.25,-144 813,-144 813,-144 819,-144 825,-150 825,-156 825,-156 825,-168 825,-168 825,-174 819,-180 813,-180"/>
<text xml:space="preserve" text-anchor="middle" x="785.12" y="-157.32" font-family="Times,serif" font-size="14.00">report.rs</text>
</g>
<!-- oit_mod&#45;&gt;report -->
<g id="edge3" class="edge">
<title>oit_mod&#45;&gt;report</title>
<path fill="none" stroke="black" d="M785.12,-215.7C785.12,-208.41 785.12,-199.73 785.12,-191.54"/>
<polygon fill="black" stroke="black" points="788.63,-191.62 785.13,-181.62 781.63,-191.62 788.63,-191.62"/>
</g>
<!-- bin -->
<g id="node2" class="node">
<title>bin</title>
<path fill="none" stroke="black" d="M1266.25,-180C1266.25,-180 1140,-180 1140,-180 1134,-180 1128,-174 1128,-168 1128,-168 1128,-156 1128,-156 1128,-150 1134,-144 1140,-144 1140,-144 1266.25,-144 1266.25,-144 1272.25,-144 1278.25,-150 1278.25,-156 1278.25,-156 1278.25,-168 1278.25,-168 1278.25,-174 1272.25,-180 1266.25,-180"/>
<text xml:space="preserve" text-anchor="middle" x="1203.12" y="-157.32" font-family="Times,serif" font-size="14.00">src/bin/azork&#45;oit.rs</text>
</g>
<!-- bin&#45;&gt;guardrails -->
<g id="edge5" class="edge">
<title>bin&#45;&gt;guardrails</title>
<path fill="none" stroke="black" d="M1278.74,-158.37C1388.87,-153.6 1599.86,-140.99 1787.44,-108.31"/>
<polygon fill="black" stroke="black" points="1787.89,-111.78 1797.13,-106.59 1786.67,-104.89 1787.89,-111.78"/>
</g>
<!-- catalog -->
<g id="node8" class="node">
<title>catalog</title>
<path fill="none" stroke="black" d="M878,-108C878,-108 834.25,-108 834.25,-108 828.25,-108 822.25,-102 822.25,-96 822.25,-96 822.25,-84 822.25,-84 822.25,-78 828.25,-72 834.25,-72 834.25,-72 878,-72 878,-72 884,-72 890,-78 890,-84 890,-84 890,-96 890,-96 890,-102 884,-108 878,-108"/>
<text xml:space="preserve" text-anchor="middle" x="856.12" y="-85.33" font-family="Times,serif" font-size="14.00">catalog</text>
</g>
<!-- bin&#45;&gt;catalog -->
<g id="edge7" class="edge">
<title>bin&#45;&gt;catalog</title>
<path fill="none" stroke="black" d="M1127.52,-152.18C1068.1,-144.26 983.24,-130.76 901.21,-108.27"/>
<polygon fill="black" stroke="black" points="902.21,-104.92 891.63,-105.6 900.32,-111.66 902.21,-104.92"/>
</g>
<!-- detect -->
<g id="node10" class="node">
<title>detect</title>
<path fill="none" stroke="black" d="M791.88,-108C791.88,-108 696.38,-108 696.38,-108 690.38,-108 684.38,-102 684.38,-96 684.38,-96 684.38,-84 684.38,-84 684.38,-78 690.38,-72 696.38,-72 696.38,-72 791.88,-72 791.88,-72 797.88,-72 803.88,-78 803.88,-84 803.88,-84 803.88,-96 803.88,-96 803.88,-102 797.88,-108 791.88,-108"/>
<text xml:space="preserve" text-anchor="middle" x="744.12" y="-85.33" font-family="Times,serif" font-size="14.00">detect_friction</text>
</g>
<!-- bin&#45;&gt;detect -->
<g id="edge9" class="edge">
<title>bin&#45;&gt;detect</title>
<path fill="none" stroke="black" d="M1127.61,-153.15C1051.23,-144.67 929.59,-129.67 815.29,-108.3"/>
<polygon fill="black" stroke="black" points="816.22,-104.91 805.74,-106.5 814.92,-111.79 816.22,-104.91"/>
</g>
<!-- report_data -->
<g id="node12" class="node">
<title>report_data</title>
<path fill="none" stroke="black" d="M994.38,-108C994.38,-108 919.88,-108 919.88,-108 913.88,-108 907.88,-102 907.88,-96 907.88,-96 907.88,-84 907.88,-84 907.88,-78 913.88,-72 919.88,-72 919.88,-72 994.38,-72 994.38,-72 1000.38,-72 1006.38,-78 1006.38,-84 1006.38,-84 1006.38,-96 1006.38,-96 1006.38,-102 1000.38,-108 994.38,-108"/>
<text xml:space="preserve" text-anchor="middle" x="957.12" y="-85.33" font-family="Times,serif" font-size="14.00">ReportData</text>
</g>
<!-- bin&#45;&gt;report_data -->
<g id="edge10" class="edge">
<title>bin&#45;&gt;report_data</title>
<path fill="none" stroke="black" d="M1140.84,-143.62C1106.86,-134.09 1063.77,-121.95 1017.63,-108.71"/>
<polygon fill="black" stroke="black" points="1018.82,-105.41 1008.24,-106.01 1016.89,-112.14 1018.82,-105.41"/>
</g>
<!-- markdown -->
<g id="node14" class="node">
<title>markdown</title>
<path fill="none" stroke="black" d="M1124.12,-108C1124.12,-108 1036.12,-108 1036.12,-108 1030.12,-108 1024.12,-102 1024.12,-96 1024.12,-96 1024.12,-84 1024.12,-84 1024.12,-78 1030.12,-72 1036.12,-72 1036.12,-72 1124.12,-72 1124.12,-72 1130.12,-72 1136.12,-78 1136.12,-84 1136.12,-84 1136.12,-96 1136.12,-96 1136.12,-102 1130.12,-108 1124.12,-108"/>
<text xml:space="preserve" text-anchor="middle" x="1080.12" y="-85.33" font-family="Times,serif" font-size="14.00">to_markdown</text>
</g>
<!-- bin&#45;&gt;markdown -->
<g id="edge12" class="edge">
<title>bin&#45;&gt;markdown</title>
<path fill="none" stroke="black" d="M1172.4,-143.52C1156.58,-134.51 1137.1,-123.42 1120.12,-113.76"/>
<polygon fill="black" stroke="black" points="1122.19,-110.91 1111.77,-109.01 1118.73,-117 1122.19,-110.91"/>
</g>
<!-- preflight -->
<g id="node15" class="node">
<title>preflight</title>
<path fill="none" stroke="black" d="M1768.88,-108C1768.88,-108 1715.38,-108 1715.38,-108 1709.38,-108 1703.38,-102 1703.38,-96 1703.38,-96 1703.38,-84 1703.38,-84 1703.38,-78 1709.38,-72 1715.38,-72 1715.38,-72 1768.88,-72 1768.88,-72 1774.88,-72 1780.88,-78 1780.88,-84 1780.88,-84 1780.88,-96 1780.88,-96 1780.88,-102 1774.88,-108 1768.88,-108"/>
<text xml:space="preserve" text-anchor="middle" x="1742.12" y="-85.33" font-family="Times,serif" font-size="14.00">preflight</text>
</g>
<!-- bin&#45;&gt;preflight -->
<g id="edge4" class="edge">
<title>bin&#45;&gt;preflight</title>
<path fill="none" stroke="black" d="M1278.47,-158.31C1373.34,-153.71 1541.19,-141.58 1692.21,-108.12"/>
<polygon fill="black" stroke="black" points="1692.59,-111.62 1701.58,-106.01 1691.05,-104.79 1692.59,-111.62"/>
</g>
<!-- create -->
<g id="node16" class="node">
<title>create</title>
<path fill="none" stroke="black" d="M1547.62,-108C1547.62,-108 1282.62,-108 1282.62,-108 1276.62,-108 1270.62,-102 1270.62,-96 1270.62,-96 1270.62,-84 1270.62,-84 1270.62,-78 1276.62,-72 1282.62,-72 1282.62,-72 1547.62,-72 1547.62,-72 1553.62,-72 1559.62,-78 1559.62,-84 1559.62,-84 1559.62,-96 1559.62,-96 1559.62,-102 1553.62,-108 1547.62,-108"/>
<text xml:space="preserve" text-anchor="middle" x="1415.12" y="-85.33" font-family="Times,serif" font-size="14.00">create_resource_group create_storage</text>
</g>
<!-- bin&#45;&gt;create -->
<g id="edge6" class="edge">
<title>bin&#45;&gt;create</title>
<path fill="none" stroke="black" d="M1256.07,-143.52C1285.15,-133.92 1321.39,-121.95 1351.94,-111.86"/>
<polygon fill="black" stroke="black" points="1352.65,-115.32 1361.05,-108.86 1350.45,-108.67 1352.65,-115.32"/>
</g>
<!-- teardown -->
<g id="node17" class="node">
<title>teardown</title>
<path fill="none" stroke="black" d="M1672.88,-108C1672.88,-108 1589.38,-108 1589.38,-108 1583.38,-108 1577.38,-102 1577.38,-96 1577.38,-96 1577.38,-84 1577.38,-84 1577.38,-78 1583.38,-72 1589.38,-72 1589.38,-72 1672.88,-72 1672.88,-72 1678.88,-72 1684.88,-78 1684.88,-84 1684.88,-84 1684.88,-96 1684.88,-96 1684.88,-102 1678.88,-108 1672.88,-108"/>
<text xml:space="preserve" text-anchor="middle" x="1631.12" y="-85.33" font-family="Times,serif" font-size="14.00">teardown_all</text>
</g>
<!-- bin&#45;&gt;teardown -->
<g id="edge11" class="edge">
<title>bin&#45;&gt;teardown</title>
<path fill="none" stroke="black" d="M1278.6,-152.84C1350.4,-144.45 1461.59,-129.83 1566.05,-108.52"/>
<polygon fill="black" stroke="black" points="1566.55,-111.99 1575.64,-106.54 1565.13,-105.14 1566.55,-111.99"/>
</g>
<!-- drive -->
<g id="node18" class="node">
<title>drive</title>
<path fill="none" stroke="black" d="M1240.38,-108C1240.38,-108 1165.88,-108 1165.88,-108 1159.88,-108 1153.88,-102 1153.88,-96 1153.88,-96 1153.88,-84 1153.88,-84 1153.88,-78 1159.88,-72 1165.88,-72 1165.88,-72 1240.38,-72 1240.38,-72 1246.38,-72 1252.38,-78 1252.38,-84 1252.38,-84 1252.38,-96 1252.38,-96 1252.38,-102 1246.38,-108 1240.38,-108"/>
<text xml:space="preserve" text-anchor="middle" x="1203.12" y="-85.33" font-family="Times,serif" font-size="14.00">drive_azork</text>
</g>
<!-- bin&#45;&gt;drive -->
<g id="edge8" class="edge">
<title>bin&#45;&gt;drive</title>
<path fill="none" stroke="black" d="M1203.12,-143.7C1203.12,-136.41 1203.12,-127.73 1203.12,-119.54"/>
<polygon fill="black" stroke="black" points="1206.63,-119.62 1203.13,-109.62 1199.63,-119.62 1206.63,-119.62"/>
</g>
<!-- category -->
<g id="node6" class="node">
<title>category</title>
<path fill="none" stroke="black" d="M314.75,-108C314.75,-108 257.5,-108 257.5,-108 251.5,-108 245.5,-102 245.5,-96 245.5,-96 245.5,-84 245.5,-84 245.5,-78 251.5,-72 257.5,-72 257.5,-72 314.75,-72 314.75,-72 320.75,-72 326.75,-78 326.75,-84 326.75,-84 326.75,-96 326.75,-96 326.75,-102 320.75,-108 314.75,-108"/>
<text xml:space="preserve" text-anchor="middle" x="286.12" y="-85.33" font-family="Times,serif" font-size="14.00">Category</text>
</g>
<!-- usecases&#45;&gt;category -->
<g id="edge13" class="edge">
<title>usecases&#45;&gt;category</title>
<path fill="none" stroke="black" d="M403.91,-143.52C383.23,-134.29 357.64,-122.89 335.61,-113.06"/>
<polygon fill="black" stroke="black" points="337.05,-109.87 326.49,-109 334.2,-116.27 337.05,-109.87"/>
</g>
<!-- usecase -->
<g id="node7" class="node">
<title>usecase</title>
<path fill="none" stroke="black" d="M66.25,-108C66.25,-108 12,-108 12,-108 6,-108 0,-102 0,-96 0,-96 0,-84 0,-84 0,-78 6,-72 12,-72 12,-72 66.25,-72 66.25,-72 72.25,-72 78.25,-78 78.25,-84 78.25,-84 78.25,-96 78.25,-96 78.25,-102 72.25,-108 66.25,-108"/>
<text xml:space="preserve" text-anchor="middle" x="39.12" y="-85.33" font-family="Times,serif" font-size="14.00">UseCase</text>
</g>
<!-- usecases&#45;&gt;usecase -->
<g id="edge14" class="edge">
<title>usecases&#45;&gt;usecase</title>
<path fill="none" stroke="black" d="M393.46,-156.53C326.46,-149.85 203.38,-135.32 89.51,-108.05"/>
<polygon fill="black" stroke="black" points="90.53,-104.7 79.99,-105.73 88.87,-111.5 90.53,-104.7"/>
</g>
<!-- usecases&#45;&gt;catalog -->
<g id="edge15" class="edge">
<title>usecases&#45;&gt;catalog</title>
<path fill="none" stroke="black" d="M492.64,-157.61C562.14,-152.05 692.5,-138.68 811.04,-108.19"/>
<polygon fill="black" stroke="black" points="811.85,-111.59 820.64,-105.67 810.08,-104.82 811.85,-111.59"/>
</g>
<!-- friction -->
<g id="node9" class="node">
<title>friction</title>
<path fill="none" stroke="black" d="M529.5,-108C529.5,-108 356.75,-108 356.75,-108 350.75,-108 344.75,-102 344.75,-96 344.75,-96 344.75,-84 344.75,-84 344.75,-78 350.75,-72 356.75,-72 356.75,-72 529.5,-72 529.5,-72 535.5,-72 541.5,-78 541.5,-84 541.5,-84 541.5,-96 541.5,-96 541.5,-102 535.5,-108 529.5,-108"/>
<text xml:space="preserve" text-anchor="middle" x="443.12" y="-85.33" font-family="Times,serif" font-size="14.00">Friction and FrictionKind</text>
</g>
<!-- usecases&#45;&gt;friction -->
<g id="edge16" class="edge">
<title>usecases&#45;&gt;friction</title>
<path fill="none" stroke="black" d="M443.12,-143.7C443.12,-136.41 443.12,-127.73 443.12,-119.54"/>
<polygon fill="black" stroke="black" points="446.63,-119.62 443.13,-109.62 439.63,-119.62 446.63,-119.62"/>
</g>
<!-- usecases&#45;&gt;detect -->
<g id="edge17" class="edge">
<title>usecases&#45;&gt;detect</title>
<path fill="none" stroke="black" d="M492.51,-149.97C537.13,-139.95 604.9,-124.59 673,-108.49"/>
<polygon fill="black" stroke="black" points="673.53,-111.96 682.46,-106.24 671.92,-105.14 673.53,-111.96"/>
</g>
<!-- split -->
<g id="node11" class="node">
<title>split</title>
<path fill="none" stroke="black" d="M215.5,-108C215.5,-108 108.75,-108 108.75,-108 102.75,-108 96.75,-102 96.75,-96 96.75,-96 96.75,-84 96.75,-84 96.75,-78 102.75,-72 108.75,-72 108.75,-72 215.5,-72 215.5,-72 221.5,-72 227.5,-78 227.5,-84 227.5,-84 227.5,-96 227.5,-96 227.5,-102 221.5,-108 215.5,-108"/>
<text xml:space="preserve" text-anchor="middle" x="162.12" y="-85.33" font-family="Times,serif" font-size="14.00">split_by_prompt</text>
</g>
<!-- usecases&#45;&gt;split -->
<g id="edge18" class="edge">
<title>usecases&#45;&gt;split</title>
<path fill="none" stroke="black" d="M393.53,-148.65C350.69,-137.97 288.08,-122.38 238.78,-110.1"/>
<polygon fill="black" stroke="black" points="239.86,-106.76 229.31,-107.74 238.17,-113.55 239.86,-106.76"/>
</g>
<!-- report&#45;&gt;friction -->
<g id="edge22" class="edge">
<title>report&#45;&gt;friction</title>
<path fill="none" stroke="black" d="M744.89,-152.76C694.79,-142.51 607.56,-124.66 539.73,-110.77"/>
<polygon fill="black" stroke="black" points="540.57,-107.37 530.07,-108.8 539.17,-114.23 540.57,-107.37"/>
</g>
<!-- report&#45;&gt;report_data -->
<g id="edge19" class="edge">
<title>report&#45;&gt;report_data</title>
<path fill="none" stroke="black" d="M825.45,-144.59C848.82,-135.08 878.53,-122.99 903.82,-112.7"/>
<polygon fill="black" stroke="black" points="905,-115.99 912.95,-108.98 902.36,-109.51 905,-115.99"/>
</g>
<!-- usecase_run -->
<g id="node13" class="node">
<title>usecase_run</title>
<path fill="none" stroke="black" d="M654.5,-108C654.5,-108 571.75,-108 571.75,-108 565.75,-108 559.75,-102 559.75,-96 559.75,-96 559.75,-84 559.75,-84 559.75,-78 565.75,-72 571.75,-72 571.75,-72 654.5,-72 654.5,-72 660.5,-72 666.5,-78 666.5,-84 666.5,-84 666.5,-96 666.5,-96 666.5,-102 660.5,-108 654.5,-108"/>
<text xml:space="preserve" text-anchor="middle" x="613.12" y="-85.33" font-family="Times,serif" font-size="14.00">UseCaseRun</text>
</g>
<!-- report&#45;&gt;usecase_run -->
<g id="edge20" class="edge">
<title>report&#45;&gt;usecase_run</title>
<path fill="none" stroke="black" d="M744.8,-144.59C721.43,-135.08 691.72,-122.99 666.43,-112.7"/>
<polygon fill="black" stroke="black" points="667.89,-109.51 657.3,-108.98 665.25,-115.99 667.89,-109.51"/>
</g>
<!-- report&#45;&gt;markdown -->
<g id="edge21" class="edge">
<title>report&#45;&gt;markdown</title>
<path fill="none" stroke="black" d="M825.1,-152.16C868.8,-142.42 941.17,-126.04 1012.76,-108.55"/>
<polygon fill="black" stroke="black" points="1013.43,-111.99 1022.31,-106.2 1011.76,-105.19 1013.43,-111.99"/>
</g>
<!-- az_cli -->
<g id="node19" class="node">
<title>az_cli</title>
<path fill="none" stroke="black" d="M1649.62,-36C1649.62,-36 1612.62,-36 1612.62,-36 1606.62,-36 1600.62,-30 1600.62,-24 1600.62,-24 1600.62,-12 1600.62,-12 1600.62,-6 1606.62,0 1612.62,0 1612.62,0 1649.62,0 1649.62,0 1655.62,0 1661.62,-6 1661.62,-12 1661.62,-12 1661.62,-24 1661.62,-24 1661.62,-30 1655.62,-36 1649.62,-36"/>
<text xml:space="preserve" text-anchor="middle" x="1631.12" y="-13.32" font-family="Times,serif" font-size="14.00">az CLI</text>
</g>
<!-- preflight&#45;&gt;az_cli -->
<g id="edge23" class="edge">
<title>preflight&#45;&gt;az_cli</title>
<path fill="none" stroke="black" d="M1714.4,-71.52C1700.39,-62.68 1683.2,-51.84 1668.08,-42.3"/>
<polygon fill="black" stroke="black" points="1670.1,-39.44 1659.78,-37.07 1666.37,-45.36 1670.1,-39.44"/>
</g>
<!-- create&#45;&gt;az_cli -->
<g id="edge24" class="edge">
<title>create&#45;&gt;az_cli</title>
<path fill="none" stroke="black" d="M1469.07,-71.52C1506.4,-59.42 1555.32,-43.57 1589.61,-32.45"/>
<polygon fill="black" stroke="black" points="1590.32,-35.9 1598.75,-29.49 1588.16,-29.24 1590.32,-35.9"/>
</g>
<!-- teardown&#45;&gt;az_cli -->
<g id="edge25" class="edge">
<title>teardown&#45;&gt;az_cli</title>
<path fill="none" stroke="black" d="M1631.12,-71.7C1631.12,-64.41 1631.12,-55.73 1631.12,-47.54"/>
<polygon fill="black" stroke="black" points="1634.63,-47.62 1631.13,-37.62 1627.63,-47.62 1634.63,-47.62"/>
</g>
<!-- azork_bin -->
<g id="node20" class="node">
<title>azork_bin</title>
<path fill="none" stroke="black" d="M1243.75,-36C1243.75,-36 1162.5,-36 1162.5,-36 1156.5,-36 1150.5,-30 1150.5,-24 1150.5,-24 1150.5,-12 1150.5,-12 1150.5,-6 1156.5,0 1162.5,0 1162.5,0 1243.75,0 1243.75,0 1249.75,0 1255.75,-6 1255.75,-12 1255.75,-12 1255.75,-24 1255.75,-24 1255.75,-30 1249.75,-36 1243.75,-36"/>
<text xml:space="preserve" text-anchor="middle" x="1203.12" y="-13.32" font-family="Times,serif" font-size="14.00">azork binary</text>
</g>
<!-- drive&#45;&gt;azork_bin -->
<g id="edge26" class="edge">
<title>drive&#45;&gt;azork_bin</title>
<path fill="none" stroke="black" d="M1203.12,-71.7C1203.12,-64.41 1203.12,-55.73 1203.12,-47.54"/>
<polygon fill="black" stroke="black" points="1206.63,-47.62 1203.13,-37.62 1199.63,-47.62 1206.63,-47.62"/>
</g>
</g>
</svg>
