<?xml version="1.0" encoding="UTF-8" standalone="no"?>
<!DOCTYPE svg PUBLIC "-//W3C//DTD SVG 1.1//EN"
 "http://www.w3.org/Graphics/SVG/1.1/DTD/svg11.dtd">
<!-- Generated by graphviz version 14.1.2 (0)
 -->
<!-- Title: runtime_topology Pages: 1 -->
<svg width="1461pt" height="668pt"
 viewBox="0.00 0.00 1461.00 668.00" xmlns="http://www.w3.org/2000/svg" xmlns:xlink="http://www.w3.org/1999/xlink">
<g id="graph0" class="graph" transform="scale(1 1) rotate(0) translate(4 664)">
<title>runtime_topology</title>
<polygon fill="white" stroke="none" points="-4,4 -4,-664 1457,-664 1457,4 -4,4"/>
<g id="clust1" class="cluster">
<title>cluster_user_shell</title>
<polygon fill="none" stroke="black" points="560,-414 560,-652 838,-652 838,-414 560,-414"/>
<text xml:space="preserve" text-anchor="middle" x="699" y="-634.7" font-family="Times,serif" font-size="14.00">User shell</text>
</g>
<g id="clust2" class="cluster">
<title>cluster_rust_process</title>
<polygon fill="none" stroke="black" points="8,-192 8,-380.25 909,-380.25 909,-192 8,-192"/>
<text xml:space="preserve" text-anchor="middle" x="458.5" y="-362.95" font-family="Times,serif" font-size="14.00">Rust process internals</text>
</g>
<g id="clust3" class="cluster">
<title>cluster_loopback</title>
<polygon fill="none" stroke="black" points="556,-8 556,-158.25 808,-158.25 808,-8 556,-8"/>
<text xml:space="preserve" text-anchor="middle" x="682" y="-140.95" font-family="Times,serif" font-size="14.00">Loopback network</text>
</g>
<g id="clust4" class="cluster">
<title>cluster_external_tools</title>
<polygon fill="none" stroke="black" points="917,-192 917,-269.25 1445,-269.25 1445,-192 917,-192"/>
<text xml:space="preserve" text-anchor="middle" x="1181" y="-251.95" font-family="Times,serif" font-size="14.00">External local processes</text>
</g>
<!-- user -->
<g id="node1" class="node">
<title>user</title>
<path fill="none" stroke="black" d="M781,-618.75C781,-618.75 735,-618.75 735,-618.75 729,-618.75 723,-612.75 723,-606.75 723,-606.75 723,-594.75 723,-594.75 723,-588.75 729,-582.75 735,-582.75 735,-582.75 781,-582.75 781,-582.75 787,-582.75 793,-588.75 793,-594.75 793,-594.75 793,-606.75 793,-606.75 793,-612.75 787,-618.75 781,-618.75"/>
<text xml:space="preserve" text-anchor="middle" x="758" y="-595.33" font-family="Arial" font-size="14.00">Operator</text>
</g>
<!-- azork_repl -->
<g id="node2" class="node">
<title>azork_repl</title>
<path fill="none" stroke="black" d="M704,-458C704,-458 640,-458 640,-458 634,-458 628,-452 628,-446 628,-446 628,-434 628,-434 628,-428 634,-422 640,-422 640,-422 704,-422 704,-422 710,-422 716,-428 716,-434 716,-434 716,-446 716,-446 716,-452 710,-458 704,-458"/>
<text xml:space="preserve" text-anchor="middle" x="672" y="-434.57" font-family="Arial" font-size="14.00">azork REPL</text>
</g>
<!-- user&#45;&gt;azork_repl -->
<g id="edge1" class="edge">
<title>user&#45;&gt;azork_repl</title>
<path fill="none" stroke="black" d="M755.56,-582.28C752.4,-563.48 745.71,-533.11 733,-509.75 730.28,-504.75 711.65,-483.97 695.68,-466.56"/>
<polygon fill="black" stroke="black" points="698.51,-464.46 689.17,-459.47 693.36,-469.2 698.51,-464.46"/>
</g>
<!-- azork_crawl -->
<g id="node3" class="node">
<title>azork_crawl</title>
<path fill="none" stroke="black" d="M712.12,-545.75C712.12,-545.75 579.88,-545.75 579.88,-545.75 573.88,-545.75 567.88,-539.75 567.88,-533.75 567.88,-533.75 567.88,-521.75 567.88,-521.75 567.88,-515.75 573.88,-509.75 579.88,-509.75 579.88,-509.75 712.12,-509.75 712.12,-509.75 718.12,-509.75 724.12,-515.75 724.12,-521.75 724.12,-521.75 724.12,-533.75 724.12,-533.75 724.12,-539.75 718.12,-545.75 712.12,-545.75"/>
<text xml:space="preserve" text-anchor="middle" x="646" y="-522.33" font-family="Arial" font-size="14.00">azork crawl or dungeon</text>
</g>
<!-- user&#45;&gt;azork_crawl -->
<g id="edge2" class="edge">
<title>user&#45;&gt;azork_crawl</title>
<path fill="none" stroke="black" d="M730.6,-582.38C716.23,-573.27 698.42,-561.98 682.85,-552.11"/>
<polygon fill="black" stroke="black" points="685.1,-549.39 674.78,-547 681.35,-555.31 685.1,-549.39"/>
</g>
<!-- azork_oit -->
<g id="node4" class="node">
<title>azork_oit</title>
<path fill="none" stroke="black" d="M817.88,-545.75C817.88,-545.75 774.12,-545.75 774.12,-545.75 768.12,-545.75 762.12,-539.75 762.12,-533.75 762.12,-533.75 762.12,-521.75 762.12,-521.75 762.12,-515.75 768.12,-509.75 774.12,-509.75 774.12,-509.75 817.88,-509.75 817.88,-509.75 823.88,-509.75 829.88,-515.75 829.88,-521.75 829.88,-521.75 829.88,-533.75 829.88,-533.75 829.88,-539.75 823.88,-545.75 817.88,-545.75"/>
<text xml:space="preserve" text-anchor="middle" x="796" y="-522.33" font-family="Arial" font-size="14.00">azork&#45;oit</text>
</g>
<!-- user&#45;&gt;azork_oit -->
<g id="edge3" class="edge">
<title>user&#45;&gt;azork_oit</title>
<path fill="none" stroke="black" d="M767.2,-582.56C771.49,-574.54 776.71,-564.8 781.51,-555.82"/>
<polygon fill="black" stroke="black" points="784.54,-557.58 786.17,-547.11 778.37,-554.28 784.54,-557.58"/>
</g>
<!-- azext -->
<g id="node17" class="node">
<title>azext</title>
<path fill="none" stroke="black" d="M1179.12,-236C1179.12,-236 1010.88,-236 1010.88,-236 1004.88,-236 998.88,-230 998.88,-224 998.88,-224 998.88,-212 998.88,-212 998.88,-206 1004.88,-200 1010.88,-200 1010.88,-200 1179.12,-200 1179.12,-200 1185.12,-200 1191.12,-206 1191.12,-212 1191.12,-212 1191.12,-224 1191.12,-224 1191.12,-230 1185.12,-236 1179.12,-236"/>
<text xml:space="preserve" text-anchor="middle" x="1095" y="-212.57" font-family="Arial" font-size="14.00">Azure CLI extension az azork</text>
</g>
<!-- user&#45;&gt;azext -->
<g id="edge4" class="edge">
<title>user&#45;&gt;azext</title>
<path fill="none" stroke="black" d="M793.41,-598.08C902.16,-592.49 1224,-572.28 1224,-528.75 1224,-528.75 1224,-528.75 1224,-328 1224,-287.57 1186.57,-259.07 1152.04,-241.38"/>
<polygon fill="black" stroke="black" points="1153.82,-238.35 1143.3,-237.12 1150.75,-244.65 1153.82,-238.35"/>
</g>
<!-- parser -->
<g id="node5" class="node">
<title>parser</title>
<path fill="none" stroke="black" d="M95.88,-347C95.88,-347 28.12,-347 28.12,-347 22.12,-347 16.12,-341 16.12,-335 16.12,-335 16.12,-323 16.12,-323 16.12,-317 22.12,-311 28.12,-311 28.12,-311 95.88,-311 95.88,-311 101.88,-311 107.88,-317 107.88,-323 107.88,-323 107.88,-335 107.88,-335 107.88,-341 101.88,-347 95.88,-347"/>
<text xml:space="preserve" text-anchor="middle" x="62" y="-323.57" font-family="Arial" font-size="14.00">parser parse</text>
</g>
<!-- azork_repl&#45;&gt;parser -->
<g id="edge6" class="edge">
<title>azork_repl&#45;&gt;parser</title>
<path fill="none" stroke="black" d="M627.87,-438.15C512.94,-435.33 207.05,-423.83 117,-380.25 104.7,-374.3 93.18,-364.7 83.9,-355.48"/>
<polygon fill="black" stroke="black" points="86.52,-353.15 77.09,-348.33 81.45,-357.98 86.52,-353.15"/>
</g>
<!-- backend -->
<g id="node7" class="node">
<title>backend</title>
<path fill="none" stroke="black" d="M220,-347C220,-347 138,-347 138,-347 132,-347 126,-341 126,-335 126,-335 126,-323 126,-323 126,-317 132,-311 138,-311 138,-311 220,-311 220,-311 226,-311 232,-317 232,-323 232,-323 232,-335 232,-335 232,-341 226,-347 220,-347"/>
<text xml:space="preserve" text-anchor="middle" x="179" y="-323.57" font-family="Arial" font-size="14.00">backend select</text>
</g>
<!-- azork_repl&#45;&gt;backend -->
<g id="edge7" class="edge">
<title>azork_repl&#45;&gt;backend</title>
<path fill="none" stroke="black" d="M627.67,-436C532.15,-429.04 309.96,-410.08 241,-380.25 227.29,-374.32 214.13,-364.47 203.49,-355.06"/>
<polygon fill="black" stroke="black" points="206.01,-352.62 196.3,-348.38 201.24,-357.75 206.01,-352.62"/>
</g>
<!-- cap_registry -->
<g id="node10" class="node">
<title>cap_registry</title>
<path fill="none" stroke="black" d="M741.5,-347C741.5,-347 602.5,-347 602.5,-347 596.5,-347 590.5,-341 590.5,-335 590.5,-335 590.5,-323 590.5,-323 590.5,-317 596.5,-311 602.5,-311 602.5,-311 741.5,-311 741.5,-311 747.5,-311 753.5,-317 753.5,-323 753.5,-323 753.5,-335 753.5,-335 753.5,-341 747.5,-347 741.5,-347"/>
<text xml:space="preserve" text-anchor="middle" x="672" y="-323.57" font-family="Arial" font-size="14.00">Capability registry cache</text>
</g>
<!-- azork_repl&#45;&gt;cap_registry -->
<g id="edge8" class="edge">
<title>azork_repl&#45;&gt;cap_registry</title>
<path fill="none" stroke="black" d="M672,-421.97C672,-405.03 672,-378.73 672,-358.59"/>
<polygon fill="black" stroke="black" points="675.5,-358.78 672,-348.78 668.5,-358.78 675.5,-358.78"/>
</g>
<!-- graph_memory -->
<g id="node11" class="node">
<title>graph_memory</title>
<path fill="none" stroke="black" d="M888.62,-347C888.62,-347 783.38,-347 783.38,-347 777.38,-347 771.38,-341 771.38,-335 771.38,-335 771.38,-323 771.38,-323 771.38,-317 777.38,-311 783.38,-311 783.38,-311 888.62,-311 888.62,-311 894.62,-311 900.62,-317 900.62,-323 900.62,-323 900.62,-335 900.62,-335 900.62,-341 894.62,-347 888.62,-347"/>
<text xml:space="preserve" text-anchor="middle" x="836" y="-323.57" font-family="Arial" font-size="14.00">Graph memory file</text>
</g>
<!-- azork_repl&#45;&gt;graph_memory -->
<g id="edge9" class="edge">
<title>azork_repl&#45;&gt;graph_memory</title>
<path fill="none" stroke="black" d="M699.21,-421.73C717.37,-410.13 741.72,-394.44 763,-380.25 775.73,-371.76 789.58,-362.29 801.76,-353.88"/>
<polygon fill="black" stroke="black" points="803.65,-356.83 809.88,-348.26 799.66,-351.07 803.65,-356.83"/>
</g>
<!-- dungeon_map -->
<g id="node12" class="node">
<title>dungeon_map</title>
<path fill="none" stroke="black" d="M560,-347C560,-347 442,-347 442,-347 436,-347 430,-341 430,-335 430,-335 430,-323 430,-323 430,-317 436,-311 442,-311 442,-311 560,-311 560,-311 566,-311 572,-317 572,-323 572,-323 572,-335 572,-335 572,-341 566,-347 560,-347"/>
<text xml:space="preserve" text-anchor="middle" x="501" y="-323.57" font-family="Arial" font-size="14.00">DungeonMap builder</text>
</g>
<!-- azork_crawl&#45;&gt;dungeon_map -->
<g id="edge15" class="edge">
<title>azork_crawl&#45;&gt;dungeon_map</title>
<path fill="none" stroke="black" d="M633.13,-509.29C607.66,-474.72 550.67,-397.4 520.54,-356.51"/>
<polygon fill="black" stroke="black" points="523.49,-354.61 514.74,-348.64 517.85,-358.77 523.49,-354.61"/>
</g>
<!-- http_server -->
<g id="node13" class="node">
<title>http_server</title>
<path fill="none" stroke="black" d="M400.12,-347C400.12,-347 261.88,-347 261.88,-347 255.88,-347 249.88,-341 249.88,-335 249.88,-335 249.88,-323 249.88,-323 249.88,-317 255.88,-311 261.88,-311 261.88,-311 400.12,-311 400.12,-311 406.12,-311 412.12,-317 412.12,-323 412.12,-323 412.12,-335 412.12,-335 412.12,-341 406.12,-347 400.12,-347"/>
<text xml:space="preserve" text-anchor="middle" x="331" y="-323.57" font-family="Arial" font-size="14.00">Embedded HTTP server</text>
</g>
<!-- azork_crawl&#45;&gt;http_server -->
<g id="edge17" class="edge">
<title>azork_crawl&#45;&gt;http_server</title>
<path fill="none" stroke="black" d="M618.05,-509.29C561.3,-473.85 432.59,-393.45 368.59,-353.48"/>
<polygon fill="black" stroke="black" points="370.51,-350.55 360.18,-348.22 366.8,-356.49 370.51,-350.55"/>
</g>
<!-- azork_oit&#45;&gt;azork_repl -->
<g id="edge20" class="edge">
<title>azork_oit&#45;&gt;azork_repl</title>
<path fill="none" stroke="black" d="M770.91,-509.4C752.33,-496.55 726.82,-478.91 706.35,-464.75"/>
<polygon fill="black" stroke="black" points="708.52,-462 698.3,-459.19 704.53,-467.75 708.52,-462"/>
<text xml:space="preserve" text-anchor="middle" x="817.86" y="-478.45" font-family="Arial" font-size="14.00">drives azork subprocess</text>
</g>
<!-- az_cli -->
<g id="node16" class="node">
<title>az_cli</title>
<path fill="none" stroke="black" d="M968.5,-236C968.5,-236 937.5,-236 937.5,-236 931.5,-236 925.5,-230 925.5,-224 925.5,-224 925.5,-212 925.5,-212 925.5,-206 931.5,-200 937.5,-200 937.5,-200 968.5,-200 968.5,-200 974.5,-200 980.5,-206 980.5,-212 980.5,-212 980.5,-224 980.5,-224 980.5,-230 974.5,-236 968.5,-236"/>
<text xml:space="preserve" text-anchor="middle" x="953" y="-212.57" font-family="Arial" font-size="14.00">az CLI</text>
</g>
<!-- azork_oit&#45;&gt;az_cli -->
<g id="edge21" class="edge">
<title>azork_oit&#45;&gt;az_cli</title>
<path fill="none" stroke="black" d="M830.09,-523.17C851.73,-519.1 878.65,-510.39 895,-491.75 956.75,-421.39 958.3,-301.7 955.37,-247.35"/>
<polygon fill="black" stroke="black" points="958.88,-247.45 954.75,-237.7 951.9,-247.9 958.88,-247.45"/>
<text xml:space="preserve" text-anchor="middle" x="1023.38" y="-390.7" font-family="Arial" font-size="14.00">guardrailed az subprocess</text>
</g>
<!-- world -->
<g id="node6" class="node">
<title>world</title>
<path fill="none" stroke="black" d="M92.12,-236C92.12,-236 31.88,-236 31.88,-236 25.88,-236 19.88,-230 19.88,-224 19.88,-224 19.88,-212 19.88,-212 19.88,-206 25.88,-200 31.88,-200 31.88,-200 92.12,-200 92.12,-200 98.12,-200 104.12,-206 104.12,-212 104.12,-212 104.12,-224 104.12,-224 104.12,-230 98.12,-236 92.12,-236"/>
<text xml:space="preserve" text-anchor="middle" x="62" y="-212.57" font-family="Arial" font-size="14.00">World state</text>
</g>
<!-- parser&#45;&gt;world -->
<g id="edge10" class="edge">
<title>parser&#45;&gt;world</title>
<path fill="none" stroke="black" d="M62,-310.97C62,-294.03 62,-267.73 62,-247.59"/>
<polygon fill="black" stroke="black" points="65.5,-247.78 62,-237.78 58.5,-247.78 65.5,-247.78"/>
</g>
<!-- mock_backend -->
<g id="node8" class="node">
<title>mock_backend</title>
<path fill="none" stroke="black" d="M215.88,-236C215.88,-236 136.12,-236 136.12,-236 130.12,-236 124.12,-230 124.12,-224 124.12,-224 124.12,-212 124.12,-212 124.12,-206 130.12,-200 136.12,-200 136.12,-200 215.88,-200 215.88,-200 221.88,-200 227.88,-206 227.88,-212 227.88,-212 227.88,-224 227.88,-224 227.88,-230 221.88,-236 215.88,-236"/>
<text xml:space="preserve" text-anchor="middle" x="176" y="-212.57" font-family="Arial" font-size="14.00">Mock backend</text>
</g>
<!-- backend&#45;&gt;mock_backend -->
<g id="edge11" class="edge">
<title>backend&#45;&gt;mock_backend</title>
<path fill="none" stroke="black" d="M178.53,-310.97C178.07,-294.03 177.34,-267.73 176.79,-247.59"/>
<polygon fill="black" stroke="black" points="180.29,-247.68 176.52,-237.78 173.29,-247.88 180.29,-247.68"/>
</g>
<!-- az_backend -->
<g id="node9" class="node">
<title>az_backend</title>
<path fill="none" stroke="black" d="M320.25,-236C320.25,-236 257.75,-236 257.75,-236 251.75,-236 245.75,-230 245.75,-224 245.75,-224 245.75,-212 245.75,-212 245.75,-206 251.75,-200 257.75,-200 257.75,-200 320.25,-200 320.25,-200 326.25,-200 332.25,-206 332.25,-212 332.25,-212 332.25,-224 332.25,-224 332.25,-230 326.25,-236 320.25,-236"/>
<text xml:space="preserve" text-anchor="middle" x="289" y="-212.57" font-family="Arial" font-size="14.00">Az backend</text>
</g>
<!-- backend&#45;&gt;az_backend -->
<g id="edge12" class="edge">
<title>backend&#45;&gt;az_backend</title>
<path fill="none" stroke="black" d="M196.19,-310.97C214.24,-293.08 242.84,-264.74 263.52,-244.25"/>
<polygon fill="black" stroke="black" points="265.86,-246.86 270.5,-237.34 260.93,-241.89 265.86,-246.86"/>
</g>
<!-- az_backend&#45;&gt;az_cli -->
<g id="edge13" class="edge">
<title>az_backend&#45;&gt;az_cli</title>
<path fill="none" stroke="black" d="M332.57,-218C454.34,-218 796.96,-218 913.57,-218"/>
<polygon fill="black" stroke="black" points="913.56,-221.5 923.56,-218 913.56,-214.5 913.56,-221.5"/>
<text xml:space="preserve" text-anchor="middle" x="628.88" y="-223.45" font-family="Arial" font-size="14.00">subprocess JSON</text>
</g>
<!-- cap_registry&#45;&gt;az_cli -->
<g id="edge14" class="edge">
<title>cap_registry&#45;&gt;az_cli</title>
<path fill="none" stroke="black" d="M707.76,-310.53C733.15,-298.98 768.38,-284.65 801,-277.25 825.33,-271.73 890.92,-280.88 913,-269.25 923.14,-263.91 931.59,-254.75 938.07,-245.71"/>
<polygon fill="black" stroke="black" points="940.96,-247.68 943.49,-237.39 935.09,-243.86 940.96,-247.68"/>
<text xml:space="preserve" text-anchor="middle" x="858" y="-279.7" font-family="Arial" font-size="14.00">learn via AzRunner</text>
</g>
<!-- dungeon_map&#45;&gt;az_cli -->
<g id="edge16" class="edge">
<title>dungeon_map&#45;&gt;az_cli</title>
<path fill="none" stroke="black" d="M525.86,-310.55C544.28,-298.69 570.51,-283.98 596,-277.25 630.07,-268.26 881.46,-284.95 913,-269.25 923.26,-264.14 931.73,-255.03 938.2,-245.96"/>
<polygon fill="black" stroke="black" points="941.12,-247.89 943.59,-237.59 935.23,-244.1 941.12,-247.89"/>
<text xml:space="preserve" text-anchor="middle" x="671" y="-279.7" font-family="Arial" font-size="14.00">mock runner or az JSON</text>
</g>
<!-- port -->
<g id="node14" class="node">
<title>port</title>
<path fill="none" stroke="black" d="M788.25,-125C788.25,-125 575.75,-125 575.75,-125 569.75,-125 563.75,-119 563.75,-113 563.75,-113 563.75,-101 563.75,-101 563.75,-95 569.75,-89 575.75,-89 575.75,-89 788.25,-89 788.25,-89 794.25,-89 800.25,-95 800.25,-101 800.25,-101 800.25,-113 800.25,-113 800.25,-119 794.25,-125 788.25,-125"/>
<text xml:space="preserve" text-anchor="middle" x="682" y="-101.58" font-family="Arial" font-size="14.00">127.0.0.1 port 0 default OS assigned</text>
</g>
<!-- http_server&#45;&gt;port -->
<g id="edge18" class="edge">
<title>http_server&#45;&gt;port</title>
<path fill="none" stroke="black" d="M358.84,-310.55C421.56,-271.24 573.95,-175.72 644.73,-131.36"/>
<polygon fill="black" stroke="black" points="646.26,-134.53 652.88,-126.25 642.55,-128.6 646.26,-134.53"/>
</g>
<!-- api -->
<g id="node15" class="node">
<title>api</title>
<path fill="none" stroke="black" d="M780,-52C780,-52 584,-52 584,-52 578,-52 572,-46 572,-40 572,-40 572,-28 572,-28 572,-22 578,-16 584,-16 584,-16 780,-16 780,-16 786,-16 792,-22 792,-28 792,-28 792,-40 792,-40 792,-46 786,-52 780,-52"/>
<text xml:space="preserve" text-anchor="middle" x="682" y="-28.57" font-family="Arial" font-size="14.00">Index and api v1 rooms resources</text>
</g>
<!-- port&#45;&gt;api -->
<g id="edge19" class="edge">
<title>port&#45;&gt;api</title>
<path fill="none" stroke="black" d="M682,-88.81C682,-81.23 682,-72.1 682,-63.54"/>
<polygon fill="black" stroke="black" points="685.5,-63.54 682,-53.54 678.5,-63.54 685.5,-63.54"/>
</g>
<!-- azext&#45;&gt;azork_repl -->
<g id="edge5" class="edge">
<title>azext&#45;&gt;azork_repl</title>
<path fill="none" stroke="black" d="M1096.38,-236.21C1099.3,-277.55 1104.06,-380.71 1081,-404 1056.65,-428.59 833.84,-436.01 727.71,-438.16"/>
<polygon fill="black" stroke="black" points="727.73,-434.66 717.8,-438.36 727.86,-441.66 727.73,-434.66"/>
<text xml:space="preserve" text-anchor="middle" x="1149.45" y="-323.57" font-family="Arial" font-size="14.00">subprocess stdio</text>
</g>
<!-- node_playwright -->
<g id="node18" class="node">
<title>node_playwright</title>
<path fill="none" stroke="black" d="M1424.75,-236C1424.75,-236 1221.25,-236 1221.25,-236 1215.25,-236 1209.25,-230 1209.25,-224 1209.25,-224 1209.25,-212 1209.25,-212 1209.25,-206 1215.25,-200 1221.25,-200 1221.25,-200 1424.75,-200 1424.75,-200 1430.75,-200 1436.75,-206 1436.75,-212 1436.75,-212 1436.75,-224 1436.75,-224 1436.75,-230 1430.75,-236 1424.75,-236"/>
<text xml:space="preserve" text-anchor="middle" x="1323" y="-212.57" font-family="Arial" font-size="14.00">Node Playwright screenshot tooling</text>
</g>
<!-- node_playwright&#45;&gt;port -->
<g id="edge22" class="edge">
<title>node_playwright&#45;&gt;port</title>
<path fill="none" stroke="black" d="M1239.39,-199.54C1226.22,-196.93 1212.75,-194.33 1200,-192 1067.16,-167.74 914.49,-143.41 809.49,-127.23"/>
<polygon fill="black" stroke="black" points="810.12,-123.78 799.7,-125.72 809.05,-130.7 810.12,-123.78"/>
<text xml:space="preserve" text-anchor="middle" x="1217.85" y="-168.7" font-family="Arial" font-size="14.00">served map screenshots</text>
</g>
</g>
</svg>
