<?xml version="1.0" encoding="UTF-8" standalone="no"?>
<!DOCTYPE svg PUBLIC "-//W3C//DTD SVG 1.1//EN"
 "http://www.w3.org/Graphics/SVG/1.1/DTD/svg11.dtd">
<!-- Generated by graphviz version 14.1.2 (0)
 -->
<!-- Title: compile_deps Pages: 1 -->
<svg width="2117pt" height="389pt"
 viewBox="0.00 0.00 2117.00 389.00" xmlns="http://www.w3.org/2000/svg" xmlns:xlink="http://www.w3.org/1999/xlink">
<g id="graph0" class="graph" transform="scale(1 1) rotate(0) translate(4 385.25)">
<title>compile_deps</title>
<polygon fill="white" stroke="none" points="-4,4 -4,-385.25 2113,-385.25 2113,4 -4,4"/>
<g id="clust1" class="cluster">
<title>cluster_external</title>
<polygon fill="none" stroke="black" points="8,-152 8,-373.25 1345,-373.25 1345,-152 8,-152"/>
<text xml:space="preserve" text-anchor="middle" x="676.5" y="-355.95" font-family="Times,serif" font-size="14.00">Cargo dependencies</text>
</g>
<g id="clust2" class="cluster">
<title>cluster_internal</title>
<polygon fill="none" stroke="black" points="1353,-8 1353,-373.25 2101,-373.25 2101,-8 1353,-8"/>
<text xml:space="preserve" text-anchor="middle" x="1727" y="-355.95" font-family="Times,serif" font-size="14.00">Internal module use graph</text>
</g>
<!-- crate -->
<g id="node1" class="node">
<title>crate</title>
<path fill="none" stroke="black" d="M709.38,-340C709.38,-340 650.62,-340 650.62,-340 644.62,-340 638.62,-334 638.62,-328 638.62,-328 638.62,-316 638.62,-316 638.62,-310 644.62,-304 650.62,-304 650.62,-304 709.38,-304 709.38,-304 715.38,-304 721.38,-310 721.38,-316 721.38,-316 721.38,-328 721.38,-328 721.38,-334 715.38,-340 709.38,-340"/>
<text xml:space="preserve" text-anchor="middle" x="680" y="-316.57" font-family="Arial" font-size="14.00">azork crate</text>
</g>
<!-- anyhow -->
<g id="node2" class="node">
<title>anyhow</title>
<path fill="none" stroke="black" d="M125.5,-268C125.5,-268 28.5,-268 28.5,-268 22.5,-268 16.5,-262 16.5,-256 16.5,-256 16.5,-244 16.5,-244 16.5,-238 22.5,-232 28.5,-232 28.5,-232 125.5,-232 125.5,-232 131.5,-232 137.5,-238 137.5,-244 137.5,-244 137.5,-256 137.5,-256 137.5,-262 131.5,-268 125.5,-268"/>
<text xml:space="preserve" text-anchor="middle" x="77" y="-244.57" font-family="Arial" font-size="14.00">anyhow version 1</text>
</g>
<!-- crate&#45;&gt;anyhow -->
<g id="edge1" class="edge">
<title>crate&#45;&gt;anyhow</title>
<path fill="none" stroke="black" d="M638.18,-318.88C549.58,-313.96 336.34,-299.82 149.02,-268.39"/>
<polygon fill="black" stroke="black" points="149.79,-264.97 139.35,-266.75 148.62,-271.87 149.79,-264.97"/>
</g>
<!-- semver -->
<g id="node3" class="node">
<title>semver</title>
<path fill="none" stroke="black" d="M262.75,-268C262.75,-268 167.25,-268 167.25,-268 161.25,-268 155.25,-262 155.25,-256 155.25,-256 155.25,-244 155.25,-244 155.25,-238 161.25,-232 167.25,-232 167.25,-232 262.75,-232 262.75,-232 268.75,-232 274.75,-238 274.75,-244 274.75,-244 274.75,-256 274.75,-256 274.75,-262 268.75,-268 262.75,-268"/>
<text xml:space="preserve" text-anchor="middle" x="215" y="-244.57" font-family="Arial" font-size="14.00">semver version 1</text>
</g>
<!-- crate&#45;&gt;semver -->
<g id="edge2" class="edge">
<title>crate&#45;&gt;semver</title>
<path fill="none" stroke="black" d="M638.14,-316.91C567.61,-309.69 420.46,-293.22 286.4,-268.34"/>
<polygon fill="black" stroke="black" points="287.09,-264.91 276.61,-266.5 285.8,-271.79 287.09,-264.91"/>
</g>
<!-- serde -->
<g id="node4" class="node">
<title>serde</title>
<path fill="none" stroke="black" d="M429.38,-268C429.38,-268 304.62,-268 304.62,-268 298.62,-268 292.62,-262 292.62,-256 292.62,-256 292.62,-244 292.62,-244 292.62,-238 298.62,-232 304.62,-232 304.62,-232 429.38,-232 429.38,-232 435.38,-232 441.38,-238 441.38,-244 441.38,-244 441.38,-256 441.38,-256 441.38,-262 435.38,-268 429.38,-268"/>
<text xml:space="preserve" text-anchor="middle" x="367" y="-244.57" font-family="Arial" font-size="14.00">serde version 1 derive</text>
</g>
<!-- crate&#45;&gt;serde -->
<g id="edge3" class="edge">
<title>crate&#45;&gt;serde</title>
<path fill="none" stroke="black" d="M638.44,-311.7C591.31,-301.17 513.21,-283.7 452.85,-270.2"/>
<polygon fill="black" stroke="black" points="453.8,-266.83 443.28,-268.06 452.27,-273.66 453.8,-266.83"/>
</g>
<!-- serde_json -->
<g id="node5" class="node">
<title>serde_json</title>
<path fill="none" stroke="black" d="M588.25,-268C588.25,-268 471.75,-268 471.75,-268 465.75,-268 459.75,-262 459.75,-256 459.75,-256 459.75,-244 459.75,-244 459.75,-238 465.75,-232 471.75,-232 471.75,-232 588.25,-232 588.25,-232 594.25,-232 600.25,-238 600.25,-244 600.25,-244 600.25,-256 600.25,-256 600.25,-262 594.25,-268 588.25,-268"/>
<text xml:space="preserve" text-anchor="middle" x="530" y="-244.57" font-family="Arial" font-size="14.00">serde_json version 1</text>
</g>
<!-- crate&#45;&gt;serde_json -->
<g id="edge4" class="edge">
<title>crate&#45;&gt;serde_json</title>
<path fill="none" stroke="black" d="M642.54,-303.52C622.86,-294.34 598.55,-282.99 577.56,-273.2"/>
<polygon fill="black" stroke="black" points="579.16,-270.08 568.62,-269.02 576.2,-276.42 579.16,-270.08"/>
</g>
<!-- sha2 -->
<g id="node6" class="node">
<title>sha2</title>
<path fill="none" stroke="black" d="M729.25,-268C729.25,-268 630.75,-268 630.75,-268 624.75,-268 618.75,-262 618.75,-256 618.75,-256 618.75,-244 618.75,-244 618.75,-238 624.75,-232 630.75,-232 630.75,-232 729.25,-232 729.25,-232 735.25,-232 741.25,-238 741.25,-244 741.25,-244 741.25,-256 741.25,-256 741.25,-262 735.25,-268 729.25,-268"/>
<text xml:space="preserve" text-anchor="middle" x="680" y="-244.57" font-family="Arial" font-size="14.00">sha2 version 0.10</text>
</g>
<!-- crate&#45;&gt;sha2 -->
<g id="edge5" class="edge">
<title>crate&#45;&gt;sha2</title>
<path fill="none" stroke="black" d="M680,-303.7C680,-296.41 680,-287.73 680,-279.54"/>
<polygon fill="black" stroke="black" points="683.5,-279.62 680,-269.62 676.5,-279.62 683.5,-279.62"/>
</g>
<!-- flate2 -->
<g id="node7" class="node">
<title>flate2</title>
<path fill="none" stroke="black" d="M854.75,-268C854.75,-268 771.25,-268 771.25,-268 765.25,-268 759.25,-262 759.25,-256 759.25,-256 759.25,-244 759.25,-244 759.25,-238 765.25,-232 771.25,-232 771.25,-232 854.75,-232 854.75,-232 860.75,-232 866.75,-238 866.75,-244 866.75,-244 866.75,-256 866.75,-256 866.75,-262 860.75,-268 854.75,-268"/>
<text xml:space="preserve" text-anchor="middle" x="813" y="-244.57" font-family="Arial" font-size="14.00">flate2 version 1</text>
</g>
<!-- crate&#45;&gt;flate2 -->
<g id="edge6" class="edge">
<title>crate&#45;&gt;flate2</title>
<path fill="none" stroke="black" d="M713.22,-303.52C730.49,-294.43 751.79,-283.22 770.27,-273.49"/>
<polygon fill="black" stroke="black" points="771.65,-276.72 778.87,-268.97 768.39,-270.53 771.65,-276.72"/>
</g>
<!-- tar -->
<g id="node8" class="node">
<title>tar</title>
<path fill="none" stroke="black" d="M974.75,-268C974.75,-268 897.25,-268 897.25,-268 891.25,-268 885.25,-262 885.25,-256 885.25,-256 885.25,-244 885.25,-244 885.25,-238 891.25,-232 897.25,-232 897.25,-232 974.75,-232 974.75,-232 980.75,-232 986.75,-238 986.75,-244 986.75,-244 986.75,-256 986.75,-256 986.75,-262 980.75,-268 974.75,-268"/>
<text xml:space="preserve" text-anchor="middle" x="936" y="-244.57" font-family="Arial" font-size="14.00">tar version 0.4</text>
</g>
<!-- crate&#45;&gt;tar -->
<g id="edge7" class="edge">
<title>crate&#45;&gt;tar</title>
<path fill="none" stroke="black" d="M721.72,-309.88C759.1,-299.87 815.71,-284.64 874.04,-268.53"/>
<polygon fill="black" stroke="black" points="874.78,-271.95 883.49,-265.91 872.92,-265.21 874.78,-271.95"/>
</g>
<!-- ureq -->
<g id="node9" class="node">
<title>ureq</title>
<path fill="none" stroke="black" d="M1094.75,-268C1094.75,-268 1017.25,-268 1017.25,-268 1011.25,-268 1005.25,-262 1005.25,-256 1005.25,-256 1005.25,-244 1005.25,-244 1005.25,-238 1011.25,-232 1017.25,-232 1017.25,-232 1094.75,-232 1094.75,-232 1100.75,-232 1106.75,-238 1106.75,-244 1106.75,-244 1106.75,-256 1106.75,-256 1106.75,-262 1100.75,-268 1094.75,-268"/>
<text xml:space="preserve" text-anchor="middle" x="1056" y="-244.57" font-family="Arial" font-size="14.00">ureq version 2</text>
</g>
<!-- crate&#45;&gt;ureq -->
<g id="edge8" class="edge">
<title>crate&#45;&gt;ureq</title>
<path fill="none" stroke="black" d="M721.69,-315.5C780.34,-307.43 890.7,-291.07 994.09,-268.29"/>
<polygon fill="black" stroke="black" points="994.56,-271.78 1003.56,-266.18 993.04,-264.94 994.56,-271.78"/>
</g>
<!-- recipe -->
<g id="node10" class="node">
<title>recipe</title>
<path fill="none" stroke="black" d="M1325.25,-268C1325.25,-268 1136.75,-268 1136.75,-268 1130.75,-268 1124.75,-262 1124.75,-256 1124.75,-256 1124.75,-244 1124.75,-244 1124.75,-238 1130.75,-232 1136.75,-232 1136.75,-232 1325.25,-232 1325.25,-232 1331.25,-232 1337.25,-238 1337.25,-244 1337.25,-244 1337.25,-256 1337.25,-256 1337.25,-262 1331.25,-268 1325.25,-268"/>
<text xml:space="preserve" text-anchor="middle" x="1231" y="-244.57" font-family="Arial" font-size="14.00">recipe&#45;runner&#45;rs git rev 90b91f94</text>
</g>
<!-- crate&#45;&gt;recipe -->
<g id="edge9" class="edge">
<title>crate&#45;&gt;recipe</title>
<path fill="none" stroke="black" d="M721.83,-316.28C797.65,-307.64 963.13,-288.43 1113.26,-268.35"/>
<polygon fill="black" stroke="black" points="1113.56,-271.84 1123,-267.04 1112.62,-264.91 1113.56,-271.84"/>
</g>
<!-- crc32fast -->
<g id="node11" class="node">
<title>crc32fast</title>
<path fill="none" stroke="black" d="M271.38,-196C271.38,-196 224.62,-196 224.62,-196 218.62,-196 212.62,-190 212.62,-184 212.62,-184 212.62,-172 212.62,-172 212.62,-166 218.62,-160 224.62,-160 224.62,-160 271.38,-160 271.38,-160 277.38,-160 283.38,-166 283.38,-172 283.38,-172 283.38,-184 283.38,-184 283.38,-190 277.38,-196 271.38,-196"/>
<text xml:space="preserve" text-anchor="middle" x="248" y="-172.57" font-family="Arial" font-size="14.00">crc32fast</text>
</g>
<!-- flate2&#45;&gt;crc32fast -->
<g id="edge10" class="edge">
<title>flate2&#45;&gt;crc32fast</title>
<path fill="none" stroke="black" d="M758.85,-233.7C755.87,-233.08 752.9,-232.5 750,-232 552.43,-197.88 493.23,-239.7 294.85,-196.27"/>
<polygon fill="black" stroke="black" points="295.75,-192.89 285.23,-194.12 294.22,-199.72 295.75,-192.89"/>
</g>
<!-- miniz -->
<g id="node12" class="node">
<title>miniz</title>
<path fill="none" stroke="black" d="M377,-196C377,-196 313,-196 313,-196 307,-196 301,-190 301,-184 301,-184 301,-172 301,-172 301,-166 307,-160 313,-160 313,-160 377,-160 377,-160 383,-160 389,-166 389,-172 389,-172 389,-184 389,-184 389,-190 383,-196 377,-196"/>
<text xml:space="preserve" text-anchor="middle" x="345" y="-172.57" font-family="Arial" font-size="14.00">miniz_oxide</text>
</g>
<!-- flate2&#45;&gt;miniz -->
<g id="edge11" class="edge">
<title>flate2&#45;&gt;miniz</title>
<path fill="none" stroke="black" d="M758.83,-233.79C755.85,-233.14 752.9,-232.54 750,-232 598.98,-204.09 554.03,-227.06 400.59,-196.28"/>
<polygon fill="black" stroke="black" points="401.34,-192.86 390.84,-194.27 399.93,-199.71 401.34,-192.86"/>
</g>
<!-- clap -->
<g id="node13" class="node">
<title>clap</title>
<path fill="none" stroke="black" d="M449,-196C449,-196 419,-196 419,-196 413,-196 407,-190 407,-184 407,-184 407,-172 407,-172 407,-166 413,-160 419,-160 419,-160 449,-160 449,-160 455,-160 461,-166 461,-172 461,-172 461,-184 461,-184 461,-190 455,-196 449,-196"/>
<text xml:space="preserve" text-anchor="middle" x="434" y="-172.57" font-family="Arial" font-size="14.00">clap</text>
</g>
<!-- recipe&#45;&gt;clap -->
<g id="edge12" class="edge">
<title>recipe&#45;&gt;clap</title>
<path fill="none" stroke="black" d="M1124.53,-232.91C1121.66,-232.59 1118.81,-232.29 1116,-232 833.55,-203.31 750.82,-265.1 471.97,-195.86"/>
<polygon fill="black" stroke="black" points="473.13,-192.55 462.58,-193.5 471.42,-199.34 473.13,-192.55"/>
</g>
<!-- dirs -->
<g id="node14" class="node">
<title>dirs</title>
<path fill="none" stroke="black" d="M521,-196C521,-196 491,-196 491,-196 485,-196 479,-190 479,-184 479,-184 479,-172 479,-172 479,-166 485,-160 491,-160 491,-160 521,-160 521,-160 527,-160 533,-166 533,-172 533,-172 533,-184 533,-184 533,-190 527,-196 521,-196"/>
<text xml:space="preserve" text-anchor="middle" x="506" y="-172.57" font-family="Arial" font-size="14.00">dirs</text>
</g>
<!-- recipe&#45;&gt;dirs -->
<g id="edge13" class="edge">
<title>recipe&#45;&gt;dirs</title>
<path fill="none" stroke="black" d="M1124.53,-232.94C1121.66,-232.61 1118.81,-232.3 1116,-232 865.51,-205.68 791.7,-258.13 544.27,-195.96"/>
<polygon fill="black" stroke="black" points="545.14,-192.57 534.58,-193.48 543.4,-199.35 545.14,-192.57"/>
</g>
<!-- env_logger -->
<g id="node15" class="node">
<title>env_logger</title>
<path fill="none" stroke="black" d="M621.38,-196C621.38,-196 562.62,-196 562.62,-196 556.62,-196 550.62,-190 550.62,-184 550.62,-184 550.62,-172 550.62,-172 550.62,-166 556.62,-160 562.62,-160 562.62,-160 621.38,-160 621.38,-160 627.38,-160 633.38,-166 633.38,-172 633.38,-172 633.38,-184 633.38,-184 633.38,-190 627.38,-196 621.38,-196"/>
<text xml:space="preserve" text-anchor="middle" x="592" y="-172.57" font-family="Arial" font-size="14.00">env_logger</text>
</g>
<!-- recipe&#45;&gt;env_logger -->
<g id="edge14" class="edge">
<title>recipe&#45;&gt;env_logger</title>
<path fill="none" stroke="black" d="M1124.52,-232.99C1121.65,-232.64 1118.81,-232.31 1116,-232 909.72,-208.95 851.04,-237.31 645,-196.33"/>
<polygon fill="black" stroke="black" points="645.78,-192.92 635.28,-194.37 644.39,-199.78 645.78,-192.92"/>
</g>
<!-- regex -->
<g id="node16" class="node">
<title>regex</title>
<path fill="none" stroke="black" d="M693,-196C693,-196 663,-196 663,-196 657,-196 651,-190 651,-184 651,-184 651,-172 651,-172 651,-166 657,-160 663,-160 663,-160 693,-160 693,-160 699,-160 705,-166 705,-172 705,-172 705,-184 705,-184 705,-190 699,-196 693,-196"/>
<text xml:space="preserve" text-anchor="middle" x="678" y="-172.57" font-family="Arial" font-size="14.00">regex</text>
</g>
<!-- recipe&#45;&gt;regex -->
<g id="edge15" class="edge">
<title>recipe&#45;&gt;regex</title>
<path fill="none" stroke="black" d="M1124.52,-233.04C1121.65,-232.68 1118.81,-232.33 1116,-232 941.52,-211.31 889.24,-241.73 716.17,-196"/>
<polygon fill="black" stroke="black" points="717.16,-192.64 706.6,-193.42 715.34,-199.4 717.16,-192.64"/>
</g>
<!-- yaml -->
<g id="node17" class="node">
<title>yaml</title>
<path fill="none" stroke="black" d="M797.25,-196C797.25,-196 734.75,-196 734.75,-196 728.75,-196 722.75,-190 722.75,-184 722.75,-184 722.75,-172 722.75,-172 722.75,-166 728.75,-160 734.75,-160 734.75,-160 797.25,-160 797.25,-160 803.25,-160 809.25,-166 809.25,-172 809.25,-172 809.25,-184 809.25,-184 809.25,-190 803.25,-196 797.25,-196"/>
<text xml:space="preserve" text-anchor="middle" x="766" y="-172.57" font-family="Arial" font-size="14.00">serde_yaml</text>
</g>
<!-- recipe&#45;&gt;yaml -->
<g id="edge16" class="edge">
<title>recipe&#45;&gt;yaml</title>
<path fill="none" stroke="black" d="M1124.5,-233.16C1121.64,-232.76 1118.8,-232.38 1116,-232 987.39,-214.73 950.26,-224.31 820.67,-196.36"/>
<polygon fill="black" stroke="black" points="821.52,-192.96 811,-194.24 820.02,-199.8 821.52,-192.96"/>
</g>
<!-- tempfile -->
<g id="node18" class="node">
<title>tempfile</title>
<path fill="none" stroke="black" d="M879,-196C879,-196 839,-196 839,-196 833,-196 827,-190 827,-184 827,-184 827,-172 827,-172 827,-166 833,-160 839,-160 839,-160 879,-160 879,-160 885,-160 891,-166 891,-172 891,-172 891,-184 891,-184 891,-190 885,-196 879,-196"/>
<text xml:space="preserve" text-anchor="middle" x="859" y="-172.57" font-family="Arial" font-size="14.00">tempfile</text>
</g>
<!-- recipe&#45;&gt;tempfile -->
<g id="edge17" class="edge">
<title>recipe&#45;&gt;tempfile</title>
<path fill="none" stroke="black" d="M1124.64,-233.24C1044.85,-221.23 943.64,-205.53 902.55,-196.08"/>
<polygon fill="black" stroke="black" points="903.45,-192.7 892.9,-193.63 901.72,-199.48 903.45,-192.7"/>
</g>
<!-- thiserror -->
<g id="node19" class="node">
<title>thiserror</title>
<path fill="none" stroke="black" d="M962.75,-196C962.75,-196 921.25,-196 921.25,-196 915.25,-196 909.25,-190 909.25,-184 909.25,-184 909.25,-172 909.25,-172 909.25,-166 915.25,-160 921.25,-160 921.25,-160 962.75,-160 962.75,-160 968.75,-160 974.75,-166 974.75,-172 974.75,-172 974.75,-184 974.75,-184 974.75,-190 968.75,-196 962.75,-196"/>
<text xml:space="preserve" text-anchor="middle" x="942" y="-172.57" font-family="Arial" font-size="14.00">thiserror</text>
</g>
<!-- recipe&#45;&gt;thiserror -->
<g id="edge18" class="edge">
<title>recipe&#45;&gt;thiserror</title>
<path fill="none" stroke="black" d="M1130.54,-231.54C1088.21,-223.21 1038.38,-212.12 985.74,-196.26"/>
<polygon fill="black" stroke="black" points="986.85,-192.94 976.27,-193.36 984.8,-199.63 986.85,-192.94"/>
</g>
<!-- tracing -->
<g id="node20" class="node">
<title>tracing</title>
<path fill="none" stroke="black" d="M1037.25,-196C1037.25,-196 1004.75,-196 1004.75,-196 998.75,-196 992.75,-190 992.75,-184 992.75,-184 992.75,-172 992.75,-172 992.75,-166 998.75,-160 1004.75,-160 1004.75,-160 1037.25,-160 1037.25,-160 1043.25,-160 1049.25,-166 1049.25,-172 1049.25,-172 1049.25,-184 1049.25,-184 1049.25,-190 1043.25,-196 1037.25,-196"/>
<text xml:space="preserve" text-anchor="middle" x="1021" y="-172.57" font-family="Arial" font-size="14.00">tracing</text>
</g>
<!-- recipe&#45;&gt;tracing -->
<g id="edge19" class="edge">
<title>recipe&#45;&gt;tracing</title>
<path fill="none" stroke="black" d="M1167.04,-231.62C1136.81,-222.89 1100.13,-211.57 1060.28,-196.65"/>
<polygon fill="black" stroke="black" points="1061.53,-193.38 1050.94,-193.1 1059.04,-199.92 1061.53,-193.38"/>
</g>
<!-- uuid -->
<g id="node21" class="node">
<title>uuid</title>
<path fill="none" stroke="black" d="M1109,-196C1109,-196 1079,-196 1079,-196 1073,-196 1067,-190 1067,-184 1067,-184 1067,-172 1067,-172 1067,-166 1073,-160 1079,-160 1079,-160 1109,-160 1109,-160 1115,-160 1121,-166 1121,-172 1121,-172 1121,-184 1121,-184 1121,-190 1115,-196 1109,-196"/>
<text xml:space="preserve" text-anchor="middle" x="1094" y="-172.57" font-family="Arial" font-size="14.00">uuid</text>
</g>
<!-- recipe&#45;&gt;uuid -->
<g id="edge20" class="edge">
<title>recipe&#45;&gt;uuid</title>
<path fill="none" stroke="black" d="M1196.78,-231.52C1176.94,-221.38 1151.93,-208.6 1131.54,-198.18"/>
<polygon fill="black" stroke="black" points="1133.21,-195.1 1122.71,-193.67 1130.02,-201.34 1133.21,-195.1"/>
</g>
<!-- hex -->
<g id="node22" class="node">
<title>hex</title>
<path fill="none" stroke="black" d="M1181,-196C1181,-196 1151,-196 1151,-196 1145,-196 1139,-190 1139,-184 1139,-184 1139,-172 1139,-172 1139,-166 1145,-160 1151,-160 1151,-160 1181,-160 1181,-160 1187,-160 1193,-166 1193,-172 1193,-172 1193,-184 1193,-184 1193,-190 1187,-196 1181,-196"/>
<text xml:space="preserve" text-anchor="middle" x="1166" y="-172.57" font-family="Arial" font-size="14.00">hex</text>
</g>
<!-- recipe&#45;&gt;hex -->
<g id="edge21" class="edge">
<title>recipe&#45;&gt;hex</title>
<path fill="none" stroke="black" d="M1214.93,-231.7C1207.3,-223.47 1198.02,-213.48 1189.6,-204.42"/>
<polygon fill="black" stroke="black" points="1192.28,-202.16 1182.91,-197.21 1187.15,-206.92 1192.28,-202.16"/>
</g>
<!-- log -->
<g id="node23" class="node">
<title>log</title>
<path fill="none" stroke="black" d="M1253,-196C1253,-196 1223,-196 1223,-196 1217,-196 1211,-190 1211,-184 1211,-184 1211,-172 1211,-172 1211,-166 1217,-160 1223,-160 1223,-160 1253,-160 1253,-160 1259,-160 1265,-166 1265,-172 1265,-172 1265,-184 1265,-184 1265,-190 1259,-196 1253,-196"/>
<text xml:space="preserve" text-anchor="middle" x="1238" y="-172.57" font-family="Arial" font-size="14.00">log</text>
</g>
<!-- recipe&#45;&gt;log -->
<g id="edge22" class="edge">
<title>recipe&#45;&gt;log</title>
<path fill="none" stroke="black" d="M1232.73,-231.7C1233.46,-224.41 1234.33,-215.73 1235.15,-207.54"/>
<polygon fill="black" stroke="black" points="1238.63,-207.91 1236.14,-197.61 1231.66,-207.21 1238.63,-207.91"/>
</g>
<!-- libc -->
<g id="node24" class="node">
<title>libc</title>
<path fill="none" stroke="black" d="M1325,-196C1325,-196 1295,-196 1295,-196 1289,-196 1283,-190 1283,-184 1283,-184 1283,-172 1283,-172 1283,-166 1289,-160 1295,-160 1295,-160 1325,-160 1325,-160 1331,-160 1337,-166 1337,-172 1337,-172 1337,-184 1337,-184 1337,-190 1331,-196 1325,-196"/>
<text xml:space="preserve" text-anchor="middle" x="1310" y="-172.57" font-family="Arial" font-size="14.00">libc</text>
</g>
<!-- recipe&#45;&gt;libc -->
<g id="edge23" class="edge">
<title>recipe&#45;&gt;libc</title>
<path fill="none" stroke="black" d="M1250.53,-231.7C1260.02,-223.28 1271.61,-213.02 1282.02,-203.79"/>
<polygon fill="black" stroke="black" points="1284.13,-206.6 1289.29,-197.35 1279.48,-201.36 1284.13,-206.6"/>
</g>
<!-- lib -->
<g id="node25" class="node">
<title>lib</title>
<path fill="none" stroke="black" d="M1659.12,-340C1659.12,-340 1616.88,-340 1616.88,-340 1610.88,-340 1604.88,-334 1604.88,-328 1604.88,-328 1604.88,-316 1604.88,-316 1604.88,-310 1610.88,-304 1616.88,-304 1616.88,-304 1659.12,-304 1659.12,-304 1665.12,-304 1671.12,-310 1671.12,-316 1671.12,-316 1671.12,-328 1671.12,-328 1671.12,-334 1665.12,-340 1659.12,-340"/>
<text xml:space="preserve" text-anchor="middle" x="1638" y="-316.57" font-family="Arial" font-size="14.00">src/lib.rs</text>
</g>
<!-- backend -->
<g id="node28" class="node">
<title>backend</title>
<path fill="none" stroke="black" d="M1891.38,-196C1891.38,-196 1826.62,-196 1826.62,-196 1820.62,-196 1814.62,-190 1814.62,-184 1814.62,-184 1814.62,-172 1814.62,-172 1814.62,-166 1820.62,-160 1826.62,-160 1826.62,-160 1891.38,-160 1891.38,-160 1897.38,-160 1903.38,-166 1903.38,-172 1903.38,-172 1903.38,-184 1903.38,-184 1903.38,-190 1897.38,-196 1891.38,-196"/>
<text xml:space="preserve" text-anchor="middle" x="1859" y="-172.57" font-family="Arial" font-size="14.00">src/backend</text>
</g>
<!-- lib&#45;&gt;backend -->
<g id="edge24" class="edge">
<title>lib&#45;&gt;backend</title>
<path fill="none" stroke="black" d="M1671.56,-321.21C1714.48,-319.62 1788.45,-310.36 1832,-268 1848.2,-252.24 1854.76,-227.12 1857.37,-207.57"/>
<polygon fill="black" stroke="black" points="1860.84,-208.07 1858.39,-197.76 1853.88,-207.35 1860.84,-208.07"/>
</g>
<!-- world -->
<g id="node29" class="node">
<title>world</title>
<path fill="none" stroke="black" d="M2014.5,-124C2014.5,-124 1953.5,-124 1953.5,-124 1947.5,-124 1941.5,-118 1941.5,-112 1941.5,-112 1941.5,-100 1941.5,-100 1941.5,-94 1947.5,-88 1953.5,-88 1953.5,-88 2014.5,-88 2014.5,-88 2020.5,-88 2026.5,-94 2026.5,-100 2026.5,-100 2026.5,-112 2026.5,-112 2026.5,-118 2020.5,-124 2014.5,-124"/>
<text xml:space="preserve" text-anchor="middle" x="1984" y="-100.58" font-family="Arial" font-size="14.00">src/world.rs</text>
</g>
<!-- lib&#45;&gt;world -->
<g id="edge25" class="edge">
<title>lib&#45;&gt;world</title>
<path fill="none" stroke="black" d="M1671.45,-316.6C1763.64,-303.7 2017.49,-262.59 2062,-196 2072.87,-179.74 2071.78,-168.93 2062,-152 2056.07,-141.74 2046.82,-133.61 2036.73,-127.25"/>
<polygon fill="black" stroke="black" points="2038.63,-124.3 2028.2,-122.43 2035.18,-130.4 2038.63,-124.3"/>
</g>
<!-- parser -->
<g id="node30" class="node">
<title>parser</title>
<path fill="none" stroke="black" d="M1986.12,-52C1986.12,-52 1919.88,-52 1919.88,-52 1913.88,-52 1907.88,-46 1907.88,-40 1907.88,-40 1907.88,-28 1907.88,-28 1907.88,-22 1913.88,-16 1919.88,-16 1919.88,-16 1986.12,-16 1986.12,-16 1992.12,-16 1998.12,-22 1998.12,-28 1998.12,-28 1998.12,-40 1998.12,-40 1998.12,-46 1992.12,-52 1986.12,-52"/>
<text xml:space="preserve" text-anchor="middle" x="1953" y="-28.57" font-family="Arial" font-size="14.00">src/parser.rs</text>
</g>
<!-- lib&#45;&gt;parser -->
<g id="edge26" class="edge">
<title>lib&#45;&gt;parser</title>
<path fill="none" stroke="black" d="M1671.51,-320.72C1733.14,-319.14 1867.62,-310.61 1971,-268 1983.66,-262.78 2064.76,-208.19 2071,-196 2094,-151.09 2070.45,-124.87 2036,-88 2025.3,-76.55 2011.63,-66.51 1998.48,-58.33"/>
<polygon fill="black" stroke="black" points="2000.27,-55.32 1989.89,-53.22 1996.69,-61.34 2000.27,-55.32"/>
</g>
<!-- dungeon -->
<g id="node31" class="node">
<title>dungeon</title>
<path fill="none" stroke="black" d="M1742.12,-124C1742.12,-124 1675.88,-124 1675.88,-124 1669.88,-124 1663.88,-118 1663.88,-112 1663.88,-112 1663.88,-100 1663.88,-100 1663.88,-94 1669.88,-88 1675.88,-88 1675.88,-88 1742.12,-88 1742.12,-88 1748.12,-88 1754.12,-94 1754.12,-100 1754.12,-100 1754.12,-112 1754.12,-112 1754.12,-118 1748.12,-124 1742.12,-124"/>
<text xml:space="preserve" text-anchor="middle" x="1709" y="-100.58" font-family="Arial" font-size="14.00">src/dungeon</text>
</g>
<!-- lib&#45;&gt;dungeon -->
<g id="edge27" class="edge">
<title>lib&#45;&gt;dungeon</title>
<path fill="none" stroke="black" d="M1634.64,-303.65C1629.34,-271.52 1622.2,-201.52 1649,-152 1653.27,-144.11 1659.59,-137.21 1666.54,-131.33"/>
<polygon fill="black" stroke="black" points="1668.55,-134.2 1674.38,-125.36 1664.31,-128.63 1668.55,-134.2"/>
</g>
<!-- capabilities -->
<g id="node32" class="node">
<title>capabilities</title>
<path fill="none" stroke="black" d="M1532.25,-124C1532.25,-124 1451.75,-124 1451.75,-124 1445.75,-124 1439.75,-118 1439.75,-112 1439.75,-112 1439.75,-100 1439.75,-100 1439.75,-94 1445.75,-88 1451.75,-88 1451.75,-88 1532.25,-88 1532.25,-88 1538.25,-88 1544.25,-94 1544.25,-100 1544.25,-100 1544.25,-112 1544.25,-112 1544.25,-118 1538.25,-124 1532.25,-124"/>
<text xml:space="preserve" text-anchor="middle" x="1492" y="-100.58" font-family="Arial" font-size="14.00">src/capabilities</text>
</g>
<!-- lib&#45;&gt;capabilities -->
<g id="edge28" class="edge">
<title>lib&#45;&gt;capabilities</title>
<path fill="none" stroke="black" d="M1615.52,-303.59C1580.47,-275.95 1515.43,-222.45 1502,-196 1492.58,-177.44 1490.28,-153.95 1490.22,-135.76"/>
<polygon fill="black" stroke="black" points="1493.72,-136 1490.44,-125.92 1486.72,-135.84 1493.72,-136"/>
</g>
<!-- memory -->
<g id="node33" class="node">
<title>memory</title>
<path fill="none" stroke="black" d="M1587,-196C1587,-196 1523,-196 1523,-196 1517,-196 1511,-190 1511,-184 1511,-184 1511,-172 1511,-172 1511,-166 1517,-160 1523,-160 1523,-160 1587,-160 1587,-160 1593,-160 1599,-166 1599,-172 1599,-172 1599,-184 1599,-184 1599,-190 1593,-196 1587,-196"/>
<text xml:space="preserve" text-anchor="middle" x="1555" y="-172.57" font-family="Arial" font-size="14.00">src/memory</text>
</g>
<!-- lib&#45;&gt;memory -->
<g id="edge29" class="edge">
<title>lib&#45;&gt;memory</title>
<path fill="none" stroke="black" d="M1627.82,-303.59C1613.56,-279.18 1587.49,-234.58 1570.72,-205.89"/>
<polygon fill="black" stroke="black" points="1573.83,-204.28 1565.77,-197.42 1567.79,-207.82 1573.83,-204.28"/>
</g>
<!-- update -->
<g id="node34" class="node">
<title>update</title>
<path fill="none" stroke="black" d="M1724.5,-196C1724.5,-196 1669.5,-196 1669.5,-196 1663.5,-196 1657.5,-190 1657.5,-184 1657.5,-184 1657.5,-172 1657.5,-172 1657.5,-166 1663.5,-160 1669.5,-160 1669.5,-160 1724.5,-160 1724.5,-160 1730.5,-160 1736.5,-166 1736.5,-172 1736.5,-172 1736.5,-184 1736.5,-184 1736.5,-190 1730.5,-196 1724.5,-196"/>
<text xml:space="preserve" text-anchor="middle" x="1697" y="-172.57" font-family="Arial" font-size="14.00">src/update</text>
</g>
<!-- lib&#45;&gt;update -->
<g id="edge30" class="edge">
<title>lib&#45;&gt;update</title>
<path fill="none" stroke="black" d="M1645.23,-303.59C1655.29,-279.4 1673.58,-235.36 1685.51,-206.65"/>
<polygon fill="black" stroke="black" points="1688.7,-208.09 1689.31,-197.51 1682.24,-205.4 1688.7,-208.09"/>
</g>
<!-- agent -->
<g id="node35" class="node">
<title>agent</title>
<path fill="none" stroke="black" d="M1460.75,-196C1460.75,-196 1413.25,-196 1413.25,-196 1407.25,-196 1401.25,-190 1401.25,-184 1401.25,-184 1401.25,-172 1401.25,-172 1401.25,-166 1407.25,-160 1413.25,-160 1413.25,-160 1460.75,-160 1460.75,-160 1466.75,-160 1472.75,-166 1472.75,-172 1472.75,-172 1472.75,-184 1472.75,-184 1472.75,-190 1466.75,-196 1460.75,-196"/>
<text xml:space="preserve" text-anchor="middle" x="1437" y="-172.57" font-family="Arial" font-size="14.00">src/agent</text>
</g>
<!-- lib&#45;&gt;agent -->
<g id="edge31" class="edge">
<title>lib&#45;&gt;agent</title>
<path fill="none" stroke="black" d="M1604.41,-308.66C1582.95,-299.65 1555.42,-285.89 1535,-268 1520.35,-255.16 1523.63,-245.92 1510,-232 1499.54,-221.32 1486.73,-211.23 1474.77,-202.78"/>
<polygon fill="black" stroke="black" points="1476.9,-200 1466.68,-197.23 1472.95,-205.77 1476.9,-200"/>
</g>
<!-- agent_engine -->
<g id="node36" class="node">
<title>agent_engine</title>
<path fill="none" stroke="black" d="M1488.75,-268C1488.75,-268 1393.25,-268 1393.25,-268 1387.25,-268 1381.25,-262 1381.25,-256 1381.25,-256 1381.25,-244 1381.25,-244 1381.25,-238 1387.25,-232 1393.25,-232 1393.25,-232 1488.75,-232 1488.75,-232 1494.75,-232 1500.75,-238 1500.75,-244 1500.75,-244 1500.75,-256 1500.75,-256 1500.75,-262 1494.75,-268 1488.75,-268"/>
<text xml:space="preserve" text-anchor="middle" x="1441" y="-244.57" font-family="Arial" font-size="14.00">src/agent_engine</text>
</g>
<!-- lib&#45;&gt;agent_engine -->
<g id="edge32" class="edge">
<title>lib&#45;&gt;agent_engine</title>
<path fill="none" stroke="black" d="M1604.58,-309.13C1576.25,-299.06 1534.92,-284.37 1500.89,-272.28"/>
<polygon fill="black" stroke="black" points="1502.15,-269.01 1491.55,-268.96 1499.81,-275.61 1502.15,-269.01"/>
</g>
<!-- oit -->
<g id="node37" class="node">
<title>oit</title>
<path fill="none" stroke="black" d="M2081,-268C2081,-268 2051,-268 2051,-268 2045,-268 2039,-262 2039,-256 2039,-256 2039,-244 2039,-244 2039,-238 2045,-232 2051,-232 2051,-232 2081,-232 2081,-232 2087,-232 2093,-238 2093,-244 2093,-244 2093,-256 2093,-256 2093,-262 2087,-268 2081,-268"/>
<text xml:space="preserve" text-anchor="middle" x="2066" y="-244.57" font-family="Arial" font-size="14.00">src/oit</text>
</g>
<!-- lib&#45;&gt;oit -->
<g id="edge33" class="edge">
<title>lib&#45;&gt;oit</title>
<path fill="none" stroke="black" d="M1671.45,-319.31C1739.23,-315.26 1897.2,-302.63 2025,-268 2025.98,-267.74 2026.96,-267.45 2027.95,-267.16"/>
<polygon fill="black" stroke="black" points="2028.8,-270.56 2037.12,-264 2026.52,-263.95 2028.8,-270.56"/>
</g>
<!-- az_runner -->
<g id="node38" class="node">
<title>az_runner</title>
<path fill="none" stroke="black" d="M1753.38,-52C1753.38,-52 1664.62,-52 1664.62,-52 1658.62,-52 1652.62,-46 1652.62,-40 1652.62,-40 1652.62,-28 1652.62,-28 1652.62,-22 1658.62,-16 1664.62,-16 1664.62,-16 1753.38,-16 1753.38,-16 1759.38,-16 1765.38,-22 1765.38,-28 1765.38,-28 1765.38,-40 1765.38,-40 1765.38,-46 1759.38,-52 1753.38,-52"/>
<text xml:space="preserve" text-anchor="middle" x="1709" y="-28.57" font-family="Arial" font-size="14.00">src/az_runner.rs</text>
</g>
<!-- lib&#45;&gt;az_runner -->
<g id="edge34" class="edge">
<title>lib&#45;&gt;az_runner</title>
<path fill="none" stroke="black" d="M1633.01,-303.5C1630.34,-293.25 1627.34,-280 1626,-268 1622.96,-240.83 1629.37,-154.92 1630,-152 1636.4,-122.14 1638.17,-113.48 1655,-88 1661.62,-77.97 1670.41,-68.34 1678.97,-60.1"/>
<polygon fill="black" stroke="black" points="1681.27,-62.75 1686.25,-53.39 1676.52,-57.6 1681.27,-62.75"/>
</g>
<!-- secrets -->
<g id="node39" class="node">
<title>secrets</title>
<path fill="none" stroke="black" d="M1599.12,-52C1599.12,-52 1526.88,-52 1526.88,-52 1520.88,-52 1514.88,-46 1514.88,-40 1514.88,-40 1514.88,-28 1514.88,-28 1514.88,-22 1520.88,-16 1526.88,-16 1526.88,-16 1599.12,-16 1599.12,-16 1605.12,-16 1611.12,-22 1611.12,-28 1611.12,-28 1611.12,-40 1611.12,-40 1611.12,-46 1605.12,-52 1599.12,-52"/>
<text xml:space="preserve" text-anchor="middle" x="1563" y="-28.57" font-family="Arial" font-size="14.00">src/secrets.rs</text>
</g>
<!-- lib&#45;&gt;secrets -->
<g id="edge35" class="edge">
<title>lib&#45;&gt;secrets</title>
<path fill="none" stroke="black" d="M1604.85,-319.45C1540.21,-315.67 1401.12,-303.49 1372,-268 1318.6,-202.91 1363.71,-138.59 1431,-88 1452.48,-71.85 1479.55,-59.85 1503.58,-51.39"/>
<polygon fill="black" stroke="black" points="1504.59,-54.75 1512.94,-48.24 1502.35,-48.12 1504.59,-54.75"/>
</g>
<!-- quests -->
<g id="node40" class="node">
<title>quests</title>
<path fill="none" stroke="black" d="M2041.25,-196C2041.25,-196 1972.75,-196 1972.75,-196 1966.75,-196 1960.75,-190 1960.75,-184 1960.75,-184 1960.75,-172 1960.75,-172 1960.75,-166 1966.75,-160 1972.75,-160 1972.75,-160 2041.25,-160 2041.25,-160 2047.25,-160 2053.25,-166 2053.25,-172 2053.25,-172 2053.25,-184 2053.25,-184 2053.25,-190 2047.25,-196 2041.25,-196"/>
<text xml:space="preserve" text-anchor="middle" x="2007" y="-172.57" font-family="Arial" font-size="14.00">src/quests.rs</text>
</g>
<!-- lib&#45;&gt;quests -->
<g id="edge36" class="edge">
<title>lib&#45;&gt;quests</title>
<path fill="none" stroke="black" d="M1671.41,-315.3C1713.38,-307.52 1787.16,-291.76 1847,-268 1891.78,-250.22 1939.63,-222.29 1971.22,-202.46"/>
<polygon fill="black" stroke="black" points="1973.03,-205.46 1979.6,-197.14 1969.28,-199.55 1973.03,-205.46"/>
</g>
<!-- main -->
<g id="node26" class="node">
<title>main</title>
<path fill="none" stroke="black" d="M1811.38,-268C1811.38,-268 1752.62,-268 1752.62,-268 1746.62,-268 1740.62,-262 1740.62,-256 1740.62,-256 1740.62,-244 1740.62,-244 1740.62,-238 1746.62,-232 1752.62,-232 1752.62,-232 1811.38,-232 1811.38,-232 1817.38,-232 1823.38,-238 1823.38,-244 1823.38,-244 1823.38,-256 1823.38,-256 1823.38,-262 1817.38,-268 1811.38,-268"/>
<text xml:space="preserve" text-anchor="middle" x="1782" y="-244.57" font-family="Arial" font-size="14.00">src/main.rs</text>
</g>
<!-- main&#45;&gt;backend -->
<g id="edge37" class="edge">
<title>main&#45;&gt;backend</title>
<path fill="none" stroke="black" d="M1801.03,-231.7C1810.2,-223.37 1821.35,-213.22 1831.43,-204.07"/>
<polygon fill="black" stroke="black" points="1833.75,-206.68 1838.8,-197.37 1829.04,-201.5 1833.75,-206.68"/>
</g>
<!-- main&#45;&gt;world -->
<g id="edge38" class="edge">
<title>main&#45;&gt;world</title>
<path fill="none" stroke="black" d="M1823.73,-241.83C1855.05,-234.68 1897.43,-221.02 1927,-196 1944.17,-181.47 1939.91,-170.97 1952,-152 1955.92,-145.85 1960.34,-139.37 1964.62,-133.31"/>
<polygon fill="black" stroke="black" points="1967.26,-135.64 1970.24,-125.47 1961.57,-131.56 1967.26,-135.64"/>
</g>
<!-- main&#45;&gt;parser -->
<g id="edge39" class="edge">
<title>main&#45;&gt;parser</title>
<path fill="none" stroke="black" d="M1823.77,-236.74C1857.19,-226.1 1900.32,-210.22 1912,-196 1927.52,-177.11 1926.33,-111.52 1933,-88 1935.34,-79.77 1938.39,-71.01 1941.41,-63.04"/>
<polygon fill="black" stroke="black" points="1944.63,-64.41 1945.02,-53.83 1938.11,-61.86 1944.63,-64.41"/>
</g>
<!-- main&#45;&gt;dungeon -->
<g id="edge40" class="edge">
<title>main&#45;&gt;dungeon</title>
<path fill="none" stroke="black" d="M1781.52,-231.68C1780.25,-211.3 1775.85,-177.05 1761,-152 1756.55,-144.49 1750.39,-137.6 1743.88,-131.59"/>
<polygon fill="black" stroke="black" points="1746.56,-129.27 1736.68,-125.44 1742.01,-134.6 1746.56,-129.27"/>
</g>
<!-- main&#45;&gt;capabilities -->
<g id="edge41" class="edge">
<title>main&#45;&gt;capabilities</title>
<path fill="none" stroke="black" d="M1774.98,-231.9C1770.79,-221.55 1765.45,-208.07 1761,-196 1753.86,-176.61 1761.68,-165.45 1746,-152 1731.68,-139.72 1626.19,-124.11 1555.73,-114.88"/>
<polygon fill="black" stroke="black" points="1556.62,-111.46 1546.25,-113.64 1555.71,-118.4 1556.62,-111.46"/>
</g>
<!-- main&#45;&gt;memory -->
<g id="edge42" class="edge">
<title>main&#45;&gt;memory</title>
<path fill="none" stroke="black" d="M1740.36,-236.16C1703.86,-224.9 1650.51,-208.45 1610.41,-196.09"/>
<polygon fill="black" stroke="black" points="1611.51,-192.76 1600.92,-193.16 1609.45,-199.45 1611.51,-192.76"/>
</g>
<!-- main&#45;&gt;update -->
<g id="edge43" class="edge">
<title>main&#45;&gt;update</title>
<path fill="none" stroke="black" d="M1760.99,-231.7C1750.67,-223.2 1738.06,-212.81 1726.77,-203.51"/>
<polygon fill="black" stroke="black" points="1729.18,-200.96 1719.23,-197.31 1724.73,-206.37 1729.18,-200.96"/>
</g>
<!-- main&#45;&gt;agent -->
<g id="edge44" class="edge">
<title>main&#45;&gt;agent</title>
<path fill="none" stroke="black" d="M1740.54,-242.07C1685.72,-232.7 1586.22,-214.96 1502,-196 1496.1,-194.67 1489.92,-193.18 1483.82,-191.65"/>
<polygon fill="black" stroke="black" points="1485.01,-188.35 1474.46,-189.26 1483.28,-195.13 1485.01,-188.35"/>
</g>
<!-- main&#45;&gt;az_runner -->
<g id="edge45" class="edge">
<title>main&#45;&gt;az_runner</title>
<path fill="none" stroke="black" d="M1783.81,-231.86C1786.26,-201.11 1787.81,-135.37 1763,-88 1757.56,-77.61 1749.35,-68.03 1740.96,-59.95"/>
<polygon fill="black" stroke="black" points="1743.5,-57.52 1733.73,-53.41 1738.8,-62.71 1743.5,-57.52"/>
</g>
<!-- main&#45;&gt;quests -->
<g id="edge46" class="edge">
<title>main&#45;&gt;quests</title>
<path fill="none" stroke="black" d="M1823.79,-236C1859.15,-225 1910.17,-209.12 1949.4,-196.92"/>
<polygon fill="black" stroke="black" points="1950.43,-200.27 1958.94,-193.95 1948.35,-193.58 1950.43,-200.27"/>
</g>
<!-- oit_bin -->
<g id="node27" class="node">
<title>oit_bin</title>
<path fill="none" stroke="black" d="M2081.12,-340C2081.12,-340 1978.88,-340 1978.88,-340 1972.88,-340 1966.88,-334 1966.88,-328 1966.88,-328 1966.88,-316 1966.88,-316 1966.88,-310 1972.88,-304 1978.88,-304 1978.88,-304 2081.12,-304 2081.12,-304 2087.12,-304 2093.12,-310 2093.12,-316 2093.12,-316 2093.12,-328 2093.12,-328 2093.12,-334 2087.12,-340 2081.12,-340"/>
<text xml:space="preserve" text-anchor="middle" x="2030" y="-316.57" font-family="Arial" font-size="14.00">src/bin/azork&#45;oit.rs</text>
</g>
<!-- oit_bin&#45;&gt;oit -->
<g id="edge62" class="edge">
<title>oit_bin&#45;&gt;oit</title>
<path fill="none" stroke="black" d="M2038.9,-303.7C2042.87,-295.98 2047.63,-286.71 2052.06,-278.11"/>
<polygon fill="black" stroke="black" points="2055.05,-279.94 2056.51,-269.45 2048.83,-276.74 2055.05,-279.94"/>
</g>
<!-- backend&#45;&gt;world -->
<g id="edge47" class="edge">
<title>backend&#45;&gt;world</title>
<path fill="none" stroke="black" d="M1890.22,-159.52C1906.3,-150.51 1926.1,-139.42 1943.36,-129.76"/>
<polygon fill="black" stroke="black" points="1944.84,-132.94 1951.86,-125 1941.42,-126.83 1944.84,-132.94"/>
</g>
<!-- backend&#45;&gt;parser -->
<g id="edge48" class="edge">
<title>backend&#45;&gt;parser</title>
<path fill="none" stroke="black" d="M1870.24,-159.54C1881.85,-141.55 1900.55,-112.72 1917,-88 1922.76,-79.35 1929.11,-69.95 1934.85,-61.5"/>
<polygon fill="black" stroke="black" points="1937.65,-63.61 1940.39,-53.38 1931.87,-59.67 1937.65,-63.61"/>
</g>
<!-- backend&#45;&gt;dungeon -->
<g id="edge49" class="edge">
<title>backend&#45;&gt;dungeon</title>
<path fill="none" stroke="black" d="M1821.54,-159.52C1801.86,-150.34 1777.55,-138.99 1756.56,-129.2"/>
<polygon fill="black" stroke="black" points="1758.16,-126.08 1747.62,-125.02 1755.2,-132.42 1758.16,-126.08"/>
</g>
<!-- backend&#45;&gt;az_runner -->
<g id="edge50" class="edge">
<title>backend&#45;&gt;az_runner</title>
<path fill="none" stroke="black" d="M1858.03,-159.85C1856.05,-140.24 1850.07,-108.23 1832,-88 1817.36,-71.61 1796.76,-60.1 1776.6,-52.1"/>
<polygon fill="black" stroke="black" points="1777.83,-48.82 1767.23,-48.64 1775.4,-55.39 1777.83,-48.82"/>
</g>
<!-- backend&#45;&gt;secrets -->
<g id="edge51" class="edge">
<title>backend&#45;&gt;secrets</title>
<path fill="none" stroke="black" d="M1844.93,-159.57C1827.71,-139.38 1796.65,-106.53 1763,-88 1738.94,-74.75 1672.25,-58.42 1622.45,-47.41"/>
<polygon fill="black" stroke="black" points="1623.46,-44.05 1612.95,-45.33 1621.97,-50.89 1623.46,-44.05"/>
</g>
<!-- world&#45;&gt;parser -->
<g id="edge60" class="edge">
<title>world&#45;&gt;parser</title>
<path fill="none" stroke="black" d="M1976.34,-87.7C1972.96,-80.07 1968.91,-70.92 1965.13,-62.4"/>
<polygon fill="black" stroke="black" points="1968.44,-61.21 1961.19,-53.49 1962.04,-64.05 1968.44,-61.21"/>
</g>
<!-- dungeon&#45;&gt;az_runner -->
<g id="edge52" class="edge">
<title>dungeon&#45;&gt;az_runner</title>
<path fill="none" stroke="black" d="M1709,-87.7C1709,-80.41 1709,-71.73 1709,-63.54"/>
<polygon fill="black" stroke="black" points="1712.5,-63.62 1709,-53.62 1705.5,-63.62 1712.5,-63.62"/>
</g>
<!-- dungeon&#45;&gt;secrets -->
<g id="edge53" class="edge">
<title>dungeon&#45;&gt;secrets</title>
<path fill="none" stroke="black" d="M1672.53,-87.52C1653.47,-78.38 1629.94,-67.09 1609.57,-57.33"/>
<polygon fill="black" stroke="black" points="1611.15,-54.2 1600.62,-53.04 1608.12,-60.52 1611.15,-54.2"/>
</g>
<!-- capabilities&#45;&gt;az_runner -->
<g id="edge54" class="edge">
<title>capabilities&#45;&gt;az_runner</title>
<path fill="none" stroke="black" d="M1544.53,-88.05C1574.62,-78.35 1612.62,-66.09 1644.51,-55.8"/>
<polygon fill="black" stroke="black" points="1645.18,-59.26 1653.63,-52.86 1643.04,-52.6 1645.18,-59.26"/>
</g>
<!-- capabilities&#45;&gt;secrets -->
<g id="edge55" class="edge">
<title>capabilities&#45;&gt;secrets</title>
<path fill="none" stroke="black" d="M1509.55,-87.7C1517.98,-79.39 1528.23,-69.28 1537.5,-60.14"/>
<polygon fill="black" stroke="black" points="1539.91,-62.68 1544.57,-53.17 1535,-57.7 1539.91,-62.68"/>
</g>
<!-- memory&#45;&gt;secrets -->
<g id="edge59" class="edge">
<title>memory&#45;&gt;secrets</title>
<path fill="none" stroke="black" d="M1555.98,-159.59C1557.33,-135.61 1559.78,-92.14 1561.4,-63.42"/>
<polygon fill="black" stroke="black" points="1564.88,-63.8 1561.95,-53.62 1557.89,-63.41 1564.88,-63.8"/>
</g>
<!-- agent&#45;&gt;capabilities -->
<g id="edge56" class="edge">
<title>agent&#45;&gt;capabilities</title>
<path fill="none" stroke="black" d="M1450.6,-159.7C1456.92,-151.64 1464.58,-141.89 1471.59,-132.98"/>
<polygon fill="black" stroke="black" points="1474.2,-135.32 1477.63,-125.29 1468.7,-131 1474.2,-135.32"/>
</g>
<!-- agent_engine&#45;&gt;capabilities -->
<g id="edge57" class="edge">
<title>agent_engine&#45;&gt;capabilities</title>
<path fill="none" stroke="black" d="M1418.59,-231.64C1408.41,-222.31 1397.44,-209.89 1392,-196 1384.87,-177.79 1381.38,-168.42 1392,-152 1400.65,-138.62 1414.33,-129.18 1428.83,-122.53"/>
<polygon fill="black" stroke="black" points="1430.15,-125.78 1438.07,-118.74 1427.49,-119.3 1430.15,-125.78"/>
</g>
<!-- agent_engine&#45;&gt;agent -->
<g id="edge58" class="edge">
<title>agent_engine&#45;&gt;agent</title>
<path fill="none" stroke="black" d="M1440.01,-231.7C1439.59,-224.41 1439.1,-215.73 1438.63,-207.54"/>
<polygon fill="black" stroke="black" points="1442.13,-207.4 1438.06,-197.62 1435.14,-207.8 1442.13,-207.4"/>
</g>
<!-- quests&#45;&gt;world -->
<g id="edge61" class="edge">
<title>quests&#45;&gt;world</title>
<path fill="none" stroke="black" d="M2001.31,-159.7C1998.86,-152.24 1995.93,-143.32 1993.19,-134.97"/>
<polygon fill="black" stroke="black" points="1996.54,-133.95 1990.09,-125.54 1989.89,-136.14 1996.54,-133.95"/>
</g>
</g>
</svg>
